<svg width="88" height="42" viewBox="0 0 88 42" fill="none" xmlns="http://www.w3.org/2000/svg">
<path d="M88 0H0V42H88V0Z" fill="white"/>
<path d="M43.8729 26H42.6019L41.5619 23.252H37.4059L36.4289 26H35.1499L38.9099 16.1973H40.0999L43.8729 26ZM41.1869 22.2197L39.6479 18.043C39.5979 17.9062 39.5479 17.6875 39.4979 17.3867H39.4709C39.4249 17.6647 39.3729 17.8835 39.3129 18.043L37.7889 22.2197H41.1869ZM44.7479 25.7471V24.5439C45.3589 24.9951 46.0309 25.2207 46.7649 25.2207C47.7489 25.2207 48.2409 24.8926 48.2409 24.2363C48.2409 24.0495 48.1979 23.8923 48.1109 23.7646C48.0289 23.6325 47.9149 23.5163 47.7699 23.416C47.6279 23.3158 47.4599 23.2269 47.2639 23.1494C47.0719 23.0674 46.8649 22.9831 46.6419 22.8965C46.3319 22.7734 46.0579 22.6504 45.8209 22.5273C45.5889 22.3997 45.3928 22.2585 45.2328 22.1035C45.0778 21.944 44.9599 21.764 44.8779 21.5635C44.7999 21.363 44.7619 21.1283 44.7619 20.8594C44.7619 20.5312 44.8369 20.2419 44.9869 19.9912C45.1379 19.736 45.3379 19.5241 45.5889 19.3555C45.8399 19.1823 46.1239 19.0524 46.4429 18.9658C46.7669 18.8792 47.0999 18.8359 47.4409 18.8359C48.0479 18.8359 48.5899 18.9408 49.0679 19.1504V20.2852C48.5529 19.9479 47.9609 19.7793 47.2909 19.7793C47.0809 19.7793 46.8919 19.8044 46.7239 19.8545C46.5549 19.9001 46.4089 19.9661 46.2859 20.0527C46.1679 20.1393 46.0739 20.2441 46.0059 20.3672C45.9419 20.4857 45.9099 20.6178 45.9099 20.7637C45.9099 20.946 45.9419 21.0986 46.0059 21.2217C46.0739 21.3447 46.1719 21.4541 46.2999 21.5498C46.4269 21.6455 46.5819 21.7321 46.7649 21.8096C46.9469 21.887 47.1539 21.9714 47.3869 22.0625C47.6969 22.181 47.9749 22.304 48.2209 22.4316C48.4669 22.5547 48.6759 22.696 48.8499 22.8555C49.0229 23.0104 49.1548 23.1904 49.2458 23.3955C49.3418 23.6006 49.3899 23.8444 49.3899 24.127C49.3899 24.4733 49.3119 24.7741 49.1569 25.0293C49.0069 25.2845 48.8039 25.4964 48.5489 25.665C48.2939 25.8337 47.9999 25.959 47.6669 26.041C47.3339 26.123 46.9858 26.1641 46.6208 26.1641C45.9008 26.1641 45.2769 26.0251 44.7479 25.7471ZM50.6949 25.7471V24.5439C51.3059 24.9951 51.9779 25.2207 52.7119 25.2207C53.6959 25.2207 54.1879 24.8926 54.1879 24.2363C54.1879 24.0495 54.1449 23.8923 54.0589 23.7646C53.9769 23.6325 53.8629 23.5163 53.7169 23.416C53.5759 23.3158 53.4069 23.2269 53.2109 23.1494C53.0199 23.0674 52.8119 22.9831 52.5889 22.8965C52.2789 22.7734 52.0059 22.6504 51.7689 22.5273C51.5359 22.3997 51.3399 22.2585 51.1809 22.1035C51.0259 21.944 50.9069 21.764 50.8249 21.5635C50.7479 21.363 50.7089 21.1283 50.7089 20.8594C50.7089 20.5312 50.7839 20.2419 50.9349 19.9912C51.0849 19.736 51.2849 19.5241 51.5359 19.3555C51.7869 19.1823 52.0719 19.0524 52.3909 18.9658C52.7139 18.8792 53.0469 18.8359 53.3889 18.8359C53.9949 18.8359 54.5369 18.9408 55.0159 19.1504V20.2852C54.5009 19.9479 53.9079 19.7793 53.2379 19.7793C53.0289 19.7793 52.8399 19.8044 52.6709 19.8545C52.5019 19.9001 52.3558 19.9661 52.2328 20.0527C52.1148 20.1393 52.0209 20.2441 51.9529 20.3672C51.8889 20.4857 51.8569 20.6178 51.8569 20.7637C51.8569 20.946 51.8889 21.0986 51.9529 21.2217C52.0209 21.3447 52.1189 21.4541 52.2469 21.5498C52.3749 21.6455 52.5299 21.7321 52.7119 21.8096C52.8939 21.887 53.1019 21.9714 53.3339 22.0625C53.6439 22.181 53.9219 22.304 54.1679 22.4316C54.4139 22.5547 54.6239 22.696 54.7969 22.8555C54.9699 23.0104 55.1019 23.1904 55.1929 23.3955C55.2889 23.6006 55.3369 23.8444 55.3369 24.127C55.3369 24.4733 55.2589 24.7741 55.1039 25.0293C54.9539 25.2845 54.7508 25.4964 54.4958 25.665C54.2408 25.8337 53.9469 25.959 53.6139 26.041C53.2819 26.123 52.9329 26.1641 52.5679 26.1641C51.8479 26.1641 51.2239 26.0251 50.6949 25.7471ZM57.6409 17.2227C57.4399 17.2227 57.2689 17.1543 57.1279 17.0176C56.9869 16.8809 56.9159 16.7077 56.9159 16.498C56.9159 16.2884 56.9869 16.1152 57.1279 15.9785C57.2689 15.8372 57.4399 15.7666 57.6409 15.7666C57.8459 15.7666 58.0189 15.8372 58.1599 15.9785C58.3059 16.1152 58.3789 16.2884 58.3789 16.498C58.3789 16.6986 58.3059 16.8695 58.1599 17.0107C58.0189 17.152 57.8459 17.2227 57.6409 17.2227ZM58.1879 26H57.0659V19H58.1879V26ZM66.4319 25.4395C66.4319 28.0098 65.2009 29.2949 62.7399 29.2949C61.8739 29.2949 61.1179 29.1309 60.4709 28.8027V27.6816C61.2589 28.1191 62.0109 28.3379 62.7269 28.3379C64.4489 28.3379 65.3109 27.4219 65.3109 25.5898V24.8242H65.2829C64.7499 25.7174 63.9479 26.1641 62.8769 26.1641C62.0069 26.1641 61.3049 25.8542 60.7709 25.2344C60.2429 24.61 59.9789 23.7738 59.9789 22.7256C59.9789 21.5361 60.2629 20.5905 60.8329 19.8887C61.4069 19.1868 62.1909 18.8359 63.1849 18.8359C64.1279 18.8359 64.8269 19.2142 65.2829 19.9707H65.3109V19H66.4319V25.4395ZM65.3109 22.835V21.8027C65.3109 21.2467 65.1209 20.7705 64.7429 20.374C64.3689 19.9775 63.9019 19.7793 63.3419 19.7793C62.6489 19.7793 62.1069 20.0322 61.7149 20.5381C61.3229 21.0394 61.1269 21.7435 61.1269 22.6504C61.1269 23.4297 61.3139 24.054 61.6879 24.5234C62.0659 24.9883 62.5649 25.2207 63.1849 25.2207C63.8129 25.2207 64.3239 24.9974 64.7159 24.5508C65.1119 24.1042 65.3109 23.5322 65.3109 22.835ZM74.5119 26H73.3909V22.0078C73.3909 20.5221 72.8479 19.7793 71.7639 19.7793C71.2029 19.7793 70.7379 19.9912 70.3689 20.415C70.0049 20.8343 69.8219 21.3652 69.8219 22.0078V26H68.7009V19H69.8219V20.1621H69.8499C70.3779 19.278 71.1439 18.8359 72.1459 18.8359C72.9119 18.8359 73.4979 19.0843 73.9029 19.5811C74.3089 20.0732 74.5119 20.7865 74.5119 21.7207V26Z" fill="#333333"/>
<path d="M13 26C13 23.2386 15.239 21 18 21C20.05 21 21.812 22.2341 22.584 24H20V26H13Z" fill="white"/>
<path d="M18 20C19.6569 20 21 18.6569 21 17C21 15.3431 19.6569 14 18 14C16.3431 14 15 15.3431 15 17C15 18.6569 16.3431 20 18 20Z" fill="white"/>
<path d="M25.102 28.3516L27.953 25.5L25.102 22.6484L24.398 23.3516L26.047 25H21V26H26.047L24.398 27.6484L25.102 28.3516Z" fill="#075FB1"/>
<path fill-rule="evenodd" clip-rule="evenodd" d="M22.555 23.9531C22.352 23.5052 22.091 23.1016 21.773 22.7422C21.461 22.3776 21.107 22.0677 20.711 21.8125C20.315 21.5521 19.885 21.3516 19.422 21.2109C18.965 21.0706 18.492 21.0003 18.003 21H17.997C17.508 21.0003 17.035 21.0706 16.578 21.2109C16.115 21.3516 15.685 21.5521 15.289 21.8125C14.893 22.0677 14.539 22.3776 14.227 22.7422C13.909 23.1016 13.648 23.5052 13.445 23.9531L13.439 23.9502C13.336 24.1809 13.25 24.4215 13.18 24.6719C13.06 25.099 13 25.5417 13 26H12C12 25.3906 12.091 24.7943 12.273 24.2109C12.461 23.6276 12.724 23.0885 13.062 22.5938C13.406 22.0938 13.815 21.6536 14.289 21.2734C14.768 20.888 15.297 20.5938 15.875 20.3906C15.583 20.2031 15.32 19.987 15.086 19.7422C14.962 19.6096 14.848 19.47 14.743 19.3237C14.655 19.2024 14.574 19.0765 14.5 18.9453C14.167 18.362 14 17.7135 14 17C14 16.4479 14.104 15.9297 14.312 15.4453C14.521 14.9557 14.805 14.5312 15.164 14.1719C15.529 13.8073 15.953 13.5208 16.438 13.3125C16.671 13.2131 16.912 13.1374 17.159 13.0855C17.431 13.0285 17.711 13 18 13C18.276 13 18.544 13.026 18.803 13.0781C19.064 13.1302 19.317 13.2081 19.562 13.3125C20.047 13.5208 20.471 13.8073 20.836 14.1719C21.195 14.5312 21.479 14.9557 21.688 15.4453C21.896 15.9297 22 16.4479 22 17C22 17.7135 21.833 18.362 21.5 18.9453C21.426 19.0765 21.344 19.2026 21.257 19.3239C21.152 19.4702 21.038 19.6096 20.914 19.7422C20.68 19.987 20.417 20.2031 20.125 20.3906C20.703 20.5938 21.232 20.888 21.711 21.2734C22.185 21.6536 22.594 22.0938 22.938 22.5938C23.235 23.0283 23.474 23.4971 23.655 24H22.583C22.576 23.9833 22.569 23.9668 22.561 23.9502L22.555 23.9531ZM15 17C15 17.4167 15.078 17.8073 15.234 18.1719C15.391 18.5312 15.607 18.849 15.883 19.125C16.154 19.3958 16.471 19.6094 16.836 19.7656C17.2 19.9216 17.587 19.9997 17.998 20H18.003C18.414 19.9996 18.8 19.9215 19.164 19.7656C19.529 19.6094 19.846 19.3958 20.117 19.125C20.393 18.849 20.609 18.5312 20.766 18.1719C20.922 17.8073 21 17.4167 21 17C21 16.5885 20.922 16.2005 20.766 15.8359C20.609 15.4714 20.393 15.1536 20.117 14.8828C19.846 14.6068 19.529 14.3906 19.164 14.2344C18.8 14.0784 18.413 14.0003 18.002 14H17.997C17.586 14.0004 17.2 14.0785 16.836 14.2344C16.471 14.3906 16.154 14.6068 15.883 14.8828C15.607 15.1536 15.391 15.4714 15.234 15.8359C15.078 16.2005 15 16.5885 15 17Z" fill="#333333"/>
</svg>
