<svg width="133" height="42" viewBox="0 0 133 42" fill="none" xmlns="http://www.w3.org/2000/svg">
<path d="M23 21V27.5L20 26L17 27.5V21H23Z" fill="white"/>
<path d="M20 22C22.2091 22 24 20.2091 24 18C24 15.7909 22.2091 14 20 14C17.7909 14 16 15.7909 16 18C16 20.2091 17.7909 22 20 22Z" fill="white"/>
<path d="M20 20C21.1046 20 22 19.1046 22 18C22 16.8954 21.1046 16 20 16C18.8954 16 18 16.8954 18 18C18 19.1046 18.8954 20 20 20Z" fill="#85BEEC"/>
<path d="M133 0H0V42H133V0Z" fill="white"/>
<path d="M42.9571 25.5898C42.2321 25.9727 41.3301 26.1641 40.2501 26.1641C38.8551 26.1641 37.7391 25.7152 36.9001 24.8174C36.0621 23.9196 35.6431 22.7415 35.6431 21.2832C35.6431 19.7155 36.1141 18.4486 37.0581 17.4824C38.0011 16.5163 39.1971 16.0332 40.6461 16.0332C41.5761 16.0332 42.3461 16.1676 42.9571 16.4365V17.6602C42.2551 17.2682 41.4801 17.0723 40.6331 17.0723C39.5071 17.0723 38.5931 17.4482 37.8921 18.2002C37.1941 18.9521 36.8461 19.957 36.8461 21.2148C36.8461 22.4089 37.1721 23.3613 37.8231 24.0723C38.4791 24.7786 39.3391 25.1318 40.4001 25.1318C41.3851 25.1318 42.2371 24.9131 42.9571 24.4756V25.5898ZM45.9241 26H44.8031V15.6367H45.9241V26ZM51.119 26.1641C50.085 26.1641 49.2571 25.8382 48.6381 25.1865C48.0221 24.5303 47.7151 23.6621 47.7151 22.582C47.7151 21.4062 48.036 20.488 48.679 19.8271C49.321 19.1663 50.1891 18.8359 51.2831 18.8359C52.3271 18.8359 53.1401 19.1572 53.7241 19.7998C54.3121 20.4424 54.6051 21.3333 54.6051 22.4727C54.6051 23.5892 54.2891 24.4847 53.6551 25.1592C53.0261 25.8291 52.181 26.1641 51.119 26.1641ZM51.201 19.7793C50.481 19.7793 49.9111 20.0254 49.4921 20.5176C49.0731 21.0052 48.8631 21.6797 48.8631 22.541C48.8631 23.3704 49.0751 24.0244 49.4991 24.5029C49.9231 24.9814 50.49 25.2207 51.201 25.2207C51.926 25.2207 52.482 24.986 52.869 24.5166C53.261 24.0472 53.4571 23.3796 53.4571 22.5137C53.4571 21.6387 53.261 20.9642 52.869 20.4902C52.482 20.0163 51.926 19.7793 51.201 19.7793ZM55.9731 25.7471V24.5439C56.5831 24.9951 57.2561 25.2207 57.9891 25.2207C58.9741 25.2207 59.4661 24.8926 59.4661 24.2363C59.4661 24.0495 59.4231 23.8923 59.3361 23.7646C59.2541 23.6325 59.14 23.5163 58.994 23.416C58.853 23.3158 58.6841 23.2269 58.4881 23.1494C58.2971 23.0674 58.0901 22.9831 57.8661 22.8965C57.5561 22.7734 57.2831 22.6504 57.0461 22.5273C56.8131 22.3997 56.6181 22.2585 56.4581 22.1035C56.3031 21.944 56.1851 21.764 56.1031 21.5635C56.0251 21.363 55.9861 21.1283 55.9861 20.8594C55.9861 20.5312 56.0621 20.2419 56.2121 19.9912C56.3621 19.736 56.563 19.5241 56.813 19.3555C57.064 19.1823 57.3491 19.0524 57.6681 18.9658C57.9921 18.8792 58.324 18.8359 58.666 18.8359C59.272 18.8359 59.8141 18.9408 60.2931 19.1504V20.2852C59.7781 19.9479 59.1861 19.7793 58.5161 19.7793C58.3061 19.7793 58.1171 19.8044 57.9481 19.8545C57.7801 19.9001 57.634 19.9661 57.511 20.0527C57.392 20.1393 57.2991 20.2441 57.2301 20.3672C57.1671 20.4857 57.1351 20.6178 57.1351 20.7637C57.1351 20.946 57.1671 21.0986 57.2301 21.2217C57.2991 21.3447 57.397 21.4541 57.524 21.5498C57.652 21.6455 57.8071 21.7321 57.9891 21.8096C58.1721 21.887 58.3791 21.9714 58.6111 22.0625C58.9211 22.181 59.1991 22.304 59.4451 22.4316C59.6911 22.5547 59.9011 22.696 60.0741 22.8555C60.2471 23.0104 60.3801 23.1904 60.4711 23.3955C60.5661 23.6006 60.6141 23.8444 60.6141 24.127C60.6141 24.4733 60.537 24.7741 60.382 25.0293C60.231 25.2845 60.0291 25.4964 59.7731 25.665C59.5181 25.8337 59.2241 25.959 58.8921 26.041C58.5591 26.123 58.2101 26.1641 57.8461 26.1641C57.1261 26.1641 56.5011 26.0251 55.9731 25.7471ZM67.9701 22.7803H63.0271C63.0461 23.5596 63.2551 24.1611 63.6561 24.585C64.0571 25.0088 64.6091 25.2207 65.3111 25.2207C66.0991 25.2207 66.8241 24.9609 67.4841 24.4414V25.4941C66.8691 25.9408 66.0561 26.1641 65.0441 26.1641C64.0551 26.1641 63.2781 25.8473 62.7131 25.2139C62.1481 24.5758 61.8651 23.6803 61.8651 22.5273C61.8651 21.4382 62.1731 20.5518 62.7881 19.8682C63.4081 19.18 64.1761 18.8359 65.0921 18.8359C66.0081 18.8359 66.716 19.1322 67.218 19.7246C67.719 20.3171 67.9701 21.1396 67.9701 22.1924V22.7803ZM66.8211 21.8301C66.8171 21.1829 66.6601 20.6794 66.3501 20.3193C66.0441 19.9593 65.6181 19.7793 65.0711 19.7793C64.5431 19.7793 64.0941 19.9684 63.7251 20.3467C63.3551 20.7249 63.128 21.2194 63.041 21.8301H66.8211ZM78.524 26H77.4031V24.9062H77.3761C76.8881 25.7448 76.1711 26.1641 75.2231 26.1641C74.5251 26.1641 73.9791 25.9795 73.5821 25.6104C73.1901 25.2412 72.994 24.7513 72.994 24.1406C72.994 22.8327 73.7641 22.0716 75.3051 21.8574L77.4031 21.5635C77.4031 20.374 76.9231 19.7793 75.9611 19.7793C75.1181 19.7793 74.3571 20.0664 73.6781 20.6406V19.4922C74.3661 19.0547 75.1591 18.8359 76.0571 18.8359C77.7021 18.8359 78.524 19.7064 78.524 21.4473V26ZM77.4031 22.459L75.7151 22.6914C75.1951 22.7643 74.8031 22.8942 74.5391 23.0811C74.2751 23.2633 74.1431 23.5892 74.1431 24.0586C74.1431 24.4004 74.2631 24.6807 74.5051 24.8994C74.7511 25.1136 75.0771 25.2207 75.4821 25.2207C76.0381 25.2207 76.496 25.027 76.856 24.6396C77.221 24.2477 77.4031 23.7533 77.4031 23.1562V22.459ZM80.2131 25.7471V24.5439C80.8241 24.9951 81.4961 25.2207 82.2291 25.2207C83.2141 25.2207 83.7061 24.8926 83.7061 24.2363C83.7061 24.0495 83.663 23.8923 83.576 23.7646C83.494 23.6325 83.3801 23.5163 83.2341 23.416C83.0931 23.3158 82.9241 23.2269 82.7291 23.1494C82.5371 23.0674 82.33 22.9831 82.106 22.8965C81.797 22.7734 81.5231 22.6504 81.2861 22.5273C81.0541 22.3997 80.8581 22.2585 80.6981 22.1035C80.5431 21.944 80.425 21.764 80.343 21.5635C80.265 21.363 80.2271 21.1283 80.2271 20.8594C80.2271 20.5312 80.3021 20.2419 80.4521 19.9912C80.6031 19.736 80.803 19.5241 81.054 19.3555C81.304 19.1823 81.5891 19.0524 81.9081 18.9658C82.2321 18.8792 82.5641 18.8359 82.9061 18.8359C83.5121 18.8359 84.0551 18.9408 84.5331 19.1504V20.2852C84.0181 19.9479 83.4261 19.7793 82.7561 19.7793C82.5461 19.7793 82.357 19.8044 82.188 19.8545C82.02 19.9001 81.8741 19.9661 81.7511 20.0527C81.6321 20.1393 81.5391 20.2441 81.4711 20.3672C81.4071 20.4857 81.3751 20.6178 81.3751 20.7637C81.3751 20.946 81.4071 21.0986 81.4711 21.2217C81.5391 21.3447 81.6371 21.4541 81.7651 21.5498C81.8921 21.6455 82.0471 21.7321 82.2291 21.8096C82.4121 21.887 82.6191 21.9714 82.8521 22.0625C83.1611 22.181 83.4391 22.304 83.6861 22.4316C83.9321 22.5547 84.1411 22.696 84.3141 22.8555C84.4881 23.0104 84.6201 23.1904 84.7111 23.3955C84.8071 23.6006 84.8541 23.8444 84.8541 24.127C84.8541 24.4733 84.7771 24.7741 84.6221 25.0293C84.4721 25.2845 84.2691 25.4964 84.0141 25.665C83.7581 25.8337 83.465 25.959 83.132 26.041C82.799 26.123 82.4511 26.1641 82.0861 26.1641C81.3661 26.1641 80.7421 26.0251 80.2131 25.7471ZM102.197 16.1973L99.429 26H98.0821L96.0651 18.8359C95.9791 18.5306 95.9261 18.1979 95.9081 17.8379H95.8811C95.8541 18.1751 95.7941 18.5033 95.7031 18.8223L93.6731 26H92.3401L89.4691 16.1973H90.7331L92.8181 23.7168C92.9051 24.0312 92.9601 24.3594 92.9821 24.7012H93.0171C93.0391 24.4596 93.1101 24.1315 93.2291 23.7168L95.3961 16.1973H96.4961L98.5741 23.7715C98.6471 24.0312 98.7021 24.3366 98.7381 24.6875H98.7661C98.7841 24.4505 98.8451 24.1361 98.9501 23.7441L100.953 16.1973H102.197ZM105.889 26.1641C104.854 26.1641 104.027 25.8382 103.407 25.1865C102.792 24.5303 102.484 23.6621 102.484 22.582C102.484 21.4062 102.806 20.488 103.448 19.8271C104.091 19.1663 104.959 18.8359 106.053 18.8359C107.096 18.8359 107.91 19.1572 108.493 19.7998C109.081 20.4424 109.375 21.3333 109.375 22.4727C109.375 23.5892 109.058 24.4847 108.425 25.1592C107.796 25.8291 106.951 26.1641 105.889 26.1641ZM105.971 19.7793C105.251 19.7793 104.681 20.0254 104.262 20.5176C103.842 21.0052 103.633 21.6797 103.633 22.541C103.633 23.3704 103.845 24.0244 104.269 24.5029C104.692 24.9814 105.26 25.2207 105.971 25.2207C106.695 25.2207 107.251 24.986 107.639 24.5166C108.031 24.0472 108.227 23.3796 108.227 22.5137C108.227 21.6387 108.031 20.9642 107.639 20.4902C107.251 20.0163 106.695 19.7793 105.971 19.7793ZM116.977 26H115.855V22.0078C115.855 20.5221 115.313 19.7793 114.229 19.7793C113.668 19.7793 113.203 19.9912 112.834 20.415C112.469 20.8343 112.287 21.3652 112.287 22.0078V26H111.166V19H112.287V20.1621H112.314C112.843 19.278 113.609 18.8359 114.611 18.8359C115.377 18.8359 115.963 19.0843 116.368 19.5811C116.774 20.0732 116.977 20.7865 116.977 21.7207V26Z" fill="#333333"/>
<path fill-rule="evenodd" clip-rule="evenodd" d="M24 21V29L20 27L16 29V21C15.372 20.1641 15 19.126 15 18C15 15.2383 17.239 13 20 13C22.761 13 25 15.2383 25 18C25 19.126 24.628 20.1641 24 21ZM23 22.0005C22.165 22.6284 21.125 23 20 23C18.875 23 17.835 22.6284 17 22.0005V27.5L20 26L23 27.5V22.0005ZM24 18C24 20.209 22.209 22 20 22C17.791 22 16 20.209 16 18C16 15.791 17.791 14 20 14C22.209 14 24 15.791 24 18Z" fill="#333333"/>
<path fill-rule="evenodd" clip-rule="evenodd" d="M20 21C21.657 21 23 19.6572 23 18C23 16.3428 21.657 15 20 15C18.343 15 17 16.3428 17 18C17 19.6572 18.343 21 20 21ZM20 20C21.104 20 22 19.1045 22 18C22 16.8955 21.104 16 20 16C18.896 16 18 16.8955 18 18C18 19.1045 18.896 20 20 20Z" fill="#075FB1"/>
</svg>
