<svg width="127" height="42" viewBox="0 0 127 42" fill="none" xmlns="http://www.w3.org/2000/svg">
<path d="M127 0H0V42H127V0Z" fill="white"/>
<path d="M42.9571 25.5898C42.2321 25.9727 41.3301 26.1641 40.2501 26.1641C38.8551 26.1641 37.7391 25.7152 36.9001 24.8174C36.0621 23.9196 35.6431 22.7415 35.6431 21.2832C35.6431 19.7155 36.1141 18.4486 37.0581 17.4824C38.0011 16.5163 39.1971 16.0332 40.6461 16.0332C41.5761 16.0332 42.3461 16.1676 42.9571 16.4365V17.6602C42.2551 17.2682 41.4801 17.0723 40.6331 17.0723C39.5071 17.0723 38.5931 17.4482 37.8921 18.2002C37.1941 18.9521 36.8461 19.957 36.8461 21.2148C36.8461 22.4089 37.1721 23.3613 37.8231 24.0723C38.4791 24.7786 39.3391 25.1318 40.4001 25.1318C41.3851 25.1318 42.2371 24.9131 42.9571 24.4756V25.5898ZM45.9241 26H44.8031V15.6367H45.9241V26ZM51.119 26.1641C50.085 26.1641 49.2571 25.8382 48.6381 25.1865C48.0221 24.5303 47.7151 23.6621 47.7151 22.582C47.7151 21.4062 48.036 20.488 48.679 19.8271C49.321 19.1663 50.1891 18.8359 51.2831 18.8359C52.3271 18.8359 53.1401 19.1572 53.7241 19.7998C54.3121 20.4424 54.6051 21.3333 54.6051 22.4727C54.6051 23.5892 54.2891 24.4847 53.6551 25.1592C53.0261 25.8291 52.181 26.1641 51.119 26.1641ZM51.201 19.7793C50.481 19.7793 49.9111 20.0254 49.4921 20.5176C49.0731 21.0052 48.8631 21.6797 48.8631 22.541C48.8631 23.3704 49.0751 24.0244 49.4991 24.5029C49.9231 24.9814 50.49 25.2207 51.201 25.2207C51.926 25.2207 52.482 24.986 52.869 24.5166C53.261 24.0472 53.4571 23.3796 53.4571 22.5137C53.4571 21.6387 53.261 20.9642 52.869 20.4902C52.482 20.0163 51.926 19.7793 51.201 19.7793ZM55.9731 25.7471V24.5439C56.5831 24.9951 57.2561 25.2207 57.9891 25.2207C58.9741 25.2207 59.4661 24.8926 59.4661 24.2363C59.4661 24.0495 59.4231 23.8923 59.3361 23.7646C59.2541 23.6325 59.14 23.5163 58.994 23.416C58.853 23.3158 58.6841 23.2269 58.4881 23.1494C58.2971 23.0674 58.0901 22.9831 57.8661 22.8965C57.5561 22.7734 57.2831 22.6504 57.0461 22.5273C56.8131 22.3997 56.6181 22.2585 56.4581 22.1035C56.3031 21.944 56.1851 21.764 56.1031 21.5635C56.0251 21.363 55.9861 21.1283 55.9861 20.8594C55.9861 20.5312 56.0621 20.2419 56.2121 19.9912C56.3621 19.736 56.563 19.5241 56.813 19.3555C57.064 19.1823 57.3491 19.0524 57.6681 18.9658C57.9921 18.8792 58.324 18.8359 58.666 18.8359C59.272 18.8359 59.8141 18.9408 60.2931 19.1504V20.2852C59.7781 19.9479 59.1861 19.7793 58.5161 19.7793C58.3061 19.7793 58.1171 19.8044 57.9481 19.8545C57.7801 19.9001 57.634 19.9661 57.511 20.0527C57.392 20.1393 57.2991 20.2441 57.2301 20.3672C57.1671 20.4857 57.1351 20.6178 57.1351 20.7637C57.1351 20.946 57.1671 21.0986 57.2301 21.2217C57.2991 21.3447 57.397 21.4541 57.524 21.5498C57.652 21.6455 57.8071 21.7321 57.9891 21.8096C58.1721 21.887 58.3791 21.9714 58.6111 22.0625C58.9211 22.181 59.1991 22.304 59.4451 22.4316C59.6911 22.5547 59.9011 22.696 60.0741 22.8555C60.2471 23.0104 60.3801 23.1904 60.4711 23.3955C60.5661 23.6006 60.6141 23.8444 60.6141 24.127C60.6141 24.4733 60.537 24.7741 60.382 25.0293C60.231 25.2845 60.0291 25.4964 59.7731 25.665C59.5181 25.8337 59.2241 25.959 58.8921 26.041C58.5591 26.123 58.2101 26.1641 57.8461 26.1641C57.1261 26.1641 56.5011 26.0251 55.9731 25.7471ZM67.9701 22.7803H63.0271C63.0461 23.5596 63.2551 24.1611 63.6561 24.585C64.0571 25.0088 64.6091 25.2207 65.3111 25.2207C66.0991 25.2207 66.8241 24.9609 67.4841 24.4414V25.4941C66.8691 25.9408 66.0561 26.1641 65.0441 26.1641C64.0551 26.1641 63.2781 25.8473 62.7131 25.2139C62.1481 24.5758 61.8651 23.6803 61.8651 22.5273C61.8651 21.4382 62.1731 20.5518 62.7881 19.8682C63.4081 19.18 64.1761 18.8359 65.0921 18.8359C66.0081 18.8359 66.716 19.1322 67.218 19.7246C67.719 20.3171 67.9701 21.1396 67.9701 22.1924V22.7803ZM66.8211 21.8301C66.8171 21.1829 66.6601 20.6794 66.3501 20.3193C66.0441 19.9593 65.6181 19.7793 65.0711 19.7793C64.5431 19.7793 64.0941 19.9684 63.7251 20.3467C63.3551 20.7249 63.128 21.2194 63.041 21.8301H66.8211ZM78.524 26H77.4031V24.9062H77.3761C76.8881 25.7448 76.1711 26.1641 75.2231 26.1641C74.5251 26.1641 73.9791 25.9795 73.5821 25.6104C73.1901 25.2412 72.994 24.7513 72.994 24.1406C72.994 22.8327 73.7641 22.0716 75.3051 21.8574L77.4031 21.5635C77.4031 20.374 76.9231 19.7793 75.9611 19.7793C75.1181 19.7793 74.3571 20.0664 73.6781 20.6406V19.4922C74.3661 19.0547 75.1591 18.8359 76.0571 18.8359C77.7021 18.8359 78.524 19.7064 78.524 21.4473V26ZM77.4031 22.459L75.7151 22.6914C75.1951 22.7643 74.8031 22.8942 74.5391 23.0811C74.2751 23.2633 74.1431 23.5892 74.1431 24.0586C74.1431 24.4004 74.2631 24.6807 74.5051 24.8994C74.7511 25.1136 75.0771 25.2207 75.4821 25.2207C76.0381 25.2207 76.496 25.027 76.856 24.6396C77.221 24.2477 77.4031 23.7533 77.4031 23.1562V22.459ZM80.2131 25.7471V24.5439C80.8241 24.9951 81.4961 25.2207 82.2291 25.2207C83.2141 25.2207 83.7061 24.8926 83.7061 24.2363C83.7061 24.0495 83.663 23.8923 83.576 23.7646C83.494 23.6325 83.3801 23.5163 83.2341 23.416C83.0931 23.3158 82.9241 23.2269 82.7291 23.1494C82.5371 23.0674 82.33 22.9831 82.106 22.8965C81.797 22.7734 81.5231 22.6504 81.2861 22.5273C81.0541 22.3997 80.8581 22.2585 80.6981 22.1035C80.5431 21.944 80.425 21.764 80.343 21.5635C80.265 21.363 80.2271 21.1283 80.2271 20.8594C80.2271 20.5312 80.3021 20.2419 80.4521 19.9912C80.6031 19.736 80.803 19.5241 81.054 19.3555C81.304 19.1823 81.5891 19.0524 81.9081 18.9658C82.2321 18.8792 82.5641 18.8359 82.9061 18.8359C83.5121 18.8359 84.0551 18.9408 84.5331 19.1504V20.2852C84.0181 19.9479 83.4261 19.7793 82.7561 19.7793C82.5461 19.7793 82.357 19.8044 82.188 19.8545C82.02 19.9001 81.8741 19.9661 81.7511 20.0527C81.6321 20.1393 81.5391 20.2441 81.4711 20.3672C81.4071 20.4857 81.3751 20.6178 81.3751 20.7637C81.3751 20.946 81.4071 21.0986 81.4711 21.2217C81.5391 21.3447 81.6371 21.4541 81.7651 21.5498C81.8921 21.6455 82.0471 21.7321 82.2291 21.8096C82.4121 21.887 82.6191 21.9714 82.8521 22.0625C83.1611 22.181 83.4391 22.304 83.6861 22.4316C83.9321 22.5547 84.1411 22.696 84.3141 22.8555C84.4881 23.0104 84.6201 23.1904 84.7111 23.3955C84.8071 23.6006 84.8541 23.8444 84.8541 24.127C84.8541 24.4733 84.7771 24.7741 84.6221 25.0293C84.4721 25.2845 84.2691 25.4964 84.0141 25.665C83.7581 25.8337 83.465 25.959 83.132 26.041C82.799 26.123 82.4511 26.1641 82.0861 26.1641C81.3661 26.1641 80.7421 26.0251 80.2131 25.7471ZM95.662 26H90.576V16.1973H91.7251V24.9609H95.662V26ZM99.9411 26.1641C98.9071 26.1641 98.0801 25.8382 97.4601 25.1865C96.8451 24.5303 96.537 23.6621 96.537 22.582C96.537 21.4062 96.8581 20.488 97.5011 19.8271C98.1441 19.1663 99.0121 18.8359 100.105 18.8359C101.149 18.8359 101.963 19.1572 102.546 19.7998C103.134 20.4424 103.428 21.3333 103.428 22.4727C103.428 23.5892 103.111 24.4847 102.478 25.1592C101.849 25.8291 101.003 26.1641 99.9411 26.1641ZM100.023 19.7793C99.3031 19.7793 98.7341 20.0254 98.3141 20.5176C97.8951 21.0052 97.6861 21.6797 97.6861 22.541C97.6861 23.3704 97.8971 24.0244 98.3211 24.5029C98.7451 24.9814 99.3121 25.2207 100.023 25.2207C100.748 25.2207 101.304 24.986 101.691 24.5166C102.083 24.0472 102.279 23.3796 102.279 22.5137C102.279 21.6387 102.083 20.9642 101.691 20.4902C101.304 20.0163 100.748 19.7793 100.023 19.7793ZM104.795 25.7471V24.5439C105.406 24.9951 106.078 25.2207 106.812 25.2207C107.796 25.2207 108.288 24.8926 108.288 24.2363C108.288 24.0495 108.245 23.8923 108.158 23.7646C108.076 23.6325 107.962 23.5163 107.816 23.416C107.675 23.3158 107.507 23.2269 107.311 23.1494C107.119 23.0674 106.912 22.9831 106.688 22.8965C106.379 22.7734 106.105 22.6504 105.868 22.5273C105.636 22.3997 105.44 22.2585 105.28 22.1035C105.125 21.944 105.007 21.764 104.925 21.5635C104.847 21.363 104.809 21.1283 104.809 20.8594C104.809 20.5312 104.884 20.2419 105.034 19.9912C105.185 19.736 105.385 19.5241 105.636 19.3555C105.886 19.1823 106.171 19.0524 106.49 18.9658C106.814 18.8792 107.146 18.8359 107.488 18.8359C108.094 18.8359 108.637 18.9408 109.115 19.1504V20.2852C108.6 19.9479 108.008 19.7793 107.338 19.7793C107.128 19.7793 106.939 19.8044 106.771 19.8545C106.602 19.9001 106.456 19.9661 106.333 20.0527C106.215 20.1393 106.121 20.2441 106.053 20.3672C105.989 20.4857 105.957 20.6178 105.957 20.7637C105.957 20.946 105.989 21.0986 106.053 21.2217C106.121 21.3447 106.219 21.4541 106.347 21.5498C106.474 21.6455 106.629 21.7321 106.812 21.8096C106.994 21.887 107.201 21.9714 107.434 22.0625C107.743 22.181 108.021 22.304 108.268 22.4316C108.514 22.5547 108.723 22.696 108.896 22.8555C109.07 23.0104 109.202 23.1904 109.293 23.3955C109.389 23.6006 109.437 23.8444 109.437 24.127C109.437 24.4733 109.359 24.7741 109.204 25.0293C109.054 25.2845 108.851 25.4964 108.596 25.665C108.34 25.8337 108.047 25.959 107.714 26.041C107.381 26.123 107.033 26.1641 106.668 26.1641C105.948 26.1641 105.324 26.0251 104.795 25.7471ZM114.413 25.9316C114.149 26.0775 113.8 26.1504 113.367 26.1504C112.141 26.1504 111.528 25.4668 111.528 24.0996V19.957H110.325V19H111.528V17.291L112.649 16.9287V19H114.413V19.957H112.649V23.9014C112.649 24.3708 112.729 24.7057 112.889 24.9062C113.048 25.1068 113.312 25.207 113.682 25.207C113.964 25.207 114.208 25.1296 114.413 24.9746V25.9316Z" fill="#333333"/>
<path d="M20 13C20.734 13 21.44 13.0964 22.117 13.2891C22.799 13.4766 23.438 13.7448 24.031 14.0938C24.625 14.4427 25.164 14.862 25.648 15.3516C26.138 15.8359 26.557 16.375 26.906 16.9688C27.255 17.5625 27.523 18.2005 27.711 18.8828C27.904 19.5599 28 20.2656 28 21C28 21.7344 27.904 22.4427 27.711 23.125C27.523 23.8021 27.255 24.4375 26.906 25.0312C26.557 25.625 26.138 26.1667 25.648 26.6562C25.164 27.1406 24.625 27.5573 24.031 27.9062C23.438 28.2552 22.799 28.526 22.117 28.7188C21.44 28.9062 20.734 29 20 29C19.266 29 18.557 28.9062 17.875 28.7188C17.198 28.526 16.562 28.2552 15.969 27.9062C15.375 27.5573 14.833 27.1406 14.344 26.6562C13.859 26.1667 13.443 25.625 13.094 25.0312C12.745 24.4375 12.474 23.8021 12.281 23.125C12.094 22.4427 12 21.7344 12 21C12 20.2656 12.094 19.5599 12.281 18.8828C12.474 18.2005 12.745 17.5625 13.094 16.9688C13.443 16.375 13.859 15.8359 14.344 15.3516C14.833 14.862 15.375 14.4427 15.969 14.0938C16.562 13.7448 17.198 13.4766 17.875 13.2891C18.557 13.0964 19.266 13 20 13ZM20 28C20.854 28 21.669 27.8542 22.445 27.5625C23.227 27.2708 23.94 26.8464 24.586 26.2891L14.711 16.4141C14.154 17.0599 13.729 17.7734 13.438 18.5547C13.146 19.3307 13 20.1458 13 21C13 21.6458 13.083 22.2682 13.25 22.8672C13.417 23.4609 13.651 24.0182 13.953 24.5391C14.26 25.0547 14.625 25.526 15.047 25.9531C15.474 26.375 15.945 26.7396 16.461 27.0469C16.982 27.349 17.539 27.5833 18.133 27.75C18.732 27.9167 19.354 28 20 28ZM25.289 25.5859C25.846 24.9401 26.271 24.2292 26.562 23.4531C26.854 22.6719 27 21.8542 27 21C27 20.3542 26.917 19.7344 26.75 19.1406C26.583 18.5417 26.346 17.9844 26.039 17.4688C25.737 16.9479 25.372 16.4766 24.945 16.0547C24.523 15.6276 24.052 15.263 23.531 14.9609C23.016 14.6536 22.458 14.4167 21.859 14.25C21.266 14.0833 20.646 14 20 14C19.146 14 18.328 14.1458 17.547 14.4375C16.771 14.7292 16.06 15.1536 15.414 15.7109L25.289 25.5859Z" fill="#EC4E4F"/>
</svg>
