<svg width="86" height="42" viewBox="0 0 86 42" fill="none" xmlns="http://www.w3.org/2000/svg">
<path d="M86 0H0V42H86V0Z" fill="white"/>
<path d="M24 16H15V27.5C15 27.6354 15.0495 27.7526 15.1484 27.8516C15.2474 27.9505 15.3646 28 15.5 28H23.5C23.6354 28 23.7526 27.9505 23.8516 27.8516C23.9505 27.7526 24 27.6354 24 27.5V16ZM18 26H17V18H18V26ZM20 26H19V18H20V26ZM22 26H21V18H22V26Z" fill="white"/>
<path d="M26 16H25V27.5C25 27.7083 24.9609 27.9036 24.8828 28.0859C24.8047 28.2682 24.6979 28.4271 24.5625 28.5625C24.4271 28.6979 24.2682 28.8047 24.0859 28.8828C23.9036 28.9609 23.7083 29 23.5 29H15.5C15.2917 29 15.0964 28.9609 14.9141 28.8828C14.7318 28.8047 14.5729 28.6979 14.4375 28.5625C14.3021 28.4271 14.1953 28.2682 14.1172 28.0859C14.0391 27.9036 14 27.7083 14 27.5V16H13V15H17V14C17 13.8594 17.026 13.7292 17.0781 13.6094C17.1302 13.4896 17.2005 13.3854 17.2891 13.2969C17.3828 13.2031 17.4896 13.1302 17.6094 13.0781C17.7292 13.026 17.8594 13 18 13H21C21.1406 13 21.2708 13.026 21.3906 13.0781C21.5104 13.1302 21.6146 13.2031 21.7031 13.2969C21.7969 13.3854 21.8698 13.4896 21.9219 13.6094C21.974 13.7292 22 13.8594 22 14V15H26V16ZM18 15H21V14H18V15ZM24 16H15V27.5C15 27.6354 15.0495 27.7526 15.1484 27.8516C15.2474 27.9505 15.3646 28 15.5 28H23.5C23.6354 28 23.7526 27.9505 23.8516 27.8516C23.9505 27.7526 24 27.6354 24 27.5V16Z" fill="#333333"/>
<path d="M18 26H17V18H18V26ZM20 26H19V18H20V26ZM22 26H21V18H22V26Z" fill="#777777"/>
<path d="M35.2852 27V17.1973H37.9922C41.4466 17.1973 43.1738 18.79 43.1738 21.9756C43.1738 23.4886 42.693 24.7054 41.7314 25.626C40.7744 26.542 39.4915 27 37.8828 27H35.2852ZM36.4336 18.2363V25.9609H37.8965C39.1816 25.9609 40.182 25.6169 40.8975 24.9287C41.613 24.2406 41.9707 23.2653 41.9707 22.0029C41.9707 19.4919 40.6354 18.2363 37.9648 18.2363H36.4336ZM50.5771 23.7803H45.6348C45.653 24.5596 45.8626 25.1611 46.2637 25.585C46.6647 26.0088 47.2161 26.2207 47.918 26.2207C48.7064 26.2207 49.431 25.9609 50.0918 25.4414V26.4941C49.4766 26.9408 48.6631 27.1641 47.6514 27.1641C46.6624 27.1641 45.8854 26.8473 45.3203 26.2139C44.7552 25.5758 44.4727 24.6803 44.4727 23.5273C44.4727 22.4382 44.7803 21.5518 45.3955 20.8682C46.0153 20.18 46.7832 19.8359 47.6992 19.8359C48.6152 19.8359 49.3239 20.1322 49.8252 20.7246C50.3265 21.3171 50.5771 22.1396 50.5771 23.1924V23.7803ZM49.4287 22.8301C49.4242 22.1829 49.2669 21.6794 48.957 21.3193C48.6517 20.9593 48.2256 20.7793 47.6787 20.7793C47.1501 20.7793 46.7012 20.9684 46.332 21.3467C45.9629 21.7249 45.735 22.2194 45.6484 22.8301H49.4287ZM53.4004 27H52.2793V16.6367H53.4004V27ZM61.2959 23.7803H56.3535C56.3717 24.5596 56.5814 25.1611 56.9824 25.585C57.3835 26.0088 57.9349 26.2207 58.6367 26.2207C59.4251 26.2207 60.1497 25.9609 60.8105 25.4414V26.4941C60.1953 26.9408 59.3818 27.1641 58.3701 27.1641C57.3812 27.1641 56.6042 26.8473 56.0391 26.2139C55.474 25.5758 55.1914 24.6803 55.1914 23.5273C55.1914 22.4382 55.499 21.5518 56.1143 20.8682C56.734 20.18 57.502 19.8359 58.418 19.8359C59.334 19.8359 60.0426 20.1322 60.5439 20.7246C61.0452 21.3171 61.2959 22.1396 61.2959 23.1924V23.7803ZM60.1475 22.8301C60.1429 22.1829 59.9857 21.6794 59.6758 21.3193C59.3704 20.9593 58.9443 20.7793 58.3975 20.7793C57.8688 20.7793 57.4199 20.9684 57.0508 21.3467C56.6816 21.7249 56.4538 22.2194 56.3672 22.8301H60.1475ZM66.2451 26.9316C65.9808 27.0775 65.6322 27.1504 65.1992 27.1504C63.9733 27.1504 63.3604 26.4668 63.3604 25.0996V20.957H62.1572V20H63.3604V18.291L64.4814 17.9287V20H66.2451V20.957H64.4814V24.9014C64.4814 25.3708 64.5612 25.7057 64.7207 25.9062C64.8802 26.1068 65.1445 26.207 65.5137 26.207C65.7962 26.207 66.04 26.1296 66.2451 25.9746V26.9316ZM73.3682 23.7803H68.4258C68.444 24.5596 68.6536 25.1611 69.0547 25.585C69.4557 26.0088 70.0072 26.2207 70.709 26.2207C71.4974 26.2207 72.222 25.9609 72.8828 25.4414V26.4941C72.2676 26.9408 71.4541 27.1641 70.4424 27.1641C69.4535 27.1641 68.6764 26.8473 68.1113 26.2139C67.5462 25.5758 67.2637 24.6803 67.2637 23.5273C67.2637 22.4382 67.5713 21.5518 68.1865 20.8682C68.8063 20.18 69.5742 19.8359 70.4902 19.8359C71.4062 19.8359 72.1149 20.1322 72.6162 20.7246C73.1175 21.3171 73.3682 22.1396 73.3682 23.1924V23.7803ZM72.2197 22.8301C72.2152 22.1829 72.0579 21.6794 71.748 21.3193C71.4427 20.9593 71.0166 20.7793 70.4697 20.7793C69.9411 20.7793 69.4922 20.9684 69.123 21.3467C68.7539 21.7249 68.526 22.2194 68.4395 22.8301H72.2197Z" fill="black"/>
</svg>
