<svg width="107" height="42" viewBox="0 0 107 42" fill="none" xmlns="http://www.w3.org/2000/svg">
<path d="M107 0H0V42H107V0Z" fill="white"/>
<path d="M35.2852 27V17.1973H37.9922C41.4466 17.1973 43.1738 18.79 43.1738 21.9756C43.1738 23.4886 42.693 24.7054 41.7314 25.626C40.7744 26.542 39.4915 27 37.8828 27H35.2852ZM36.4336 18.2363V25.9609H37.8965C39.1816 25.9609 40.182 25.6169 40.8975 24.9287C41.613 24.2406 41.9707 23.2653 41.9707 22.0029C41.9707 19.4919 40.6354 18.2363 37.9648 18.2363H36.4336ZM45.5254 18.2227C45.3249 18.2227 45.154 18.1543 45.0127 18.0176C44.8714 17.8809 44.8008 17.7077 44.8008 17.498C44.8008 17.2884 44.8714 17.1152 45.0127 16.9785C45.154 16.8372 45.3249 16.7666 45.5254 16.7666C45.7305 16.7666 45.9036 16.8372 46.0449 16.9785C46.1908 17.1152 46.2637 17.2884 46.2637 17.498C46.2637 17.6986 46.1908 17.8695 46.0449 18.0107C45.9036 18.152 45.7305 18.2227 45.5254 18.2227ZM46.0723 27H44.9512V20H46.0723V27ZM47.918 26.7471V25.5439C48.5286 25.9951 49.2008 26.2207 49.9346 26.2207C50.9189 26.2207 51.4111 25.8926 51.4111 25.2363C51.4111 25.0495 51.3678 24.8923 51.2812 24.7646C51.1992 24.6325 51.0853 24.5163 50.9395 24.416C50.7982 24.3158 50.6296 24.2269 50.4336 24.1494C50.2422 24.0674 50.0348 23.9831 49.8115 23.8965C49.5016 23.7734 49.2282 23.6504 48.9912 23.5273C48.7588 23.3997 48.5628 23.2585 48.4033 23.1035C48.2484 22.944 48.1299 22.764 48.0479 22.5635C47.9704 22.363 47.9316 22.1283 47.9316 21.8594C47.9316 21.5312 48.0068 21.2419 48.1572 20.9912C48.3076 20.736 48.5081 20.5241 48.7588 20.3555C49.0094 20.1823 49.2943 20.0524 49.6133 19.9658C49.9368 19.8792 50.2695 19.8359 50.6113 19.8359C51.2174 19.8359 51.7598 19.9408 52.2383 20.1504V21.2852C51.7233 20.9479 51.1309 20.7793 50.4609 20.7793C50.2513 20.7793 50.0622 20.8044 49.8936 20.8545C49.7249 20.9001 49.5791 20.9661 49.4561 21.0527C49.3376 21.1393 49.2441 21.2441 49.1758 21.3672C49.112 21.4857 49.0801 21.6178 49.0801 21.7637C49.0801 21.946 49.112 22.0986 49.1758 22.2217C49.2441 22.3447 49.3421 22.4541 49.4697 22.5498C49.5973 22.6455 49.7523 22.7321 49.9346 22.8096C50.1169 22.887 50.3242 22.9714 50.5566 23.0625C50.8665 23.181 51.1445 23.304 51.3906 23.4316C51.6367 23.5547 51.8464 23.696 52.0195 23.8555C52.1927 24.0104 52.3249 24.1904 52.416 24.3955C52.5117 24.6006 52.5596 24.8444 52.5596 25.127C52.5596 25.4733 52.4821 25.7741 52.3271 26.0293C52.1768 26.2845 51.974 26.4964 51.7188 26.665C51.4635 26.8337 51.1696 26.959 50.8369 27.041C50.5042 27.123 50.1556 27.1641 49.791 27.1641C49.071 27.1641 48.4466 27.0251 47.918 26.7471ZM60.2637 30.2197H59.1426V25.7969H59.1152C58.6276 26.7083 57.8301 27.1641 56.7227 27.1641C55.8431 27.1641 55.1367 26.8519 54.6035 26.2275C54.0749 25.5986 53.8105 24.7441 53.8105 23.6641C53.8105 22.502 54.1022 21.5745 54.6855 20.8818C55.2689 20.1846 56.0527 19.8359 57.0371 19.8359C57.9941 19.8359 58.6868 20.2142 59.1152 20.9707H59.1426V20H60.2637V30.2197ZM59.1426 23.8486V22.8301C59.1426 22.2559 58.9535 21.7705 58.5752 21.374C58.2015 20.9775 57.7253 20.7793 57.1465 20.7793C56.472 20.7793 55.9388 21.0299 55.5469 21.5312C55.1549 22.028 54.959 22.7298 54.959 23.6367C54.959 24.4434 55.1481 25.0768 55.5264 25.5371C55.9046 25.9928 56.3923 26.2207 56.9893 26.2207C57.6455 26.2207 58.1673 25.9974 58.5547 25.5508C58.9466 25.0996 59.1426 24.5322 59.1426 23.8486ZM68.1934 27H67.0723V25.8926H67.0449C66.5801 26.7402 65.86 27.1641 64.8848 27.1641C63.2168 27.1641 62.3828 26.1706 62.3828 24.1836V20H63.4971V24.0059C63.4971 25.4824 64.0622 26.2207 65.1924 26.2207C65.7393 26.2207 66.1882 26.0202 66.5391 25.6191C66.8945 25.2135 67.0723 24.6849 67.0723 24.0332V20H68.1934V27ZM75.4736 27H74.3525V25.9062H74.3252C73.8376 26.7448 73.1198 27.1641 72.1719 27.1641C71.4746 27.1641 70.9277 26.9795 70.5312 26.6104C70.1393 26.2412 69.9434 25.7513 69.9434 25.1406C69.9434 23.8327 70.7135 23.0716 72.2539 22.8574L74.3525 22.5635C74.3525 21.374 73.8717 20.7793 72.9102 20.7793C72.0671 20.7793 71.306 21.0664 70.627 21.6406V20.4922C71.3151 20.0547 72.1081 19.8359 73.0059 19.8359C74.651 19.8359 75.4736 20.7064 75.4736 22.4473V27ZM74.3525 23.459L72.6641 23.6914C72.1445 23.7643 71.7526 23.8942 71.4883 24.0811C71.224 24.2633 71.0918 24.5892 71.0918 25.0586C71.0918 25.4004 71.2126 25.6807 71.4541 25.8994C71.7002 26.1136 72.026 26.2207 72.4316 26.2207C72.9876 26.2207 73.4456 26.027 73.8057 25.6396C74.1702 25.2477 74.3525 24.7533 74.3525 24.1562V23.459ZM78.707 27H77.5859V16.6367H78.707V27ZM81.5508 18.2227C81.3503 18.2227 81.1794 18.1543 81.0381 18.0176C80.8968 17.8809 80.8262 17.7077 80.8262 17.498C80.8262 17.2884 80.8968 17.1152 81.0381 16.9785C81.1794 16.8372 81.3503 16.7666 81.5508 16.7666C81.7559 16.7666 81.929 16.8372 82.0703 16.9785C82.2161 17.1152 82.2891 17.2884 82.2891 17.498C82.2891 17.6986 82.2161 17.8695 82.0703 18.0107C81.929 18.152 81.7559 18.2227 81.5508 18.2227ZM82.0977 27H80.9766V20H82.0977V27ZM87.8262 17.6211C87.6074 17.498 87.359 17.4365 87.0811 17.4365C86.2972 17.4365 85.9053 17.931 85.9053 18.9199V20H87.5459V20.957H85.9053V27H84.791V20.957H83.5947V20H84.791V18.8652C84.791 18.1315 85.0029 17.5527 85.4268 17.1289C85.8506 16.7005 86.3792 16.4863 87.0127 16.4863C87.3545 16.4863 87.6257 16.5273 87.8262 16.6094V17.6211ZM94.3271 20L91.1074 28.1211C90.5332 29.5703 89.7266 30.2949 88.6875 30.2949C88.3958 30.2949 88.152 30.2653 87.9561 30.2061V29.2012C88.1976 29.2832 88.4186 29.3242 88.6191 29.3242C89.1842 29.3242 89.6081 28.987 89.8906 28.3125L90.4512 26.9863L87.7168 20H88.9609L90.8545 25.3867C90.8773 25.4551 90.9251 25.6328 90.998 25.9199H91.0391C91.0618 25.8105 91.1074 25.6374 91.1758 25.4004L93.165 20H94.3271Z" fill="black"/>
<path d="M20.8516 27.9844C21.1172 27.9844 21.3385 27.9609 21.5156 27.9141C21.6927 27.8672 21.8516 27.7969 21.9922 27.7031C22.1328 27.6094 22.2682 27.4948 22.3984 27.3594C22.5339 27.2188 22.6927 27.0573 22.875 26.875C22.9531 26.7969 22.9922 26.7057 22.9922 26.6016C22.9922 26.5026 22.9531 26.4141 22.875 26.3359L21.6172 25.0703C21.5443 24.9974 21.4531 24.9609 21.3438 24.9609C21.2188 24.9609 21.1016 25.0208 20.9922 25.1406C20.8828 25.2604 20.7578 25.3932 20.6172 25.5391C20.4766 25.6849 20.3125 25.8177 20.125 25.9375C19.9427 26.0573 19.7161 26.1172 19.4453 26.1172C19.263 26.1172 19.0859 26.0833 18.9141 26.0156C18.7422 25.9427 18.5885 25.8385 18.4531 25.7031L15.2969 22.5469C15.1615 22.4115 15.0573 22.2578 14.9844 22.0859C14.9167 21.9141 14.8828 21.737 14.8828 21.5547C14.8828 21.2839 14.9427 21.0573 15.0625 20.875C15.1823 20.6875 15.3151 20.5234 15.4609 20.3828C15.6068 20.2422 15.7396 20.1172 15.8594 20.0078C15.9792 19.8984 16.0391 19.7812 16.0391 19.6562C16.0391 19.5469 16.0026 19.4557 15.9297 19.3828L14.6641 18.125C14.5859 18.0469 14.4974 18.0078 14.3984 18.0078C14.2943 18.0078 14.2031 18.0469 14.125 18.125C13.9427 18.3073 13.7812 18.4661 13.6406 18.6016C13.5052 18.7318 13.3906 18.8672 13.2969 19.0078C13.2031 19.1484 13.1328 19.3073 13.0859 19.4844C13.0391 19.6615 13.0156 19.8828 13.0156 20.1484C13.0156 20.6953 13.1328 21.2682 13.3672 21.8672C13.6068 22.4609 13.9245 23.0495 14.3203 23.6328C14.7214 24.2109 15.1849 24.763 15.7109 25.2891C16.237 25.8151 16.7891 26.2786 17.3672 26.6797C17.9505 27.0755 18.5391 27.3932 19.1328 27.6328C19.7318 27.8672 20.3047 27.9844 20.8516 27.9844Z" fill="white"/>
<path d="M21.3438 23.9375C21.5312 23.9375 21.7083 23.974 21.875 24.0469C22.0469 24.1146 22.2005 24.2161 22.3359 24.3516L23.6016 25.6094C23.737 25.7396 23.8385 25.8932 23.9062 26.0703C23.974 26.2422 24.0078 26.4193 24.0078 26.6016C24.0078 26.7839 23.9714 26.9609 23.8984 27.1328C23.8307 27.3047 23.7318 27.4583 23.6016 27.5938C23.3724 27.8281 23.1641 28.0339 22.9766 28.2109C22.7891 28.3828 22.5964 28.5286 22.3984 28.6484C22.2005 28.7682 21.9792 28.8594 21.7344 28.9219C21.4948 28.9792 21.2031 29.0078 20.8594 29.0078C20.3802 29.0078 19.8854 28.9349 19.375 28.7891C18.8646 28.638 18.3568 28.4297 17.8516 28.1641C17.3464 27.8984 16.849 27.5833 16.3594 27.2188C15.875 26.849 15.4167 26.4479 14.9844 26.0156C14.5521 25.5781 14.151 25.1172 13.7812 24.6328C13.4167 24.1432 13.1016 23.6458 12.8359 23.1406C12.5703 22.6354 12.362 22.1276 12.2109 21.6172C12.0651 21.1068 11.9922 20.612 11.9922 20.1328C11.9922 19.7943 12.0208 19.5052 12.0781 19.2656C12.1406 19.0208 12.2318 18.7995 12.3516 18.6016C12.4714 18.3984 12.6198 18.2057 12.7969 18.0234C12.974 17.8359 13.1771 17.6276 13.4062 17.3984C13.5417 17.2682 13.6953 17.1693 13.8672 17.1016C14.0391 17.0286 14.2161 16.9922 14.3984 16.9922C14.5807 16.9922 14.7578 17.026 14.9297 17.0938C15.1068 17.1615 15.2604 17.263 15.3906 17.3984L16.6484 18.6641C16.7839 18.7995 16.8854 18.9531 16.9531 19.125C17.026 19.2917 17.0625 19.4688 17.0625 19.6562C17.0625 19.9219 17.0026 20.1484 16.8828 20.3359C16.763 20.5182 16.6302 20.6797 16.4844 20.8203C16.3385 20.9609 16.2057 21.0885 16.0859 21.2031C15.9661 21.3177 15.9062 21.4349 15.9062 21.5547C15.9062 21.6589 15.9427 21.7474 16.0156 21.8203L19.1797 24.9844C19.2526 25.0573 19.3411 25.0938 19.4453 25.0938C19.5651 25.0938 19.6823 25.0339 19.7969 24.9141C19.9115 24.7943 20.0391 24.6615 20.1797 24.5156C20.3203 24.3698 20.4818 24.237 20.6641 24.1172C20.8516 23.9974 21.0781 23.9375 21.3438 23.9375ZM20.8516 27.9844C21.1172 27.9844 21.3385 27.9609 21.5156 27.9141C21.6927 27.8672 21.8516 27.7969 21.9922 27.7031C22.1328 27.6094 22.2682 27.4948 22.3984 27.3594C22.5339 27.2188 22.6927 27.0573 22.875 26.875C22.9531 26.7969 22.9922 26.7057 22.9922 26.6016C22.9922 26.5026 22.9531 26.4141 22.875 26.3359L21.6172 25.0703C21.5443 24.9974 21.4531 24.9609 21.3438 24.9609C21.2188 24.9609 21.1016 25.0208 20.9922 25.1406C20.8828 25.2604 20.7578 25.3932 20.6172 25.5391C20.4766 25.6849 20.3125 25.8177 20.125 25.9375C19.9427 26.0573 19.7161 26.1172 19.4453 26.1172C19.263 26.1172 19.0859 26.0833 18.9141 26.0156C18.7422 25.9427 18.5885 25.8385 18.4531 25.7031L15.2969 22.5469C15.1615 22.4115 15.0573 22.2578 14.9844 22.0859C14.9167 21.9141 14.8828 21.737 14.8828 21.5547C14.8828 21.2839 14.9427 21.0573 15.0625 20.875C15.1823 20.6875 15.3151 20.5234 15.4609 20.3828C15.6068 20.2422 15.7396 20.1172 15.8594 20.0078C15.9792 19.8984 16.0391 19.7812 16.0391 19.6562C16.0391 19.5469 16.0026 19.4557 15.9297 19.3828L14.6641 18.125C14.5859 18.0469 14.4974 18.0078 14.3984 18.0078C14.2943 18.0078 14.2031 18.0469 14.125 18.125C13.9427 18.3073 13.7812 18.4661 13.6406 18.6016C13.5052 18.7318 13.3906 18.8672 13.2969 19.0078C13.2031 19.1484 13.1328 19.3073 13.0859 19.4844C13.0391 19.6615 13.0156 19.8828 13.0156 20.1484C13.0156 20.6953 13.1328 21.2682 13.3672 21.8672C13.6068 22.4609 13.9245 23.0495 14.3203 23.6328C14.7214 24.2109 15.1849 24.763 15.7109 25.2891C16.237 25.8151 16.7891 26.2786 17.3672 26.6797C17.9505 27.0755 18.5391 27.3932 19.1328 27.6328C19.7318 27.8672 20.3047 27.9844 20.8516 27.9844Z" fill="#333333"/>
<path d="M23.5 13C24.1198 13 24.7031 13.1198 25.25 13.3594C25.7969 13.5938 26.2734 13.9141 26.6797 14.3203C27.0859 14.7266 27.4062 15.2031 27.6406 15.75C27.8802 16.2969 28 16.8802 28 17.5C28 18.1198 27.8802 18.7031 27.6406 19.25C27.4062 19.7969 27.0859 20.2734 26.6797 20.6797C26.2734 21.0859 25.7969 21.4089 25.25 21.6484C24.7031 21.8828 24.1198 22 23.5 22C22.8802 22 22.2969 21.8828 21.75 21.6484C21.2031 21.4089 20.7266 21.0859 20.3203 20.6797C19.9141 20.2734 19.5911 19.7969 19.3516 19.25C19.1172 18.7031 19 18.1198 19 17.5C19 16.8802 19.1172 16.2969 19.3516 15.75C19.5911 15.2031 19.9141 14.7266 20.3203 14.3203C20.7266 13.9141 21.2031 13.5938 21.75 13.3594C22.2969 13.1198 22.8802 13 23.5 13ZM20 17.5C20 17.9844 20.0911 18.4401 20.2734 18.8672C20.4557 19.2891 20.7057 19.6589 21.0234 19.9766C21.3411 20.2943 21.7109 20.5443 22.1328 20.7266C22.5599 20.9089 23.0156 21 23.5 21C23.8802 21 24.2474 20.9427 24.6016 20.8281C24.9609 20.7083 25.2917 20.5339 25.5938 20.3047L20.6953 15.4062C20.4661 15.7083 20.2917 16.0391 20.1719 16.3984C20.0573 16.7526 20 17.1198 20 17.5ZM26.3047 19.5938C26.5339 19.2917 26.7057 18.9635 26.8203 18.6094C26.9401 18.25 27 17.8802 27 17.5C27 17.0156 26.9089 16.5625 26.7266 16.1406C26.5443 15.7135 26.2943 15.3411 25.9766 15.0234C25.6589 14.7057 25.2865 14.4557 24.8594 14.2734C24.4375 14.0911 23.9844 14 23.5 14C23.1198 14 22.75 14.0599 22.3906 14.1797C22.0365 14.2943 21.7083 14.4661 21.4062 14.6953L26.3047 19.5938Z" fill="#EC4E4F"/>
</svg>
