<svg width="120" height="42" viewBox="0 0 120 42" fill="none" xmlns="http://www.w3.org/2000/svg">
<path d="M120 0H0V42H120V0Z" fill="white"/>
<path d="M41.4802 26H36.2852V16.1973H41.2622V17.2363H37.4342V20.4971H40.9752V21.5293H37.4342V24.9609H41.4802V26ZM53.1562 26H52.0352V21.9805C52.0352 21.2057 51.9142 20.6452 51.6732 20.2988C51.4362 19.9525 51.0352 19.7793 50.4702 19.7793C49.9912 19.7793 49.5832 19.998 49.2462 20.4355C48.9132 20.873 48.7472 21.3971 48.7472 22.0078V26H47.6262V21.8438C47.6262 20.4674 47.0952 19.7793 46.0332 19.7793C45.5412 19.7793 45.1352 19.9867 44.8162 20.4014C44.4972 20.8115 44.3382 21.347 44.3382 22.0078V26H43.2172V19H44.3382V20.1074H44.3652C44.8622 19.2598 45.5872 18.8359 46.5392 18.8359C47.0182 18.8359 47.4352 18.9704 47.7902 19.2393C48.1462 19.5036 48.3892 19.8522 48.5212 20.2852C49.0412 19.319 49.8162 18.8359 50.8462 18.8359C52.3862 18.8359 53.1562 19.7861 53.1562 21.6865V26ZM60.2862 26H59.1652V24.9062H59.1382C58.6502 25.7448 57.9322 26.1641 56.9842 26.1641C56.2872 26.1641 55.7402 25.9795 55.3442 25.6104C54.9522 25.2412 54.7562 24.7513 54.7562 24.1406C54.7562 22.8327 55.5262 22.0716 57.0662 21.8574L59.1652 21.5635C59.1652 20.374 58.6842 19.7793 57.7232 19.7793C56.8802 19.7793 56.1182 20.0664 55.4392 20.6406V19.4922C56.1282 19.0547 56.9212 18.8359 57.8182 18.8359C59.4642 18.8359 60.2862 19.7064 60.2862 21.4473V26ZM59.1652 22.459L57.4772 22.6914C56.9572 22.7643 56.5652 22.8942 56.3012 23.0811C56.0362 23.2633 55.9042 23.5892 55.9042 24.0586C55.9042 24.4004 56.0252 24.6807 56.2672 24.8994C56.5132 25.1136 56.8392 25.2207 57.2442 25.2207C57.8002 25.2207 58.2582 25.027 58.6182 24.6396C58.9832 24.2477 59.1652 23.7533 59.1652 23.1562V22.459ZM62.9732 17.2227C62.7722 17.2227 62.6012 17.1543 62.4602 17.0176C62.3192 16.8809 62.2482 16.7077 62.2482 16.498C62.2482 16.2884 62.3192 16.1152 62.4602 15.9785C62.6012 15.8372 62.7722 15.7666 62.9732 15.7666C63.1782 15.7666 63.3512 15.8372 63.4922 15.9785C63.6382 16.1152 63.7112 16.2884 63.7112 16.498C63.7112 16.6986 63.6382 16.8695 63.4922 17.0107C63.3512 17.152 63.1782 17.2227 62.9732 17.2227ZM63.5202 26H62.3982V19H63.5202V26ZM66.9102 26H65.7892V15.6367H66.9102V26ZM78.0322 26H76.9112V24.9062H76.8842C76.3962 25.7448 75.6782 26.1641 74.7302 26.1641C74.0332 26.1641 73.4862 25.9795 73.0902 25.6104C72.6982 25.2412 72.5022 24.7513 72.5022 24.1406C72.5022 22.8327 73.2722 22.0716 74.8122 21.8574L76.9112 21.5635C76.9112 20.374 76.4302 19.7793 75.4692 19.7793C74.6262 19.7793 73.8652 20.0664 73.1862 20.6406V19.4922C73.8742 19.0547 74.6672 18.8359 75.5642 18.8359C77.2102 18.8359 78.0322 19.7064 78.0322 21.4473V26ZM76.9112 22.459L75.2232 22.6914C74.7032 22.7643 74.3112 22.8942 74.0472 23.0811C73.7832 23.2633 73.6502 23.5892 73.6502 24.0586C73.6502 24.4004 73.7712 24.6807 74.0132 24.8994C74.2592 25.1136 74.5852 25.2207 74.9902 25.2207C75.5462 25.2207 76.0042 25.027 76.3642 24.6396C76.7292 24.2477 76.9112 23.7533 76.9112 23.1562V22.459ZM89.2232 26H84.1372V16.1973H85.2852V24.9609H89.2232V26ZM91.1502 17.2227C90.9502 17.2227 90.7792 17.1543 90.6382 17.0176C90.4962 16.8809 90.4262 16.7077 90.4262 16.498C90.4262 16.2884 90.4962 16.1152 90.6382 15.9785C90.7792 15.8372 90.9502 15.7666 91.1502 15.7666C91.3552 15.7666 91.5292 15.8372 91.6702 15.9785C91.8162 16.1152 91.8892 16.2884 91.8892 16.498C91.8892 16.6986 91.8162 16.8695 91.6702 17.0107C91.5292 17.152 91.3552 17.2227 91.1502 17.2227ZM91.6972 26H90.5762V19H91.6972V26ZM99.7772 26H98.6562V22.0078C98.6562 20.5221 98.1142 19.7793 97.0292 19.7793C96.4692 19.7793 96.0042 19.9912 95.6352 20.415C95.2702 20.8343 95.0882 21.3652 95.0882 22.0078V26H93.9672V19H95.0882V20.1621H95.1152C95.6442 19.278 96.4102 18.8359 97.4122 18.8359C98.1782 18.8359 98.7632 19.0843 99.1692 19.5811C99.5752 20.0732 99.7772 20.7865 99.7772 21.7207V26ZM107.707 26H106.135L103.045 22.6367H103.018V26H101.896V15.6367H103.018V22.2061H103.045L105.984 19H107.454L104.207 22.377L107.707 26Z" fill="#333333"/>
<path d="M17.035 25H13V17.5547L19.958 21.0417C18.283 21.302 17 22.7512 17 24.5C17 24.6698 17.012 24.8367 17.035 25Z" fill="white"/>
<path d="M20.0732 21.0257L27.0002 17.5547V23.3368C26.5922 23.1431 26.1412 23.0259 25.6652 23.0038C25.1042 21.8193 23.8982 21 22.5002 21H20.5002C20.3562 21 20.2132 21.0087 20.0732 21.0257Z" fill="white"/>
<path d="M25.8832 17H14.1172L20.0002 19.9375L25.8832 17Z" fill="white"/>
<path d="M28 16V24.0312C27.854 23.8802 27.698 23.7448 27.531 23.625C27.365 23.5 27.188 23.3932 27 23.3047V17.5547L20 21.0625L13 17.5547V25H17.047C17.073 25.1719 17.112 25.3438 17.164 25.5156C17.216 25.6823 17.279 25.8438 17.352 26H12V16H28ZM20 19.9375L25.883 17H14.117L20 19.9375Z" fill="#333333"/>
<path d="M20.5 23C20.292 23 20.096 23.0391 19.914 23.1172C19.732 23.1953 19.573 23.3021 19.438 23.4375C19.302 23.5729 19.195 23.7318 19.117 23.9141C19.039 24.0964 19 24.2917 19 24.5C19 24.6667 19.026 24.8255 19.078 24.9766C19.13 25.1224 19.201 25.2578 19.289 25.3828C19.383 25.5078 19.495 25.6172 19.625 25.7109C19.755 25.8047 19.898 25.8776 20.055 25.9297C20.039 26.0234 20.026 26.1198 20.016 26.2188C20.005 26.3125 20 26.4062 20 26.5C20 26.5729 20.005 26.6484 20.016 26.7266C20.026 26.8047 20.036 26.8802 20.047 26.9531C19.75 26.901 19.477 26.8021 19.227 26.6562C18.977 26.5052 18.76 26.3203 18.578 26.1016C18.396 25.8828 18.253 25.638 18.148 25.3672C18.049 25.0911 18 24.8021 18 24.5C18 24.1562 18.065 23.8333 18.195 23.5312C18.326 23.2292 18.503 22.9661 18.727 22.7422C18.956 22.513 19.221 22.3333 19.523 22.2031C19.831 22.0677 20.156 22 20.5 22H22.5C22.844 22 23.167 22.0677 23.469 22.2031C23.771 22.3333 24.034 22.513 24.258 22.7422C24.487 22.9661 24.667 23.2292 24.797 23.5312C24.932 23.8333 25 24.1562 25 24.5C25 24.7969 24.951 25.0807 24.852 25.3516C24.753 25.6224 24.615 25.8672 24.438 26.0859C24.26 26.2995 24.049 26.4818 23.805 26.6328C23.56 26.7839 23.292 26.888 23 26.9453V25.9062C23.146 25.8542 23.281 25.7812 23.406 25.6875C23.531 25.5938 23.635 25.487 23.719 25.3672C23.807 25.2422 23.875 25.1068 23.922 24.9609C23.974 24.8099 24 24.6562 24 24.5C24 24.2917 23.961 24.0964 23.883 23.9141C23.805 23.7318 23.698 23.5729 23.562 23.4375C23.427 23.3021 23.268 23.1953 23.086 23.1172C22.904 23.0391 22.708 23 22.5 23H20.5ZM25.953 24.0078C26.25 24.0651 26.523 24.1693 26.773 24.3203C27.023 24.4714 27.24 24.6562 27.422 24.875C27.604 25.0938 27.745 25.3411 27.844 25.6172C27.948 25.888 28 26.1745 28 26.4766C28 26.8203 27.935 27.1458 27.805 27.4531C27.674 27.7552 27.495 28.0234 27.266 28.2578C27.042 28.487 26.776 28.6693 26.469 28.8047C26.167 28.9349 25.844 29 25.5 29H23.5C23.156 29 22.831 28.9349 22.523 28.8047C22.221 28.6693 21.956 28.487 21.727 28.2578C21.503 28.0234 21.326 27.7552 21.195 27.4531C21.065 27.1458 21 26.8203 21 26.4766C21 26.1797 21.049 25.8958 21.148 25.625C21.247 25.3542 21.385 25.1094 21.562 24.8906C21.74 24.6667 21.951 24.4792 22.195 24.3281C22.44 24.1719 22.708 24.0651 23 24.0078V25.0469C22.849 25.099 22.711 25.1745 22.586 25.2734C22.466 25.3672 22.362 25.4792 22.273 25.6094C22.19 25.7344 22.122 25.8724 22.07 26.0234C22.023 26.1693 22 26.3203 22 26.4766C22 26.6797 22.039 26.875 22.117 27.0625C22.195 27.2448 22.302 27.4062 22.438 27.5469C22.573 27.6875 22.732 27.7995 22.914 27.8828C23.096 27.9609 23.292 28 23.5 28H25.5C25.708 28 25.904 27.9609 26.086 27.8828C26.268 27.7995 26.427 27.6875 26.562 27.5469C26.698 27.4062 26.805 27.2448 26.883 27.0625C26.961 26.875 27 26.6797 27 26.4766C27 26.3151 26.974 26.1589 26.922 26.0078C26.87 25.8516 26.797 25.7109 26.703 25.5859C26.615 25.4557 26.505 25.3438 26.375 25.25C26.245 25.151 26.102 25.0781 25.945 25.0312C25.961 24.9375 25.974 24.8438 25.984 24.75C25.995 24.651 26 24.5547 26 24.4609C26 24.388 25.995 24.3125 25.984 24.2344C25.974 24.1562 25.964 24.0807 25.953 24.0078Z" fill="#777777"/>
</svg>
