<svg width="99" height="42" viewBox="0 0 99 42" fill="none" xmlns="http://www.w3.org/2000/svg">
<path d="M99 0H0V42H99V0Z" fill="white"/>
<path d="M80.854 24.709L75 18.8555L75.709 18.1465L80.854 23.291L85.999 18.1465L86.708 18.8555L80.854 24.709Z" fill="#333333"/>
<rect x="13" y="23" width="3" height="3" fill="white"/>
<rect x="24" y="16" width="3" height="3" fill="#85BEEC"/>
<path d="M23 18H22.0625L18.5547 25H17V24H17.9375L21.4453 17H23V18Z" fill="#333333"/>
<path fill-rule="evenodd" clip-rule="evenodd" d="M27 16H24V19H27V16ZM23 15V20H28V15H23Z" fill="#075FB1"/>
<path fill-rule="evenodd" clip-rule="evenodd" d="M16 23H13V26H16V23ZM12 22V27H17V22H12Z" fill="#333333"/>
<path d="M40.2617 17.2363H36.4336V20.627H39.9746V21.6592H36.4336V26H35.2852V16.1973H40.2617V17.2363ZM43.0918 26H41.9707V15.6367H43.0918V26ZM48.2871 26.1641C47.2526 26.1641 46.4255 25.8382 45.8057 25.1865C45.1904 24.5303 44.8828 23.6621 44.8828 22.582C44.8828 21.4062 45.2041 20.488 45.8467 19.8271C46.4893 19.1663 47.3574 18.8359 48.4512 18.8359C49.4948 18.8359 50.3083 19.1572 50.8916 19.7998C51.4795 20.4424 51.7734 21.3333 51.7734 22.4727C51.7734 23.5892 51.4567 24.4847 50.8232 25.1592C50.1943 25.8291 49.349 26.1641 48.2871 26.1641ZM48.3691 19.7793C47.6491 19.7793 47.0794 20.0254 46.6602 20.5176C46.2409 21.0052 46.0312 21.6797 46.0312 22.541C46.0312 23.3704 46.2432 24.0244 46.667 24.5029C47.0908 24.9814 47.6582 25.2207 48.3691 25.2207C49.0938 25.2207 49.6497 24.986 50.0371 24.5166C50.429 24.0472 50.625 23.3796 50.625 22.5137C50.625 21.6387 50.429 20.9642 50.0371 20.4902C49.6497 20.0163 49.0938 19.7793 48.3691 19.7793ZM62.3828 19L60.2842 26H59.1221L57.6797 20.9893C57.625 20.7979 57.5885 20.5814 57.5703 20.3398H57.543C57.5293 20.5039 57.4814 20.7158 57.3994 20.9756L55.834 26H54.7129L52.5938 19H53.7695L55.2188 24.2637C55.2643 24.4232 55.2962 24.6328 55.3145 24.8926H55.3691C55.3828 24.6921 55.4238 24.4779 55.4922 24.25L57.1055 19H58.1309L59.5801 24.2773C59.6257 24.446 59.6598 24.6556 59.6826 24.9062H59.7373C59.7464 24.7285 59.7852 24.5189 59.8535 24.2773L61.2754 19H62.3828Z" fill="black"/>
</svg>
