<svg width="88" height="42" viewBox="0 0 88 42" fill="none" xmlns="http://www.w3.org/2000/svg">
<path d="M88 0H0V42H88V0Z" fill="white"/>
<path d="M13 26C13 23.2386 15.2386 21 18 21C20.0503 21 21.8124 22.2341 22.584 24H20V26H13Z" fill="white"/>
<circle cx="18" cy="17" r="3" fill="white"/>
<path d="M25.1016 28.3516L27.9531 25.5L25.1016 22.6484L24.3984 23.3516L26.0469 25H21V26H26.0469L24.3984 27.6484L25.1016 28.3516Z" fill="#075FB1"/>
<path fill-rule="evenodd" clip-rule="evenodd" d="M22.5547 23.9531C22.3516 23.5052 22.0911 23.1016 21.7734 22.7422C21.4609 22.3776 21.1068 22.0677 20.7109 21.8125C20.3151 21.5521 19.8854 21.3516 19.4219 21.2109C18.9645 21.0706 18.4916 21.0003 18.0032 21H17.9966C17.5082 21.0003 17.0355 21.0706 16.5781 21.2109C16.1146 21.3516 15.6849 21.5521 15.2891 21.8125C14.8932 22.0677 14.5391 22.3776 14.2266 22.7422C13.9089 23.1016 13.6484 23.5052 13.4453 23.9531L13.4387 23.9502C13.3362 24.1809 13.2499 24.4215 13.1797 24.6719C13.0599 25.099 13 25.5417 13 26H12C12 25.3906 12.0911 24.7943 12.2734 24.2109C12.4609 23.6276 12.7239 23.0885 13.0625 22.5938C13.4062 22.0938 13.8151 21.6536 14.2891 21.2734C14.7682 20.888 15.2969 20.5938 15.875 20.3906C15.5833 20.2031 15.3203 19.987 15.0859 19.7422C14.9618 19.6096 14.8475 19.47 14.7432 19.3237C14.6554 19.2024 14.5744 19.0765 14.5 18.9453C14.1667 18.362 14 17.7135 14 17C14 16.4479 14.1042 15.9297 14.3125 15.4453C14.5208 14.9557 14.8047 14.5312 15.1641 14.1719C15.5286 13.8073 15.9531 13.5208 16.4375 13.3125C16.671 13.2131 16.9117 13.1374 17.1595 13.0855C17.4311 13.0285 17.7113 13 18 13C18.276 13 18.5436 13.026 18.8027 13.0781C19.0638 13.1302 19.3171 13.2081 19.5625 13.3125C20.0469 13.5208 20.4714 13.8073 20.8359 14.1719C21.1953 14.5312 21.4792 14.9557 21.6875 15.4453C21.8958 15.9297 22 16.4479 22 17C22 17.7135 21.8333 18.362 21.5 18.9453C21.4256 19.0765 21.3444 19.2026 21.2566 19.3239C21.1523 19.4702 21.0382 19.6096 20.9141 19.7422C20.6797 19.987 20.4167 20.2031 20.125 20.3906C20.7031 20.5938 21.2318 20.888 21.7109 21.2734C22.1849 21.6536 22.5938 22.0938 22.9375 22.5938C23.2349 23.0283 23.4739 23.4971 23.6548 24H22.5831C22.5759 23.9833 22.5686 23.9668 22.5613 23.9502L22.5547 23.9531ZM15 17C15 17.4167 15.0781 17.8073 15.2344 18.1719C15.3906 18.5312 15.6068 18.849 15.8828 19.125C16.1536 19.3958 16.4714 19.6094 16.8359 19.7656C17.1999 19.9216 17.5872 19.9997 17.9979 20H18.0033C18.4135 19.9996 18.8005 19.9215 19.1641 19.7656C19.5286 19.6094 19.8464 19.3958 20.1172 19.125C20.3932 18.849 20.6094 18.5312 20.7656 18.1719C20.9219 17.8073 21 17.4167 21 17C21 16.5885 20.9219 16.2005 20.7656 15.8359C20.6094 15.4714 20.3932 15.1536 20.1172 14.8828C19.8464 14.6068 19.5286 14.3906 19.1641 14.2344C18.8001 14.0784 18.4128 14.0003 18.0021 14L17.9966 14C17.5864 14.0004 17.1995 14.0785 16.8359 14.2344C16.4714 14.3906 16.1536 14.6068 15.8828 14.8828C15.6068 15.1536 15.3906 15.4714 15.2344 15.8359C15.0781 16.2005 15 16.5885 15 17Z" fill="#333333"/>
<path d="M40.2617 18.2363H36.4336V21.627H39.9746V22.6592H36.4336V27H35.2852V17.1973H40.2617V18.2363ZM44.8965 27.1641C43.862 27.1641 43.0348 26.8382 42.415 26.1865C41.7998 25.5303 41.4922 24.6621 41.4922 23.582C41.4922 22.4062 41.8135 21.488 42.4561 20.8271C43.0986 20.1663 43.9668 19.8359 45.0605 19.8359C46.1042 19.8359 46.9176 20.1572 47.501 20.7998C48.0889 21.4424 48.3828 22.3333 48.3828 23.4727C48.3828 24.5892 48.0661 25.4847 47.4326 26.1592C46.8037 26.8291 45.9583 27.1641 44.8965 27.1641ZM44.9785 20.7793C44.2585 20.7793 43.6888 21.0254 43.2695 21.5176C42.8503 22.0052 42.6406 22.6797 42.6406 23.541C42.6406 24.3704 42.8525 25.0244 43.2764 25.5029C43.7002 25.9814 44.2676 26.2207 44.9785 26.2207C45.7031 26.2207 46.2591 25.986 46.6465 25.5166C47.0384 25.0472 47.2344 24.3796 47.2344 23.5137C47.2344 22.6387 47.0384 21.9642 46.6465 21.4902C46.2591 21.0163 45.7031 20.7793 44.9785 20.7793ZM51.2949 27H50.1738V16.6367H51.2949V27ZM54.6855 27H53.5645V16.6367H54.6855V27ZM59.8809 27.1641C58.8464 27.1641 58.0192 26.8382 57.3994 26.1865C56.7842 25.5303 56.4766 24.6621 56.4766 23.582C56.4766 22.4062 56.7979 21.488 57.4404 20.8271C58.083 20.1663 58.9512 19.8359 60.0449 19.8359C61.0885 19.8359 61.902 20.1572 62.4854 20.7998C63.0732 21.4424 63.3672 22.3333 63.3672 23.4727C63.3672 24.5892 63.0505 25.4847 62.417 26.1592C61.7881 26.8291 60.9427 27.1641 59.8809 27.1641ZM59.9629 20.7793C59.2428 20.7793 58.6732 21.0254 58.2539 21.5176C57.8346 22.0052 57.625 22.6797 57.625 23.541C57.625 24.3704 57.8369 25.0244 58.2607 25.5029C58.6846 25.9814 59.252 26.2207 59.9629 26.2207C60.6875 26.2207 61.2435 25.986 61.6309 25.5166C62.0228 25.0472 62.2188 24.3796 62.2188 23.5137C62.2188 22.6387 62.0228 21.9642 61.6309 21.4902C61.2435 21.0163 60.6875 20.7793 59.9629 20.7793ZM73.9766 20L71.8779 27H70.7158L69.2734 21.9893C69.2188 21.7979 69.1823 21.5814 69.1641 21.3398H69.1367C69.123 21.5039 69.0752 21.7158 68.9932 21.9756L67.4277 27H66.3066L64.1875 20H65.3633L66.8125 25.2637C66.8581 25.4232 66.89 25.6328 66.9082 25.8926H66.9629C66.9766 25.6921 67.0176 25.4779 67.0859 25.25L68.6992 20H69.7246L71.1738 25.2773C71.2194 25.446 71.2536 25.6556 71.2764 25.9062H71.3311C71.3402 25.7285 71.3789 25.5189 71.4473 25.2773L72.8691 20H73.9766Z" fill="black"/>
</svg>
