<svg width="75" height="42" viewBox="0 0 75 42" fill="none" xmlns="http://www.w3.org/2000/svg">
<path d="M75 0H0V42H75V0Z" fill="white"/>
<path d="M44.1875 26H42.7793L37.7344 18.1865C37.6068 17.9906 37.502 17.7855 37.4199 17.5713H37.3789C37.4154 17.7809 37.4336 18.2298 37.4336 18.918V26H36.2852V16.1973H37.7754L42.6836 23.8877C42.8887 24.2067 43.0208 24.4255 43.0801 24.5439H43.1074C43.0618 24.2614 43.0391 23.7806 43.0391 23.1016V16.1973H44.1875V26ZM52.2334 22.7803H47.291C47.3092 23.5596 47.5189 24.1611 47.9199 24.585C48.321 25.0088 48.8724 25.2207 49.5742 25.2207C50.3626 25.2207 51.0872 24.9609 51.748 24.4414V25.4941C51.1328 25.9408 50.3193 26.1641 49.3076 26.1641C48.3187 26.1641 47.5417 25.8473 46.9766 25.2139C46.4115 24.5758 46.1289 23.6803 46.1289 22.5273C46.1289 21.4382 46.4365 20.5518 47.0518 19.8682C47.6715 19.18 48.4395 18.8359 49.3555 18.8359C50.2715 18.8359 50.9801 19.1322 51.4814 19.7246C51.9827 20.3171 52.2334 21.1396 52.2334 22.1924V22.7803ZM51.085 21.8301C51.0804 21.1829 50.9232 20.6794 50.6133 20.3193C50.3079 19.9593 49.8818 19.7793 49.335 19.7793C48.8063 19.7793 48.3574 19.9684 47.9883 20.3467C47.6191 20.7249 47.3913 21.2194 47.3047 21.8301H51.085ZM62.754 19L60.655 26H59.493L58.051 20.9893C57.996 20.7979 57.96 20.5814 57.941 20.3398H57.914C57.9 20.5039 57.853 20.7158 57.771 20.9756L56.2051 26H55.084L52.9648 19H54.1406L55.5898 24.2637C55.6354 24.4232 55.6673 24.6328 55.6855 24.8926H55.7402C55.7539 24.6921 55.7949 24.4779 55.8633 24.25L57.477 19H58.502L59.951 24.2773C59.997 24.446 60.031 24.6556 60.054 24.9062H60.108C60.118 24.7285 60.156 24.5189 60.225 24.2773L61.646 19H62.754Z" fill="#333333"/>
<path d="M28 20.5V21.5H20.5V29H19.5V21.5H12V20.5H19.5V13H20.5V20.5H28Z" fill="#25A954"/>
</svg>
