<svg width="118" height="42" viewBox="0 0 118 42" fill="none" xmlns="http://www.w3.org/2000/svg">
<path d="M118 0H0V42H118V0Z" fill="white"/>
<path d="M37.4342 22.2949V26H36.2852V16.1973H38.9792C40.0272 16.1973 40.8382 16.4525 41.4122 16.9629C41.9912 17.4733 42.2802 18.1934 42.2802 19.123C42.2802 20.0527 41.9592 20.8138 41.3162 21.4062C40.6782 21.9987 39.8152 22.2949 38.7262 22.2949H37.4342ZM37.4342 17.2363V21.2559H38.6372C39.4302 21.2559 40.0342 21.0758 40.4482 20.7158C40.8682 20.3512 41.0772 19.8385 41.0772 19.1777C41.0772 17.8835 40.3122 17.2363 38.7802 17.2363H37.4342ZM47.6332 20.1348C47.4372 19.9844 47.1542 19.9092 46.7852 19.9092C46.3072 19.9092 45.9062 20.1348 45.5822 20.5859C45.2632 21.0371 45.1042 21.6523 45.1042 22.4316V26H43.9822V19H45.1042V20.4424H45.1312C45.2902 19.9502 45.5342 19.5674 45.8622 19.2939C46.1902 19.016 46.5572 18.877 46.9632 18.877C47.2552 18.877 47.4782 18.9089 47.6332 18.9727V20.1348ZM51.7752 26.1641C50.7412 26.1641 49.9142 25.8382 49.2942 25.1865C48.6792 24.5303 48.3712 23.6621 48.3712 22.582C48.3712 21.4062 48.6922 20.488 49.3352 19.8271C49.9782 19.1663 50.8462 18.8359 51.9392 18.8359C52.9832 18.8359 53.7972 19.1572 54.3802 19.7998C54.9682 20.4424 55.2622 21.3333 55.2622 22.4727C55.2622 23.5892 54.9452 24.4847 54.3122 25.1592C53.6832 25.8291 52.8372 26.1641 51.7752 26.1641ZM51.8572 19.7793C51.1372 19.7793 50.5682 20.0254 50.1482 20.5176C49.7292 21.0052 49.5202 21.6797 49.5202 22.541C49.5202 23.3704 49.7312 24.0244 50.1552 24.5029C50.5792 24.9814 51.1462 25.2207 51.8572 25.2207C52.5822 25.2207 53.1382 24.986 53.5252 24.5166C53.9172 24.0472 54.1132 23.3796 54.1132 22.5137C54.1132 21.6387 53.9172 20.9642 53.5252 20.4902C53.1382 20.0163 52.5822 19.7793 51.8572 19.7793ZM61.8242 25.6787C61.2862 26.0023 60.6482 26.1641 59.9102 26.1641C58.9122 26.1641 58.1052 25.8405 57.4902 25.1934C56.8802 24.5417 56.5742 23.6986 56.5742 22.6641C56.5742 21.5111 56.9052 20.5859 57.5652 19.8887C58.2262 19.1868 59.1082 18.8359 60.2112 18.8359C60.8262 18.8359 61.3682 18.9499 61.8382 19.1777V20.3262C61.3182 19.9616 60.7622 19.7793 60.1702 19.7793C59.4542 19.7793 58.8672 20.0368 58.4062 20.5518C57.9512 21.0622 57.7232 21.7344 57.7232 22.5684C57.7232 23.3887 57.9372 24.0358 58.3652 24.5098C58.7982 24.9837 59.3772 25.2207 60.1022 25.2207C60.7122 25.2207 61.2862 25.0179 61.8242 24.6123V25.6787ZM69.1462 22.7803H64.2032C64.2212 23.5596 64.4312 24.1611 64.8322 24.585C65.2332 25.0088 65.7852 25.2207 66.4862 25.2207C67.2752 25.2207 67.9992 24.9609 68.6602 24.4414V25.4941C68.0452 25.9408 67.2312 26.1641 66.2202 26.1641C65.2312 26.1641 64.4542 25.8473 63.8892 25.2139C63.3242 24.5758 63.0412 23.6803 63.0412 22.5273C63.0412 21.4382 63.3492 20.5518 63.9642 19.8682C64.5842 19.18 65.3522 18.8359 66.2682 18.8359C67.1842 18.8359 67.8922 19.1322 68.3942 19.7246C68.8952 20.3171 69.1462 21.1396 69.1462 22.1924V22.7803ZM67.9972 21.8301C67.9932 21.1829 67.8352 20.6794 67.5252 20.3193C67.2202 19.9593 66.7942 19.7793 66.2472 19.7793C65.7182 19.7793 65.2702 19.9684 64.9002 20.3467C64.5312 20.7249 64.3032 21.2194 64.2172 21.8301H67.9972ZM70.4242 25.7471V24.5439C71.0352 24.9951 71.7072 25.2207 72.4402 25.2207C73.4252 25.2207 73.9172 24.8926 73.9172 24.2363C73.9172 24.0495 73.8742 23.8923 73.7872 23.7646C73.7052 23.6325 73.5912 23.5163 73.4452 23.416C73.3042 23.3158 73.1352 23.2269 72.9392 23.1494C72.7482 23.0674 72.5412 22.9831 72.3172 22.8965C72.0072 22.7734 71.7342 22.6504 71.4972 22.5273C71.2652 22.3997 71.0692 22.2585 70.9092 22.1035C70.7542 21.944 70.6362 21.764 70.5542 21.5635C70.4762 21.363 70.4382 21.1283 70.4382 20.8594C70.4382 20.5312 70.5132 20.2419 70.6632 19.9912C70.8132 19.736 71.0142 19.5241 71.2652 19.3555C71.5152 19.1823 71.8002 19.0524 72.1192 18.9658C72.4432 18.8792 72.7752 18.8359 73.1172 18.8359C73.7232 18.8359 74.2662 18.9408 74.7442 19.1504V20.2852C74.2292 19.9479 73.6372 19.7793 72.9672 19.7793C72.7572 19.7793 72.5682 19.8044 72.3992 19.8545C72.2312 19.9001 72.0852 19.9661 71.9622 20.0527C71.8432 20.1393 71.7502 20.2441 71.6822 20.3672C71.6182 20.4857 71.5862 20.6178 71.5862 20.7637C71.5862 20.946 71.6182 21.0986 71.6822 21.2217C71.7502 21.3447 71.8482 21.4541 71.9762 21.5498C72.1032 21.6455 72.2582 21.7321 72.4402 21.8096C72.6232 21.887 72.8302 21.9714 73.0622 22.0625C73.3722 22.181 73.6502 22.304 73.8962 22.4316C74.1432 22.5547 74.3522 22.696 74.5252 22.8555C74.6992 23.0104 74.8312 23.1904 74.9222 23.3955C75.0182 23.6006 75.0652 23.8444 75.0652 24.127C75.0652 24.4733 74.9882 24.7741 74.8332 25.0293C74.6832 25.2845 74.4802 25.4964 74.2252 25.665C73.9692 25.8337 73.6752 25.959 73.3432 26.041C73.0102 26.123 72.6612 26.1641 72.2972 26.1641C71.5772 26.1641 70.9522 26.0251 70.4242 25.7471ZM76.3712 25.7471V24.5439C76.9822 24.9951 77.6542 25.2207 78.3882 25.2207C79.3722 25.2207 79.8642 24.8926 79.8642 24.2363C79.8642 24.0495 79.8212 23.8923 79.7342 23.7646C79.6522 23.6325 79.5382 23.5163 79.3932 23.416C79.2512 23.3158 79.0832 23.2269 78.8872 23.1494C78.6952 23.0674 78.4882 22.9831 78.2652 22.8965C77.9552 22.7734 77.6812 22.6504 77.4442 22.5273C77.2122 22.3997 77.0162 22.2585 76.8562 22.1035C76.7012 21.944 76.5832 21.764 76.5012 21.5635C76.4242 21.363 76.3852 21.1283 76.3852 20.8594C76.3852 20.5312 76.4602 20.2419 76.6102 19.9912C76.7612 19.736 76.9612 19.5241 77.2122 19.3555C77.4632 19.1823 77.7472 19.0524 78.0662 18.9658C78.3902 18.8792 78.7232 18.8359 79.0642 18.8359C79.6712 18.8359 80.2132 18.9408 80.6912 19.1504V20.2852C80.1762 19.9479 79.5842 19.7793 78.9142 19.7793C78.7042 19.7793 78.5152 19.8044 78.3472 19.8545C78.1782 19.9001 78.0322 19.9661 77.9092 20.0527C77.7912 20.1393 77.6972 20.2441 77.6292 20.3672C77.5652 20.4857 77.5332 20.6178 77.5332 20.7637C77.5332 20.946 77.5652 21.0986 77.6292 21.2217C77.6972 21.3447 77.7952 21.4541 77.9232 21.5498C78.0502 21.6455 78.2052 21.7321 78.3882 21.8096C78.5702 21.887 78.7772 21.9714 79.0102 22.0625C79.3202 22.181 79.5982 22.304 79.8442 22.4316C80.0902 22.5547 80.2992 22.696 80.4732 22.8555C80.6462 23.0104 80.7782 23.1904 80.8692 23.3955C80.9652 23.6006 81.0132 23.8444 81.0132 24.127C81.0132 24.4733 80.9352 24.7741 80.7802 25.0293C80.6302 25.2845 80.4272 25.4964 80.1722 25.665C79.9172 25.8337 79.6232 25.959 79.2902 26.041C78.9572 26.123 78.6092 26.1641 78.2442 26.1641C77.5242 26.1641 76.9002 26.0251 76.3712 25.7471Z" fill="#333333"/>
<path d="M100 24.709L94.146 18.8555L94.855 18.1465L100 23.291L105.145 18.1465L105.854 18.8555L100 24.709Z" fill="#333333"/>
<path d="M14.141 24.7812C14.688 25.6198 15.38 26.3125 16.219 26.8594L15.836 27.7891C15.299 27.4609 14.81 27.0755 14.367 26.6328C13.924 26.1901 13.539 25.7005 13.211 25.1641L14.141 24.7812ZM13.18 19.5312C13.122 19.776 13.078 20.0208 13.047 20.2656C13.016 20.5052 13 20.75 13 21C13 21.25 13.016 21.4974 13.047 21.7422C13.078 21.987 13.122 22.2318 13.18 22.4766L12.25 22.8594C12.177 22.5521 12.117 22.2448 12.07 21.9375C12.023 21.625 12 21.3125 12 21C12 20.6875 12.023 20.3776 12.07 20.0703C12.117 19.7578 12.177 19.4479 12.25 19.1406L13.18 19.5312ZM20 28C20.25 28 20.497 27.9844 20.742 27.9531C20.987 27.9219 21.232 27.8776 21.477 27.8203L21.859 28.75C21.552 28.8229 21.242 28.8828 20.93 28.9297C20.622 28.9766 20.312 29 20 29C19.688 29 19.375 28.9766 19.062 28.9297C18.755 28.8828 18.448 28.8229 18.141 28.75L18.523 27.8203C18.768 27.8776 19.013 27.9219 19.258 27.9531C19.503 27.9844 19.75 28 20 28ZM27.75 19.1406C27.823 19.4479 27.88 19.7578 27.922 20.0703C27.969 20.3776 27.992 20.6875 27.992 21C27.992 21.3125 27.969 21.625 27.922 21.9375C27.88 22.2448 27.823 22.5521 27.75 22.8594L26.82 22.4766C26.878 22.2318 26.922 21.987 26.953 21.7422C26.984 21.4974 27 21.25 27 21C27 20.75 26.984 20.5052 26.953 20.2656C26.922 20.0208 26.878 19.776 26.82 19.5312L27.75 19.1406ZM25.852 17.2188C25.586 16.8021 25.279 16.4193 24.93 16.0703C24.581 15.7214 24.198 15.4141 23.781 15.1484L24.164 14.2188C24.701 14.5469 25.19 14.9323 25.633 15.375C26.076 15.8125 26.461 16.2995 26.789 16.8359L25.852 17.2188ZM23.781 26.8594C24.62 26.3125 25.312 25.6198 25.859 24.7812L26.789 25.1641C26.461 25.7005 26.076 26.1901 25.633 26.6328C25.19 27.0755 24.701 27.4609 24.164 27.7891L23.781 26.8594ZM14 13H18V17H17V14.7109C16.417 14.987 15.88 15.3359 15.391 15.7578C14.901 16.1797 14.482 16.6641 14.133 17.2109L13.195 16.8281C13.56 16.2344 13.992 15.7005 14.492 15.2266C14.992 14.7474 15.547 14.3385 16.156 14H14V13Z" fill="#333333"/>
</svg>
