<svg width="90" height="42" viewBox="0 0 90 42" fill="none" xmlns="http://www.w3.org/2000/svg">
<path d="M90 0H0V42H90V0Z" fill="white"/>
<path d="M39.2363 27.1641C37.8509 27.1641 36.7367 26.7061 35.8936 25.79C35.0596 24.874 34.6426 23.6823 34.6426 22.2148C34.6426 20.6335 35.0687 19.3757 35.9209 18.4414C36.7777 17.5026 37.9375 17.0332 39.4004 17.0332C40.7493 17.0332 41.8385 17.4889 42.668 18.4004C43.4974 19.3118 43.9121 20.5036 43.9121 21.9756C43.9121 23.5752 43.4883 24.8398 42.6406 25.7695C42.4401 25.9928 42.2259 26.1842 41.998 26.3438L44.7529 28.3193H42.668L40.8223 26.9385C40.3392 27.0889 39.8105 27.1641 39.2363 27.1641ZM39.3184 18.0723C38.2884 18.0723 37.4521 18.4437 36.8096 19.1865C36.167 19.9294 35.8457 20.9046 35.8457 22.1123C35.8457 23.3154 36.1579 24.2884 36.7822 25.0312C37.4111 25.765 38.2292 26.1318 39.2363 26.1318C40.3118 26.1318 41.1595 25.7809 41.7793 25.0791C42.3991 24.3773 42.709 23.3952 42.709 22.1328C42.709 20.834 42.4082 19.8337 41.8066 19.1318C41.2051 18.4255 40.3757 18.0723 39.3184 18.0723ZM51.3496 27H50.2285V25.8926H50.2012C49.7363 26.7402 49.0163 27.1641 48.041 27.1641C46.373 27.1641 45.5391 26.1706 45.5391 24.1836V20H46.6533V24.0059C46.6533 25.4824 47.2184 26.2207 48.3486 26.2207C48.8955 26.2207 49.3444 26.0202 49.6953 25.6191C50.0508 25.2135 50.2285 24.6849 50.2285 24.0332V20H51.3496V27ZM58.6299 27H57.5088V25.9062H57.4814C56.9938 26.7448 56.276 27.1641 55.3281 27.1641C54.6309 27.1641 54.084 26.9795 53.6875 26.6104C53.2956 26.2412 53.0996 25.7513 53.0996 25.1406C53.0996 23.8327 53.8698 23.0716 55.4102 22.8574L57.5088 22.5635C57.5088 21.374 57.028 20.7793 56.0664 20.7793C55.2233 20.7793 54.4622 21.0664 53.7832 21.6406V20.4922C54.4714 20.0547 55.2643 19.8359 56.1621 19.8359C57.8073 19.8359 58.6299 20.7064 58.6299 22.4473V27ZM57.5088 23.459L55.8203 23.6914C55.3008 23.7643 54.9089 23.8942 54.6445 24.0811C54.3802 24.2633 54.248 24.5892 54.248 25.0586C54.248 25.4004 54.3688 25.6807 54.6104 25.8994C54.8564 26.1136 55.1823 26.2207 55.5879 26.2207C56.1439 26.2207 56.6019 26.027 56.9619 25.6396C57.3265 25.2477 57.5088 24.7533 57.5088 24.1562V23.459ZM61.8633 27H60.7422V16.6367H61.8633V27ZM64.707 18.2227C64.5065 18.2227 64.3356 18.1543 64.1943 18.0176C64.0531 17.8809 63.9824 17.7077 63.9824 17.498C63.9824 17.2884 64.0531 17.1152 64.1943 16.9785C64.3356 16.8372 64.5065 16.7666 64.707 16.7666C64.9121 16.7666 65.0853 16.8372 65.2266 16.9785C65.3724 17.1152 65.4453 17.2884 65.4453 17.498C65.4453 17.6986 65.3724 17.8695 65.2266 18.0107C65.0853 18.152 64.9121 18.2227 64.707 18.2227ZM65.2539 27H64.1328V20H65.2539V27ZM70.9824 17.6211C70.7637 17.498 70.5153 17.4365 70.2373 17.4365C69.4535 17.4365 69.0615 17.931 69.0615 18.9199V20H70.7021V20.957H69.0615V27H67.9473V20.957H66.751V20H67.9473V18.8652C67.9473 18.1315 68.1592 17.5527 68.583 17.1289C69.0068 16.7005 69.5355 16.4863 70.1689 16.4863C70.5107 16.4863 70.7819 16.5273 70.9824 16.6094V17.6211ZM77.4834 20L74.2637 28.1211C73.6895 29.5703 72.8828 30.2949 71.8438 30.2949C71.5521 30.2949 71.3083 30.2653 71.1123 30.2061V29.2012C71.3538 29.2832 71.5749 29.3242 71.7754 29.3242C72.3405 29.3242 72.7643 28.987 73.0469 28.3125L73.6074 26.9863L70.873 20H72.1172L74.0107 25.3867C74.0335 25.4551 74.0814 25.6328 74.1543 25.9199H74.1953C74.2181 25.8105 74.2637 25.6374 74.332 25.4004L76.3213 20H77.4834Z" fill="black"/>
<path d="M22.3828 28C22.7005 28 22.9661 27.9714 23.1797 27.9141C23.3932 27.8516 23.5859 27.7656 23.7578 27.6562C23.9297 27.5417 24.0964 27.401 24.2578 27.2344C24.4245 27.0677 24.6172 26.875 24.8359 26.6562C24.9453 26.5469 25 26.4167 25 26.2656C25 26.1094 24.9453 25.9766 24.8359 25.8672L23.3438 24.375C23.2344 24.2656 23.1016 24.2109 22.9453 24.2109C22.8359 24.2109 22.7318 24.2448 22.6328 24.3125C22.5391 24.3802 22.4427 24.4661 22.3438 24.5703C22.25 24.6693 22.1484 24.7786 22.0391 24.8984C21.9349 25.013 21.8177 25.1224 21.6875 25.2266C21.5573 25.3255 21.4115 25.4089 21.25 25.4766C21.0938 25.5443 20.9141 25.5781 20.7109 25.5781C20.5026 25.5781 20.3021 25.5391 20.1094 25.4609C19.9219 25.3776 19.7552 25.263 19.6094 25.1172L15.8828 21.3906C15.737 21.2448 15.6224 21.0781 15.5391 20.8906C15.4609 20.6979 15.4219 20.4974 15.4219 20.2891C15.4219 20.0859 15.4557 19.9062 15.5234 19.75C15.5911 19.5885 15.6745 19.4427 15.7734 19.3125C15.8776 19.1823 15.987 19.0651 16.1016 18.9609C16.2214 18.8516 16.3307 18.7474 16.4297 18.6484C16.5339 18.5495 16.6198 18.4531 16.6875 18.3594C16.7552 18.2604 16.7891 18.1562 16.7891 18.0469C16.7891 17.8958 16.7344 17.7656 16.625 17.6562L15.1328 16.1641C15.0234 16.0547 14.8932 16 14.7422 16C14.5859 16 14.4531 16.0547 14.3438 16.1641C14.125 16.3828 13.9323 16.5755 13.7656 16.7422C13.599 16.9036 13.4583 17.0703 13.3438 17.2422C13.2344 17.4141 13.1484 17.6068 13.0859 17.8203C13.0286 18.0339 13 18.2995 13 18.6172C13 19.1068 13.0807 19.6172 13.2422 20.1484C13.4036 20.6797 13.6276 21.2109 13.9141 21.7422C14.2005 22.2734 14.5391 22.7969 14.9297 23.3125C15.3255 23.8281 15.7552 24.3177 16.2188 24.7812C16.6823 25.2448 17.1719 25.6745 17.6875 26.0703C18.2031 26.4609 18.7266 26.7995 19.2578 27.0859C19.7891 27.3724 20.3203 27.5964 20.8516 27.7578C21.3828 27.9193 21.8932 28 22.3828 28Z" fill="white"/>
<path d="M22.9531 23.2109C23.1562 23.2109 23.3542 23.25 23.5469 23.3281C23.7396 23.4062 23.9089 23.5182 24.0547 23.6641L25.5469 25.1562C25.6927 25.3021 25.8047 25.4714 25.8828 25.6641C25.9609 25.8568 26 26.0547 26 26.2578C26 26.4609 25.9609 26.6589 25.8828 26.8516C25.8047 27.0443 25.6927 27.2135 25.5469 27.3594L24.7969 28.1094C24.4688 28.4323 24.0964 28.6615 23.6797 28.7969C23.263 28.9323 22.8307 29 22.3828 29C21.8255 29 21.2474 28.9141 20.6484 28.7422C20.0547 28.5651 19.4609 28.3203 18.8672 28.0078C18.2786 27.6953 17.6979 27.3255 17.125 26.8984C16.5573 26.4714 16.0182 26.0052 15.5078 25.5C15.0026 24.9896 14.5339 24.4505 14.1016 23.8828C13.6745 23.3099 13.3047 22.7292 12.9922 22.1406C12.6797 21.5469 12.4349 20.9531 12.2578 20.3594C12.0859 19.7656 12 19.1875 12 18.625C12 18.224 12.0339 17.8828 12.1016 17.6016C12.1745 17.3203 12.2786 17.0651 12.4141 16.8359C12.5547 16.6068 12.7266 16.3854 12.9297 16.1719C13.1328 15.9583 13.3698 15.7188 13.6406 15.4531C13.7865 15.3073 13.9557 15.1953 14.1484 15.1172C14.3411 15.0391 14.5391 15 14.7422 15C14.9453 15 15.1432 15.0391 15.3359 15.1172C15.5286 15.1953 15.6979 15.3073 15.8438 15.4531L17.3359 16.9453C17.4818 17.0911 17.5938 17.2604 17.6719 17.4531C17.75 17.6458 17.7891 17.8438 17.7891 18.0469C17.7891 18.25 17.7552 18.4323 17.6875 18.5938C17.6198 18.75 17.5339 18.8958 17.4297 19.0312C17.3307 19.1615 17.2214 19.2812 17.1016 19.3906C16.987 19.4948 16.8776 19.5964 16.7734 19.6953C16.6745 19.7943 16.5911 19.8932 16.5234 19.9922C16.4557 20.0859 16.4219 20.1849 16.4219 20.2891C16.4219 20.4401 16.4766 20.5703 16.5859 20.6797L20.3203 24.4141C20.4297 24.5234 20.5599 24.5781 20.7109 24.5781C20.8203 24.5781 20.9219 24.5443 21.0156 24.4766C21.1146 24.4089 21.2109 24.3255 21.3047 24.2266C21.4036 24.1224 21.5052 24.013 21.6094 23.8984C21.7188 23.7786 21.8385 23.6693 21.9688 23.5703C22.099 23.4661 22.2422 23.3802 22.3984 23.3125C22.5599 23.2448 22.7448 23.2109 22.9531 23.2109ZM22.3828 28C22.7005 28 22.9661 27.9714 23.1797 27.9141C23.3932 27.8516 23.5859 27.7656 23.7578 27.6562C23.9297 27.5417 24.0964 27.401 24.2578 27.2344C24.4245 27.0677 24.6172 26.875 24.8359 26.6562C24.9453 26.5469 25 26.4167 25 26.2656C25 26.1094 24.9453 25.9766 24.8359 25.8672L23.3438 24.375C23.2344 24.2656 23.1016 24.2109 22.9453 24.2109C22.8359 24.2109 22.7318 24.2448 22.6328 24.3125C22.5391 24.3802 22.4427 24.4661 22.3438 24.5703C22.25 24.6693 22.1484 24.7786 22.0391 24.8984C21.9349 25.013 21.8177 25.1224 21.6875 25.2266C21.5573 25.3255 21.4115 25.4089 21.25 25.4766C21.0938 25.5443 20.9141 25.5781 20.7109 25.5781C20.5026 25.5781 20.3021 25.5391 20.1094 25.4609C19.9219 25.3776 19.7552 25.263 19.6094 25.1172L15.8828 21.3906C15.737 21.2448 15.6224 21.0781 15.5391 20.8906C15.4609 20.6979 15.4219 20.4974 15.4219 20.2891C15.4219 20.0859 15.4557 19.9062 15.5234 19.75C15.5911 19.5885 15.6745 19.4427 15.7734 19.3125C15.8776 19.1823 15.987 19.0651 16.1016 18.9609C16.2214 18.8516 16.3307 18.7474 16.4297 18.6484C16.5339 18.5495 16.6198 18.4531 16.6875 18.3594C16.7552 18.2604 16.7891 18.1562 16.7891 18.0469C16.7891 17.8958 16.7344 17.7656 16.625 17.6562L15.1328 16.1641C15.0234 16.0547 14.8932 16 14.7422 16C14.5859 16 14.4531 16.0547 14.3438 16.1641C14.125 16.3828 13.9323 16.5755 13.7656 16.7422C13.599 16.9036 13.4583 17.0703 13.3438 17.2422C13.2344 17.4141 13.1484 17.6068 13.0859 17.8203C13.0286 18.0339 13 18.2995 13 18.6172C13 19.1068 13.0807 19.6172 13.2422 20.1484C13.4036 20.6797 13.6276 21.2109 13.9141 21.7422C14.2005 22.2734 14.5391 22.7969 14.9297 23.3125C15.3255 23.8281 15.7552 24.3177 16.2188 24.7812C16.6823 25.2448 17.1719 25.6745 17.6875 26.0703C18.2031 26.4609 18.7266 26.7995 19.2578 27.0859C19.7891 27.3724 20.3203 27.5964 20.8516 27.7578C21.3828 27.9193 21.8932 28 22.3828 28Z" fill="#333333"/>
<path d="M22.5 20.7109L19.6484 17.8516L20.3516 17.1484L22.5 19.2891L27.1484 14.6484L27.8516 15.3516L22.5 20.7109Z" fill="#27AE50"/>
</svg>
