<svg width="197" height="42" viewBox="0 0 197 42" fill="none" xmlns="http://www.w3.org/2000/svg">
<path d="M197 0H0V42H197V0Z" fill="white"/>
<path d="M43.3122 26H41.9452L40.3051 23.252C40.1541 22.9967 40.0082 22.7803 39.8672 22.6025C39.7262 22.4202 39.5801 22.2721 39.4301 22.1582C39.2841 22.0443 39.1241 21.9622 38.9511 21.9121C38.7831 21.8574 38.5912 21.8301 38.3772 21.8301H37.4341V26H36.2852V16.1973H39.2112C39.6392 16.1973 40.0341 16.252 40.3941 16.3613C40.7581 16.4661 41.0731 16.6279 41.3371 16.8467C41.6061 17.0654 41.8152 17.3389 41.9662 17.667C42.1162 17.9906 42.1911 18.3711 42.1911 18.8086C42.1911 19.1504 42.1391 19.4648 42.0341 19.752C41.9341 20.0345 41.7881 20.2874 41.5971 20.5107C41.4101 20.734 41.1822 20.9255 40.9132 21.085C40.6492 21.2399 40.3502 21.3607 40.0182 21.4473V21.4746C40.1822 21.5475 40.3231 21.6318 40.4411 21.7275C40.5641 21.8187 40.6811 21.9281 40.7901 22.0557C40.8991 22.1833 41.0072 22.3291 41.1112 22.4932C41.2212 22.6527 41.3412 22.8395 41.4742 23.0537L43.3122 26ZM37.4341 17.2363V20.791H38.9922C39.2792 20.791 39.5442 20.7477 39.7852 20.6611C40.0312 20.5745 40.2432 20.4515 40.4212 20.292C40.5992 20.1279 40.7382 19.9297 40.8382 19.6973C40.9382 19.4603 40.9881 19.196 40.9881 18.9043C40.9881 18.3802 40.8172 17.9723 40.4762 17.6807C40.1382 17.3844 39.6482 17.2363 39.0062 17.2363H37.4341ZM49.7312 22.7803H44.7892C44.8072 23.5596 45.0172 24.1611 45.4182 24.585C45.8192 25.0088 46.3702 25.2207 47.0722 25.2207C47.8612 25.2207 48.5851 24.9609 49.2461 24.4414V25.4941C48.6311 25.9408 47.8172 26.1641 46.8062 26.1641C45.8172 26.1641 45.0401 25.8473 44.4751 25.2139C43.9101 24.5758 43.6272 23.6803 43.6272 22.5273C43.6272 21.4382 43.9351 20.5518 44.5501 19.8682C45.1701 19.18 45.9382 18.8359 46.8542 18.8359C47.7702 18.8359 48.4782 19.1322 48.9792 19.7246C49.4812 20.3171 49.7312 21.1396 49.7312 22.1924V22.7803ZM48.5832 21.8301C48.5782 21.1829 48.4212 20.6794 48.1112 20.3193C47.8062 19.9593 47.3802 19.7793 46.8332 19.7793C46.3042 19.7793 45.8552 19.9684 45.4862 20.3467C45.1172 20.7249 44.8891 21.2194 44.8031 21.8301H48.5832ZM56.2052 25.6787C55.6672 26.0023 55.0292 26.1641 54.2912 26.1641C53.2932 26.1641 52.4861 25.8405 51.8711 25.1934C51.2601 24.5417 50.9552 23.6986 50.9552 22.6641C50.9552 21.5111 51.2851 20.5859 51.9461 19.8887C52.6071 19.1868 53.4891 18.8359 54.5921 18.8359C55.2071 18.8359 55.7491 18.9499 56.2191 19.1777V20.3262C55.6991 19.9616 55.1432 19.7793 54.5512 19.7793C53.8352 19.7793 53.2471 20.0368 52.7871 20.5518C52.3311 21.0622 52.1042 21.7344 52.1042 22.5684C52.1042 23.3887 52.3181 24.0358 52.7461 24.5098C53.1791 24.9837 53.7581 25.2207 54.4821 25.2207C55.0931 25.2207 55.6672 25.0179 56.2052 24.6123V25.6787ZM62.9112 26H61.7901V24.9062H61.7632C61.2752 25.7448 60.5572 26.1641 59.6092 26.1641C58.9122 26.1641 58.3651 25.9795 57.9691 25.6104C57.5771 25.2412 57.3811 24.7513 57.3811 24.1406C57.3811 22.8327 58.1511 22.0716 59.6911 21.8574L61.7901 21.5635C61.7901 20.374 61.3092 19.7793 60.3482 19.7793C59.5052 19.7793 58.7432 20.0664 58.0642 20.6406V19.4922C58.7532 19.0547 59.5461 18.8359 60.4431 18.8359C62.0891 18.8359 62.9112 19.7064 62.9112 21.4473V26ZM61.7901 22.459L60.1021 22.6914C59.5821 22.7643 59.1902 22.8942 58.9262 23.0811C58.6612 23.2633 58.5291 23.5892 58.5291 24.0586C58.5291 24.4004 58.6502 24.6807 58.8922 24.8994C59.1382 25.1136 59.4642 25.2207 59.8692 25.2207C60.4252 25.2207 60.8831 25.027 61.2431 24.6396C61.6081 24.2477 61.7901 23.7533 61.7901 23.1562V22.459ZM66.1452 26H65.0232V15.6367H66.1452V26ZM73.1861 25.6787C72.6481 26.0023 72.0101 26.1641 71.2711 26.1641C70.2731 26.1641 69.4671 25.8405 68.8521 25.1934C68.2411 24.5417 67.9361 23.6986 67.9361 22.6641C67.9361 21.5111 68.2662 20.5859 68.9272 19.8887C69.5882 19.1868 70.4692 18.8359 71.5722 18.8359C72.1882 18.8359 72.7301 18.9499 73.1991 19.1777V20.3262C72.6801 19.9616 72.1242 19.7793 71.5312 19.7793C70.8162 19.7793 70.2282 20.0368 69.7682 20.5518C69.3122 21.0622 69.0841 21.7344 69.0841 22.5684C69.0841 23.3887 69.2981 24.0358 69.7271 24.5098C70.1601 24.9837 70.7382 25.2207 71.4632 25.2207C72.0742 25.2207 72.6481 25.0179 73.1861 24.6123V25.6787ZM80.5412 26H79.4201V24.8926H79.3932C78.9282 25.7402 78.2081 26.1641 77.2321 26.1641C75.5641 26.1641 74.7301 25.1706 74.7301 23.1836V19H75.8451V23.0059C75.8451 24.4824 76.4101 25.2207 77.5401 25.2207C78.0871 25.2207 78.5362 25.0202 78.8872 24.6191C79.2422 24.2135 79.4201 23.6849 79.4201 23.0332V19H80.5412V26ZM83.9322 26H82.8111V15.6367H83.9322V26ZM91.2121 26H90.0912V24.9062H90.0631C89.5761 25.7448 88.8581 26.1641 87.9101 26.1641C87.2131 26.1641 86.6662 25.9795 86.2702 25.6104C85.8782 25.2412 85.6822 24.7513 85.6822 24.1406C85.6822 22.8327 86.4522 22.0716 87.9922 21.8574L90.0912 21.5635C90.0912 20.374 89.6102 19.7793 88.6482 19.7793C87.8052 19.7793 87.0441 20.0664 86.3651 20.6406V19.4922C87.0531 19.0547 87.8462 18.8359 88.7442 18.8359C90.3892 18.8359 91.2121 19.7064 91.2121 21.4473V26ZM90.0912 22.459L88.4021 22.6914C87.8831 22.7643 87.4911 22.8942 87.2271 23.0811C86.9621 23.2633 86.8302 23.5892 86.8302 24.0586C86.8302 24.4004 86.9512 24.6807 87.1922 24.8994C87.4382 25.1136 87.7641 25.2207 88.1701 25.2207C88.7261 25.2207 89.1842 25.027 89.5442 24.6396C89.9092 24.2477 90.0912 23.7533 90.0912 23.1562V22.459ZM96.5711 25.9316C96.3071 26.0775 95.9582 26.1504 95.5252 26.1504C94.2992 26.1504 93.6872 25.4668 93.6872 24.0996V19.957H92.4831V19H93.6872V17.291L94.8081 16.9287V19H96.5711V19.957H94.8081V23.9014C94.8081 24.3708 94.8871 24.7057 95.0471 24.9062C95.2061 25.1068 95.4712 25.207 95.8402 25.207C96.1222 25.207 96.3661 25.1296 96.5711 24.9746V25.9316ZM103.694 22.7803H98.7522C98.7702 23.5596 98.9801 24.1611 99.3811 24.585C99.7821 25.0088 100.333 25.2207 101.035 25.2207C101.824 25.2207 102.548 24.9609 103.209 24.4414V25.4941C102.594 25.9408 101.78 26.1641 100.769 26.1641C99.7801 26.1641 99.0031 25.8473 98.4381 25.2139C97.8721 24.5758 97.5902 23.6803 97.5902 22.5273C97.5902 21.4382 97.8972 20.5518 98.5132 19.8682C99.1322 19.18 99.9001 18.8359 100.816 18.8359C101.732 18.8359 102.441 19.1322 102.942 19.7246C103.444 20.3171 103.694 21.1396 103.694 22.1924V22.7803ZM102.546 21.8301C102.541 21.1829 102.384 20.6794 102.074 20.3193C101.769 19.9593 101.343 19.7793 100.796 19.7793C100.267 19.7793 99.8181 19.9684 99.4491 20.3467C99.0801 20.7249 98.8521 21.2194 98.7661 21.8301H102.546ZM113.34 26.1641C111.95 26.1641 110.836 25.7061 109.997 24.79C109.163 23.874 108.746 22.6823 108.746 21.2148C108.746 19.638 109.172 18.3802 110.024 17.4414C110.877 16.5026 112.036 16.0332 113.504 16.0332C114.857 16.0332 115.947 16.4889 116.771 17.4004C117.601 18.3118 118.016 19.5036 118.016 20.9756C118.016 22.5752 117.592 23.8398 116.744 24.7695C115.896 25.6992 114.762 26.1641 113.34 26.1641ZM113.422 17.0723C112.392 17.0723 111.556 17.4437 110.913 18.1865C110.271 18.9294 109.949 19.9046 109.949 21.1123C109.949 22.32 110.261 23.293 110.886 24.0312C111.515 24.765 112.333 25.1318 113.34 25.1318C114.415 25.1318 115.263 24.7809 115.883 24.0791C116.503 23.3773 116.812 22.3952 116.812 21.1328C116.812 19.8385 116.512 18.8382 115.91 18.1318C115.309 17.4255 114.479 17.0723 113.422 17.0723ZM120.941 24.9883H120.914V29.2197H119.793V19H120.914V20.2305H120.941C121.493 19.3008 122.299 18.8359 123.361 18.8359C124.264 18.8359 124.968 19.1504 125.474 19.7793C125.979 20.4036 126.232 21.2422 126.232 22.2949C126.232 23.4661 125.948 24.4049 125.378 25.1113C124.808 25.8132 124.029 26.1641 123.04 26.1641C122.133 26.1641 121.434 25.7721 120.941 24.9883ZM120.914 22.165V23.1426C120.914 23.7214 121.101 24.2135 121.475 24.6191C121.853 25.0202 122.331 25.2207 122.91 25.2207C123.589 25.2207 124.12 24.9609 124.503 24.4414C124.89 23.9219 125.084 23.1995 125.084 22.2744C125.084 21.4951 124.904 20.8844 124.544 20.4424C124.184 20.0003 123.696 19.7793 123.081 19.7793C122.429 19.7793 121.905 20.0072 121.509 20.4629C121.112 20.9141 120.914 21.4814 120.914 22.165ZM129.172 24.9883H129.145V29.2197H128.023V19H129.145V20.2305H129.172C129.723 19.3008 130.53 18.8359 131.592 18.8359C132.494 18.8359 133.198 19.1504 133.704 19.7793C134.21 20.4036 134.463 21.2422 134.463 22.2949C134.463 23.4661 134.178 24.4049 133.608 25.1113C133.039 25.8132 132.259 26.1641 131.271 26.1641C130.364 26.1641 129.664 25.7721 129.172 24.9883ZM129.145 22.165V23.1426C129.145 23.7214 129.331 24.2135 129.705 24.6191C130.083 25.0202 130.562 25.2207 131.141 25.2207C131.82 25.2207 132.351 24.9609 132.733 24.4414C133.121 23.9219 133.314 23.1995 133.314 22.2744C133.314 21.4951 133.134 20.8844 132.774 20.4424C132.414 20.0003 131.927 19.7793 131.312 19.7793C130.66 19.7793 130.136 20.0072 129.739 20.4629C129.343 20.9141 129.145 21.4814 129.145 22.165ZM139.18 26.1641C138.145 26.1641 137.318 25.8382 136.698 25.1865C136.083 24.5303 135.775 23.6621 135.775 22.582C135.775 21.4062 136.097 20.488 136.739 19.8271C137.382 19.1663 138.25 18.8359 139.344 18.8359C140.387 18.8359 141.201 19.1572 141.784 19.7998C142.372 20.4424 142.666 21.3333 142.666 22.4727C142.666 23.5892 142.349 24.4847 141.716 25.1592C141.087 25.8291 140.242 26.1641 139.18 26.1641ZM139.262 19.7793C138.542 19.7793 137.972 20.0254 137.553 20.5176C137.133 21.0052 136.924 21.6797 136.924 22.541C136.924 23.3704 137.136 24.0244 137.56 24.5029C137.983 24.9814 138.551 25.2207 139.262 25.2207C139.986 25.2207 140.542 24.986 140.93 24.5166C141.322 24.0472 141.518 23.3796 141.518 22.5137C141.518 21.6387 141.322 20.9642 140.93 20.4902C140.542 20.0163 139.986 19.7793 139.262 19.7793ZM148.107 20.1348C147.911 19.9844 147.629 19.9092 147.26 19.9092C146.781 19.9092 146.38 20.1348 146.057 20.5859C145.738 21.0371 145.578 21.6523 145.578 22.4316V26H144.457V19H145.578V20.4424H145.605C145.765 19.9502 146.009 19.5674 146.337 19.2939C146.665 19.016 147.032 18.877 147.438 18.877C147.729 18.877 147.952 18.9089 148.107 18.9727V20.1348ZM152.571 25.9316C152.307 26.0775 151.958 26.1504 151.525 26.1504C150.299 26.1504 149.687 25.4668 149.687 24.0996V19.957H148.483V19H149.687V17.291L150.808 16.9287V19H152.571V19.957H150.808V23.9014C150.808 24.3708 150.887 24.7057 151.047 24.9062C151.206 25.1068 151.471 25.207 151.84 25.207C152.122 25.207 152.366 25.1296 152.571 24.9746V25.9316ZM159.729 26H158.607V24.8926H158.58C158.115 25.7402 157.395 26.1641 156.42 26.1641C154.752 26.1641 153.918 25.1706 153.918 23.1836V19H155.032V23.0059C155.032 24.4824 155.597 25.2207 156.728 25.2207C157.274 25.2207 157.723 25.0202 158.074 24.6191C158.43 24.2135 158.607 23.6849 158.607 23.0332V19H159.729V26ZM167.809 26H166.688V22.0078C166.688 20.5221 166.145 19.7793 165.061 19.7793C164.5 19.7793 164.035 19.9912 163.666 20.415C163.301 20.8343 163.119 21.3652 163.119 22.0078V26H161.998V19H163.119V20.1621H163.146C163.675 19.278 164.441 18.8359 165.443 18.8359C166.209 18.8359 166.795 19.0843 167.2 19.5811C167.606 20.0732 167.809 20.7865 167.809 21.7207V26ZM170.502 17.2227C170.301 17.2227 170.131 17.1543 169.989 17.0176C169.848 16.8809 169.777 16.7077 169.777 16.498C169.777 16.2884 169.848 16.1152 169.989 15.9785C170.131 15.8372 170.301 15.7666 170.502 15.7666C170.707 15.7666 170.88 15.8372 171.021 15.9785C171.167 16.1152 171.24 16.2884 171.24 16.498C171.24 16.6986 171.167 16.8695 171.021 17.0107C170.88 17.152 170.707 17.2227 170.502 17.2227ZM171.049 26H169.928V19H171.049V26ZM176.565 25.9316C176.301 26.0775 175.952 26.1504 175.52 26.1504C174.294 26.1504 173.681 25.4668 173.681 24.0996V19.957H172.478V19H173.681V17.291L174.802 16.9287V19H176.565V19.957H174.802V23.9014C174.802 24.3708 174.882 24.7057 175.041 24.9062C175.201 25.1068 175.465 25.207 175.834 25.207C176.117 25.207 176.36 25.1296 176.565 24.9746V25.9316ZM183.634 19L180.414 27.1211C179.84 28.5703 179.033 29.2949 177.994 29.2949C177.702 29.2949 177.459 29.2653 177.263 29.2061V28.2012C177.504 28.2832 177.725 28.3242 177.926 28.3242C178.491 28.3242 178.915 27.987 179.197 27.3125L179.758 25.9863L177.023 19H178.268L180.161 24.3867C180.184 24.4551 180.232 24.6328 180.305 24.9199H180.346C180.368 24.8105 180.414 24.6374 180.482 24.4004L182.472 19H183.634Z" fill="#333333"/>
<path d="M24 14H15V28H24V14Z" fill="white"/>
<path d="M22 16H17V17H22V16Z" fill="#A3E0AA"/>
<path d="M14 13H25V29H14V13ZM24 28V14H15V28H24ZM17 20V21H16V20H17ZM19 21V20H20V21H19ZM22 21V20H23V21H22ZM17 23V24H16V23H17ZM19 24V23H20V24H19ZM22 24V23H23V24H22ZM17 26V27H16V26H17ZM19 27V26H20V27H19ZM22 27V26H23V27H22Z" fill="#333333"/>
<path fill-rule="evenodd" clip-rule="evenodd" d="M23 15H16V18H23V15ZM22 16H17V17H22V16Z" fill="#369348"/>
</svg>
