<svg width="44" height="42" viewBox="0 0 44 42" fill="none" xmlns="http://www.w3.org/2000/svg">
<path d="M43 0H0V42H43V0Z" fill="white"/>
<path d="M43.0227 0H42V42H43.0227V0Z" fill="#D8D8D8"/>
<path d="M21 27C24.3137 27 27 24.3137 27 21C27 17.6863 24.3137 15 21 15C17.6863 15 15 17.6863 15 21C15 24.3137 17.6863 27 21 27Z" fill="white"/>
<path d="M21.0391 15C20.4922 15 19.9635 15.0729 19.4531 15.2188C18.9479 15.3594 18.474 15.5599 18.0312 15.8203C17.5885 16.0755 17.1849 16.3854 16.8203 16.75C16.4609 17.1094 16.151 17.5104 15.8906 17.9531C15.6354 18.3958 15.4349 18.8724 15.2891 19.3828C15.1484 19.888 15.0781 20.4141 15.0781 20.9609C15.0781 21.5078 15.1484 22.0365 15.2891 22.5469C15.4349 23.0521 15.6354 23.526 15.8906 23.9688C16.151 24.4115 16.4609 24.8151 16.8203 25.1797C17.1849 25.5391 17.5885 25.849 18.0312 26.1094C18.474 26.3646 18.9479 26.5651 19.4531 26.7109C19.9635 26.8516 20.4922 26.9219 21.0391 26.9219C21.5859 26.9219 22.112 26.8516 22.6172 26.7109C23.1276 26.5651 23.6042 26.3646 24.0469 26.1094C24.4896 25.849 24.8906 25.5391 25.25 25.1797C25.6146 24.8151 25.9245 24.4115 26.1797 23.9688C26.4401 23.526 26.6406 23.0521 26.7812 22.5469C26.9271 22.0365 27 21.5078 27 20.9609C27 20.4141 26.9271 19.888 26.7812 19.3828C26.6406 18.8724 26.4401 18.3984 26.1797 17.9609C25.9245 17.5182 25.6146 17.1146 25.25 16.75C24.8854 16.3854 24.4818 16.0755 24.0391 15.8203C23.6016 15.5599 23.1276 15.3594 22.6172 15.2188C22.112 15.0729 21.5859 15 21.0391 15ZM21.0391 14C21.6797 14 22.2943 14.0833 22.8828 14.25C23.4766 14.4167 24.0312 14.651 24.5469 14.9531C25.0625 15.2552 25.5312 15.6198 25.9531 16.0469C26.3802 16.4688 26.7448 16.9375 27.0469 17.4531C27.349 17.9688 27.5833 18.5234 27.75 19.1172C27.9167 19.7057 28 20.3203 28 20.9609C28 21.6016 27.9167 22.2188 27.75 22.8125C27.5833 23.401 27.349 23.9531 27.0469 24.4688C26.7448 24.9844 26.3802 25.4557 25.9531 25.8828C25.5312 26.3047 25.0625 26.6667 24.5469 26.9688C24.0312 27.2708 23.4766 27.5052 22.8828 27.6719C22.2943 27.8385 21.6797 27.9219 21.0391 27.9219C20.3984 27.9219 19.7812 27.8385 19.1875 27.6719C18.599 27.5052 18.0469 27.2708 17.5312 26.9688C17.0156 26.6667 16.5443 26.3047 16.1172 25.8828C15.6953 25.4557 15.3333 24.9844 15.0312 24.4688C14.7292 23.9531 14.4948 23.401 14.3281 22.8125C14.1615 22.2188 14.0781 21.6016 14.0781 20.9609C14.0781 20.3203 14.1615 19.7057 14.3281 19.1172C14.4948 18.5234 14.7292 17.9688 15.0312 17.4531C15.3333 16.9375 15.6953 16.4688 16.1172 16.0469C16.5443 15.6198 17.0156 15.2552 17.5312 14.9531C18.0469 14.651 18.599 14.4167 19.1875 14.25C19.7812 14.0833 20.3984 14 21.0391 14Z" fill="#3A3A3A"/>
<path d="M19.6484 23.8984L20.3516 24.6016L23.9531 21L20.3516 17.3984L19.6484 18.1016L22.5391 21L19.6484 23.8984Z" fill="#0D64AF"/>
</svg>
