<svg width="94" height="42" viewBox="0 0 94 42" fill="none" xmlns="http://www.w3.org/2000/svg">
<path d="M94 0H0V42H94V0Z" fill="white"/>
<path d="M43.3121 26H41.9452L40.3051 23.252C40.1541 22.9967 40.0082 22.7803 39.8672 22.6025C39.7262 22.4202 39.5801 22.2721 39.4301 22.1582C39.2841 22.0443 39.1242 21.9622 38.9512 21.9121C38.7832 21.8574 38.5912 21.8301 38.3772 21.8301H37.4342V26H36.2852V16.1973H39.2112C39.6392 16.1973 40.0341 16.252 40.3941 16.3613C40.7581 16.4661 41.0732 16.6279 41.3372 16.8467C41.6062 17.0654 41.8152 17.3389 41.9662 17.667C42.1162 17.9906 42.1911 18.3711 42.1911 18.8086C42.1911 19.1504 42.1391 19.4648 42.0341 19.752C41.9341 20.0345 41.7882 20.2874 41.5972 20.5107C41.4102 20.734 41.1821 20.9255 40.9131 21.085C40.6491 21.2399 40.3502 21.3607 40.0182 21.4473V21.4746C40.1822 21.5475 40.3231 21.6318 40.4411 21.7275C40.5641 21.8187 40.6811 21.9281 40.7901 22.0557C40.8991 22.1833 41.0071 22.3291 41.1111 22.4932C41.2211 22.6527 41.3412 22.8395 41.4742 23.0537L43.3121 26ZM37.4342 17.2363V20.791H38.9922C39.2792 20.791 39.5442 20.7477 39.7852 20.6611C40.0312 20.5745 40.2432 20.4515 40.4212 20.292C40.5992 20.1279 40.7382 19.9297 40.8382 19.6973C40.9382 19.4603 40.9882 19.196 40.9882 18.9043C40.9882 18.3802 40.8172 17.9723 40.4762 17.6807C40.1382 17.3844 39.6481 17.2363 39.0061 17.2363H37.4342ZM49.7312 22.7803H44.7892C44.8072 23.5596 45.0172 24.1611 45.4182 24.585C45.8192 25.0088 46.3702 25.2207 47.0722 25.2207C47.8612 25.2207 48.5852 24.9609 49.2462 24.4414V25.4941C48.6312 25.9408 47.8172 26.1641 46.8062 26.1641C45.8172 26.1641 45.0402 25.8473 44.4752 25.2139C43.9102 24.5758 43.6272 23.6803 43.6272 22.5273C43.6272 21.4382 43.9352 20.5518 44.5502 19.8682C45.1702 19.18 45.9382 18.8359 46.8542 18.8359C47.7702 18.8359 48.4782 19.1322 48.9792 19.7246C49.4812 20.3171 49.7312 21.1396 49.7312 22.1924V22.7803ZM48.5831 21.8301C48.5781 21.1829 48.4211 20.6794 48.1111 20.3193C47.8061 19.9593 47.3801 19.7793 46.8331 19.7793C46.3041 19.7793 45.8551 19.9684 45.4861 20.3467C45.1171 20.7249 44.8891 21.2194 44.8031 21.8301H48.5831ZM54.8932 16.6211C54.6742 16.498 54.4252 16.4365 54.1472 16.4365C53.3642 16.4365 52.9722 16.931 52.9722 17.9199V19H54.6122V19.957H52.9722V26H51.8571V19.957H50.6611V19H51.8571V17.8652C51.8571 17.1315 52.0691 16.5527 52.4931 16.1289C52.9171 15.7005 53.4461 15.4863 54.0791 15.4863C54.4211 15.4863 54.6922 15.5273 54.8932 15.6094V16.6211ZM59.4732 20.1348C59.2772 19.9844 58.9942 19.9092 58.6252 19.9092C58.1462 19.9092 57.7451 20.1348 57.4221 20.5859C57.1031 21.0371 56.9431 21.6523 56.9431 22.4316V26H55.8222V19H56.9431V20.4424H56.9711C57.1301 19.9502 57.3741 19.5674 57.7021 19.2939C58.0301 19.016 58.3971 18.877 58.8031 18.877C59.0941 18.877 59.3182 18.9089 59.4732 18.9727V20.1348ZM66.3152 22.7803H61.3732C61.3912 23.5596 61.6012 24.1611 62.0022 24.585C62.4032 25.0088 62.9542 25.2207 63.6562 25.2207C64.4452 25.2207 65.1692 24.9609 65.8302 24.4414V25.4941C65.2152 25.9408 64.4012 26.1641 63.3902 26.1641C62.4012 26.1641 61.6242 25.8473 61.0592 25.2139C60.4932 24.5758 60.2112 23.6803 60.2112 22.5273C60.2112 21.4382 60.5192 20.5518 61.1342 19.8682C61.7542 19.18 62.5212 18.8359 63.4382 18.8359C64.3542 18.8359 65.0622 19.1322 65.5632 19.7246C66.0652 20.3171 66.3152 21.1396 66.3152 22.1924V22.7803ZM65.1672 21.8301C65.1622 21.1829 65.0052 20.6794 64.6952 20.3193C64.3902 19.9593 63.9642 19.7793 63.4172 19.7793C62.8882 19.7793 62.4392 19.9684 62.0702 20.3467C61.7012 20.7249 61.4731 21.2194 61.3871 21.8301H65.1672ZM67.5941 25.7471V24.5439C68.2041 24.9951 68.8772 25.2207 69.6102 25.2207C70.5952 25.2207 71.0872 24.8926 71.0872 24.2363C71.0872 24.0495 71.0442 23.8923 70.9572 23.7646C70.8752 23.6325 70.7612 23.5163 70.6152 23.416C70.4742 23.3158 70.3051 23.2269 70.1091 23.1494C69.9181 23.0674 69.7112 22.9831 69.4872 22.8965C69.1772 22.7734 68.9042 22.6504 68.6672 22.5273C68.4352 22.3997 68.2391 22.2585 68.0791 22.1035C67.9241 21.944 67.8062 21.764 67.7242 21.5635C67.6462 21.363 67.6071 21.1283 67.6071 20.8594C67.6071 20.5312 67.6831 20.2419 67.8331 19.9912C67.9831 19.736 68.1842 19.5241 68.4352 19.3555C68.6852 19.1823 68.9702 19.0524 69.2892 18.9658C69.6132 18.8792 69.9452 18.8359 70.2872 18.8359C70.8932 18.8359 71.4362 18.9408 71.9142 19.1504V20.2852C71.3992 19.9479 70.8071 19.7793 70.1371 19.7793C69.9271 19.7793 69.7382 19.8044 69.5692 19.8545C69.4012 19.9001 69.2552 19.9661 69.1322 20.0527C69.0132 20.1393 68.9202 20.2441 68.8522 20.3672C68.7882 20.4857 68.7561 20.6178 68.7561 20.7637C68.7561 20.946 68.7882 21.0986 68.8522 21.2217C68.9202 21.3447 69.0181 21.4541 69.1461 21.5498C69.2731 21.6455 69.4282 21.7321 69.6102 21.8096C69.7932 21.887 70.0001 21.9714 70.2321 22.0625C70.5421 22.181 70.8201 22.304 71.0661 22.4316C71.3121 22.5547 71.5222 22.696 71.6952 22.8555C71.8682 23.0104 72.0011 23.1904 72.0921 23.3955C72.1881 23.6006 72.2352 23.8444 72.2352 24.127C72.2352 24.4733 72.1582 24.7741 72.0032 25.0293C71.8532 25.2845 71.6502 25.4964 71.3952 25.665C71.1392 25.8337 70.8452 25.959 70.5132 26.041C70.1802 26.123 69.8311 26.1641 69.4671 26.1641C68.7471 26.1641 68.1221 26.0251 67.5941 25.7471ZM79.7751 26H78.6542V21.9668C78.6542 20.5085 78.1121 19.7793 77.0271 19.7793C76.4801 19.7793 76.0201 19.9912 75.6461 20.415C75.2731 20.8343 75.0862 21.3743 75.0862 22.0352V26H73.9651V15.6367H75.0862V20.1621H75.1132C75.6512 19.278 76.4172 18.8359 77.4102 18.8359C78.9872 18.8359 79.7751 19.7861 79.7751 21.6865V26Z" fill="#333333"/>
<path d="M22.133 13.2969C22.997 13.5312 23.789 13.8984 24.508 14.3984C25.227 14.8932 25.844 15.4818 26.359 16.1641C26.88 16.8411 27.284 17.5938 27.57 18.4219C27.857 19.2448 28 20.1042 28 21C28 21.7344 27.904 22.4427 27.711 23.125C27.523 23.8073 27.255 24.4453 26.906 25.0391C26.562 25.6328 26.146 26.1745 25.656 26.6641C25.172 27.1484 24.633 27.5651 24.039 27.9141C23.445 28.2578 22.807 28.526 22.125 28.7188C21.443 28.9062 20.734 29 20 29C19.266 29 18.557 28.9062 17.875 28.7188C17.193 28.526 16.555 28.2578 15.961 27.9141C15.367 27.5651 14.826 27.1484 14.336 26.6641C13.852 26.1745 13.435 25.6328 13.086 25.0391C12.742 24.4453 12.474 23.8099 12.281 23.1328C12.094 22.4505 12 21.7396 12 21C12 20.2708 12.096 19.5625 12.289 18.875C12.482 18.1875 12.755 17.5417 13.109 16.9375C13.469 16.3281 13.904 15.776 14.414 15.2812C14.924 14.7812 15.5 14.3542 16.141 14H14V13H18V17H17V14.6797C16.391 14.9714 15.839 15.3385 15.344 15.7812C14.854 16.2188 14.435 16.7135 14.086 17.2656C13.737 17.8125 13.469 18.4036 13.281 19.0391C13.094 19.6745 13 20.3281 13 21C13 21.6406 13.083 22.2604 13.25 22.8594C13.417 23.4531 13.651 24.0104 13.953 24.5312C14.26 25.0469 14.628 25.5182 15.055 25.9453C15.482 26.3724 15.953 26.7396 16.469 27.0469C16.99 27.349 17.547 27.5833 18.141 27.75C18.734 27.9167 19.354 28 20 28C20.641 28 21.258 27.9167 21.852 27.75C22.451 27.5833 23.008 27.349 23.523 27.0469C24.044 26.7396 24.518 26.3724 24.945 25.9453C25.372 25.5182 25.737 25.0469 26.039 24.5312C26.346 24.0104 26.583 23.4531 26.75 22.8594C26.917 22.2656 27 21.6458 27 21C27 20.2188 26.872 19.4661 26.617 18.7422C26.367 18.0182 26.016 17.3594 25.562 16.7656C25.109 16.1719 24.568 15.6589 23.938 15.2266C23.312 14.7891 22.622 14.4661 21.867 14.2578L22.133 13.2969Z" fill="#333333"/>
</svg>
