<svg width="385" height="121" viewBox="0 0 385 121" fill="none" xmlns="http://www.w3.org/2000/svg">
<rect width="385" height="121" fill="white"/>
<rect width="385" height="121" fill="white"/>
<path d="M58.499 75.5781H55.6826V84H54.0557V75.5781H51.2461V74.1973H58.499V75.5781ZM65.9775 84H64.3916V80.1719C64.3916 78.7865 63.929 78.0938 63.0039 78.0938C62.5391 78.0938 62.1471 78.2943 61.8281 78.6953C61.5091 79.0964 61.3496 79.609 61.3496 80.2334V84H59.7568V73.6367H61.3496V78.1621H61.377C61.9056 77.278 62.6621 76.8359 63.6465 76.8359C65.2005 76.8359 65.9775 77.7861 65.9775 79.6865V84ZM73.832 80.9307H69.0605C69.0788 81.5778 69.277 82.0768 69.6553 82.4277C70.0381 82.7786 70.5622 82.9541 71.2275 82.9541C71.9749 82.9541 72.6608 82.7308 73.2852 82.2842V83.5625C72.6471 83.9635 71.804 84.1641 70.7559 84.1641C69.7259 84.1641 68.917 83.8473 68.3291 83.2139C67.7458 82.5758 67.4541 81.6803 67.4541 80.5273C67.4541 79.4382 67.7754 78.5518 68.418 77.8682C69.0651 77.18 69.8672 76.8359 70.8242 76.8359C71.7812 76.8359 72.5218 77.1436 73.0459 77.7588C73.57 78.374 73.832 79.2285 73.832 80.3223V80.9307ZM72.3008 79.8096C72.2962 79.2399 72.1618 78.7979 71.8975 78.4834C71.6331 78.1644 71.2686 78.0049 70.8037 78.0049C70.348 78.0049 69.9606 78.1712 69.6416 78.5039C69.3271 78.8366 69.1335 79.2718 69.0605 79.8096H72.3008ZM79.4033 78.5107C79.2119 78.3604 78.9362 78.2852 78.5762 78.2852C78.1068 78.2852 77.7148 78.4971 77.4004 78.9209C77.0859 79.3447 76.9287 79.9212 76.9287 80.6504V84H75.3428V77H76.9287V78.4424H76.9561C77.111 77.9502 77.348 77.5674 77.667 77.2939C77.9906 77.016 78.3506 76.877 78.7471 76.877C79.0342 76.877 79.2529 76.9202 79.4033 77.0068V78.5107ZM86.3281 80.9307H81.5566C81.5749 81.5778 81.7731 82.0768 82.1514 82.4277C82.5342 82.7786 83.0583 82.9541 83.7236 82.9541C84.471 82.9541 85.1569 82.7308 85.7812 82.2842V83.5625C85.1432 83.9635 84.3001 84.1641 83.252 84.1641C82.222 84.1641 81.4131 83.8473 80.8252 83.2139C80.2419 82.5758 79.9502 81.6803 79.9502 80.5273C79.9502 79.4382 80.2715 78.5518 80.9141 77.8682C81.5612 77.18 82.3633 76.8359 83.3203 76.8359C84.2773 76.8359 85.0179 77.1436 85.542 77.7588C86.0661 78.374 86.3281 79.2285 86.3281 80.3223V80.9307ZM84.7969 79.8096C84.7923 79.2399 84.6579 78.7979 84.3936 78.4834C84.1292 78.1644 83.7646 78.0049 83.2998 78.0049C82.8441 78.0049 82.4567 78.1712 82.1377 78.5039C81.8232 78.8366 81.6296 79.2718 81.5566 79.8096H84.7969ZM97.0674 84H95.5293V82.9062H95.502C95.0189 83.7448 94.3102 84.1641 93.376 84.1641C92.6878 84.1641 92.1478 83.9772 91.7559 83.6035C91.3685 83.2298 91.1748 82.7354 91.1748 82.1201C91.1748 80.7985 91.9359 80.0283 93.458 79.8096L95.5361 79.5156C95.5361 78.5176 95.0622 78.0186 94.1143 78.0186C93.2803 78.0186 92.5283 78.3057 91.8584 78.8799V77.4922C92.5967 77.0547 93.4489 76.8359 94.415 76.8359C96.1833 76.8359 97.0674 77.7064 97.0674 79.4473V84ZM95.5361 80.5615L94.0664 80.7666C93.6107 80.8258 93.2666 80.9375 93.0342 81.1016C92.8063 81.2611 92.6924 81.5436 92.6924 81.9492C92.6924 82.2454 92.7972 82.4893 93.0068 82.6807C93.221 82.8675 93.5059 82.9609 93.8613 82.9609C94.3444 82.9609 94.7432 82.7923 95.0576 82.4551C95.3766 82.1133 95.5361 81.6849 95.5361 81.1699V80.5615ZM103.069 78.5107C102.878 78.3604 102.602 78.2852 102.242 78.2852C101.773 78.2852 101.381 78.4971 101.066 78.9209C100.752 79.3447 100.595 79.9212 100.595 80.6504V84H99.0088V77H100.595V78.4424H100.622C100.777 77.9502 101.014 77.5674 101.333 77.2939C101.657 77.016 102.017 76.877 102.413 76.877C102.7 76.877 102.919 76.9202 103.069 77.0068V78.5107ZM109.994 80.9307H105.223C105.241 81.5778 105.439 82.0768 105.817 82.4277C106.2 82.7786 106.724 82.9541 107.39 82.9541C108.137 82.9541 108.823 82.7308 109.447 82.2842V83.5625C108.809 83.9635 107.966 84.1641 106.918 84.1641C105.888 84.1641 105.079 83.8473 104.491 83.2139C103.908 82.5758 103.616 81.6803 103.616 80.5273C103.616 79.4382 103.938 78.5518 104.58 77.8682C105.227 77.18 106.029 76.8359 106.986 76.8359C107.943 76.8359 108.684 77.1436 109.208 77.7588C109.732 78.374 109.994 79.2285 109.994 80.3223V80.9307ZM108.463 79.8096C108.458 79.2399 108.324 78.7979 108.06 78.4834C107.795 78.1644 107.431 78.0049 106.966 78.0049C106.51 78.0049 106.123 78.1712 105.804 78.5039C105.489 78.8366 105.296 79.2718 105.223 79.8096H108.463ZM120.371 83.6787C119.811 84.0023 119.147 84.1641 118.382 84.1641C117.343 84.1641 116.504 83.8405 115.866 83.1934C115.228 82.5417 114.909 81.6986 114.909 80.6641C114.909 79.5111 115.251 78.5859 115.935 77.8887C116.623 77.1868 117.541 76.8359 118.689 76.8359C119.327 76.8359 119.89 76.9476 120.378 77.1709V78.6475C119.89 78.2829 119.371 78.1006 118.819 78.1006C118.149 78.1006 117.6 78.3285 117.172 78.7842C116.743 79.2354 116.529 79.8278 116.529 80.5615C116.529 81.2861 116.73 81.8581 117.131 82.2773C117.536 82.6966 118.079 82.9062 118.758 82.9062C119.327 82.9062 119.865 82.7035 120.371 82.2979V83.6787ZM128.055 84H126.469V82.8926H126.441C125.981 83.7402 125.266 84.1641 124.295 84.1641C122.641 84.1641 121.813 83.1706 121.813 81.1836V77H123.399V81.0195C123.399 82.2773 123.885 82.9062 124.855 82.9062C125.325 82.9062 125.71 82.7331 126.011 82.3867C126.316 82.0404 126.469 81.5869 126.469 81.0264V77H128.055V84ZM134.187 78.5107C133.995 78.3604 133.719 78.2852 133.359 78.2852C132.89 78.2852 132.498 78.4971 132.184 78.9209C131.869 79.3447 131.712 79.9212 131.712 80.6504V84H130.126V77H131.712V78.4424H131.739C131.894 77.9502 132.131 77.5674 132.45 77.2939C132.774 77.016 133.134 76.877 133.53 76.877C133.817 76.877 134.036 76.9202 134.187 77.0068V78.5107ZM139.368 78.5107C139.177 78.3604 138.901 78.2852 138.541 78.2852C138.072 78.2852 137.68 78.4971 137.365 78.9209C137.051 79.3447 136.894 79.9212 136.894 80.6504V84H135.308V77H136.894V78.4424H136.921C137.076 77.9502 137.313 77.5674 137.632 77.2939C137.955 77.016 138.315 76.877 138.712 76.877C138.999 76.877 139.218 76.9202 139.368 77.0068V78.5107ZM146.293 80.9307H141.521C141.54 81.5778 141.738 82.0768 142.116 82.4277C142.499 82.7786 143.023 82.9541 143.688 82.9541C144.436 82.9541 145.122 82.7308 145.746 82.2842V83.5625C145.108 83.9635 144.265 84.1641 143.217 84.1641C142.187 84.1641 141.378 83.8473 140.79 83.2139C140.207 82.5758 139.915 81.6803 139.915 80.5273C139.915 79.4382 140.236 78.5518 140.879 77.8682C141.526 77.18 142.328 76.8359 143.285 76.8359C144.242 76.8359 144.983 77.1436 145.507 77.7588C146.031 78.374 146.293 79.2285 146.293 80.3223V80.9307ZM144.762 79.8096C144.757 79.2399 144.623 78.7979 144.358 78.4834C144.094 78.1644 143.729 78.0049 143.265 78.0049C142.809 78.0049 142.422 78.1712 142.103 78.5039C141.788 78.8366 141.594 79.2718 141.521 79.8096H144.762ZM154.038 84H152.452V80.0557C152.452 78.7477 151.99 78.0938 151.064 78.0938C150.581 78.0938 150.183 78.276 149.868 78.6406C149.554 79.0007 149.396 79.4564 149.396 80.0078V84H147.804V77H149.396V78.1621H149.424C149.948 77.278 150.704 76.8359 151.693 76.8359C152.454 76.8359 153.035 77.0843 153.437 77.5811C153.838 78.0732 154.038 78.7865 154.038 79.7207V84ZM159.671 83.9248C159.361 84.0798 158.953 84.1572 158.447 84.1572C157.089 84.1572 156.41 83.5055 156.41 82.2021V78.2441H155.241V77H156.41V75.3799L157.996 74.9287V77H159.671V78.2441H157.996V81.7441C157.996 82.1589 158.071 82.4551 158.222 82.6328C158.372 82.8105 158.623 82.8994 158.974 82.8994C159.243 82.8994 159.475 82.8219 159.671 82.667V83.9248ZM162.631 84H161.038V73.6367H162.631V84ZM170.766 77L167.607 85.1211C166.951 86.5703 166.031 87.2949 164.846 87.2949C164.513 87.2949 164.235 87.2653 164.012 87.2061V85.8867C164.262 85.9688 164.49 86.0098 164.695 86.0098C165.288 86.0098 165.73 85.7181 166.021 85.1348L166.493 83.9863L163.711 77H165.468L167.136 82.0859C167.154 82.1497 167.195 82.3184 167.259 82.5918H167.293C167.316 82.487 167.357 82.3229 167.416 82.0996L169.166 77H170.766ZM181.915 84H180.329V80.0557C180.329 78.7477 179.867 78.0938 178.941 78.0938C178.458 78.0938 178.06 78.276 177.745 78.6406C177.431 79.0007 177.273 79.4564 177.273 80.0078V84H175.681V77H177.273V78.1621H177.301C177.825 77.278 178.581 76.8359 179.57 76.8359C180.331 76.8359 180.912 77.0843 181.313 77.5811C181.715 78.0732 181.915 78.7865 181.915 79.7207V84ZM186.96 84.1641C185.88 84.1641 185.016 83.8382 184.369 83.1865C183.727 82.5303 183.405 81.6621 183.405 80.582C183.405 79.4062 183.74 78.488 184.41 77.8271C185.085 77.1663 185.992 76.8359 187.131 76.8359C188.225 76.8359 189.077 77.1572 189.688 77.7998C190.298 78.4424 190.604 79.3333 190.604 80.4727C190.604 81.5892 190.273 82.4847 189.612 83.1592C188.956 83.8291 188.072 84.1641 186.96 84.1641ZM187.035 78.1006C186.415 78.1006 185.925 78.3171 185.565 78.75C185.205 79.1829 185.025 79.7799 185.025 80.541C185.025 81.2747 185.208 81.8535 185.572 82.2773C185.937 82.6966 186.424 82.9062 187.035 82.9062C187.66 82.9062 188.138 82.6989 188.471 82.2842C188.808 81.8695 188.977 81.2793 188.977 80.5137C188.977 79.7435 188.808 79.1488 188.471 78.7295C188.138 78.3102 187.66 78.1006 187.035 78.1006ZM196.879 75.5303C196.619 75.5303 196.396 75.446 196.209 75.2773C196.027 75.1087 195.936 74.8945 195.936 74.6348C195.936 74.375 196.027 74.1585 196.209 73.9854C196.396 73.8122 196.619 73.7256 196.879 73.7256C197.148 73.7256 197.376 73.8122 197.562 73.9854C197.749 74.1585 197.843 74.375 197.843 74.6348C197.843 74.8809 197.749 75.0928 197.562 75.2705C197.376 75.4437 197.148 75.5303 196.879 75.5303ZM197.665 84H196.079V77H197.665V84ZM205.978 84H204.392V80.0557C204.392 78.7477 203.929 78.0938 203.004 78.0938C202.521 78.0938 202.122 78.276 201.808 78.6406C201.493 79.0007 201.336 79.4564 201.336 80.0078V84H199.743V77H201.336V78.1621H201.363C201.887 77.278 202.644 76.8359 203.633 76.8359C204.394 76.8359 204.975 77.0843 205.376 77.5811C205.777 78.0732 205.978 78.7865 205.978 79.7207V84ZM207.481 83.7812V82.3115C208.074 82.7627 208.728 82.9883 209.443 82.9883C210.4 82.9883 210.879 82.7057 210.879 82.1406C210.879 81.9811 210.838 81.8467 210.756 81.7373C210.674 81.6234 210.562 81.5231 210.421 81.4365C210.284 81.3499 210.12 81.2725 209.929 81.2041C209.742 81.1357 209.532 81.0583 209.3 80.9717C209.013 80.8577 208.753 80.737 208.521 80.6094C208.293 80.4818 208.101 80.3382 207.946 80.1787C207.796 80.0146 207.682 79.8301 207.604 79.625C207.527 79.4199 207.488 79.1807 207.488 78.9072C207.488 78.57 207.568 78.2738 207.728 78.0186C207.887 77.7588 208.101 77.5423 208.37 77.3691C208.639 77.1914 208.944 77.0592 209.286 76.9727C209.628 76.8815 209.981 76.8359 210.346 76.8359C210.993 76.8359 211.572 76.9339 212.082 77.1299V78.5176C211.59 78.1803 211.025 78.0117 210.387 78.0117C210.186 78.0117 210.004 78.0322 209.84 78.0732C209.68 78.1143 209.544 78.1712 209.43 78.2441C209.316 78.3171 209.227 78.4059 209.163 78.5107C209.099 78.611 209.067 78.7227 209.067 78.8457C209.067 78.9961 209.099 79.1237 209.163 79.2285C209.227 79.3333 209.32 79.4268 209.443 79.5088C209.571 79.5863 209.721 79.6592 209.895 79.7275C210.072 79.7913 210.275 79.862 210.503 79.9395C210.804 80.0625 211.073 80.1878 211.31 80.3154C211.551 80.443 211.756 80.5889 211.925 80.7529C212.093 80.9124 212.223 81.0993 212.314 81.3135C212.406 81.5231 212.451 81.7738 212.451 82.0654C212.451 82.4209 212.369 82.7308 212.205 82.9951C212.041 83.2594 211.822 83.4782 211.549 83.6514C211.275 83.8245 210.959 83.9521 210.599 84.0342C210.243 84.1208 209.867 84.1641 209.471 84.1641C208.705 84.1641 208.042 84.0365 207.481 83.7812ZM214.762 75.5303C214.502 75.5303 214.279 75.446 214.092 75.2773C213.91 75.1087 213.818 74.8945 213.818 74.6348C213.818 74.375 213.91 74.1585 214.092 73.9854C214.279 73.8122 214.502 73.7256 214.762 73.7256C215.031 73.7256 215.258 73.8122 215.445 73.9854C215.632 74.1585 215.726 74.375 215.726 74.6348C215.726 74.8809 215.632 75.0928 215.445 75.2705C215.258 75.4437 215.031 75.5303 214.762 75.5303ZM215.548 84H213.962V77H215.548V84ZM223.997 83.4395C223.997 86.0098 222.705 87.2949 220.121 87.2949C219.21 87.2949 218.414 87.1423 217.735 86.8369V85.3877C218.501 85.8252 219.228 86.0439 219.916 86.0439C221.579 86.0439 222.411 85.2259 222.411 83.5898V82.8242H222.384C221.86 83.7174 221.071 84.1641 220.019 84.1641C219.166 84.1641 218.478 83.8542 217.954 83.2344C217.435 82.61 217.175 81.7738 217.175 80.7256C217.175 79.5361 217.455 78.5905 218.016 77.8887C218.576 77.1868 219.346 76.8359 220.326 76.8359C221.251 76.8359 221.937 77.2142 222.384 77.9707H222.411V77H223.997V83.4395ZM222.425 80.7939V79.8848C222.425 79.3926 222.261 78.9733 221.933 78.627C221.609 78.276 221.203 78.1006 220.716 78.1006C220.114 78.1006 219.643 78.3239 219.301 78.7705C218.964 79.2126 218.795 79.8324 218.795 80.6299C218.795 81.318 218.957 81.8695 219.28 82.2842C219.608 82.6943 220.041 82.8994 220.579 82.8994C221.126 82.8994 221.57 82.7035 221.912 82.3115C222.254 81.915 222.425 81.4092 222.425 80.7939ZM232.282 84H230.696V80.1719C230.696 78.7865 230.234 78.0938 229.309 78.0938C228.844 78.0938 228.452 78.2943 228.133 78.6953C227.814 79.0964 227.654 79.609 227.654 80.2334V84H226.062V73.6367H227.654V78.1621H227.682C228.21 77.278 228.967 76.8359 229.951 76.8359C231.505 76.8359 232.282 77.7861 232.282 79.6865V84ZM237.901 83.9248C237.591 84.0798 237.184 84.1572 236.678 84.1572C235.32 84.1572 234.641 83.5055 234.641 82.2021V78.2441H233.472V77H234.641V75.3799L236.227 74.9287V77H237.901V78.2441H236.227V81.7441C236.227 82.1589 236.302 82.4551 236.452 82.6328C236.603 82.8105 236.853 82.8994 237.204 82.8994C237.473 82.8994 237.705 82.8219 237.901 82.667V83.9248ZM238.831 83.7812V82.3115C239.424 82.7627 240.077 82.9883 240.793 82.9883C241.75 82.9883 242.229 82.7057 242.229 82.1406C242.229 81.9811 242.188 81.8467 242.105 81.7373C242.023 81.6234 241.912 81.5231 241.771 81.4365C241.634 81.3499 241.47 81.2725 241.278 81.2041C241.091 81.1357 240.882 81.0583 240.649 80.9717C240.362 80.8577 240.103 80.737 239.87 80.6094C239.642 80.4818 239.451 80.3382 239.296 80.1787C239.146 80.0146 239.032 79.8301 238.954 79.625C238.877 79.4199 238.838 79.1807 238.838 78.9072C238.838 78.57 238.918 78.2738 239.077 78.0186C239.237 77.7588 239.451 77.5423 239.72 77.3691C239.989 77.1914 240.294 77.0592 240.636 76.9727C240.978 76.8815 241.331 76.8359 241.695 76.8359C242.342 76.8359 242.921 76.9339 243.432 77.1299V78.5176C242.939 78.1803 242.374 78.0117 241.736 78.0117C241.536 78.0117 241.354 78.0322 241.189 78.0732C241.03 78.1143 240.893 78.1712 240.779 78.2441C240.665 78.3171 240.576 78.4059 240.513 78.5107C240.449 78.611 240.417 78.7227 240.417 78.8457C240.417 78.9961 240.449 79.1237 240.513 79.2285C240.576 79.3333 240.67 79.4268 240.793 79.5088C240.921 79.5863 241.071 79.6592 241.244 79.7275C241.422 79.7913 241.625 79.862 241.853 79.9395C242.153 80.0625 242.422 80.1878 242.659 80.3154C242.901 80.443 243.106 80.5889 243.274 80.7529C243.443 80.9124 243.573 81.0993 243.664 81.3135C243.755 81.5231 243.801 81.7738 243.801 82.0654C243.801 82.4209 243.719 82.7308 243.555 82.9951C243.391 83.2594 243.172 83.4782 242.898 83.6514C242.625 83.8245 242.308 83.9521 241.948 84.0342C241.593 84.1208 241.217 84.1641 240.82 84.1641C240.055 84.1641 239.392 84.0365 238.831 83.7812ZM245.968 84.1504C245.694 84.1504 245.462 84.0615 245.271 83.8838C245.079 83.7015 244.983 83.485 244.983 83.2344C244.983 82.9792 245.079 82.7604 245.271 82.5781C245.462 82.3958 245.694 82.3047 245.968 82.3047C246.246 82.3047 246.48 82.3958 246.672 82.5781C246.868 82.7604 246.966 82.9792 246.966 83.2344C246.966 83.485 246.868 83.7015 246.672 83.8838C246.48 84.0615 246.246 84.1504 245.968 84.1504Z" fill="#B3B3B3"/>
<path d="M26.5 70C27.1927 70 27.8568 70.0885 28.4922 70.2656C29.1328 70.4427 29.7318 70.6953 30.2891 71.0234C30.8464 71.3464 31.3516 71.737 31.8047 72.1953C32.263 72.6484 32.6536 73.1536 32.9766 73.7109C33.3047 74.2682 33.5573 74.8672 33.7344 75.5078C33.9115 76.1432 34 76.8073 34 77.5C34 78.1927 33.9115 78.8594 33.7344 79.5C33.5573 80.1354 33.3047 80.7318 32.9766 81.2891C32.6536 81.8464 32.263 82.3542 31.8047 82.8125C31.3516 83.2656 30.8464 83.6562 30.2891 83.9844C29.7318 84.3073 29.1328 84.5573 28.4922 84.7344C27.8568 84.9115 27.1927 85 26.5 85C25.8073 85 25.1406 84.9115 24.5 84.7344C23.8646 84.5573 23.2682 84.3073 22.7109 83.9844C22.1536 83.6562 21.6458 83.2656 21.1875 82.8125C20.7344 82.3542 20.3438 81.8464 20.0156 81.2891C19.6927 80.7318 19.4427 80.1354 19.2656 79.5C19.0885 78.8594 19 78.1927 19 77.5C19 76.8073 19.0885 76.1432 19.2656 75.5078C19.4427 74.8672 19.6927 74.2682 20.0156 73.7109C20.3438 73.1536 20.7344 72.6484 21.1875 72.1953C21.6458 71.737 22.1536 71.3464 22.7109 71.0234C23.2682 70.6953 23.8646 70.4427 24.5 70.2656C25.1406 70.0885 25.8073 70 26.5 70ZM26.5 84C27.0938 84 27.6667 83.9219 28.2188 83.7656C28.776 83.6094 29.2943 83.3906 29.7734 83.1094C30.2578 82.8281 30.6979 82.4896 31.0938 82.0938C31.4896 81.6979 31.8281 81.2604 32.1094 80.7812C32.3906 80.2969 32.6094 79.7786 32.7656 79.2266C32.9219 78.6745 33 78.099 33 77.5C33 76.9062 32.9219 76.3333 32.7656 75.7812C32.6094 75.224 32.3906 74.7057 32.1094 74.2266C31.8281 73.7422 31.4896 73.3021 31.0938 72.9062C30.6979 72.5104 30.2578 72.1719 29.7734 71.8906C29.2943 71.6094 28.776 71.3906 28.2188 71.2344C27.6667 71.0781 27.0938 71 26.5 71C25.901 71 25.3255 71.0781 24.7734 71.2344C24.2214 71.3906 23.7031 71.6094 23.2188 71.8906C22.7396 72.1719 22.3021 72.5104 21.9062 72.9062C21.5104 73.3021 21.1719 73.7422 20.8906 74.2266C20.6094 74.7057 20.3906 75.224 20.2344 75.7812C20.0781 76.3333 20 76.9062 20 77.5C20 78.0938 20.0781 78.6693 20.2344 79.2266C20.3906 79.7786 20.6094 80.2969 20.8906 80.7812C21.1719 81.2604 21.5104 81.6979 21.9062 82.0938C22.3021 82.4896 22.7396 82.8281 23.2188 83.1094C23.7031 83.3906 24.2214 83.6094 24.7734 83.7656C25.3255 83.9219 25.901 84 26.5 84ZM26 74H27V79H26V74ZM26 80H27V81H26V80Z" fill="#666666"/>
<path d="M24.7842 29H22.8838L21.3184 26.375C21.1771 26.1335 21.0381 25.9284 20.9014 25.7598C20.7692 25.5866 20.6325 25.4453 20.4912 25.3359C20.3545 25.2266 20.2041 25.1468 20.04 25.0967C19.876 25.0465 19.6914 25.0215 19.4863 25.0215H18.8301V29H17.21V19.1973H20.4365C20.8968 19.1973 21.3206 19.252 21.708 19.3613C22.0954 19.4707 22.4326 19.637 22.7197 19.8604C23.0068 20.0791 23.2301 20.3548 23.3896 20.6875C23.5537 21.0156 23.6357 21.4007 23.6357 21.8428C23.6357 22.1891 23.5833 22.5081 23.4785 22.7998C23.3783 23.0869 23.2324 23.3444 23.041 23.5723C22.8542 23.7956 22.6263 23.987 22.3574 24.1465C22.0931 24.306 21.7946 24.429 21.4619 24.5156V24.543C21.6396 24.6432 21.7946 24.7549 21.9268 24.8779C22.0589 24.9964 22.1842 25.1195 22.3027 25.2471C22.4212 25.3747 22.5374 25.5205 22.6514 25.6846C22.7699 25.8441 22.8997 26.0309 23.041 26.2451L24.7842 29ZM18.8301 20.5166V23.7021H20.1836C20.4342 23.7021 20.6644 23.6634 20.874 23.5859C21.0882 23.5085 21.2728 23.3968 21.4277 23.251C21.5827 23.1051 21.7035 22.9274 21.79 22.7178C21.8766 22.5081 21.9199 22.2734 21.9199 22.0137C21.9199 21.5443 21.7718 21.1774 21.4756 20.9131C21.1794 20.6488 20.7533 20.5166 20.1973 20.5166H18.8301ZM31.3125 25.9307H26.541C26.5592 26.5778 26.7575 27.0768 27.1357 27.4277C27.5186 27.7786 28.0426 27.9541 28.708 27.9541C29.4554 27.9541 30.1413 27.7308 30.7656 27.2842V28.5625C30.1276 28.9635 29.2845 29.1641 28.2363 29.1641C27.2064 29.1641 26.3975 28.8473 25.8096 28.2139C25.2262 27.5758 24.9346 26.6803 24.9346 25.5273C24.9346 24.4382 25.2559 23.5518 25.8984 22.8682C26.5456 22.18 27.3477 21.8359 28.3047 21.8359C29.2617 21.8359 30.0023 22.1436 30.5264 22.7588C31.0505 23.374 31.3125 24.2285 31.3125 25.3223V25.9307ZM29.7812 24.8096C29.7767 24.2399 29.6423 23.7979 29.3779 23.4834C29.1136 23.1644 28.749 23.0049 28.2842 23.0049C27.8285 23.0049 27.4411 23.1712 27.1221 23.5039C26.8076 23.8366 26.6139 24.2718 26.541 24.8096H29.7812ZM34.416 29H32.8232V18.6367H34.416V29ZM41.8604 29H40.3223V27.9062H40.2949C39.8118 28.7448 39.1032 29.1641 38.1689 29.1641C37.4808 29.1641 36.9408 28.9772 36.5488 28.6035C36.1615 28.2298 35.9678 27.7354 35.9678 27.1201C35.9678 25.7985 36.7288 25.0283 38.251 24.8096L40.3291 24.5156C40.3291 23.5176 39.8551 23.0186 38.9072 23.0186C38.0732 23.0186 37.3213 23.3057 36.6514 23.8799V22.4922C37.3896 22.0547 38.2419 21.8359 39.208 21.8359C40.9762 21.8359 41.8604 22.7064 41.8604 24.4473V29ZM40.3291 25.5615L38.8594 25.7666C38.4036 25.8258 38.0596 25.9375 37.8271 26.1016C37.5993 26.2611 37.4854 26.5436 37.4854 26.9492C37.4854 27.2454 37.5902 27.4893 37.7998 27.6807C38.014 27.8675 38.2988 27.9609 38.6543 27.9609C39.1374 27.9609 39.5361 27.7923 39.8506 27.4551C40.1696 27.1133 40.3291 26.6849 40.3291 26.1699V25.5615ZM47.4932 28.9248C47.1833 29.0798 46.7754 29.1572 46.2695 29.1572C44.9115 29.1572 44.2324 28.5055 44.2324 27.2021V23.2441H43.0635V22H44.2324V20.3799L45.8184 19.9287V22H47.4932V23.2441H45.8184V26.7441C45.8184 27.1589 45.8936 27.4551 46.0439 27.6328C46.1943 27.8105 46.445 27.8994 46.7959 27.8994C47.0648 27.8994 47.2972 27.8219 47.4932 27.667V28.9248ZM49.6602 20.5303C49.4004 20.5303 49.1771 20.446 48.9902 20.2773C48.8079 20.1087 48.7168 19.8945 48.7168 19.6348C48.7168 19.375 48.8079 19.1585 48.9902 18.9854C49.1771 18.8122 49.4004 18.7256 49.6602 18.7256C49.929 18.7256 50.1569 18.8122 50.3438 18.9854C50.5306 19.1585 50.624 19.375 50.624 19.6348C50.624 19.8809 50.5306 20.0928 50.3438 20.2705C50.1569 20.4437 49.929 20.5303 49.6602 20.5303ZM50.4463 29H48.8604V22H50.4463V29ZM55.6279 29.1641C54.5479 29.1641 53.6842 28.8382 53.0371 28.1865C52.3945 27.5303 52.0732 26.6621 52.0732 25.582C52.0732 24.4062 52.4082 23.488 53.0781 22.8271C53.7526 22.1663 54.6595 21.8359 55.7988 21.8359C56.8926 21.8359 57.7448 22.1572 58.3555 22.7998C58.9661 23.4424 59.2715 24.3333 59.2715 25.4727C59.2715 26.5892 58.9411 27.4847 58.2803 28.1592C57.624 28.8291 56.7399 29.1641 55.6279 29.1641ZM55.7031 23.1006C55.0833 23.1006 54.5934 23.3171 54.2334 23.75C53.8734 24.1829 53.6934 24.7799 53.6934 25.541C53.6934 26.2747 53.8757 26.8535 54.2402 27.2773C54.6048 27.6966 55.0924 27.9062 55.7031 27.9062C56.3275 27.9062 56.806 27.6989 57.1387 27.2842C57.4759 26.8695 57.6445 26.2793 57.6445 25.5137C57.6445 24.7435 57.4759 24.1488 57.1387 23.7295C56.806 23.3102 56.3275 23.1006 55.7031 23.1006ZM67.126 29H65.54V25.0557C65.54 23.7477 65.0775 23.0938 64.1523 23.0938C63.6693 23.0938 63.2705 23.276 62.9561 23.6406C62.6416 24.0007 62.4844 24.4564 62.4844 25.0078V29H60.8916V22H62.4844V23.1621H62.5117C63.0358 22.278 63.7923 21.8359 64.7812 21.8359C65.5423 21.8359 66.1234 22.0843 66.5244 22.5811C66.9255 23.0732 67.126 23.7865 67.126 24.7207V29ZM68.6299 28.7812V27.3115C69.2223 27.7627 69.8763 27.9883 70.5918 27.9883C71.5488 27.9883 72.0273 27.7057 72.0273 27.1406C72.0273 26.9811 71.9863 26.8467 71.9043 26.7373C71.8223 26.6234 71.7106 26.5231 71.5693 26.4365C71.4326 26.3499 71.2686 26.2725 71.0771 26.2041C70.8903 26.1357 70.6807 26.0583 70.4482 25.9717C70.1611 25.8577 69.9014 25.737 69.6689 25.6094C69.4411 25.4818 69.2497 25.3382 69.0947 25.1787C68.9443 25.0146 68.8304 24.8301 68.7529 24.625C68.6755 24.4199 68.6367 24.1807 68.6367 23.9072C68.6367 23.57 68.7165 23.2738 68.876 23.0186C69.0355 22.7588 69.2497 22.5423 69.5186 22.3691C69.7874 22.1914 70.0928 22.0592 70.4346 21.9727C70.7764 21.8815 71.1296 21.8359 71.4941 21.8359C72.1413 21.8359 72.7201 21.9339 73.2305 22.1299V23.5176C72.7383 23.1803 72.1732 23.0117 71.5352 23.0117C71.3346 23.0117 71.1523 23.0322 70.9883 23.0732C70.8288 23.1143 70.6921 23.1712 70.5781 23.2441C70.4642 23.3171 70.3753 23.4059 70.3115 23.5107C70.2477 23.611 70.2158 23.7227 70.2158 23.8457C70.2158 23.9961 70.2477 24.1237 70.3115 24.2285C70.3753 24.3333 70.4688 24.4268 70.5918 24.5088C70.7194 24.5863 70.8698 24.6592 71.043 24.7275C71.2207 24.7913 71.4235 24.862 71.6514 24.9395C71.9521 25.0625 72.221 25.1878 72.458 25.3154C72.6995 25.443 72.9046 25.5889 73.0732 25.7529C73.2419 25.9124 73.3717 26.0993 73.4629 26.3135C73.554 26.5231 73.5996 26.7738 73.5996 27.0654C73.5996 27.4209 73.5176 27.7308 73.3535 27.9951C73.1895 28.2594 72.9707 28.4782 72.6973 28.6514C72.4238 28.8245 72.1071 28.9521 71.7471 29.0342C71.3916 29.1208 71.0156 29.1641 70.6191 29.1641C69.8535 29.1641 69.1904 29.0365 68.6299 28.7812ZM81.3311 29H79.7451V25.1719C79.7451 23.7865 79.2826 23.0938 78.3574 23.0938C77.8926 23.0938 77.5007 23.2943 77.1816 23.6953C76.8626 24.0964 76.7031 24.609 76.7031 25.2334V29H75.1104V18.6367H76.7031V23.1621H76.7305C77.2591 22.278 78.0156 21.8359 79 21.8359C80.554 21.8359 81.3311 22.7861 81.3311 24.6865V29ZM84.0586 20.5303C83.7988 20.5303 83.5755 20.446 83.3887 20.2773C83.2064 20.1087 83.1152 19.8945 83.1152 19.6348C83.1152 19.375 83.2064 19.1585 83.3887 18.9854C83.5755 18.8122 83.7988 18.7256 84.0586 18.7256C84.3275 18.7256 84.5553 18.8122 84.7422 18.9854C84.929 19.1585 85.0225 19.375 85.0225 19.6348C85.0225 19.8809 84.929 20.0928 84.7422 20.2705C84.5553 20.4437 84.3275 20.5303 84.0586 20.5303ZM84.8447 29H83.2588V22H84.8447V29ZM88.5361 27.9678H88.5088V32.2197H86.9229V22H88.5088V23.2305H88.5361C89.0785 22.3008 89.8714 21.8359 90.915 21.8359C91.8037 21.8359 92.4964 22.1481 92.9932 22.7725C93.4899 23.3968 93.7383 24.2354 93.7383 25.2881C93.7383 26.4548 93.458 27.389 92.8975 28.0908C92.3369 28.7926 91.5713 29.1436 90.6006 29.1436C89.7074 29.1436 89.0192 28.7516 88.5361 27.9678ZM88.4951 25.2061V26.0742C88.4951 26.5846 88.6569 27.0176 88.9805 27.373C89.3086 27.7285 89.7233 27.9062 90.2246 27.9062C90.8125 27.9062 91.2728 27.6784 91.6055 27.2227C91.9427 26.7624 92.1113 26.1221 92.1113 25.3018C92.1113 24.6136 91.9541 24.0758 91.6396 23.6885C91.3298 23.2965 90.9082 23.1006 90.375 23.1006C89.8099 23.1006 89.3542 23.3011 89.0078 23.7021C88.666 24.1032 88.4951 24.6045 88.4951 25.2061ZM107.444 29H105.66L104.778 26.5049H100.923L100.075 29H98.2979L101.969 19.1973H103.801L107.444 29ZM104.348 25.1787L102.987 21.2686C102.946 21.141 102.903 20.9359 102.857 20.6533H102.83C102.789 20.9131 102.743 21.1182 102.693 21.2686L101.347 25.1787H104.348ZM108.183 28.7812V27.3115C108.775 27.7627 109.429 27.9883 110.145 27.9883C111.102 27.9883 111.58 27.7057 111.58 27.1406C111.58 26.9811 111.539 26.8467 111.457 26.7373C111.375 26.6234 111.263 26.5231 111.122 26.4365C110.985 26.3499 110.821 26.2725 110.63 26.2041C110.443 26.1357 110.233 26.0583 110.001 25.9717C109.714 25.8577 109.454 25.737 109.222 25.6094C108.994 25.4818 108.802 25.3382 108.647 25.1787C108.497 25.0146 108.383 24.8301 108.306 24.625C108.228 24.4199 108.189 24.1807 108.189 23.9072C108.189 23.57 108.269 23.2738 108.429 23.0186C108.588 22.7588 108.802 22.5423 109.071 22.3691C109.34 22.1914 109.646 22.0592 109.987 21.9727C110.329 21.8815 110.682 21.8359 111.047 21.8359C111.694 21.8359 112.273 21.9339 112.783 22.1299V23.5176C112.291 23.1803 111.726 23.0117 111.088 23.0117C110.887 23.0117 110.705 23.0322 110.541 23.0732C110.382 23.1143 110.245 23.1712 110.131 23.2441C110.017 23.3171 109.928 23.4059 109.864 23.5107C109.8 23.611 109.769 23.7227 109.769 23.8457C109.769 23.9961 109.8 24.1237 109.864 24.2285C109.928 24.3333 110.021 24.4268 110.145 24.5088C110.272 24.5863 110.423 24.6592 110.596 24.7275C110.773 24.7913 110.976 24.862 111.204 24.9395C111.505 25.0625 111.774 25.1878 112.011 25.3154C112.252 25.443 112.457 25.5889 112.626 25.7529C112.795 25.9124 112.924 26.0993 113.016 26.3135C113.107 26.5231 113.152 26.7738 113.152 27.0654C113.152 27.4209 113.07 27.7308 112.906 27.9951C112.742 28.2594 112.523 28.4782 112.25 28.6514C111.977 28.8245 111.66 28.9521 111.3 29.0342C110.944 29.1208 110.568 29.1641 110.172 29.1641C109.406 29.1641 108.743 29.0365 108.183 28.7812ZM114.226 28.7812V27.3115C114.818 27.7627 115.472 27.9883 116.188 27.9883C117.145 27.9883 117.623 27.7057 117.623 27.1406C117.623 26.9811 117.582 26.8467 117.5 26.7373C117.418 26.6234 117.306 26.5231 117.165 26.4365C117.028 26.3499 116.864 26.2725 116.673 26.2041C116.486 26.1357 116.276 26.0583 116.044 25.9717C115.757 25.8577 115.497 25.737 115.265 25.6094C115.037 25.4818 114.845 25.3382 114.69 25.1787C114.54 25.0146 114.426 24.8301 114.349 24.625C114.271 24.4199 114.232 24.1807 114.232 23.9072C114.232 23.57 114.312 23.2738 114.472 23.0186C114.631 22.7588 114.845 22.5423 115.114 22.3691C115.383 22.1914 115.688 22.0592 116.03 21.9727C116.372 21.8815 116.725 21.8359 117.09 21.8359C117.737 21.8359 118.316 21.9339 118.826 22.1299V23.5176C118.334 23.1803 117.769 23.0117 117.131 23.0117C116.93 23.0117 116.748 23.0322 116.584 23.0732C116.424 23.1143 116.288 23.1712 116.174 23.2441C116.06 23.3171 115.971 23.4059 115.907 23.5107C115.843 23.611 115.812 23.7227 115.812 23.8457C115.812 23.9961 115.843 24.1237 115.907 24.2285C115.971 24.3333 116.064 24.4268 116.188 24.5088C116.315 24.5863 116.465 24.6592 116.639 24.7275C116.816 24.7913 117.019 24.862 117.247 24.9395C117.548 25.0625 117.817 25.1878 118.054 25.3154C118.295 25.443 118.5 25.5889 118.669 25.7529C118.838 25.9124 118.967 26.0993 119.059 26.3135C119.15 26.5231 119.195 26.7738 119.195 27.0654C119.195 27.4209 119.113 27.7308 118.949 27.9951C118.785 28.2594 118.566 28.4782 118.293 28.6514C118.02 28.8245 117.703 28.9521 117.343 29.0342C116.987 29.1208 116.611 29.1641 116.215 29.1641C115.449 29.1641 114.786 29.0365 114.226 28.7812ZM121.506 20.5303C121.246 20.5303 121.023 20.446 120.836 20.2773C120.654 20.1087 120.562 19.8945 120.562 19.6348C120.562 19.375 120.654 19.1585 120.836 18.9854C121.023 18.8122 121.246 18.7256 121.506 18.7256C121.775 18.7256 122.003 18.8122 122.189 18.9854C122.376 19.1585 122.47 19.375 122.47 19.6348C122.47 19.8809 122.376 20.0928 122.189 20.2705C122.003 20.4437 121.775 20.5303 121.506 20.5303ZM122.292 29H120.706V22H122.292V29ZM123.933 28.7812V27.3115C124.525 27.7627 125.179 27.9883 125.895 27.9883C126.852 27.9883 127.33 27.7057 127.33 27.1406C127.33 26.9811 127.289 26.8467 127.207 26.7373C127.125 26.6234 127.013 26.5231 126.872 26.4365C126.735 26.3499 126.571 26.2725 126.38 26.2041C126.193 26.1357 125.983 26.0583 125.751 25.9717C125.464 25.8577 125.204 25.737 124.972 25.6094C124.744 25.4818 124.552 25.3382 124.397 25.1787C124.247 25.0146 124.133 24.8301 124.056 24.625C123.978 24.4199 123.939 24.1807 123.939 23.9072C123.939 23.57 124.019 23.2738 124.179 23.0186C124.338 22.7588 124.552 22.5423 124.821 22.3691C125.09 22.1914 125.396 22.0592 125.737 21.9727C126.079 21.8815 126.432 21.8359 126.797 21.8359C127.444 21.8359 128.023 21.9339 128.533 22.1299V23.5176C128.041 23.1803 127.476 23.0117 126.838 23.0117C126.637 23.0117 126.455 23.0322 126.291 23.0732C126.132 23.1143 125.995 23.1712 125.881 23.2441C125.767 23.3171 125.678 23.4059 125.614 23.5107C125.55 23.611 125.519 23.7227 125.519 23.8457C125.519 23.9961 125.55 24.1237 125.614 24.2285C125.678 24.3333 125.771 24.4268 125.895 24.5088C126.022 24.5863 126.173 24.6592 126.346 24.7275C126.523 24.7913 126.726 24.862 126.954 24.9395C127.255 25.0625 127.524 25.1878 127.761 25.3154C128.002 25.443 128.207 25.5889 128.376 25.7529C128.545 25.9124 128.674 26.0993 128.766 26.3135C128.857 26.5231 128.902 26.7738 128.902 27.0654C128.902 27.4209 128.82 27.7308 128.656 27.9951C128.492 28.2594 128.273 28.4782 128 28.6514C127.727 28.8245 127.41 28.9521 127.05 29.0342C126.694 29.1208 126.318 29.1641 125.922 29.1641C125.156 29.1641 124.493 29.0365 123.933 28.7812ZM134.104 28.9248C133.795 29.0798 133.387 29.1572 132.881 29.1572C131.523 29.1572 130.844 28.5055 130.844 27.2021V23.2441H129.675V22H130.844V20.3799L132.43 19.9287V22H134.104V23.2441H132.43V26.7441C132.43 27.1589 132.505 27.4551 132.655 27.6328C132.806 27.8105 133.056 27.8994 133.407 27.8994C133.676 27.8994 133.909 27.8219 134.104 27.667V28.9248ZM140.845 29H139.307V27.9062H139.279C138.796 28.7448 138.088 29.1641 137.153 29.1641C136.465 29.1641 135.925 28.9772 135.533 28.6035C135.146 28.2298 134.952 27.7354 134.952 27.1201C134.952 25.7985 135.713 25.0283 137.235 24.8096L139.313 24.5156C139.313 23.5176 138.84 23.0186 137.892 23.0186C137.058 23.0186 136.306 23.3057 135.636 23.8799V22.4922C136.374 22.0547 137.226 21.8359 138.192 21.8359C139.961 21.8359 140.845 22.7064 140.845 24.4473V29ZM139.313 25.5615L137.844 25.7666C137.388 25.8258 137.044 25.9375 136.812 26.1016C136.584 26.2611 136.47 26.5436 136.47 26.9492C136.47 27.2454 136.575 27.4893 136.784 27.6807C136.998 27.8675 137.283 27.9609 137.639 27.9609C138.122 27.9609 138.521 27.7923 138.835 27.4551C139.154 27.1133 139.313 26.6849 139.313 26.1699V25.5615ZM149.021 29H147.435V25.0557C147.435 23.7477 146.972 23.0938 146.047 23.0938C145.564 23.0938 145.165 23.276 144.851 23.6406C144.536 24.0007 144.379 24.4564 144.379 25.0078V29H142.786V22H144.379V23.1621H144.406C144.93 22.278 145.687 21.8359 146.676 21.8359C147.437 21.8359 148.018 22.0843 148.419 22.5811C148.82 23.0732 149.021 23.7865 149.021 24.7207V29ZM154.653 28.9248C154.343 29.0798 153.936 29.1572 153.43 29.1572C152.072 29.1572 151.393 28.5055 151.393 27.2021V23.2441H150.224V22H151.393V20.3799L152.979 19.9287V22H154.653V23.2441H152.979V26.7441C152.979 27.1589 153.054 27.4551 153.204 27.6328C153.354 27.8105 153.605 27.8994 153.956 27.8994C154.225 27.8994 154.457 27.8219 154.653 27.667V28.9248Z" fill="black"/>
<line x1="15" y1="46.5" x2="370" y2="47.5" stroke="#CCCCCC"/>
</svg>
