<svg width="385" height="800" viewBox="0 0 385 800" fill="none" xmlns="http://www.w3.org/2000/svg">
<rect width="385" height="800" fill="white"/>
<rect width="385" height="800" fill="white"/>
<rect width="357" height="40" transform="translate(14 728)" fill="#F3F3F3"/>
<rect x="14" y="728" width="357" height="40" fill="#F3F3F3"/>
<path d="M199 747.5H186.953L193.102 753.648L192.398 754.352L185.047 747L192.398 739.648L193.102 740.352L186.953 746.5H199V747.5ZM183 739H184V755H183V739Z" fill="#ADADAD"/>
<path d="M243 747.5H228.953L235.102 753.648L234.398 754.352L227.047 747L234.398 739.648L235.102 740.352L228.953 746.5H243V747.5Z" fill="#ADADAD"/>
<path d="M273.434 748.295V752H272.285V742.197H274.979C276.027 742.197 276.838 742.452 277.412 742.963C277.991 743.473 278.28 744.193 278.28 745.123C278.28 746.053 277.959 746.814 277.316 747.406C276.678 747.999 275.815 748.295 274.726 748.295H273.434ZM273.434 743.236V747.256H274.637C275.43 747.256 276.034 747.076 276.448 746.716C276.868 746.351 277.077 745.839 277.077 745.178C277.077 743.883 276.312 743.236 274.78 743.236H273.434ZM284.515 752H283.394V750.906H283.366C282.879 751.745 282.161 752.164 281.213 752.164C280.516 752.164 279.969 751.979 279.572 751.61C279.18 751.241 278.984 750.751 278.984 750.141C278.984 748.833 279.755 748.072 281.295 747.857L283.394 747.563C283.394 746.374 282.913 745.779 281.951 745.779C281.108 745.779 280.347 746.066 279.668 746.641V745.492C280.356 745.055 281.149 744.836 282.047 744.836C283.692 744.836 284.515 745.706 284.515 747.447V752ZM283.394 748.459L281.705 748.691C281.186 748.764 280.794 748.894 280.529 749.081C280.265 749.263 280.133 749.589 280.133 750.059C280.133 750.4 280.254 750.681 280.495 750.899C280.741 751.114 281.067 751.221 281.473 751.221C282.029 751.221 282.487 751.027 282.847 750.64C283.211 750.248 283.394 749.753 283.394 749.156V748.459ZM292.602 751.439C292.602 754.01 291.371 755.295 288.91 755.295C288.044 755.295 287.288 755.131 286.641 754.803V753.682C287.429 754.119 288.181 754.338 288.896 754.338C290.619 754.338 291.48 753.422 291.48 751.59V750.824H291.453C290.92 751.717 290.118 752.164 289.047 752.164C288.176 752.164 287.475 751.854 286.941 751.234C286.413 750.61 286.148 749.774 286.148 748.726C286.148 747.536 286.433 746.59 287.003 745.889C287.577 745.187 288.361 744.836 289.354 744.836C290.298 744.836 290.997 745.214 291.453 745.971H291.48V745H292.602V751.439ZM291.48 748.835V747.803C291.48 747.247 291.291 746.771 290.913 746.374C290.539 745.978 290.072 745.779 289.512 745.779C288.819 745.779 288.277 746.032 287.885 746.538C287.493 747.039 287.297 747.743 287.297 748.65C287.297 749.43 287.484 750.054 287.857 750.523C288.236 750.988 288.735 751.221 289.354 751.221C289.983 751.221 290.494 750.997 290.886 750.551C291.282 750.104 291.48 749.532 291.48 748.835ZM300.497 748.78H295.555C295.573 749.56 295.783 750.161 296.184 750.585C296.585 751.009 297.136 751.221 297.838 751.221C298.626 751.221 299.351 750.961 300.012 750.441V751.494C299.396 751.941 298.583 752.164 297.571 752.164C296.582 752.164 295.805 751.847 295.24 751.214C294.675 750.576 294.393 749.68 294.393 748.527C294.393 747.438 294.7 746.552 295.315 745.868C295.935 745.18 296.703 744.836 297.619 744.836C298.535 744.836 299.244 745.132 299.745 745.725C300.246 746.317 300.497 747.14 300.497 748.192V748.78ZM299.349 747.83C299.344 747.183 299.187 746.679 298.877 746.319C298.572 745.959 298.146 745.779 297.599 745.779C297.07 745.779 296.621 745.968 296.252 746.347C295.883 746.725 295.655 747.219 295.568 747.83H299.349ZM309.855 752H308.734V743.53C308.648 743.617 308.52 743.717 308.352 743.831C308.188 743.94 308.001 744.05 307.791 744.159C307.586 744.269 307.367 744.371 307.135 744.467C306.907 744.562 306.684 744.638 306.465 744.692V743.558C306.711 743.489 306.971 743.398 307.244 743.284C307.522 743.166 307.793 743.036 308.058 742.895C308.326 742.749 308.579 742.598 308.816 742.443C309.053 742.284 309.258 742.129 309.432 741.979H309.855V752Z" fill="#666666"/>
<path d="M356.953 747L349.602 754.352L348.898 753.648L355.047 747.5H341V746.5H355.047L348.898 740.352L349.602 739.648L356.953 747Z" fill="#ADADAD"/>
<rect width="357" height="133" transform="translate(14 595)" fill="white"/>
<path d="M197.422 623L206 631.578V655H180V623H197.422ZM198 626.422V631H202.578L198 626.422ZM182 653H204V633H196V625H182V653ZM186 639V637H200V639H186ZM186 643V641H200V643H186ZM186 647V645H200V647H186Z" fill="#666666"/>
<path d="M139.234 693H137.203L131.852 684.766C131.716 684.557 131.604 684.341 131.516 684.117H131.469C131.51 684.357 131.531 684.87 131.531 685.656V693H129.734V681.797H131.898L137.07 689.836C137.289 690.169 137.43 690.398 137.492 690.523H137.523C137.471 690.227 137.445 689.724 137.445 689.016V681.797H139.234V693ZM145.359 693.188C144.125 693.188 143.138 692.815 142.398 692.07C141.664 691.32 141.297 690.328 141.297 689.094C141.297 687.75 141.68 686.701 142.445 685.945C143.216 685.19 144.253 684.812 145.555 684.812C146.805 684.812 147.779 685.18 148.477 685.914C149.174 686.648 149.523 687.667 149.523 688.969C149.523 690.245 149.146 691.268 148.391 692.039C147.641 692.805 146.63 693.188 145.359 693.188ZM145.445 686.258C144.737 686.258 144.177 686.505 143.766 687C143.354 687.495 143.148 688.177 143.148 689.047C143.148 689.885 143.357 690.547 143.773 691.031C144.19 691.51 144.747 691.75 145.445 691.75C146.159 691.75 146.706 691.513 147.086 691.039C147.471 690.565 147.664 689.891 147.664 689.016C147.664 688.135 147.471 687.456 147.086 686.977C146.706 686.497 146.159 686.258 145.445 686.258ZM163.055 693H161.242V691.641H161.211C160.628 692.672 159.729 693.188 158.516 693.188C157.531 693.188 156.742 692.831 156.148 692.117C155.56 691.398 155.266 690.422 155.266 689.188C155.266 687.865 155.591 686.805 156.242 686.008C156.898 685.211 157.771 684.812 158.859 684.812C159.938 684.812 160.721 685.245 161.211 686.109H161.242V681.156H163.055V693ZM161.266 689.344V688.297C161.266 687.729 161.081 687.247 160.711 686.852C160.341 686.456 159.87 686.258 159.297 686.258C158.62 686.258 158.086 686.51 157.695 687.016C157.31 687.521 157.117 688.221 157.117 689.117C157.117 689.93 157.302 690.573 157.672 691.047C158.047 691.516 158.549 691.75 159.18 691.75C159.799 691.75 160.302 691.523 160.688 691.07C161.073 690.612 161.266 690.036 161.266 689.344ZM171.562 693H169.805V691.75H169.773C169.221 692.708 168.411 693.188 167.344 693.188C166.557 693.188 165.94 692.974 165.492 692.547C165.049 692.12 164.828 691.555 164.828 690.852C164.828 689.341 165.698 688.461 167.438 688.211L169.812 687.875C169.812 686.734 169.271 686.164 168.188 686.164C167.234 686.164 166.375 686.492 165.609 687.148V685.562C166.453 685.062 167.427 684.812 168.531 684.812C170.552 684.812 171.562 685.807 171.562 687.797V693ZM169.812 689.07L168.133 689.305C167.612 689.372 167.219 689.5 166.953 689.688C166.693 689.87 166.562 690.193 166.562 690.656C166.562 690.995 166.682 691.273 166.922 691.492C167.167 691.706 167.492 691.812 167.898 691.812C168.451 691.812 168.906 691.62 169.266 691.234C169.63 690.844 169.812 690.354 169.812 689.766V689.07ZM178 692.914C177.646 693.091 177.18 693.18 176.602 693.18C175.049 693.18 174.273 692.435 174.273 690.945V686.422H172.938V685H174.273V683.148L176.086 682.633V685H178V686.422H176.086V690.422C176.086 690.896 176.172 691.234 176.344 691.438C176.516 691.641 176.802 691.742 177.203 691.742C177.51 691.742 177.776 691.654 178 691.477V692.914ZM185.703 693H183.945V691.75H183.914C183.362 692.708 182.552 693.188 181.484 693.188C180.698 693.188 180.081 692.974 179.633 692.547C179.19 692.12 178.969 691.555 178.969 690.852C178.969 689.341 179.839 688.461 181.578 688.211L183.953 687.875C183.953 686.734 183.411 686.164 182.328 686.164C181.375 686.164 180.516 686.492 179.75 687.148V685.562C180.594 685.062 181.568 684.812 182.672 684.812C184.693 684.812 185.703 685.807 185.703 687.797V693ZM183.953 689.07L182.273 689.305C181.753 689.372 181.359 689.5 181.094 689.688C180.833 689.87 180.703 690.193 180.703 690.656C180.703 690.995 180.823 691.273 181.062 691.492C181.307 691.706 181.633 691.812 182.039 691.812C182.591 691.812 183.047 691.62 183.406 691.234C183.771 690.844 183.953 690.354 183.953 689.766V689.07ZM198.469 693H196.711V691.75H196.68C196.128 692.708 195.318 693.188 194.25 693.188C193.464 693.188 192.846 692.974 192.398 692.547C191.956 692.12 191.734 691.555 191.734 690.852C191.734 689.341 192.604 688.461 194.344 688.211L196.719 687.875C196.719 686.734 196.177 686.164 195.094 686.164C194.141 686.164 193.281 686.492 192.516 687.148V685.562C193.359 685.062 194.333 684.812 195.438 684.812C197.458 684.812 198.469 685.807 198.469 687.797V693ZM196.719 689.07L195.039 689.305C194.518 689.372 194.125 689.5 193.859 689.688C193.599 689.87 193.469 690.193 193.469 690.656C193.469 690.995 193.589 691.273 193.828 691.492C194.073 691.706 194.398 691.812 194.805 691.812C195.357 691.812 195.812 691.62 196.172 691.234C196.536 690.844 196.719 690.354 196.719 689.766V689.07ZM207.578 685L204.484 693H202.523L199.578 685H201.547L203.32 690.594C203.456 691.005 203.539 691.365 203.57 691.672H203.594C203.641 691.286 203.714 690.938 203.812 690.625L205.672 685H207.578ZM214.688 693H212.93V691.75H212.898C212.346 692.708 211.536 693.188 210.469 693.188C209.682 693.188 209.065 692.974 208.617 692.547C208.174 692.12 207.953 691.555 207.953 690.852C207.953 689.341 208.823 688.461 210.562 688.211L212.938 687.875C212.938 686.734 212.396 686.164 211.312 686.164C210.359 686.164 209.5 686.492 208.734 687.148V685.562C209.578 685.062 210.552 684.812 211.656 684.812C213.677 684.812 214.688 685.807 214.688 687.797V693ZM212.938 689.07L211.258 689.305C210.737 689.372 210.344 689.5 210.078 689.688C209.818 689.87 209.688 690.193 209.688 690.656C209.688 690.995 209.807 691.273 210.047 691.492C210.292 691.706 210.617 691.812 211.023 691.812C211.576 691.812 212.031 691.62 212.391 691.234C212.755 690.844 212.938 690.354 212.938 689.766V689.07ZM217.82 683.32C217.523 683.32 217.268 683.224 217.055 683.031C216.846 682.839 216.742 682.594 216.742 682.297C216.742 682 216.846 681.753 217.055 681.555C217.268 681.357 217.523 681.258 217.82 681.258C218.128 681.258 218.388 681.357 218.602 681.555C218.815 681.753 218.922 682 218.922 682.297C218.922 682.578 218.815 682.82 218.602 683.023C218.388 683.221 218.128 683.32 217.82 683.32ZM218.719 693H216.906V685H218.719V693ZM222.914 693H221.094V681.156H222.914V693ZM231.422 693H229.664V691.75H229.633C229.081 692.708 228.271 693.188 227.203 693.188C226.417 693.188 225.799 692.974 225.352 692.547C224.909 692.12 224.688 691.555 224.688 690.852C224.688 689.341 225.557 688.461 227.297 688.211L229.672 687.875C229.672 686.734 229.13 686.164 228.047 686.164C227.094 686.164 226.234 686.492 225.469 687.148V685.562C226.312 685.062 227.286 684.812 228.391 684.812C230.411 684.812 231.422 685.807 231.422 687.797V693ZM229.672 689.07L227.992 689.305C227.471 689.372 227.078 689.5 226.812 689.688C226.552 689.87 226.422 690.193 226.422 690.656C226.422 690.995 226.542 691.273 226.781 691.492C227.026 691.706 227.352 691.812 227.758 691.812C228.31 691.812 228.766 691.62 229.125 691.234C229.49 690.844 229.672 690.354 229.672 689.766V689.07ZM235.484 691.844H235.453V693H233.641V681.156H235.453V686.406H235.484C236.104 685.344 237.01 684.812 238.203 684.812C239.214 684.812 240.003 685.172 240.57 685.891C241.143 686.604 241.43 687.562 241.43 688.766C241.43 690.104 241.109 691.177 240.469 691.984C239.828 692.786 238.953 693.188 237.844 693.188C236.802 693.188 236.016 692.74 235.484 691.844ZM235.438 688.664V689.656C235.438 690.24 235.622 690.734 235.992 691.141C236.367 691.547 236.841 691.75 237.414 691.75C238.086 691.75 238.612 691.49 238.992 690.969C239.378 690.443 239.57 689.711 239.57 688.773C239.57 687.987 239.391 687.372 239.031 686.93C238.677 686.482 238.195 686.258 237.586 686.258C236.94 686.258 236.419 686.487 236.023 686.945C235.633 687.404 235.438 687.977 235.438 688.664ZM245.102 693H243.281V681.156H245.102V693ZM254.242 689.492H248.789C248.81 690.232 249.036 690.802 249.469 691.203C249.906 691.604 250.505 691.805 251.266 691.805C252.12 691.805 252.904 691.549 253.617 691.039V692.5C252.888 692.958 251.924 693.188 250.727 693.188C249.549 693.188 248.625 692.826 247.953 692.102C247.286 691.372 246.953 690.349 246.953 689.031C246.953 687.786 247.32 686.773 248.055 685.992C248.794 685.206 249.711 684.812 250.805 684.812C251.898 684.812 252.745 685.164 253.344 685.867C253.943 686.57 254.242 687.547 254.242 688.797V689.492ZM252.492 688.211C252.487 687.56 252.333 687.055 252.031 686.695C251.729 686.331 251.312 686.148 250.781 686.148C250.26 686.148 249.818 686.339 249.453 686.719C249.094 687.099 248.872 687.596 248.789 688.211H252.492ZM256.719 693.172C256.406 693.172 256.141 693.07 255.922 692.867C255.703 692.659 255.594 692.411 255.594 692.125C255.594 691.833 255.703 691.583 255.922 691.375C256.141 691.167 256.406 691.062 256.719 691.062C257.036 691.062 257.305 691.167 257.523 691.375C257.747 691.583 257.859 691.833 257.859 692.125C257.859 692.411 257.747 692.659 257.523 692.867C257.305 693.07 257.036 693.172 256.719 693.172Z" fill="#666666"/>
<g clip-path="url(#clip0)">
<rect width="357" height="36" transform="translate(14 559)" fill="white"/>
<line x1="14" y1="594.5" x2="371" y2="595.5" stroke="#CCCCCC"/>
<path d="M22.0459 580.59C21.3076 580.973 20.3893 581.164 19.291 581.164C17.8691 581.164 16.7298 580.715 15.873 579.817C15.0163 578.92 14.5879 577.742 14.5879 576.283C14.5879 574.715 15.0687 573.449 16.0303 572.482C16.9964 571.516 18.2155 571.033 19.6875 571.033C20.6354 571.033 21.4215 571.168 22.0459 571.437V573.05C21.3851 572.658 20.6559 572.462 19.8584 572.462C18.7965 572.462 17.9352 572.801 17.2744 573.48C16.6182 574.16 16.29 575.066 16.29 576.201C16.29 577.281 16.5977 578.143 17.2129 578.785C17.8281 579.423 18.637 579.742 19.6396 579.742C20.5648 579.742 21.3669 579.523 22.0459 579.086V580.59ZM26.8311 581.164C25.751 581.164 24.8874 580.838 24.2402 580.187C23.5977 579.53 23.2764 578.662 23.2764 577.582C23.2764 576.406 23.6113 575.488 24.2812 574.827C24.9557 574.166 25.8626 573.836 27.002 573.836C28.0957 573.836 28.9479 574.157 29.5586 574.8C30.1693 575.442 30.4746 576.333 30.4746 577.473C30.4746 578.589 30.1442 579.485 29.4834 580.159C28.8271 580.829 27.943 581.164 26.8311 581.164ZM26.9062 575.101C26.2865 575.101 25.7965 575.317 25.4365 575.75C25.0765 576.183 24.8965 576.78 24.8965 577.541C24.8965 578.275 25.0788 578.854 25.4434 579.277C25.8079 579.697 26.2956 579.906 26.9062 579.906C27.5306 579.906 28.0091 579.699 28.3418 579.284C28.679 578.869 28.8477 578.279 28.8477 577.514C28.8477 576.743 28.679 576.149 28.3418 575.729C28.0091 575.31 27.5306 575.101 26.9062 575.101ZM42.5605 581H40.9746V577.186C40.9746 576.452 40.8698 575.921 40.6602 575.593C40.4551 575.265 40.1064 575.101 39.6143 575.101C39.1995 575.101 38.8464 575.308 38.5547 575.723C38.2676 576.137 38.124 576.634 38.124 577.213V581H36.5312V577.056C36.5312 575.752 36.071 575.101 35.1504 575.101C34.722 575.101 34.3688 575.297 34.0908 575.688C33.8174 576.08 33.6807 576.589 33.6807 577.213V581H32.0947V574H33.6807V575.107H33.708C34.2139 574.26 34.9499 573.836 35.916 573.836C36.3991 573.836 36.8206 573.97 37.1807 574.239C37.5452 574.504 37.7936 574.852 37.9258 575.285C38.4453 574.319 39.2201 573.836 40.25 573.836C41.7904 573.836 42.5605 574.786 42.5605 576.687V581ZM46.1084 579.968H46.0811V584.22H44.4951V574H46.0811V575.23H46.1084C46.6507 574.301 47.4437 573.836 48.4873 573.836C49.376 573.836 50.0687 574.148 50.5654 574.772C51.0622 575.397 51.3105 576.235 51.3105 577.288C51.3105 578.455 51.0303 579.389 50.4697 580.091C49.9092 580.793 49.1436 581.144 48.1729 581.144C47.2796 581.144 46.5915 580.752 46.1084 579.968ZM46.0674 577.206V578.074C46.0674 578.585 46.2292 579.018 46.5527 579.373C46.8809 579.729 47.2956 579.906 47.7969 579.906C48.3848 579.906 48.8451 579.678 49.1777 579.223C49.515 578.762 49.6836 578.122 49.6836 577.302C49.6836 576.614 49.5264 576.076 49.2119 575.688C48.902 575.297 48.4805 575.101 47.9473 575.101C47.3822 575.101 46.9264 575.301 46.5801 575.702C46.2383 576.103 46.0674 576.604 46.0674 577.206ZM58.8574 577.931H54.0859C54.1042 578.578 54.3024 579.077 54.6807 579.428C55.0635 579.779 55.5876 579.954 56.2529 579.954C57.0003 579.954 57.6862 579.731 58.3105 579.284V580.562C57.6725 580.964 56.8294 581.164 55.7812 581.164C54.7513 581.164 53.9424 580.847 53.3545 580.214C52.7712 579.576 52.4795 578.68 52.4795 577.527C52.4795 576.438 52.8008 575.552 53.4434 574.868C54.0905 574.18 54.8926 573.836 55.8496 573.836C56.8066 573.836 57.5472 574.144 58.0713 574.759C58.5954 575.374 58.8574 576.229 58.8574 577.322V577.931ZM57.3262 576.81C57.3216 576.24 57.1872 575.798 56.9229 575.483C56.6585 575.164 56.2939 575.005 55.8291 575.005C55.3734 575.005 54.986 575.171 54.667 575.504C54.3525 575.837 54.1589 576.272 54.0859 576.81H57.3262ZM64.0596 580.925C63.7497 581.08 63.3418 581.157 62.8359 581.157C61.4779 581.157 60.7988 580.506 60.7988 579.202V575.244H59.6299V574H60.7988V572.38L62.3848 571.929V574H64.0596V575.244H62.3848V578.744C62.3848 579.159 62.46 579.455 62.6104 579.633C62.7607 579.811 63.0114 579.899 63.3623 579.899C63.6312 579.899 63.8636 579.822 64.0596 579.667V580.925ZM66.2266 572.53C65.9668 572.53 65.7435 572.446 65.5566 572.277C65.3743 572.109 65.2832 571.895 65.2832 571.635C65.2832 571.375 65.3743 571.159 65.5566 570.985C65.7435 570.812 65.9668 570.726 66.2266 570.726C66.4954 570.726 66.7233 570.812 66.9102 570.985C67.097 571.159 67.1904 571.375 67.1904 571.635C67.1904 571.881 67.097 572.093 66.9102 572.271C66.7233 572.444 66.4954 572.53 66.2266 572.53ZM67.0127 581H65.4268V574H67.0127V581ZM72.7822 580.925C72.4723 581.08 72.0645 581.157 71.5586 581.157C70.2005 581.157 69.5215 580.506 69.5215 579.202V575.244H68.3525V574H69.5215V572.38L71.1074 571.929V574H72.7822V575.244H71.1074V578.744C71.1074 579.159 71.1826 579.455 71.333 579.633C71.4834 579.811 71.734 579.899 72.085 579.899C72.3538 579.899 72.5863 579.822 72.7822 579.667V580.925ZM77.1709 581.164C76.0908 581.164 75.2272 580.838 74.5801 580.187C73.9375 579.53 73.6162 578.662 73.6162 577.582C73.6162 576.406 73.9512 575.488 74.6211 574.827C75.2956 574.166 76.2025 573.836 77.3418 573.836C78.4355 573.836 79.2878 574.157 79.8984 574.8C80.5091 575.442 80.8145 576.333 80.8145 577.473C80.8145 578.589 80.484 579.485 79.8232 580.159C79.167 580.829 78.2829 581.164 77.1709 581.164ZM77.2461 575.101C76.6263 575.101 76.1364 575.317 75.7764 575.75C75.4163 576.183 75.2363 576.78 75.2363 577.541C75.2363 578.275 75.4186 578.854 75.7832 579.277C76.1478 579.697 76.6354 579.906 77.2461 579.906C77.8704 579.906 78.349 579.699 78.6816 579.284C79.0189 578.869 79.1875 578.279 79.1875 577.514C79.1875 576.743 79.0189 576.149 78.6816 575.729C78.349 575.31 77.8704 575.101 77.2461 575.101ZM86.4951 575.511C86.3037 575.36 86.028 575.285 85.668 575.285C85.1986 575.285 84.8066 575.497 84.4922 575.921C84.1777 576.345 84.0205 576.921 84.0205 577.65V581H82.4346V574H84.0205V575.442H84.0479C84.2028 574.95 84.4398 574.567 84.7588 574.294C85.0824 574.016 85.4424 573.877 85.8389 573.877C86.126 573.877 86.3447 573.92 86.4951 574.007V575.511ZM87.2744 580.781V579.312C87.8669 579.763 88.5208 579.988 89.2363 579.988C90.1934 579.988 90.6719 579.706 90.6719 579.141C90.6719 578.981 90.6309 578.847 90.5488 578.737C90.4668 578.623 90.3551 578.523 90.2139 578.437C90.0771 578.35 89.9131 578.272 89.7217 578.204C89.5348 578.136 89.3252 578.058 89.0928 577.972C88.8057 577.858 88.5459 577.737 88.3135 577.609C88.0856 577.482 87.8942 577.338 87.7393 577.179C87.5889 577.015 87.4749 576.83 87.3975 576.625C87.32 576.42 87.2812 576.181 87.2812 575.907C87.2812 575.57 87.361 575.274 87.5205 575.019C87.68 574.759 87.8942 574.542 88.1631 574.369C88.432 574.191 88.7373 574.059 89.0791 573.973C89.4209 573.882 89.7741 573.836 90.1387 573.836C90.7858 573.836 91.3646 573.934 91.875 574.13V575.518C91.3828 575.18 90.8177 575.012 90.1797 575.012C89.9792 575.012 89.7969 575.032 89.6328 575.073C89.4733 575.114 89.3366 575.171 89.2227 575.244C89.1087 575.317 89.0199 575.406 88.9561 575.511C88.8923 575.611 88.8604 575.723 88.8604 575.846C88.8604 575.996 88.8923 576.124 88.9561 576.229C89.0199 576.333 89.1133 576.427 89.2363 576.509C89.3639 576.586 89.5143 576.659 89.6875 576.728C89.8652 576.791 90.068 576.862 90.2959 576.939C90.5967 577.062 90.8656 577.188 91.1025 577.315C91.3441 577.443 91.5492 577.589 91.7178 577.753C91.8864 577.912 92.0163 578.099 92.1074 578.313C92.1986 578.523 92.2441 578.774 92.2441 579.065C92.2441 579.421 92.1621 579.731 91.998 579.995C91.834 580.259 91.6152 580.478 91.3418 580.651C91.0684 580.825 90.7516 580.952 90.3916 581.034C90.0361 581.121 89.6602 581.164 89.2637 581.164C88.498 581.164 87.835 581.036 87.2744 580.781Z" fill="black"/>
<path d="M349 575C349.141 575 349.271 575.026 349.391 575.078C349.51 575.13 349.615 575.203 349.703 575.297C349.797 575.385 349.87 575.49 349.922 575.609C349.974 575.729 350 575.859 350 576C350 576.141 349.974 576.271 349.922 576.391C349.87 576.51 349.797 576.617 349.703 576.711C349.615 576.799 349.51 576.87 349.391 576.922C349.271 576.974 349.141 577 349 577C348.859 577 348.729 576.974 348.609 576.922C348.49 576.87 348.383 576.799 348.289 576.711C348.201 576.617 348.13 576.51 348.078 576.391C348.026 576.271 348 576.141 348 576C348 575.859 348.026 575.729 348.078 575.609C348.13 575.49 348.201 575.385 348.289 575.297C348.383 575.203 348.49 575.13 348.609 575.078C348.729 575.026 348.859 575 349 575ZM355 575C355.141 575 355.271 575.026 355.391 575.078C355.51 575.13 355.615 575.203 355.703 575.297C355.797 575.385 355.87 575.49 355.922 575.609C355.974 575.729 356 575.859 356 576C356 576.141 355.974 576.271 355.922 576.391C355.87 576.51 355.797 576.617 355.703 576.711C355.615 576.799 355.51 576.87 355.391 576.922C355.271 576.974 355.141 577 355 577C354.859 577 354.729 576.974 354.609 576.922C354.49 576.87 354.383 576.799 354.289 576.711C354.201 576.617 354.13 576.51 354.078 576.391C354.026 576.271 354 576.141 354 576C354 575.859 354.026 575.729 354.078 575.609C354.13 575.49 354.201 575.385 354.289 575.297C354.383 575.203 354.49 575.13 354.609 575.078C354.729 575.026 354.859 575 355 575ZM361 575C361.141 575 361.271 575.026 361.391 575.078C361.51 575.13 361.615 575.203 361.703 575.297C361.797 575.385 361.87 575.49 361.922 575.609C361.974 575.729 362 575.859 362 576C362 576.141 361.974 576.271 361.922 576.391C361.87 576.51 361.797 576.617 361.703 576.711C361.615 576.799 361.51 576.87 361.391 576.922C361.271 576.974 361.141 577 361 577C360.859 577 360.729 576.974 360.609 576.922C360.49 576.87 360.383 576.799 360.289 576.711C360.201 576.617 360.13 576.51 360.078 576.391C360.026 576.271 360 576.141 360 576C360 575.859 360.026 575.729 360.078 575.609C360.13 575.49 360.201 575.385 360.289 575.297C360.383 575.203 360.49 575.13 360.609 575.078C360.729 575.026 360.859 575 361 575Z" fill="black"/>
</g>
<rect width="357" height="40" transform="translate(14 463)" fill="#F3F3F3"/>
<rect x="14" y="463" width="357" height="40" fill="#F3F3F3"/>
<path d="M199 482.5H186.953L193.102 488.648L192.398 489.352L185.047 482L192.398 474.648L193.102 475.352L186.953 481.5H199V482.5ZM183 474H184V490H183V474Z" fill="#ADADAD"/>
<path d="M243 482.5H228.953L235.102 488.648L234.398 489.352L227.047 482L234.398 474.648L235.102 475.352L228.953 481.5H243V482.5Z" fill="#ADADAD"/>
<path d="M273.434 483.295V487H272.285V477.197H274.979C276.027 477.197 276.838 477.452 277.412 477.963C277.991 478.473 278.28 479.193 278.28 480.123C278.28 481.053 277.959 481.814 277.316 482.406C276.678 482.999 275.815 483.295 274.726 483.295H273.434ZM273.434 478.236V482.256H274.637C275.43 482.256 276.034 482.076 276.448 481.716C276.868 481.351 277.077 480.839 277.077 480.178C277.077 478.883 276.312 478.236 274.78 478.236H273.434ZM284.515 487H283.394V485.906H283.366C282.879 486.745 282.161 487.164 281.213 487.164C280.516 487.164 279.969 486.979 279.572 486.61C279.18 486.241 278.984 485.751 278.984 485.141C278.984 483.833 279.755 483.072 281.295 482.857L283.394 482.563C283.394 481.374 282.913 480.779 281.951 480.779C281.108 480.779 280.347 481.066 279.668 481.641V480.492C280.356 480.055 281.149 479.836 282.047 479.836C283.692 479.836 284.515 480.706 284.515 482.447V487ZM283.394 483.459L281.705 483.691C281.186 483.764 280.794 483.894 280.529 484.081C280.265 484.263 280.133 484.589 280.133 485.059C280.133 485.4 280.254 485.681 280.495 485.899C280.741 486.114 281.067 486.221 281.473 486.221C282.029 486.221 282.487 486.027 282.847 485.64C283.211 485.248 283.394 484.753 283.394 484.156V483.459ZM292.602 486.439C292.602 489.01 291.371 490.295 288.91 490.295C288.044 490.295 287.288 490.131 286.641 489.803V488.682C287.429 489.119 288.181 489.338 288.896 489.338C290.619 489.338 291.48 488.422 291.48 486.59V485.824H291.453C290.92 486.717 290.118 487.164 289.047 487.164C288.176 487.164 287.475 486.854 286.941 486.234C286.413 485.61 286.148 484.774 286.148 483.726C286.148 482.536 286.433 481.59 287.003 480.889C287.577 480.187 288.361 479.836 289.354 479.836C290.298 479.836 290.997 480.214 291.453 480.971H291.48V480H292.602V486.439ZM291.48 483.835V482.803C291.48 482.247 291.291 481.771 290.913 481.374C290.539 480.978 290.072 480.779 289.512 480.779C288.819 480.779 288.277 481.032 287.885 481.538C287.493 482.039 287.297 482.743 287.297 483.65C287.297 484.43 287.484 485.054 287.857 485.523C288.236 485.988 288.735 486.221 289.354 486.221C289.983 486.221 290.494 485.997 290.886 485.551C291.282 485.104 291.48 484.532 291.48 483.835ZM300.497 483.78H295.555C295.573 484.56 295.783 485.161 296.184 485.585C296.585 486.009 297.136 486.221 297.838 486.221C298.626 486.221 299.351 485.961 300.012 485.441V486.494C299.396 486.941 298.583 487.164 297.571 487.164C296.582 487.164 295.805 486.847 295.24 486.214C294.675 485.576 294.393 484.68 294.393 483.527C294.393 482.438 294.7 481.552 295.315 480.868C295.935 480.18 296.703 479.836 297.619 479.836C298.535 479.836 299.244 480.132 299.745 480.725C300.246 481.317 300.497 482.14 300.497 483.192V483.78ZM299.349 482.83C299.344 482.183 299.187 481.679 298.877 481.319C298.572 480.959 298.146 480.779 297.599 480.779C297.07 480.779 296.621 480.968 296.252 481.347C295.883 481.725 295.655 482.219 295.568 482.83H299.349ZM309.855 487H308.734V478.53C308.648 478.617 308.52 478.717 308.352 478.831C308.188 478.94 308.001 479.05 307.791 479.159C307.586 479.269 307.367 479.371 307.135 479.467C306.907 479.562 306.684 479.638 306.465 479.692V478.558C306.711 478.489 306.971 478.398 307.244 478.284C307.522 478.166 307.793 478.036 308.058 477.895C308.326 477.749 308.579 477.598 308.816 477.443C309.053 477.284 309.258 477.129 309.432 476.979H309.855V487Z" fill="#666666"/>
<path d="M356.953 482L349.602 489.352L348.898 488.648L355.047 482.5H341V481.5H355.047L348.898 475.352L349.602 474.648L356.953 482Z" fill="#ADADAD"/>
<rect width="357" height="133" transform="translate(14 330)" fill="white"/>
<path d="M197.422 358L206 366.578V390H180V358H197.422ZM198 361.422V366H202.578L198 361.422ZM182 388H204V368H196V360H182V388ZM186 374V372H200V374H186ZM186 378V376H200V378H186ZM186 382V380H200V382H186Z" fill="#666666"/>
<path d="M139.234 428H137.203L131.852 419.766C131.716 419.557 131.604 419.341 131.516 419.117H131.469C131.51 419.357 131.531 419.87 131.531 420.656V428H129.734V416.797H131.898L137.07 424.836C137.289 425.169 137.43 425.398 137.492 425.523H137.523C137.471 425.227 137.445 424.724 137.445 424.016V416.797H139.234V428ZM145.359 428.188C144.125 428.188 143.138 427.815 142.398 427.07C141.664 426.32 141.297 425.328 141.297 424.094C141.297 422.75 141.68 421.701 142.445 420.945C143.216 420.19 144.253 419.812 145.555 419.812C146.805 419.812 147.779 420.18 148.477 420.914C149.174 421.648 149.523 422.667 149.523 423.969C149.523 425.245 149.146 426.268 148.391 427.039C147.641 427.805 146.63 428.188 145.359 428.188ZM145.445 421.258C144.737 421.258 144.177 421.505 143.766 422C143.354 422.495 143.148 423.177 143.148 424.047C143.148 424.885 143.357 425.547 143.773 426.031C144.19 426.51 144.747 426.75 145.445 426.75C146.159 426.75 146.706 426.513 147.086 426.039C147.471 425.565 147.664 424.891 147.664 424.016C147.664 423.135 147.471 422.456 147.086 421.977C146.706 421.497 146.159 421.258 145.445 421.258ZM163.055 428H161.242V426.641H161.211C160.628 427.672 159.729 428.188 158.516 428.188C157.531 428.188 156.742 427.831 156.148 427.117C155.56 426.398 155.266 425.422 155.266 424.188C155.266 422.865 155.591 421.805 156.242 421.008C156.898 420.211 157.771 419.812 158.859 419.812C159.938 419.812 160.721 420.245 161.211 421.109H161.242V416.156H163.055V428ZM161.266 424.344V423.297C161.266 422.729 161.081 422.247 160.711 421.852C160.341 421.456 159.87 421.258 159.297 421.258C158.62 421.258 158.086 421.51 157.695 422.016C157.31 422.521 157.117 423.221 157.117 424.117C157.117 424.93 157.302 425.573 157.672 426.047C158.047 426.516 158.549 426.75 159.18 426.75C159.799 426.75 160.302 426.523 160.688 426.07C161.073 425.612 161.266 425.036 161.266 424.344ZM171.562 428H169.805V426.75H169.773C169.221 427.708 168.411 428.188 167.344 428.188C166.557 428.188 165.94 427.974 165.492 427.547C165.049 427.12 164.828 426.555 164.828 425.852C164.828 424.341 165.698 423.461 167.438 423.211L169.812 422.875C169.812 421.734 169.271 421.164 168.188 421.164C167.234 421.164 166.375 421.492 165.609 422.148V420.562C166.453 420.062 167.427 419.812 168.531 419.812C170.552 419.812 171.562 420.807 171.562 422.797V428ZM169.812 424.07L168.133 424.305C167.612 424.372 167.219 424.5 166.953 424.688C166.693 424.87 166.562 425.193 166.562 425.656C166.562 425.995 166.682 426.273 166.922 426.492C167.167 426.706 167.492 426.812 167.898 426.812C168.451 426.812 168.906 426.62 169.266 426.234C169.63 425.844 169.812 425.354 169.812 424.766V424.07ZM178 427.914C177.646 428.091 177.18 428.18 176.602 428.18C175.049 428.18 174.273 427.435 174.273 425.945V421.422H172.938V420H174.273V418.148L176.086 417.633V420H178V421.422H176.086V425.422C176.086 425.896 176.172 426.234 176.344 426.438C176.516 426.641 176.802 426.742 177.203 426.742C177.51 426.742 177.776 426.654 178 426.477V427.914ZM185.703 428H183.945V426.75H183.914C183.362 427.708 182.552 428.188 181.484 428.188C180.698 428.188 180.081 427.974 179.633 427.547C179.19 427.12 178.969 426.555 178.969 425.852C178.969 424.341 179.839 423.461 181.578 423.211L183.953 422.875C183.953 421.734 183.411 421.164 182.328 421.164C181.375 421.164 180.516 421.492 179.75 422.148V420.562C180.594 420.062 181.568 419.812 182.672 419.812C184.693 419.812 185.703 420.807 185.703 422.797V428ZM183.953 424.07L182.273 424.305C181.753 424.372 181.359 424.5 181.094 424.688C180.833 424.87 180.703 425.193 180.703 425.656C180.703 425.995 180.823 426.273 181.062 426.492C181.307 426.706 181.633 426.812 182.039 426.812C182.591 426.812 183.047 426.62 183.406 426.234C183.771 425.844 183.953 425.354 183.953 424.766V424.07ZM198.469 428H196.711V426.75H196.68C196.128 427.708 195.318 428.188 194.25 428.188C193.464 428.188 192.846 427.974 192.398 427.547C191.956 427.12 191.734 426.555 191.734 425.852C191.734 424.341 192.604 423.461 194.344 423.211L196.719 422.875C196.719 421.734 196.177 421.164 195.094 421.164C194.141 421.164 193.281 421.492 192.516 422.148V420.562C193.359 420.062 194.333 419.812 195.438 419.812C197.458 419.812 198.469 420.807 198.469 422.797V428ZM196.719 424.07L195.039 424.305C194.518 424.372 194.125 424.5 193.859 424.688C193.599 424.87 193.469 425.193 193.469 425.656C193.469 425.995 193.589 426.273 193.828 426.492C194.073 426.706 194.398 426.812 194.805 426.812C195.357 426.812 195.812 426.62 196.172 426.234C196.536 425.844 196.719 425.354 196.719 424.766V424.07ZM207.578 420L204.484 428H202.523L199.578 420H201.547L203.32 425.594C203.456 426.005 203.539 426.365 203.57 426.672H203.594C203.641 426.286 203.714 425.938 203.812 425.625L205.672 420H207.578ZM214.688 428H212.93V426.75H212.898C212.346 427.708 211.536 428.188 210.469 428.188C209.682 428.188 209.065 427.974 208.617 427.547C208.174 427.12 207.953 426.555 207.953 425.852C207.953 424.341 208.823 423.461 210.562 423.211L212.938 422.875C212.938 421.734 212.396 421.164 211.312 421.164C210.359 421.164 209.5 421.492 208.734 422.148V420.562C209.578 420.062 210.552 419.812 211.656 419.812C213.677 419.812 214.688 420.807 214.688 422.797V428ZM212.938 424.07L211.258 424.305C210.737 424.372 210.344 424.5 210.078 424.688C209.818 424.87 209.688 425.193 209.688 425.656C209.688 425.995 209.807 426.273 210.047 426.492C210.292 426.706 210.617 426.812 211.023 426.812C211.576 426.812 212.031 426.62 212.391 426.234C212.755 425.844 212.938 425.354 212.938 424.766V424.07ZM217.82 418.32C217.523 418.32 217.268 418.224 217.055 418.031C216.846 417.839 216.742 417.594 216.742 417.297C216.742 417 216.846 416.753 217.055 416.555C217.268 416.357 217.523 416.258 217.82 416.258C218.128 416.258 218.388 416.357 218.602 416.555C218.815 416.753 218.922 417 218.922 417.297C218.922 417.578 218.815 417.82 218.602 418.023C218.388 418.221 218.128 418.32 217.82 418.32ZM218.719 428H216.906V420H218.719V428ZM222.914 428H221.094V416.156H222.914V428ZM231.422 428H229.664V426.75H229.633C229.081 427.708 228.271 428.188 227.203 428.188C226.417 428.188 225.799 427.974 225.352 427.547C224.909 427.12 224.688 426.555 224.688 425.852C224.688 424.341 225.557 423.461 227.297 423.211L229.672 422.875C229.672 421.734 229.13 421.164 228.047 421.164C227.094 421.164 226.234 421.492 225.469 422.148V420.562C226.312 420.062 227.286 419.812 228.391 419.812C230.411 419.812 231.422 420.807 231.422 422.797V428ZM229.672 424.07L227.992 424.305C227.471 424.372 227.078 424.5 226.812 424.688C226.552 424.87 226.422 425.193 226.422 425.656C226.422 425.995 226.542 426.273 226.781 426.492C227.026 426.706 227.352 426.812 227.758 426.812C228.31 426.812 228.766 426.62 229.125 426.234C229.49 425.844 229.672 425.354 229.672 424.766V424.07ZM235.484 426.844H235.453V428H233.641V416.156H235.453V421.406H235.484C236.104 420.344 237.01 419.812 238.203 419.812C239.214 419.812 240.003 420.172 240.57 420.891C241.143 421.604 241.43 422.562 241.43 423.766C241.43 425.104 241.109 426.177 240.469 426.984C239.828 427.786 238.953 428.188 237.844 428.188C236.802 428.188 236.016 427.74 235.484 426.844ZM235.438 423.664V424.656C235.438 425.24 235.622 425.734 235.992 426.141C236.367 426.547 236.841 426.75 237.414 426.75C238.086 426.75 238.612 426.49 238.992 425.969C239.378 425.443 239.57 424.711 239.57 423.773C239.57 422.987 239.391 422.372 239.031 421.93C238.677 421.482 238.195 421.258 237.586 421.258C236.94 421.258 236.419 421.487 236.023 421.945C235.633 422.404 235.438 422.977 235.438 423.664ZM245.102 428H243.281V416.156H245.102V428ZM254.242 424.492H248.789C248.81 425.232 249.036 425.802 249.469 426.203C249.906 426.604 250.505 426.805 251.266 426.805C252.12 426.805 252.904 426.549 253.617 426.039V427.5C252.888 427.958 251.924 428.188 250.727 428.188C249.549 428.188 248.625 427.826 247.953 427.102C247.286 426.372 246.953 425.349 246.953 424.031C246.953 422.786 247.32 421.773 248.055 420.992C248.794 420.206 249.711 419.812 250.805 419.812C251.898 419.812 252.745 420.164 253.344 420.867C253.943 421.57 254.242 422.547 254.242 423.797V424.492ZM252.492 423.211C252.487 422.56 252.333 422.055 252.031 421.695C251.729 421.331 251.312 421.148 250.781 421.148C250.26 421.148 249.818 421.339 249.453 421.719C249.094 422.099 248.872 422.596 248.789 423.211H252.492ZM256.719 428.172C256.406 428.172 256.141 428.07 255.922 427.867C255.703 427.659 255.594 427.411 255.594 427.125C255.594 426.833 255.703 426.583 255.922 426.375C256.141 426.167 256.406 426.062 256.719 426.062C257.036 426.062 257.305 426.167 257.523 426.375C257.747 426.583 257.859 426.833 257.859 427.125C257.859 427.411 257.747 427.659 257.523 427.867C257.305 428.07 257.036 428.172 256.719 428.172Z" fill="#666666"/>
<rect x="14" y="280" width="44" height="50" fill="white"/>
<path d="M42.3516 301.352L34 309.711L29.6484 305.352L30.3516 304.648L34 308.289L41.6484 300.648L42.3516 301.352Z" fill="black"/>
<rect x="14" y="329" width="44" height="1" fill="#D8D8D8"/>
<rect x="58" y="280" width="230" height="50" fill="white"/>
<rect x="58" y="329" width="230" height="1" fill="#D8D8D8"/>
<path d="M75.1875 309H73.7793L68.7344 301.187C68.6068 300.991 68.502 300.785 68.4199 300.571H68.3789C68.4154 300.781 68.4336 301.23 68.4336 301.918V309H67.2852V299.197H68.7754L73.6836 306.888C73.8887 307.207 74.0208 307.425 74.0801 307.544H74.1074C74.0618 307.261 74.0391 306.781 74.0391 306.102V299.197H75.1875V309ZM82.6182 309H81.4971V307.906H81.4697C80.9821 308.745 80.2643 309.164 79.3164 309.164C78.6191 309.164 78.0723 308.979 77.6758 308.61C77.2839 308.241 77.0879 307.751 77.0879 307.141C77.0879 305.833 77.8581 305.072 79.3984 304.857L81.4971 304.563C81.4971 303.374 81.0163 302.779 80.0547 302.779C79.2116 302.779 78.4505 303.066 77.7715 303.641V302.492C78.4596 302.055 79.2526 301.836 80.1504 301.836C81.7956 301.836 82.6182 302.706 82.6182 304.447V309ZM81.4971 305.459L79.8086 305.691C79.2891 305.764 78.8971 305.894 78.6328 306.081C78.3685 306.263 78.2363 306.589 78.2363 307.059C78.2363 307.4 78.3571 307.681 78.5986 307.899C78.8447 308.114 79.1706 308.221 79.5762 308.221C80.1322 308.221 80.5902 308.027 80.9502 307.64C81.3148 307.248 81.4971 306.753 81.4971 306.156V305.459ZM94.6699 309H93.5488V304.98C93.5488 304.206 93.4281 303.645 93.1865 303.299C92.9495 302.952 92.5485 302.779 91.9834 302.779C91.5049 302.779 91.097 302.998 90.7598 303.436C90.4271 303.873 90.2607 304.397 90.2607 305.008V309H89.1396V304.844C89.1396 303.467 88.6087 302.779 87.5469 302.779C87.0547 302.779 86.6491 302.987 86.3301 303.401C86.0111 303.812 85.8516 304.347 85.8516 305.008V309H84.7305V302H85.8516V303.107H85.8789C86.3757 302.26 87.1003 301.836 88.0527 301.836C88.5312 301.836 88.9482 301.97 89.3037 302.239C89.6592 302.504 89.903 302.852 90.0352 303.285C90.5547 302.319 91.3294 301.836 92.3594 301.836C93.8997 301.836 94.6699 302.786 94.6699 304.687V309ZM102.415 305.78H97.4727C97.4909 306.56 97.7005 307.161 98.1016 307.585C98.5026 308.009 99.054 308.221 99.7559 308.221C100.544 308.221 101.269 307.961 101.93 307.441V308.494C101.314 308.941 100.501 309.164 99.4893 309.164C98.5003 309.164 97.7233 308.847 97.1582 308.214C96.5931 307.576 96.3105 306.68 96.3105 305.527C96.3105 304.438 96.6182 303.552 97.2334 302.868C97.8532 302.18 98.6211 301.836 99.5371 301.836C100.453 301.836 101.162 302.132 101.663 302.725C102.164 303.317 102.415 304.14 102.415 305.192V305.78ZM101.267 304.83C101.262 304.183 101.105 303.679 100.795 303.319C100.49 302.959 100.063 302.779 99.5166 302.779C98.988 302.779 98.5391 302.968 98.1699 303.347C97.8008 303.725 97.5729 304.219 97.4863 304.83H101.267Z" fill="#045999"/>
<path d="M281 298V299.711L275 305.711V312H271V305.711L265 299.711V298H281ZM280 299H266V299.289L272 305.289V311H274V305.289L280 299.289V299Z" fill="#045999"/>
<rect x="58" y="292" width="1" height="26" fill="#CCCCCC"/>
<rect x="288" y="280" width="83" height="50" fill="white"/>
<rect x="288" y="329" width="83" height="1" fill="#D8D8D8"/>
<path d="M304.312 309H302.945L301.305 306.252C301.154 305.997 301.008 305.78 300.867 305.603C300.726 305.42 300.58 305.272 300.43 305.158C300.284 305.044 300.124 304.962 299.951 304.912C299.783 304.857 299.591 304.83 299.377 304.83H298.434V309H297.285V299.197H300.211C300.639 299.197 301.034 299.252 301.394 299.361C301.758 299.466 302.073 299.628 302.337 299.847C302.606 300.065 302.815 300.339 302.966 300.667C303.116 300.991 303.191 301.371 303.191 301.809C303.191 302.15 303.139 302.465 303.034 302.752C302.934 303.035 302.788 303.287 302.597 303.511C302.41 303.734 302.182 303.925 301.913 304.085C301.649 304.24 301.35 304.361 301.018 304.447V304.475C301.182 304.548 301.323 304.632 301.441 304.728C301.564 304.819 301.681 304.928 301.79 305.056C301.899 305.183 302.007 305.329 302.111 305.493C302.221 305.653 302.341 305.84 302.474 306.054L304.312 309ZM298.434 300.236V303.791H299.992C300.279 303.791 300.544 303.748 300.785 303.661C301.031 303.575 301.243 303.451 301.421 303.292C301.599 303.128 301.738 302.93 301.838 302.697C301.938 302.46 301.988 302.196 301.988 301.904C301.988 301.38 301.817 300.972 301.476 300.681C301.138 300.384 300.648 300.236 300.006 300.236H298.434ZM308.031 309.164C306.997 309.164 306.17 308.838 305.55 308.187C304.935 307.53 304.627 306.662 304.627 305.582C304.627 304.406 304.948 303.488 305.591 302.827C306.233 302.166 307.102 301.836 308.195 301.836C309.239 301.836 310.052 302.157 310.636 302.8C311.224 303.442 311.518 304.333 311.518 305.473C311.518 306.589 311.201 307.485 310.567 308.159C309.938 308.829 309.093 309.164 308.031 309.164ZM308.113 302.779C307.393 302.779 306.824 303.025 306.404 303.518C305.985 304.005 305.775 304.68 305.775 305.541C305.775 306.37 305.987 307.024 306.411 307.503C306.835 307.981 307.402 308.221 308.113 308.221C308.838 308.221 309.394 307.986 309.781 307.517C310.173 307.047 310.369 306.38 310.369 305.514C310.369 304.639 310.173 303.964 309.781 303.49C309.394 303.016 308.838 302.779 308.113 302.779ZM314.43 309H313.309V298.637H314.43V309ZM322.325 305.78H317.383C317.401 306.56 317.611 307.161 318.012 307.585C318.413 308.009 318.964 308.221 319.666 308.221C320.454 308.221 321.179 307.961 321.84 307.441V308.494C321.225 308.941 320.411 309.164 319.399 309.164C318.41 309.164 317.633 308.847 317.068 308.214C316.503 307.576 316.221 306.68 316.221 305.527C316.221 304.438 316.528 303.552 317.144 302.868C317.763 302.18 318.531 301.836 319.447 301.836C320.363 301.836 321.072 302.132 321.573 302.725C322.075 303.317 322.325 304.14 322.325 305.192V305.78ZM321.177 304.83C321.172 304.183 321.015 303.679 320.705 303.319C320.4 302.959 319.974 302.779 319.427 302.779C318.898 302.779 318.449 302.968 318.08 303.347C317.711 303.725 317.483 304.219 317.396 304.83H321.177Z" fill="#045999"/>
<rect x="288" y="292" width="1" height="26" fill="#CCCCCC"/>
<g clip-path="url(#clip1)">
<rect width="357" height="36" transform="translate(14 244)" fill="white"/>
<line x1="14" y1="279.5" x2="371" y2="280.5" stroke="#CCCCCC"/>
<path d="M14.7588 265.61V263.936C14.9092 264.072 15.0869 264.195 15.292 264.305C15.5016 264.414 15.7227 264.507 15.9551 264.585C16.1875 264.658 16.4199 264.715 16.6523 264.756C16.8848 264.797 17.099 264.817 17.2949 264.817C17.9785 264.817 18.4867 264.703 18.8193 264.476C19.1566 264.248 19.3252 263.917 19.3252 263.484C19.3252 263.252 19.2682 263.051 19.1543 262.883C19.0449 262.71 18.89 262.552 18.6895 262.411C18.4889 262.27 18.252 262.135 17.9785 262.008C17.7096 261.876 17.4202 261.739 17.1104 261.598C16.7777 261.42 16.4678 261.24 16.1807 261.058C15.8936 260.875 15.6429 260.675 15.4287 260.456C15.2191 260.233 15.0527 259.982 14.9297 259.704C14.8112 259.426 14.752 259.1 14.752 258.727C14.752 258.266 14.8545 257.868 15.0596 257.53C15.2692 257.188 15.5426 256.908 15.8799 256.689C16.2217 256.466 16.609 256.302 17.042 256.197C17.4749 256.088 17.917 256.033 18.3682 256.033C19.3936 256.033 20.141 256.149 20.6104 256.382V257.988C20.0544 257.587 19.3389 257.387 18.4639 257.387C18.2223 257.387 17.9808 257.41 17.7393 257.455C17.5023 257.501 17.2881 257.576 17.0967 257.681C16.9098 257.785 16.7572 257.92 16.6387 258.084C16.5202 258.248 16.4609 258.446 16.4609 258.679C16.4609 258.897 16.5065 259.087 16.5977 259.246C16.6888 259.406 16.821 259.551 16.9941 259.684C17.1719 259.816 17.3861 259.946 17.6367 260.073C17.8919 260.196 18.1859 260.331 18.5186 260.477C18.8604 260.654 19.1816 260.841 19.4824 261.037C19.7878 261.233 20.0544 261.45 20.2822 261.687C20.5146 261.924 20.6969 262.188 20.8291 262.479C20.9658 262.767 21.0342 263.095 21.0342 263.464C21.0342 263.961 20.9339 264.38 20.7334 264.722C20.5329 265.063 20.2617 265.341 19.9199 265.556C19.5827 265.77 19.193 265.925 18.751 266.021C18.3089 266.116 17.8418 266.164 17.3496 266.164C17.1855 266.164 16.9827 266.15 16.7412 266.123C16.5042 266.1 16.2604 266.064 16.0098 266.014C15.7591 265.968 15.5221 265.911 15.2988 265.843C15.0755 265.774 14.8955 265.697 14.7588 265.61ZM28.0342 266H26.4961V264.906H26.4688C25.9857 265.745 25.277 266.164 24.3428 266.164C23.6546 266.164 23.1146 265.977 22.7227 265.604C22.3353 265.23 22.1416 264.735 22.1416 264.12C22.1416 262.799 22.9027 262.028 24.4248 261.81L26.5029 261.516C26.5029 260.518 26.029 260.019 25.0811 260.019C24.2471 260.019 23.4951 260.306 22.8252 260.88V259.492C23.5635 259.055 24.4157 258.836 25.3818 258.836C27.1501 258.836 28.0342 259.706 28.0342 261.447V266ZM26.5029 262.562L25.0332 262.767C24.5775 262.826 24.2334 262.938 24.001 263.102C23.7731 263.261 23.6592 263.544 23.6592 263.949C23.6592 264.245 23.764 264.489 23.9736 264.681C24.1878 264.868 24.4727 264.961 24.8281 264.961C25.3112 264.961 25.71 264.792 26.0244 264.455C26.3434 264.113 26.5029 263.685 26.5029 263.17V262.562ZM31.5684 266H29.9756V255.637H31.5684V266ZM39.5664 262.931H34.7949C34.8132 263.578 35.0114 264.077 35.3896 264.428C35.7725 264.779 36.2965 264.954 36.9619 264.954C37.7093 264.954 38.3952 264.731 39.0195 264.284V265.562C38.3815 265.964 37.5384 266.164 36.4902 266.164C35.4603 266.164 34.6514 265.847 34.0635 265.214C33.4801 264.576 33.1885 263.68 33.1885 262.527C33.1885 261.438 33.5098 260.552 34.1523 259.868C34.7995 259.18 35.6016 258.836 36.5586 258.836C37.5156 258.836 38.2562 259.144 38.7803 259.759C39.3044 260.374 39.5664 261.229 39.5664 262.322V262.931ZM38.0352 261.81C38.0306 261.24 37.8962 260.798 37.6318 260.483C37.3675 260.164 37.0029 260.005 36.5381 260.005C36.0824 260.005 35.695 260.171 35.376 260.504C35.0615 260.837 34.8678 261.272 34.7949 261.81H38.0352ZM40.6396 265.781V264.312C41.2321 264.763 41.8861 264.988 42.6016 264.988C43.5586 264.988 44.0371 264.706 44.0371 264.141C44.0371 263.981 43.9961 263.847 43.9141 263.737C43.832 263.623 43.7204 263.523 43.5791 263.437C43.4424 263.35 43.2783 263.272 43.0869 263.204C42.9001 263.136 42.6904 263.058 42.458 262.972C42.1709 262.858 41.9111 262.737 41.6787 262.609C41.4508 262.482 41.2594 262.338 41.1045 262.179C40.9541 262.015 40.8402 261.83 40.7627 261.625C40.6852 261.42 40.6465 261.181 40.6465 260.907C40.6465 260.57 40.7262 260.274 40.8857 260.019C41.0452 259.759 41.2594 259.542 41.5283 259.369C41.7972 259.191 42.1025 259.059 42.4443 258.973C42.7861 258.882 43.1393 258.836 43.5039 258.836C44.151 258.836 44.7298 258.934 45.2402 259.13V260.518C44.748 260.18 44.1829 260.012 43.5449 260.012C43.3444 260.012 43.1621 260.032 42.998 260.073C42.8385 260.114 42.7018 260.171 42.5879 260.244C42.474 260.317 42.3851 260.406 42.3213 260.511C42.2575 260.611 42.2256 260.723 42.2256 260.846C42.2256 260.996 42.2575 261.124 42.3213 261.229C42.3851 261.333 42.4785 261.427 42.6016 261.509C42.7292 261.586 42.8796 261.659 43.0527 261.728C43.2305 261.791 43.4333 261.862 43.6611 261.939C43.9619 262.062 44.2308 262.188 44.4678 262.315C44.7093 262.443 44.9144 262.589 45.083 262.753C45.2516 262.912 45.3815 263.099 45.4727 263.313C45.5638 263.523 45.6094 263.774 45.6094 264.065C45.6094 264.421 45.5273 264.731 45.3633 264.995C45.1992 265.259 44.9805 265.478 44.707 265.651C44.4336 265.825 44.1169 265.952 43.7568 266.034C43.4014 266.121 43.0254 266.164 42.6289 266.164C41.8633 266.164 41.2002 266.036 40.6396 265.781ZM54.667 265.925C54.3571 266.08 53.9492 266.157 53.4434 266.157C52.0853 266.157 51.4062 265.506 51.4062 264.202V260.244H50.2373V259H51.4062V257.38L52.9922 256.929V259H54.667V260.244H52.9922V263.744C52.9922 264.159 53.0674 264.455 53.2178 264.633C53.3682 264.811 53.6188 264.899 53.9697 264.899C54.2386 264.899 54.471 264.822 54.667 264.667V265.925ZM61.8789 262.931H57.1074C57.1257 263.578 57.3239 264.077 57.7021 264.428C58.085 264.779 58.609 264.954 59.2744 264.954C60.0218 264.954 60.7077 264.731 61.332 264.284V265.562C60.694 265.964 59.8509 266.164 58.8027 266.164C57.7728 266.164 56.9639 265.847 56.376 265.214C55.7926 264.576 55.501 263.68 55.501 262.527C55.501 261.438 55.8223 260.552 56.4648 259.868C57.112 259.18 57.9141 258.836 58.8711 258.836C59.8281 258.836 60.5687 259.144 61.0928 259.759C61.6169 260.374 61.8789 261.229 61.8789 262.322V262.931ZM60.3477 261.81C60.3431 261.24 60.2087 260.798 59.9443 260.483C59.68 260.164 59.3154 260.005 58.8506 260.005C58.3949 260.005 58.0075 260.171 57.6885 260.504C57.374 260.837 57.1803 261.272 57.1074 261.81H60.3477ZM68.7627 266H67.2246V264.906H67.1973C66.7142 265.745 66.0055 266.164 65.0713 266.164C64.3831 266.164 63.8431 265.977 63.4512 265.604C63.0638 265.23 62.8701 264.735 62.8701 264.12C62.8701 262.799 63.6312 262.028 65.1533 261.81L67.2314 261.516C67.2314 260.518 66.7575 260.019 65.8096 260.019C64.9756 260.019 64.2236 260.306 63.5537 260.88V259.492C64.292 259.055 65.1442 258.836 66.1104 258.836C67.8786 258.836 68.7627 259.706 68.7627 261.447V266ZM67.2314 262.562L65.7617 262.767C65.306 262.826 64.9619 262.938 64.7295 263.102C64.5016 263.261 64.3877 263.544 64.3877 263.949C64.3877 264.245 64.4925 264.489 64.7021 264.681C64.9163 264.868 65.2012 264.961 65.5566 264.961C66.0397 264.961 66.4385 264.792 66.7529 264.455C67.0719 264.113 67.2314 263.685 67.2314 263.17V262.562ZM81.1699 266H79.584V262.186C79.584 261.452 79.4792 260.921 79.2695 260.593C79.0645 260.265 78.7158 260.101 78.2236 260.101C77.8089 260.101 77.4557 260.308 77.1641 260.723C76.877 261.137 76.7334 261.634 76.7334 262.213V266H75.1406V262.056C75.1406 260.752 74.6803 260.101 73.7598 260.101C73.3314 260.101 72.9782 260.297 72.7002 260.688C72.4268 261.08 72.29 261.589 72.29 262.213V266H70.7041V259H72.29V260.107H72.3174C72.8232 259.26 73.5592 258.836 74.5254 258.836C75.0085 258.836 75.43 258.97 75.79 259.239C76.1546 259.504 76.403 259.852 76.5352 260.285C77.0547 259.319 77.8294 258.836 78.8594 258.836C80.3997 258.836 81.1699 259.786 81.1699 261.687V266Z" fill="black"/>
<path d="M349 260C349.141 260 349.271 260.026 349.391 260.078C349.51 260.13 349.615 260.203 349.703 260.297C349.797 260.385 349.87 260.49 349.922 260.609C349.974 260.729 350 260.859 350 261C350 261.141 349.974 261.271 349.922 261.391C349.87 261.51 349.797 261.617 349.703 261.711C349.615 261.799 349.51 261.87 349.391 261.922C349.271 261.974 349.141 262 349 262C348.859 262 348.729 261.974 348.609 261.922C348.49 261.87 348.383 261.799 348.289 261.711C348.201 261.617 348.13 261.51 348.078 261.391C348.026 261.271 348 261.141 348 261C348 260.859 348.026 260.729 348.078 260.609C348.13 260.49 348.201 260.385 348.289 260.297C348.383 260.203 348.49 260.13 348.609 260.078C348.729 260.026 348.859 260 349 260ZM355 260C355.141 260 355.271 260.026 355.391 260.078C355.51 260.13 355.615 260.203 355.703 260.297C355.797 260.385 355.87 260.49 355.922 260.609C355.974 260.729 356 260.859 356 261C356 261.141 355.974 261.271 355.922 261.391C355.87 261.51 355.797 261.617 355.703 261.711C355.615 261.799 355.51 261.87 355.391 261.922C355.271 261.974 355.141 262 355 262C354.859 262 354.729 261.974 354.609 261.922C354.49 261.87 354.383 261.799 354.289 261.711C354.201 261.617 354.13 261.51 354.078 261.391C354.026 261.271 354 261.141 354 261C354 260.859 354.026 260.729 354.078 260.609C354.13 260.49 354.201 260.385 354.289 260.297C354.383 260.203 354.49 260.13 354.609 260.078C354.729 260.026 354.859 260 355 260ZM361 260C361.141 260 361.271 260.026 361.391 260.078C361.51 260.13 361.615 260.203 361.703 260.297C361.797 260.385 361.87 260.49 361.922 260.609C361.974 260.729 362 260.859 362 261C362 261.141 361.974 261.271 361.922 261.391C361.87 261.51 361.797 261.617 361.703 261.711C361.615 261.799 361.51 261.87 361.391 261.922C361.271 261.974 361.141 262 361 262C360.859 262 360.729 261.974 360.609 261.922C360.49 261.87 360.383 261.799 360.289 261.711C360.201 261.617 360.13 261.51 360.078 261.391C360.026 261.271 360 261.141 360 261C360 260.859 360.026 260.729 360.078 260.609C360.13 260.49 360.201 260.385 360.289 260.297C360.383 260.203 360.49 260.13 360.609 260.078C360.729 260.026 360.859 260 361 260Z" fill="black"/>
</g>
<g clip-path="url(#clip2)">
<rect width="357" height="36" transform="translate(14 11)" fill="white"/>
<line x1="14" y1="46.5" x2="371" y2="47.5" stroke="#CCCCCC"/>
<path d="M14.7588 32.6104V30.9355C14.9092 31.0723 15.0869 31.1953 15.292 31.3047C15.5016 31.4141 15.7227 31.5075 15.9551 31.585C16.1875 31.6579 16.4199 31.7148 16.6523 31.7559C16.8848 31.7969 17.099 31.8174 17.2949 31.8174C17.9785 31.8174 18.4867 31.7035 18.8193 31.4756C19.1566 31.2477 19.3252 30.9173 19.3252 30.4844C19.3252 30.252 19.2682 30.0514 19.1543 29.8828C19.0449 29.7096 18.89 29.5524 18.6895 29.4111C18.4889 29.2699 18.252 29.1354 17.9785 29.0078C17.7096 28.8757 17.4202 28.7389 17.1104 28.5977C16.7777 28.4199 16.4678 28.2399 16.1807 28.0576C15.8936 27.8753 15.6429 27.6748 15.4287 27.4561C15.2191 27.2327 15.0527 26.9821 14.9297 26.7041C14.8112 26.4261 14.752 26.1003 14.752 25.7266C14.752 25.2663 14.8545 24.8675 15.0596 24.5303C15.2692 24.1885 15.5426 23.9082 15.8799 23.6895C16.2217 23.4661 16.609 23.3021 17.042 23.1973C17.4749 23.0879 17.917 23.0332 18.3682 23.0332C19.3936 23.0332 20.141 23.1494 20.6104 23.3818V24.9883C20.0544 24.5872 19.3389 24.3867 18.4639 24.3867C18.2223 24.3867 17.9808 24.4095 17.7393 24.4551C17.5023 24.5007 17.2881 24.5758 17.0967 24.6807C16.9098 24.7855 16.7572 24.9199 16.6387 25.084C16.5202 25.248 16.4609 25.4463 16.4609 25.6787C16.4609 25.8975 16.5065 26.0866 16.5977 26.2461C16.6888 26.4056 16.821 26.5514 16.9941 26.6836C17.1719 26.8158 17.3861 26.9456 17.6367 27.0732C17.8919 27.1963 18.1859 27.3307 18.5186 27.4766C18.8604 27.6543 19.1816 27.8411 19.4824 28.0371C19.7878 28.2331 20.0544 28.4495 20.2822 28.6865C20.5146 28.9235 20.6969 29.1878 20.8291 29.4795C20.9658 29.7666 21.0342 30.0947 21.0342 30.4639C21.0342 30.9606 20.9339 31.3799 20.7334 31.7217C20.5329 32.0635 20.2617 32.3415 19.9199 32.5557C19.5827 32.7699 19.193 32.9248 18.751 33.0205C18.3089 33.1162 17.8418 33.1641 17.3496 33.1641C17.1855 33.1641 16.9827 33.1504 16.7412 33.123C16.5042 33.1003 16.2604 33.0638 16.0098 33.0137C15.7591 32.9681 15.5221 32.9111 15.2988 32.8428C15.0755 32.7744 14.8955 32.6969 14.7588 32.6104ZM25.9424 32.9248C25.6325 33.0798 25.2246 33.1572 24.7188 33.1572C23.3607 33.1572 22.6816 32.5055 22.6816 31.2021V27.2441H21.5127V26H22.6816V24.3799L24.2676 23.9287V26H25.9424V27.2441H24.2676V30.7441C24.2676 31.1589 24.3428 31.4551 24.4932 31.6328C24.6436 31.8105 24.8942 31.8994 25.2451 31.8994C25.514 31.8994 25.7464 31.8219 25.9424 31.667V32.9248ZM32.6826 33H31.1445V31.9062H31.1172C30.6341 32.7448 29.9255 33.1641 28.9912 33.1641C28.3031 33.1641 27.763 32.9772 27.3711 32.6035C26.9837 32.2298 26.79 31.7354 26.79 31.1201C26.79 29.7985 27.5511 29.0283 29.0732 28.8096L31.1514 28.5156C31.1514 27.5176 30.6774 27.0186 29.7295 27.0186C28.8955 27.0186 28.1436 27.3057 27.4736 27.8799V26.4922C28.2119 26.0547 29.0641 25.8359 30.0303 25.8359C31.7985 25.8359 32.6826 26.7064 32.6826 28.4473V33ZM31.1514 29.5615L29.6816 29.7666C29.2259 29.8258 28.8818 29.9375 28.6494 30.1016C28.4215 30.2611 28.3076 30.5436 28.3076 30.9492C28.3076 31.2454 28.4124 31.4893 28.6221 31.6807C28.8363 31.8675 29.1211 31.9609 29.4766 31.9609C29.9596 31.9609 30.3584 31.7923 30.6729 31.4551C30.9919 31.1133 31.1514 30.6849 31.1514 30.1699V29.5615ZM40.9746 33H38.9648L36.2441 29.6367H36.2168V33H34.624V22.6367H36.2168V29.2061H36.2441L38.8145 26H40.7217L37.8301 29.377L40.9746 33ZM47.6602 29.9307H42.8887C42.9069 30.5778 43.1051 31.0768 43.4834 31.4277C43.8662 31.7786 44.3903 31.9541 45.0557 31.9541C45.8031 31.9541 46.4889 31.7308 47.1133 31.2842V32.5625C46.4753 32.9635 45.6322 33.1641 44.584 33.1641C43.554 33.1641 42.7451 32.8473 42.1572 32.2139C41.5739 31.5758 41.2822 30.6803 41.2822 29.5273C41.2822 28.4382 41.6035 27.5518 42.2461 26.8682C42.8932 26.18 43.6953 25.8359 44.6523 25.8359C45.6094 25.8359 46.3499 26.1436 46.874 26.7588C47.3981 27.374 47.6602 28.2285 47.6602 29.3223V29.9307ZM46.1289 28.8096C46.1243 28.2399 45.9899 27.7979 45.7256 27.4834C45.4613 27.1644 45.0967 27.0049 44.6318 27.0049C44.1761 27.0049 43.7887 27.1712 43.4697 27.5039C43.1553 27.8366 42.9616 28.2718 42.8887 28.8096H46.1289ZM55.3916 33H53.8057V29.1719C53.8057 27.7865 53.3431 27.0938 52.418 27.0938C51.9531 27.0938 51.5612 27.2943 51.2422 27.6953C50.9232 28.0964 50.7637 28.609 50.7637 29.2334V33H49.1709V22.6367H50.7637V27.1621H50.791C51.3197 26.278 52.0762 25.8359 53.0605 25.8359C54.6146 25.8359 55.3916 26.7861 55.3916 28.6865V33ZM60.4229 33.1641C59.3428 33.1641 58.4792 32.8382 57.832 32.1865C57.1895 31.5303 56.8682 30.6621 56.8682 29.582C56.8682 28.4062 57.2031 27.488 57.873 26.8271C58.5475 26.1663 59.4544 25.8359 60.5938 25.8359C61.6875 25.8359 62.5397 26.1572 63.1504 26.7998C63.7611 27.4424 64.0664 28.3333 64.0664 29.4727C64.0664 30.5892 63.736 31.4847 63.0752 32.1592C62.4189 32.8291 61.5348 33.1641 60.4229 33.1641ZM60.498 27.1006C59.8783 27.1006 59.3883 27.3171 59.0283 27.75C58.6683 28.1829 58.4883 28.7799 58.4883 29.541C58.4883 30.2747 58.6706 30.8535 59.0352 31.2773C59.3997 31.6966 59.8874 31.9062 60.498 31.9062C61.1224 31.9062 61.6009 31.6989 61.9336 31.2842C62.2708 30.8695 62.4395 30.2793 62.4395 29.5137C62.4395 28.7435 62.2708 28.1488 61.9336 27.7295C61.6009 27.3102 61.1224 27.1006 60.498 27.1006ZM67.2793 33H65.6865V22.6367H67.2793V33ZM75.7148 33H74.1289V31.8105H74.1016C73.5911 32.7129 72.805 33.1641 71.7432 33.1641C70.8818 33.1641 70.1914 32.8519 69.6719 32.2275C69.1569 31.5986 68.8994 30.7441 68.8994 29.6641C68.8994 28.5065 69.1842 27.5791 69.7539 26.8818C70.3281 26.1846 71.0915 25.8359 72.0439 25.8359C72.9873 25.8359 73.6732 26.2142 74.1016 26.9707H74.1289V22.6367H75.7148V33ZM74.1494 29.8008V28.8848C74.1494 28.388 73.9876 27.9665 73.6641 27.6201C73.3405 27.2738 72.9281 27.1006 72.4268 27.1006C71.8343 27.1006 71.3672 27.3216 71.0254 27.7637C70.6882 28.2057 70.5195 28.8187 70.5195 29.6025C70.5195 30.3135 70.6813 30.8763 71.0049 31.291C71.333 31.7012 71.7728 31.9062 72.3242 31.9062C72.8665 31.9062 73.3063 31.708 73.6436 31.3115C73.9808 30.9105 74.1494 30.4069 74.1494 29.8008ZM83.7129 29.9307H78.9414C78.9596 30.5778 79.1579 31.0768 79.5361 31.4277C79.9189 31.7786 80.443 31.9541 81.1084 31.9541C81.8558 31.9541 82.5417 31.7308 83.166 31.2842V32.5625C82.528 32.9635 81.6849 33.1641 80.6367 33.1641C79.6068 33.1641 78.7979 32.8473 78.21 32.2139C77.6266 31.5758 77.335 30.6803 77.335 29.5273C77.335 28.4382 77.6562 27.5518 78.2988 26.8682C78.946 26.18 79.748 25.8359 80.7051 25.8359C81.6621 25.8359 82.4027 26.1436 82.9268 26.7588C83.4508 27.374 83.7129 28.2285 83.7129 29.3223V29.9307ZM82.1816 28.8096C82.1771 28.2399 82.0426 27.7979 81.7783 27.4834C81.514 27.1644 81.1494 27.0049 80.6846 27.0049C80.2288 27.0049 79.8415 27.1712 79.5225 27.5039C79.208 27.8366 79.0143 28.2718 78.9414 28.8096H82.1816ZM89.2842 27.5107C89.0928 27.3604 88.8171 27.2852 88.457 27.2852C87.9876 27.2852 87.5957 27.4971 87.2812 27.9209C86.9668 28.3447 86.8096 28.9212 86.8096 29.6504V33H85.2236V26H86.8096V27.4424H86.8369C86.9919 26.9502 87.2288 26.5674 87.5479 26.2939C87.8714 26.016 88.2314 25.877 88.6279 25.877C88.915 25.877 89.1338 25.9202 89.2842 26.0068V27.5107ZM90.0635 32.7812V31.3115C90.6559 31.7627 91.3099 31.9883 92.0254 31.9883C92.9824 31.9883 93.4609 31.7057 93.4609 31.1406C93.4609 30.9811 93.4199 30.8467 93.3379 30.7373C93.2559 30.6234 93.1442 30.5231 93.0029 30.4365C92.8662 30.3499 92.7021 30.2725 92.5107 30.2041C92.3239 30.1357 92.1143 30.0583 91.8818 29.9717C91.5947 29.8577 91.335 29.737 91.1025 29.6094C90.8747 29.4818 90.6833 29.3382 90.5283 29.1787C90.3779 29.0146 90.264 28.8301 90.1865 28.625C90.109 28.4199 90.0703 28.1807 90.0703 27.9072C90.0703 27.57 90.1501 27.2738 90.3096 27.0186C90.4691 26.7588 90.6833 26.5423 90.9521 26.3691C91.221 26.1914 91.5264 26.0592 91.8682 25.9727C92.21 25.8815 92.5632 25.8359 92.9277 25.8359C93.5749 25.8359 94.1536 25.9339 94.6641 26.1299V27.5176C94.1719 27.1803 93.6068 27.0117 92.9688 27.0117C92.7682 27.0117 92.5859 27.0322 92.4219 27.0732C92.2624 27.1143 92.1257 27.1712 92.0117 27.2441C91.8978 27.3171 91.8089 27.4059 91.7451 27.5107C91.6813 27.611 91.6494 27.7227 91.6494 27.8457C91.6494 27.9961 91.6813 28.1237 91.7451 28.2285C91.8089 28.3333 91.9023 28.4268 92.0254 28.5088C92.153 28.5863 92.3034 28.6592 92.4766 28.7275C92.6543 28.7913 92.8571 28.862 93.085 28.9395C93.3857 29.0625 93.6546 29.1878 93.8916 29.3154C94.1331 29.443 94.3382 29.5889 94.5068 29.7529C94.6755 29.9124 94.8053 30.0993 94.8965 30.3135C94.9876 30.5231 95.0332 30.7738 95.0332 31.0654C95.0332 31.4209 94.9512 31.7308 94.7871 31.9951C94.623 32.2594 94.4043 32.4782 94.1309 32.6514C93.8574 32.8245 93.5407 32.9521 93.1807 33.0342C92.8252 33.1208 92.4492 33.1641 92.0527 33.1641C91.2871 33.1641 90.624 33.0365 90.0635 32.7812Z" fill="black"/>
<path d="M349 27C349.141 27 349.271 27.026 349.391 27.0781C349.51 27.1302 349.615 27.2031 349.703 27.2969C349.797 27.3854 349.87 27.4896 349.922 27.6094C349.974 27.7292 350 27.8594 350 28C350 28.1406 349.974 28.2708 349.922 28.3906C349.87 28.5104 349.797 28.6172 349.703 28.7109C349.615 28.7995 349.51 28.8698 349.391 28.9219C349.271 28.974 349.141 29 349 29C348.859 29 348.729 28.974 348.609 28.9219C348.49 28.8698 348.383 28.7995 348.289 28.7109C348.201 28.6172 348.13 28.5104 348.078 28.3906C348.026 28.2708 348 28.1406 348 28C348 27.8594 348.026 27.7292 348.078 27.6094C348.13 27.4896 348.201 27.3854 348.289 27.2969C348.383 27.2031 348.49 27.1302 348.609 27.0781C348.729 27.026 348.859 27 349 27ZM355 27C355.141 27 355.271 27.026 355.391 27.0781C355.51 27.1302 355.615 27.2031 355.703 27.2969C355.797 27.3854 355.87 27.4896 355.922 27.6094C355.974 27.7292 356 27.8594 356 28C356 28.1406 355.974 28.2708 355.922 28.3906C355.87 28.5104 355.797 28.6172 355.703 28.7109C355.615 28.7995 355.51 28.8698 355.391 28.9219C355.271 28.974 355.141 29 355 29C354.859 29 354.729 28.974 354.609 28.9219C354.49 28.8698 354.383 28.7995 354.289 28.7109C354.201 28.6172 354.13 28.5104 354.078 28.3906C354.026 28.2708 354 28.1406 354 28C354 27.8594 354.026 27.7292 354.078 27.6094C354.13 27.4896 354.201 27.3854 354.289 27.2969C354.383 27.2031 354.49 27.1302 354.609 27.0781C354.729 27.026 354.859 27 355 27ZM361 27C361.141 27 361.271 27.026 361.391 27.0781C361.51 27.1302 361.615 27.2031 361.703 27.2969C361.797 27.3854 361.87 27.4896 361.922 27.6094C361.974 27.7292 362 27.8594 362 28C362 28.1406 361.974 28.2708 361.922 28.3906C361.87 28.5104 361.797 28.6172 361.703 28.7109C361.615 28.7995 361.51 28.8698 361.391 28.9219C361.271 28.974 361.141 29 361 29C360.859 29 360.729 28.974 360.609 28.9219C360.49 28.8698 360.383 28.7995 360.289 28.7109C360.201 28.6172 360.13 28.5104 360.078 28.3906C360.026 28.2708 360 28.1406 360 28C360 27.8594 360.026 27.7292 360.078 27.6094C360.13 27.4896 360.201 27.3854 360.289 27.2969C360.383 27.2031 360.49 27.1302 360.609 27.0781C360.729 27.026 360.859 27 361 27Z" fill="black"/>
</g>
<rect x="14" y="47" width="44" height="50" fill="white"/>
<path d="M42.3516 68.3516L34 76.7109L29.6484 72.3516L30.3516 71.6484L34 75.2891L41.6484 67.6484L42.3516 68.3516Z" fill="black"/>
<rect x="14" y="96" width="44" height="1" fill="#D8D8D8"/>
<rect x="58" y="47" width="230" height="50" fill="white"/>
<rect x="58" y="96" width="230" height="1" fill="#D8D8D8"/>
<path d="M75.1875 76H73.7793L68.7344 68.1865C68.6068 67.9906 68.502 67.7855 68.4199 67.5713H68.3789C68.4154 67.7809 68.4336 68.2298 68.4336 68.918V76H67.2852V66.1973H68.7754L73.6836 73.8877C73.8887 74.2067 74.0208 74.4255 74.0801 74.5439H74.1074C74.0618 74.2614 74.0391 73.7806 74.0391 73.1016V66.1973H75.1875V76ZM82.6182 76H81.4971V74.9062H81.4697C80.9821 75.7448 80.2643 76.1641 79.3164 76.1641C78.6191 76.1641 78.0723 75.9795 77.6758 75.6104C77.2839 75.2412 77.0879 74.7513 77.0879 74.1406C77.0879 72.8327 77.8581 72.0716 79.3984 71.8574L81.4971 71.5635C81.4971 70.374 81.0163 69.7793 80.0547 69.7793C79.2116 69.7793 78.4505 70.0664 77.7715 70.6406V69.4922C78.4596 69.0547 79.2526 68.8359 80.1504 68.8359C81.7956 68.8359 82.6182 69.7064 82.6182 71.4473V76ZM81.4971 72.459L79.8086 72.6914C79.2891 72.7643 78.8971 72.8942 78.6328 73.0811C78.3685 73.2633 78.2363 73.5892 78.2363 74.0586C78.2363 74.4004 78.3571 74.6807 78.5986 74.8994C78.8447 75.1136 79.1706 75.2207 79.5762 75.2207C80.1322 75.2207 80.5902 75.027 80.9502 74.6396C81.3148 74.2477 81.4971 73.7533 81.4971 73.1562V72.459ZM94.6699 76H93.5488V71.9805C93.5488 71.2057 93.4281 70.6452 93.1865 70.2988C92.9495 69.9525 92.5485 69.7793 91.9834 69.7793C91.5049 69.7793 91.097 69.998 90.7598 70.4355C90.4271 70.873 90.2607 71.3971 90.2607 72.0078V76H89.1396V71.8438C89.1396 70.4674 88.6087 69.7793 87.5469 69.7793C87.0547 69.7793 86.6491 69.9867 86.3301 70.4014C86.0111 70.8115 85.8516 71.347 85.8516 72.0078V76H84.7305V69H85.8516V70.1074H85.8789C86.3757 69.2598 87.1003 68.8359 88.0527 68.8359C88.5312 68.8359 88.9482 68.9704 89.3037 69.2393C89.6592 69.5036 89.903 69.8522 90.0352 70.2852C90.5547 69.319 91.3294 68.8359 92.3594 68.8359C93.8997 68.8359 94.6699 69.7861 94.6699 71.6865V76ZM102.415 72.7803H97.4727C97.4909 73.5596 97.7005 74.1611 98.1016 74.585C98.5026 75.0088 99.054 75.2207 99.7559 75.2207C100.544 75.2207 101.269 74.9609 101.93 74.4414V75.4941C101.314 75.9408 100.501 76.1641 99.4893 76.1641C98.5003 76.1641 97.7233 75.8473 97.1582 75.2139C96.5931 74.5758 96.3105 73.6803 96.3105 72.5273C96.3105 71.4382 96.6182 70.5518 97.2334 69.8682C97.8532 69.18 98.6211 68.8359 99.5371 68.8359C100.453 68.8359 101.162 69.1322 101.663 69.7246C102.164 70.3171 102.415 71.1396 102.415 72.1924V72.7803ZM101.267 71.8301C101.262 71.1829 101.105 70.6794 100.795 70.3193C100.49 69.9593 100.063 69.7793 99.5166 69.7793C98.988 69.7793 98.5391 69.9684 98.1699 70.3467C97.8008 70.7249 97.5729 71.2194 97.4863 71.8301H101.267Z" fill="#045999"/>
<path d="M281 65V66.7109L275 72.7109V79H271V72.7109L265 66.7109V65H281ZM280 66H266V66.2891L272 72.2891V78H274V72.2891L280 66.2891V66Z" fill="#045999"/>
<rect x="58" y="59" width="1" height="26" fill="#CCCCCC"/>
<rect x="288" y="47" width="83" height="50" fill="white"/>
<rect x="288" y="96" width="83" height="1" fill="#D8D8D8"/>
<path d="M304.312 76H302.945L301.305 73.252C301.154 72.9967 301.008 72.7803 300.867 72.6025C300.726 72.4202 300.58 72.2721 300.43 72.1582C300.284 72.0443 300.124 71.9622 299.951 71.9121C299.783 71.8574 299.591 71.8301 299.377 71.8301H298.434V76H297.285V66.1973H300.211C300.639 66.1973 301.034 66.252 301.394 66.3613C301.758 66.4661 302.073 66.6279 302.337 66.8467C302.606 67.0654 302.815 67.3389 302.966 67.667C303.116 67.9906 303.191 68.3711 303.191 68.8086C303.191 69.1504 303.139 69.4648 303.034 69.752C302.934 70.0345 302.788 70.2874 302.597 70.5107C302.41 70.734 302.182 70.9255 301.913 71.085C301.649 71.2399 301.35 71.3607 301.018 71.4473V71.4746C301.182 71.5475 301.323 71.6318 301.441 71.7275C301.564 71.8187 301.681 71.9281 301.79 72.0557C301.899 72.1833 302.007 72.3291 302.111 72.4932C302.221 72.6527 302.341 72.8395 302.474 73.0537L304.312 76ZM298.434 67.2363V70.791H299.992C300.279 70.791 300.544 70.7477 300.785 70.6611C301.031 70.5745 301.243 70.4515 301.421 70.292C301.599 70.1279 301.738 69.9297 301.838 69.6973C301.938 69.4603 301.988 69.196 301.988 68.9043C301.988 68.3802 301.817 67.9723 301.476 67.6807C301.138 67.3844 300.648 67.2363 300.006 67.2363H298.434ZM308.031 76.1641C306.997 76.1641 306.17 75.8382 305.55 75.1865C304.935 74.5303 304.627 73.6621 304.627 72.582C304.627 71.4062 304.948 70.488 305.591 69.8271C306.233 69.1663 307.102 68.8359 308.195 68.8359C309.239 68.8359 310.052 69.1572 310.636 69.7998C311.224 70.4424 311.518 71.3333 311.518 72.4727C311.518 73.5892 311.201 74.4847 310.567 75.1592C309.938 75.8291 309.093 76.1641 308.031 76.1641ZM308.113 69.7793C307.393 69.7793 306.824 70.0254 306.404 70.5176C305.985 71.0052 305.775 71.6797 305.775 72.541C305.775 73.3704 305.987 74.0244 306.411 74.5029C306.835 74.9814 307.402 75.2207 308.113 75.2207C308.838 75.2207 309.394 74.986 309.781 74.5166C310.173 74.0472 310.369 73.3796 310.369 72.5137C310.369 71.6387 310.173 70.9642 309.781 70.4902C309.394 70.0163 308.838 69.7793 308.113 69.7793ZM314.43 76H313.309V65.6367H314.43V76ZM322.325 72.7803H317.383C317.401 73.5596 317.611 74.1611 318.012 74.585C318.413 75.0088 318.964 75.2207 319.666 75.2207C320.454 75.2207 321.179 74.9609 321.84 74.4414V75.4941C321.225 75.9408 320.411 76.1641 319.399 76.1641C318.41 76.1641 317.633 75.8473 317.068 75.2139C316.503 74.5758 316.221 73.6803 316.221 72.5273C316.221 71.4382 316.528 70.5518 317.144 69.8682C317.763 69.18 318.531 68.8359 319.447 68.8359C320.363 68.8359 321.072 69.1322 321.573 69.7246C322.075 70.3171 322.325 71.1396 322.325 72.1924V72.7803ZM321.177 71.8301C321.172 71.1829 321.015 70.6794 320.705 70.3193C320.4 69.9593 319.974 69.7793 319.427 69.7793C318.898 69.7793 318.449 69.9684 318.08 70.3467C317.711 70.7249 317.483 71.2194 317.396 71.8301H321.177Z" fill="#045999"/>
<rect x="288" y="59" width="1" height="26" fill="#CCCCCC"/>
<rect x="14" y="97" width="55" height="50" fill="white"/>
<rect x="14" y="146" width="55" height="1" fill="#D8D8D8"/>
<rect x="58" y="97" width="230" height="50" fill="white"/>
<rect x="58" y="146" width="230" height="1" fill="#D8D8D8"/>
<path d="M77.7373 126H76.124V119.656C76.124 119.137 76.1559 118.501 76.2197 117.749H76.1924C76.0921 118.177 76.0033 118.485 75.9258 118.672L73 126H71.8789L68.9463 118.727C68.8643 118.512 68.7777 118.187 68.6865 117.749H68.6592C68.6956 118.141 68.7139 118.781 68.7139 119.67V126H67.21V116.197H69.5L72.0771 122.726C72.2731 123.227 72.4007 123.601 72.46 123.847H72.4941C72.6628 123.332 72.7995 122.949 72.9043 122.698L75.5293 116.197H77.7373V126ZM85.3525 126H83.8145V124.906H83.7871C83.304 125.745 82.5954 126.164 81.6611 126.164C80.973 126.164 80.4329 125.977 80.041 125.604C79.6536 125.23 79.46 124.735 79.46 124.12C79.46 122.799 80.221 122.028 81.7432 121.81L83.8213 121.516C83.8213 120.518 83.3473 120.019 82.3994 120.019C81.5654 120.019 80.8135 120.306 80.1436 120.88V119.492C80.8818 119.055 81.734 118.836 82.7002 118.836C84.4684 118.836 85.3525 119.706 85.3525 121.447V126ZM83.8213 122.562L82.3516 122.767C81.8958 122.826 81.5518 122.938 81.3193 123.102C81.0915 123.261 80.9775 123.544 80.9775 123.949C80.9775 124.245 81.0824 124.489 81.292 124.681C81.5062 124.868 81.791 124.961 82.1465 124.961C82.6296 124.961 83.0283 124.792 83.3428 124.455C83.6618 124.113 83.8213 123.685 83.8213 123.17V122.562ZM91.3545 120.511C91.1631 120.36 90.8874 120.285 90.5273 120.285C90.0579 120.285 89.666 120.497 89.3516 120.921C89.0371 121.345 88.8799 121.921 88.8799 122.65V126H87.2939V119H88.8799V120.442H88.9072C89.0622 119.95 89.2992 119.567 89.6182 119.294C89.9417 119.016 90.3018 118.877 90.6982 118.877C90.9854 118.877 91.2041 118.92 91.3545 119.007V120.511ZM93.2754 117.53C93.0156 117.53 92.7923 117.446 92.6055 117.277C92.4232 117.109 92.332 116.895 92.332 116.635C92.332 116.375 92.4232 116.159 92.6055 115.985C92.7923 115.812 93.0156 115.726 93.2754 115.726C93.5443 115.726 93.7721 115.812 93.959 115.985C94.1458 116.159 94.2393 116.375 94.2393 116.635C94.2393 116.881 94.1458 117.093 93.959 117.271C93.7721 117.444 93.5443 117.53 93.2754 117.53ZM94.0615 126H92.4756V119H94.0615V126ZM101.513 126H99.9746V124.906H99.9473C99.4642 125.745 98.7555 126.164 97.8213 126.164C97.1331 126.164 96.5931 125.977 96.2012 125.604C95.8138 125.23 95.6201 124.735 95.6201 124.12C95.6201 122.799 96.3812 122.028 97.9033 121.81L99.9814 121.516C99.9814 120.518 99.5075 120.019 98.5596 120.019C97.7256 120.019 96.9736 120.306 96.3037 120.88V119.492C97.042 119.055 97.8942 118.836 98.8604 118.836C100.629 118.836 101.513 119.706 101.513 121.447V126ZM99.9814 122.562L98.5117 122.767C98.056 122.826 97.7119 122.938 97.4795 123.102C97.2516 123.261 97.1377 123.544 97.1377 123.949C97.1377 124.245 97.2425 124.489 97.4521 124.681C97.6663 124.868 97.9512 124.961 98.3066 124.961C98.7897 124.961 99.1885 124.792 99.5029 124.455C99.8219 124.113 99.9814 123.685 99.9814 123.17V122.562ZM114.323 125.59C113.585 125.973 112.667 126.164 111.568 126.164C110.146 126.164 109.007 125.715 108.15 124.817C107.294 123.92 106.865 122.742 106.865 121.283C106.865 119.715 107.346 118.449 108.308 117.482C109.274 116.516 110.493 116.033 111.965 116.033C112.913 116.033 113.699 116.168 114.323 116.437V118.05C113.662 117.658 112.933 117.462 112.136 117.462C111.074 117.462 110.213 117.801 109.552 118.48C108.896 119.16 108.567 120.066 108.567 121.201C108.567 122.281 108.875 123.143 109.49 123.785C110.105 124.423 110.914 124.742 111.917 124.742C112.842 124.742 113.644 124.523 114.323 124.086V125.59ZM121.378 126H119.84V124.906H119.812C119.329 125.745 118.621 126.164 117.687 126.164C116.998 126.164 116.458 125.977 116.066 125.604C115.679 125.23 115.485 124.735 115.485 124.12C115.485 122.799 116.246 122.028 117.769 121.81L119.847 121.516C119.847 120.518 119.373 120.019 118.425 120.019C117.591 120.019 116.839 120.306 116.169 120.88V119.492C116.907 119.055 117.759 118.836 118.726 118.836C120.494 118.836 121.378 119.706 121.378 121.447V126ZM119.847 122.562L118.377 122.767C117.921 122.826 117.577 122.938 117.345 123.102C117.117 123.261 117.003 123.544 117.003 123.949C117.003 124.245 117.108 124.489 117.317 124.681C117.532 124.868 117.816 124.961 118.172 124.961C118.655 124.961 119.054 124.792 119.368 124.455C119.687 124.113 119.847 123.685 119.847 123.17V122.562ZM133.785 126H132.199V122.186C132.199 121.452 132.094 120.921 131.885 120.593C131.68 120.265 131.331 120.101 130.839 120.101C130.424 120.101 130.071 120.308 129.779 120.723C129.492 121.137 129.349 121.634 129.349 122.213V126H127.756V122.056C127.756 120.752 127.296 120.101 126.375 120.101C125.947 120.101 125.593 120.297 125.315 120.688C125.042 121.08 124.905 121.589 124.905 122.213V126H123.319V119H124.905V120.107H124.933C125.438 119.26 126.174 118.836 127.141 118.836C127.624 118.836 128.045 118.97 128.405 119.239C128.77 119.504 129.018 119.852 129.15 120.285C129.67 119.319 130.445 118.836 131.475 118.836C133.015 118.836 133.785 119.786 133.785 121.687V126ZM137.333 124.968H137.306V129.22H135.72V119H137.306V120.23H137.333C137.875 119.301 138.668 118.836 139.712 118.836C140.601 118.836 141.293 119.148 141.79 119.772C142.287 120.397 142.535 121.235 142.535 122.288C142.535 123.455 142.255 124.389 141.694 125.091C141.134 125.793 140.368 126.144 139.397 126.144C138.504 126.144 137.816 125.752 137.333 124.968ZM137.292 122.206V123.074C137.292 123.585 137.454 124.018 137.777 124.373C138.105 124.729 138.52 124.906 139.021 124.906C139.609 124.906 140.07 124.678 140.402 124.223C140.74 123.762 140.908 123.122 140.908 122.302C140.908 121.614 140.751 121.076 140.437 120.688C140.127 120.297 139.705 120.101 139.172 120.101C138.607 120.101 138.151 120.301 137.805 120.702C137.463 121.103 137.292 121.604 137.292 122.206ZM145.769 124.988H145.741V126H144.155V115.637H145.741V120.23H145.769C146.311 119.301 147.104 118.836 148.147 118.836C149.032 118.836 149.722 119.15 150.219 119.779C150.72 120.404 150.971 121.242 150.971 122.295C150.971 123.466 150.69 124.405 150.13 125.111C149.569 125.813 148.804 126.164 147.833 126.164C146.922 126.164 146.233 125.772 145.769 124.988ZM145.728 122.206V123.074C145.728 123.585 145.889 124.018 146.213 124.373C146.541 124.729 146.956 124.906 147.457 124.906C148.045 124.906 148.505 124.678 148.838 124.223C149.175 123.762 149.344 123.122 149.344 122.302C149.344 121.614 149.187 121.076 148.872 120.688C148.562 120.297 148.141 120.101 147.607 120.101C147.042 120.101 146.587 120.301 146.24 120.702C145.898 121.103 145.728 121.604 145.728 122.206ZM158.518 122.931H153.746C153.764 123.578 153.963 124.077 154.341 124.428C154.724 124.779 155.248 124.954 155.913 124.954C156.66 124.954 157.346 124.731 157.971 124.284V125.562C157.333 125.964 156.49 126.164 155.441 126.164C154.411 126.164 153.603 125.847 153.015 125.214C152.431 124.576 152.14 123.68 152.14 122.527C152.14 121.438 152.461 120.552 153.104 119.868C153.751 119.18 154.553 118.836 155.51 118.836C156.467 118.836 157.207 119.144 157.731 119.759C158.256 120.374 158.518 121.229 158.518 122.322V122.931ZM156.986 121.81C156.982 121.24 156.847 120.798 156.583 120.483C156.319 120.164 155.954 120.005 155.489 120.005C155.034 120.005 154.646 120.171 154.327 120.504C154.013 120.837 153.819 121.272 153.746 121.81H156.986ZM161.621 126H160.028V115.637H161.621V126ZM165.285 126H163.692V115.637H165.285V126ZM174.691 128.229H173.352C171.911 126.615 171.191 124.626 171.191 122.261C171.191 119.886 171.911 117.865 173.352 116.197H174.698C173.285 117.929 172.579 119.946 172.579 122.247C172.579 124.53 173.283 126.524 174.691 128.229ZM175.423 125.781V124.312C176.015 124.763 176.669 124.988 177.385 124.988C178.342 124.988 178.82 124.706 178.82 124.141C178.82 123.981 178.779 123.847 178.697 123.737C178.615 123.623 178.504 123.523 178.362 123.437C178.226 123.35 178.062 123.272 177.87 123.204C177.683 123.136 177.474 123.058 177.241 122.972C176.954 122.858 176.694 122.737 176.462 122.609C176.234 122.482 176.043 122.338 175.888 122.179C175.737 122.015 175.623 121.83 175.546 121.625C175.468 121.42 175.43 121.181 175.43 120.907C175.43 120.57 175.509 120.274 175.669 120.019C175.828 119.759 176.043 119.542 176.312 119.369C176.58 119.191 176.886 119.059 177.228 118.973C177.569 118.882 177.923 118.836 178.287 118.836C178.934 118.836 179.513 118.934 180.023 119.13V120.518C179.531 120.18 178.966 120.012 178.328 120.012C178.128 120.012 177.945 120.032 177.781 120.073C177.622 120.114 177.485 120.171 177.371 120.244C177.257 120.317 177.168 120.406 177.104 120.511C177.041 120.611 177.009 120.723 177.009 120.846C177.009 120.996 177.041 121.124 177.104 121.229C177.168 121.333 177.262 121.427 177.385 121.509C177.512 121.586 177.663 121.659 177.836 121.728C178.014 121.791 178.216 121.862 178.444 121.939C178.745 122.062 179.014 122.188 179.251 122.315C179.493 122.443 179.698 122.589 179.866 122.753C180.035 122.912 180.165 123.099 180.256 123.313C180.347 123.523 180.393 123.774 180.393 124.065C180.393 124.421 180.311 124.731 180.146 124.995C179.982 125.259 179.764 125.478 179.49 125.651C179.217 125.825 178.9 125.952 178.54 126.034C178.185 126.121 177.809 126.164 177.412 126.164C176.646 126.164 175.983 126.036 175.423 125.781ZM187.276 126H185.738V124.906H185.711C185.228 125.745 184.519 126.164 183.585 126.164C182.897 126.164 182.357 125.977 181.965 125.604C181.577 125.23 181.384 124.735 181.384 124.12C181.384 122.799 182.145 122.028 183.667 121.81L185.745 121.516C185.745 120.518 185.271 120.019 184.323 120.019C183.489 120.019 182.737 120.306 182.067 120.88V119.492C182.806 119.055 183.658 118.836 184.624 118.836C186.392 118.836 187.276 119.706 187.276 121.447V126ZM185.745 122.562L184.275 122.767C183.82 122.826 183.476 122.938 183.243 123.102C183.015 123.261 182.901 123.544 182.901 123.949C182.901 124.245 183.006 124.489 183.216 124.681C183.43 124.868 183.715 124.961 184.07 124.961C184.553 124.961 184.952 124.792 185.267 124.455C185.586 124.113 185.745 123.685 185.745 123.17V122.562ZM199.684 126H198.098V122.186C198.098 121.452 197.993 120.921 197.783 120.593C197.578 120.265 197.229 120.101 196.737 120.101C196.323 120.101 195.969 120.308 195.678 120.723C195.391 121.137 195.247 121.634 195.247 122.213V126H193.654V122.056C193.654 120.752 193.194 120.101 192.273 120.101C191.845 120.101 191.492 120.297 191.214 120.688C190.94 121.08 190.804 121.589 190.804 122.213V126H189.218V119H190.804V120.107H190.831C191.337 119.26 192.073 118.836 193.039 118.836C193.522 118.836 193.944 118.97 194.304 119.239C194.668 119.504 194.917 119.852 195.049 120.285C195.568 119.319 196.343 118.836 197.373 118.836C198.913 118.836 199.684 119.786 199.684 121.687V126ZM203.231 124.968H203.204V129.22H201.618V119H203.204V120.23H203.231C203.774 119.301 204.567 118.836 205.61 118.836C206.499 118.836 207.192 119.148 207.688 119.772C208.185 120.397 208.434 121.235 208.434 122.288C208.434 123.455 208.153 124.389 207.593 125.091C207.032 125.793 206.267 126.144 205.296 126.144C204.403 126.144 203.715 125.752 203.231 124.968ZM203.19 122.206V123.074C203.19 123.585 203.352 124.018 203.676 124.373C204.004 124.729 204.419 124.906 204.92 124.906C205.508 124.906 205.968 124.678 206.301 124.223C206.638 123.762 206.807 123.122 206.807 122.302C206.807 121.614 206.649 121.076 206.335 120.688C206.025 120.297 205.604 120.101 205.07 120.101C204.505 120.101 204.049 120.301 203.703 120.702C203.361 121.103 203.19 121.604 203.19 122.206ZM211.646 126H210.054V115.637H211.646V126ZM219.645 122.931H214.873C214.891 123.578 215.09 124.077 215.468 124.428C215.851 124.779 216.375 124.954 217.04 124.954C217.787 124.954 218.473 124.731 219.098 124.284V125.562C218.46 125.964 217.617 126.164 216.568 126.164C215.538 126.164 214.729 125.847 214.142 125.214C213.558 124.576 213.267 123.68 213.267 122.527C213.267 121.438 213.588 120.552 214.23 119.868C214.878 119.18 215.68 118.836 216.637 118.836C217.594 118.836 218.334 119.144 218.858 119.759C219.382 120.374 219.645 121.229 219.645 122.322V122.931ZM218.113 121.81C218.109 121.24 217.974 120.798 217.71 120.483C217.446 120.164 217.081 120.005 216.616 120.005C216.16 120.005 215.773 120.171 215.454 120.504C215.14 120.837 214.946 121.272 214.873 121.81H218.113ZM221.606 128.229H220.267C221.679 126.524 222.386 124.53 222.386 122.247C222.386 119.946 221.677 117.929 220.26 116.197H221.613C223.058 117.865 223.78 119.886 223.78 122.261C223.78 124.626 223.056 126.615 221.606 128.229Z" fill="#333333"/>
<rect x="288" y="97" width="83" height="50" fill="white"/>
<rect x="288" y="146" width="83" height="1" fill="#D8D8D8"/>
<path d="M296.759 125.61V123.936C296.909 124.072 297.087 124.195 297.292 124.305C297.502 124.414 297.723 124.507 297.955 124.585C298.188 124.658 298.42 124.715 298.652 124.756C298.885 124.797 299.099 124.817 299.295 124.817C299.979 124.817 300.487 124.703 300.819 124.476C301.157 124.248 301.325 123.917 301.325 123.484C301.325 123.252 301.268 123.051 301.154 122.883C301.045 122.71 300.89 122.552 300.689 122.411C300.489 122.27 300.252 122.135 299.979 122.008C299.71 121.876 299.42 121.739 299.11 121.598C298.778 121.42 298.468 121.24 298.181 121.058C297.894 120.875 297.643 120.675 297.429 120.456C297.219 120.233 297.053 119.982 296.93 119.704C296.811 119.426 296.752 119.1 296.752 118.727C296.752 118.266 296.854 117.868 297.06 117.53C297.269 117.188 297.543 116.908 297.88 116.689C298.222 116.466 298.609 116.302 299.042 116.197C299.475 116.088 299.917 116.033 300.368 116.033C301.394 116.033 302.141 116.149 302.61 116.382V117.988C302.054 117.587 301.339 117.387 300.464 117.387C300.222 117.387 299.981 117.41 299.739 117.455C299.502 117.501 299.288 117.576 299.097 117.681C298.91 117.785 298.757 117.92 298.639 118.084C298.52 118.248 298.461 118.446 298.461 118.679C298.461 118.897 298.507 119.087 298.598 119.246C298.689 119.406 298.821 119.551 298.994 119.684C299.172 119.816 299.386 119.946 299.637 120.073C299.892 120.196 300.186 120.331 300.519 120.477C300.86 120.654 301.182 120.841 301.482 121.037C301.788 121.233 302.054 121.45 302.282 121.687C302.515 121.924 302.697 122.188 302.829 122.479C302.966 122.767 303.034 123.095 303.034 123.464C303.034 123.961 302.934 124.38 302.733 124.722C302.533 125.063 302.262 125.341 301.92 125.556C301.583 125.77 301.193 125.925 300.751 126.021C300.309 126.116 299.842 126.164 299.35 126.164C299.186 126.164 298.983 126.15 298.741 126.123C298.504 126.1 298.26 126.064 298.01 126.014C297.759 125.968 297.522 125.911 297.299 125.843C297.076 125.774 296.896 125.697 296.759 125.61ZM307.662 125.925C307.352 126.08 306.945 126.157 306.439 126.157C305.081 126.157 304.402 125.506 304.402 124.202V120.244H303.233V119H304.402V117.38L305.988 116.929V119H307.662V120.244H305.988V123.744C305.988 124.159 306.063 124.455 306.213 124.633C306.364 124.811 306.614 124.899 306.965 124.899C307.234 124.899 307.466 124.822 307.662 124.667V125.925ZM314.123 126H312.585V124.906H312.557C312.074 125.745 311.365 126.164 310.431 126.164C309.743 126.164 309.203 125.977 308.811 125.604C308.424 125.23 308.23 124.735 308.23 124.12C308.23 122.799 308.991 122.028 310.513 121.81L312.591 121.516C312.591 120.518 312.117 120.019 311.169 120.019C310.336 120.019 309.584 120.306 308.914 120.88V119.492C309.652 119.055 310.504 118.836 311.47 118.836C313.239 118.836 314.123 119.706 314.123 121.447V126ZM312.591 122.562L311.122 122.767C310.666 122.826 310.322 122.938 310.089 123.102C309.862 123.261 309.748 123.544 309.748 123.949C309.748 124.245 309.852 124.489 310.062 124.681C310.276 124.868 310.561 124.961 310.917 124.961C311.4 124.961 311.798 124.792 312.113 124.455C312.432 124.113 312.591 123.685 312.591 123.17V122.562ZM322.135 126H320.125L317.404 122.637H317.377V126H315.784V115.637H317.377V122.206H317.404L319.974 119H321.882L318.99 122.377L322.135 126ZM328.54 122.931H323.769C323.787 123.578 323.985 124.077 324.363 124.428C324.746 124.779 325.27 124.954 325.936 124.954C326.683 124.954 327.369 124.731 327.993 124.284V125.562C327.355 125.964 326.512 126.164 325.464 126.164C324.434 126.164 323.625 125.847 323.037 125.214C322.454 124.576 322.162 123.68 322.162 122.527C322.162 121.438 322.484 120.552 323.126 119.868C323.773 119.18 324.575 118.836 325.532 118.836C326.489 118.836 327.23 119.144 327.754 119.759C328.278 120.374 328.54 121.229 328.54 122.322V122.931ZM327.009 121.81C327.004 121.24 326.87 120.798 326.606 120.483C326.341 120.164 325.977 120.005 325.512 120.005C325.056 120.005 324.669 120.171 324.35 120.504C324.035 120.837 323.842 121.272 323.769 121.81H327.009ZM335.992 126H334.406V122.172C334.406 120.786 333.943 120.094 333.018 120.094C332.553 120.094 332.161 120.294 331.842 120.695C331.523 121.096 331.364 121.609 331.364 122.233V126H329.771V115.637H331.364V120.162H331.391C331.92 119.278 332.676 118.836 333.661 118.836C335.215 118.836 335.992 119.786 335.992 121.687V126ZM340.743 126.164C339.663 126.164 338.799 125.838 338.152 125.187C337.509 124.53 337.188 123.662 337.188 122.582C337.188 121.406 337.523 120.488 338.193 119.827C338.868 119.166 339.774 118.836 340.914 118.836C342.007 118.836 342.86 119.157 343.47 119.8C344.081 120.442 344.386 121.333 344.386 122.473C344.386 123.589 344.056 124.485 343.395 125.159C342.739 125.829 341.855 126.164 340.743 126.164ZM340.818 120.101C340.198 120.101 339.708 120.317 339.348 120.75C338.988 121.183 338.808 121.78 338.808 122.541C338.808 123.275 338.991 123.854 339.355 124.277C339.72 124.697 340.207 124.906 340.818 124.906C341.442 124.906 341.921 124.699 342.254 124.284C342.591 123.869 342.759 123.279 342.759 122.514C342.759 121.743 342.591 121.149 342.254 120.729C341.921 120.31 341.442 120.101 340.818 120.101ZM347.319 126H345.727V115.637H347.319V126ZM355.475 126H353.889V124.811H353.862C353.351 125.713 352.565 126.164 351.503 126.164C350.642 126.164 349.951 125.852 349.432 125.228C348.917 124.599 348.659 123.744 348.659 122.664C348.659 121.507 348.944 120.579 349.514 119.882C350.088 119.185 350.851 118.836 351.804 118.836C352.747 118.836 353.433 119.214 353.862 119.971H353.889V115.637H355.475V126ZM353.909 122.801V121.885C353.909 121.388 353.748 120.966 353.424 120.62C353.1 120.274 352.688 120.101 352.187 120.101C351.594 120.101 351.127 120.322 350.785 120.764C350.448 121.206 350.28 121.819 350.28 122.603C350.28 123.313 350.441 123.876 350.765 124.291C351.093 124.701 351.533 124.906 352.084 124.906C352.627 124.906 353.066 124.708 353.404 124.312C353.741 123.91 353.909 123.407 353.909 122.801ZM363.193 122.931H358.421C358.44 123.578 358.638 124.077 359.016 124.428C359.399 124.779 359.923 124.954 360.588 124.954C361.336 124.954 362.022 124.731 362.646 124.284V125.562C362.008 125.964 361.165 126.164 360.117 126.164C359.087 126.164 358.278 125.847 357.69 125.214C357.107 124.576 356.815 123.68 356.815 122.527C356.815 121.438 357.136 120.552 357.779 119.868C358.426 119.18 359.228 118.836 360.185 118.836C361.142 118.836 361.883 119.144 362.407 119.759C362.931 120.374 363.193 121.229 363.193 122.322V122.931ZM361.662 121.81C361.657 121.24 361.523 120.798 361.258 120.483C360.994 120.164 360.629 120.005 360.165 120.005C359.709 120.005 359.321 120.171 359.002 120.504C358.688 120.837 358.494 121.272 358.421 121.81H361.662Z" fill="#333333"/>
<rect width="357" height="40" transform="translate(14 147)" fill="#F3F3F3"/>
<rect x="14" y="147" width="357" height="40" fill="#F3F3F3"/>
<path d="M199 166.5H186.953L193.102 172.648L192.398 173.352L185.047 166L192.398 158.648L193.102 159.352L186.953 165.5H199V166.5ZM183 158H184V174H183V158Z" fill="#ADADAD"/>
<path d="M243 166.5H228.953L235.102 172.648L234.398 173.352L227.047 166L234.398 158.648L235.102 159.352L228.953 165.5H243V166.5Z" fill="#ADADAD"/>
<path d="M273.434 167.295V171H272.285V161.197H274.979C276.027 161.197 276.838 161.452 277.412 161.963C277.991 162.473 278.28 163.193 278.28 164.123C278.28 165.053 277.959 165.814 277.316 166.406C276.678 166.999 275.815 167.295 274.726 167.295H273.434ZM273.434 162.236V166.256H274.637C275.43 166.256 276.034 166.076 276.448 165.716C276.868 165.351 277.077 164.839 277.077 164.178C277.077 162.883 276.312 162.236 274.78 162.236H273.434ZM284.515 171H283.394V169.906H283.366C282.879 170.745 282.161 171.164 281.213 171.164C280.516 171.164 279.969 170.979 279.572 170.61C279.18 170.241 278.984 169.751 278.984 169.141C278.984 167.833 279.755 167.072 281.295 166.857L283.394 166.563C283.394 165.374 282.913 164.779 281.951 164.779C281.108 164.779 280.347 165.066 279.668 165.641V164.492C280.356 164.055 281.149 163.836 282.047 163.836C283.692 163.836 284.515 164.706 284.515 166.447V171ZM283.394 167.459L281.705 167.691C281.186 167.764 280.794 167.894 280.529 168.081C280.265 168.263 280.133 168.589 280.133 169.059C280.133 169.4 280.254 169.681 280.495 169.899C280.741 170.114 281.067 170.221 281.473 170.221C282.029 170.221 282.487 170.027 282.847 169.64C283.211 169.248 283.394 168.753 283.394 168.156V167.459ZM292.602 170.439C292.602 173.01 291.371 174.295 288.91 174.295C288.044 174.295 287.288 174.131 286.641 173.803V172.682C287.429 173.119 288.181 173.338 288.896 173.338C290.619 173.338 291.48 172.422 291.48 170.59V169.824H291.453C290.92 170.717 290.118 171.164 289.047 171.164C288.176 171.164 287.475 170.854 286.941 170.234C286.413 169.61 286.148 168.774 286.148 167.726C286.148 166.536 286.433 165.59 287.003 164.889C287.577 164.187 288.361 163.836 289.354 163.836C290.298 163.836 290.997 164.214 291.453 164.971H291.48V164H292.602V170.439ZM291.48 167.835V166.803C291.48 166.247 291.291 165.771 290.913 165.374C290.539 164.978 290.072 164.779 289.512 164.779C288.819 164.779 288.277 165.032 287.885 165.538C287.493 166.039 287.297 166.743 287.297 167.65C287.297 168.43 287.484 169.054 287.857 169.523C288.236 169.988 288.735 170.221 289.354 170.221C289.983 170.221 290.494 169.997 290.886 169.551C291.282 169.104 291.48 168.532 291.48 167.835ZM300.497 167.78H295.555C295.573 168.56 295.783 169.161 296.184 169.585C296.585 170.009 297.136 170.221 297.838 170.221C298.626 170.221 299.351 169.961 300.012 169.441V170.494C299.396 170.941 298.583 171.164 297.571 171.164C296.582 171.164 295.805 170.847 295.24 170.214C294.675 169.576 294.393 168.68 294.393 167.527C294.393 166.438 294.7 165.552 295.315 164.868C295.935 164.18 296.703 163.836 297.619 163.836C298.535 163.836 299.244 164.132 299.745 164.725C300.246 165.317 300.497 166.14 300.497 167.192V167.78ZM299.349 166.83C299.344 166.183 299.187 165.679 298.877 165.319C298.572 164.959 298.146 164.779 297.599 164.779C297.07 164.779 296.621 164.968 296.252 165.347C295.883 165.725 295.655 166.219 295.568 166.83H299.349ZM309.855 171H308.734V162.53C308.648 162.617 308.52 162.717 308.352 162.831C308.188 162.94 308.001 163.05 307.791 163.159C307.586 163.269 307.367 163.371 307.135 163.467C306.907 163.562 306.684 163.638 306.465 163.692V162.558C306.711 162.489 306.971 162.398 307.244 162.284C307.522 162.166 307.793 162.036 308.058 161.895C308.326 161.749 308.579 161.598 308.816 161.443C309.053 161.284 309.258 161.129 309.432 160.979H309.855V171Z" fill="#666666"/>
<path d="M356.953 166L349.602 173.352L348.898 172.648L355.047 166.5H341V165.5H355.047L348.898 159.352L349.602 158.648L356.953 166Z" fill="#ADADAD"/>
<defs>
<clipPath id="clip0">
<rect width="357" height="36" fill="white" transform="translate(14 559)"/>
</clipPath>
<clipPath id="clip1">
<rect width="357" height="36" fill="white" transform="translate(14 244)"/>
</clipPath>
<clipPath id="clip2">
<rect width="357" height="36" fill="white" transform="translate(14 11)"/>
</clipPath>
</defs>
</svg>
