<svg width="16" height="16" viewBox="0 0 16 16" fill="none" xmlns="http://www.w3.org/2000/svg">
<path d="M8 0C8.73438 0 9.44271 0.0950521 10.125 0.285156C10.8073 0.47526 11.444 0.744792 12.0352 1.09375C12.6263 1.44271 13.1654 1.86068 13.6523 2.34766C14.1393 2.83464 14.5573 3.3737 14.9062 3.96484C15.2552 4.55599 15.5247 5.19271 15.7148 5.875C15.9049 6.55729 16 7.26562 16 8C16 8.73438 15.9049 9.44271 15.7148 10.125C15.5247 10.8073 15.2552 11.444 14.9062 12.0352C14.5573 12.6263 14.1393 13.1654 13.6523 13.6523C13.1654 14.1393 12.6263 14.5573 12.0352 14.9062C11.444 15.2552 10.8073 15.5247 10.125 15.7148C9.44271 15.9049 8.73438 16 8 16C7.26562 16 6.55729 15.9049 5.875 15.7148C5.19271 15.5247 4.55599 15.2552 3.96484 14.9062C3.3737 14.5573 2.83464 14.1393 2.34766 13.6523C1.86068 13.1654 1.44271 12.6263 1.09375 12.0352C0.744792 11.444 0.47526 10.8073 0.285156 10.125C0.0950521 9.44271 0 8.73438 0 8C0 7.26562 0.0950521 6.55729 0.285156 5.875C0.47526 5.19271 0.744792 4.55599 1.09375 3.96484C1.44271 3.3737 1.86068 2.83464 2.34766 2.34766C2.83464 1.86068 3.3737 1.44271 3.96484 1.09375C4.55599 0.744792 5.19271 0.47526 5.875 0.285156C6.55729 0.0950521 7.26562 0 8 0ZM11.5547 10.6719L8.88281 8L11.5547 5.32812L10.6719 4.44531L8 7.11719L5.32812 4.44531L4.44531 5.32812L7.11719 8L4.44531 10.6719L5.32812 11.5547L8 8.88281L10.6719 11.5547L11.5547 10.6719Z" fill="red"/>
</svg>
