<svg width="2399" height="43" viewBox="0 0 2399 43" fill="none" xmlns="http://www.w3.org/2000/svg">
<rect width="2399" height="43" fill="white"/>
<rect y="42" width="2399" height="1" fill="#D8D8D8"/>
<rect width="75" height="42" transform="translate(43)" fill="white"/>
<path d="M87.1875 26H85.7793L80.7344 18.1865C80.6068 17.9906 80.502 17.7855 80.4199 17.5713H80.3789C80.4154 17.7809 80.4336 18.2298 80.4336 18.918V26H79.2852V16.1973H80.7754L85.6836 23.8877C85.8887 24.2067 86.0208 24.4255 86.0801 24.5439H86.1074C86.0618 24.2614 86.0391 23.7806 86.0391 23.1016V16.1973H87.1875V26ZM95.2334 22.7803H90.291C90.3092 23.5596 90.5189 24.1611 90.9199 24.585C91.321 25.0088 91.8724 25.2207 92.5742 25.2207C93.3626 25.2207 94.0872 24.9609 94.748 24.4414V25.4941C94.1328 25.9408 93.3193 26.1641 92.3076 26.1641C91.3187 26.1641 90.5417 25.8473 89.9766 25.2139C89.4115 24.5758 89.1289 23.6803 89.1289 22.5273C89.1289 21.4382 89.4365 20.5518 90.0518 19.8682C90.6715 19.18 91.4395 18.8359 92.3555 18.8359C93.2715 18.8359 93.9801 19.1322 94.4814 19.7246C94.9827 20.3171 95.2334 21.1396 95.2334 22.1924V22.7803ZM94.085 21.8301C94.0804 21.1829 93.9232 20.6794 93.6133 20.3193C93.3079 19.9593 92.8818 19.7793 92.335 19.7793C91.8063 19.7793 91.3574 19.9684 90.9883 20.3467C90.6191 20.7249 90.3913 21.2194 90.3047 21.8301H94.085ZM105.754 19L103.655 26H102.493L101.051 20.9893C100.996 20.7979 100.96 20.5814 100.941 20.3398H100.914C100.9 20.5039 100.853 20.7158 100.771 20.9756L99.2051 26H98.084L95.9648 19H97.1406L98.5898 24.2637C98.6354 24.4232 98.6673 24.6328 98.6855 24.8926H98.7402C98.7539 24.6921 98.7949 24.4779 98.8633 24.25L100.477 19H101.502L102.951 24.2773C102.997 24.446 103.031 24.6556 103.054 24.9062H103.108C103.118 24.7285 103.156 24.5189 103.225 24.2773L104.646 19H105.754Z" fill="#333333"/>
<path d="M71 20.5V21.5H63.5V29H62.5V21.5H55V20.5H62.5V13H63.5V20.5H71Z" fill="#25A954"/>
<rect width="118" height="42" transform="translate(669)" fill="white"/>
<path d="M706.434 22.2949V26H705.285V16.1973H707.979C709.027 16.1973 709.838 16.4525 710.412 16.9629C710.991 17.4733 711.28 18.1934 711.28 19.123C711.28 20.0527 710.959 20.8138 710.316 21.4062C709.678 21.9987 708.815 22.2949 707.726 22.2949H706.434ZM706.434 17.2363V21.2559H707.637C708.43 21.2559 709.034 21.0758 709.448 20.7158C709.868 20.3512 710.077 19.8385 710.077 19.1777C710.077 17.8835 709.312 17.2363 707.78 17.2363H706.434ZM716.633 20.1348C716.437 19.9844 716.154 19.9092 715.785 19.9092C715.307 19.9092 714.906 20.1348 714.582 20.5859C714.263 21.0371 714.104 21.6523 714.104 22.4316V26H712.982V19H714.104V20.4424H714.131C714.29 19.9502 714.534 19.5674 714.862 19.2939C715.19 19.016 715.557 18.877 715.963 18.877C716.255 18.877 716.478 18.9089 716.633 18.9727V20.1348ZM720.775 26.1641C719.741 26.1641 718.914 25.8382 718.294 25.1865C717.679 24.5303 717.371 23.6621 717.371 22.582C717.371 21.4062 717.692 20.488 718.335 19.8271C718.978 19.1663 719.846 18.8359 720.939 18.8359C721.983 18.8359 722.797 19.1572 723.38 19.7998C723.968 20.4424 724.262 21.3333 724.262 22.4727C724.262 23.5892 723.945 24.4847 723.312 25.1592C722.683 25.8291 721.837 26.1641 720.775 26.1641ZM720.857 19.7793C720.137 19.7793 719.568 20.0254 719.148 20.5176C718.729 21.0052 718.52 21.6797 718.52 22.541C718.52 23.3704 718.731 24.0244 719.155 24.5029C719.579 24.9814 720.146 25.2207 720.857 25.2207C721.582 25.2207 722.138 24.986 722.525 24.5166C722.917 24.0472 723.113 23.3796 723.113 22.5137C723.113 21.6387 722.917 20.9642 722.525 20.4902C722.138 20.0163 721.582 19.7793 720.857 19.7793ZM730.824 25.6787C730.286 26.0023 729.648 26.1641 728.91 26.1641C727.912 26.1641 727.105 25.8405 726.49 25.1934C725.88 24.5417 725.574 23.6986 725.574 22.6641C725.574 21.5111 725.905 20.5859 726.565 19.8887C727.226 19.1868 728.108 18.8359 729.211 18.8359C729.826 18.8359 730.368 18.9499 730.838 19.1777V20.3262C730.318 19.9616 729.762 19.7793 729.17 19.7793C728.454 19.7793 727.867 20.0368 727.406 20.5518C726.951 21.0622 726.723 21.7344 726.723 22.5684C726.723 23.3887 726.937 24.0358 727.365 24.5098C727.798 24.9837 728.377 25.2207 729.102 25.2207C729.712 25.2207 730.286 25.0179 730.824 24.6123V25.6787ZM738.146 22.7803H733.203C733.221 23.5596 733.431 24.1611 733.832 24.585C734.233 25.0088 734.785 25.2207 735.486 25.2207C736.275 25.2207 736.999 24.9609 737.66 24.4414V25.4941C737.045 25.9408 736.231 26.1641 735.22 26.1641C734.231 26.1641 733.454 25.8473 732.889 25.2139C732.324 24.5758 732.041 23.6803 732.041 22.5273C732.041 21.4382 732.349 20.5518 732.964 19.8682C733.584 19.18 734.352 18.8359 735.268 18.8359C736.184 18.8359 736.892 19.1322 737.394 19.7246C737.895 20.3171 738.146 21.1396 738.146 22.1924V22.7803ZM736.997 21.8301C736.993 21.1829 736.835 20.6794 736.525 20.3193C736.22 19.9593 735.794 19.7793 735.247 19.7793C734.718 19.7793 734.27 19.9684 733.9 20.3467C733.531 20.7249 733.303 21.2194 733.217 21.8301H736.997ZM739.424 25.7471V24.5439C740.035 24.9951 740.707 25.2207 741.44 25.2207C742.425 25.2207 742.917 24.8926 742.917 24.2363C742.917 24.0495 742.874 23.8923 742.787 23.7646C742.705 23.6325 742.591 23.5163 742.445 23.416C742.304 23.3158 742.135 23.2269 741.939 23.1494C741.748 23.0674 741.541 22.9831 741.317 22.8965C741.007 22.7734 740.734 22.6504 740.497 22.5273C740.265 22.3997 740.069 22.2585 739.909 22.1035C739.754 21.944 739.636 21.764 739.554 21.5635C739.476 21.363 739.438 21.1283 739.438 20.8594C739.438 20.5312 739.513 20.2419 739.663 19.9912C739.813 19.736 740.014 19.5241 740.265 19.3555C740.515 19.1823 740.8 19.0524 741.119 18.9658C741.443 18.8792 741.775 18.8359 742.117 18.8359C742.723 18.8359 743.266 18.9408 743.744 19.1504V20.2852C743.229 19.9479 742.637 19.7793 741.967 19.7793C741.757 19.7793 741.568 19.8044 741.399 19.8545C741.231 19.9001 741.085 19.9661 740.962 20.0527C740.843 20.1393 740.75 20.2441 740.682 20.3672C740.618 20.4857 740.586 20.6178 740.586 20.7637C740.586 20.946 740.618 21.0986 740.682 21.2217C740.75 21.3447 740.848 21.4541 740.976 21.5498C741.103 21.6455 741.258 21.7321 741.44 21.8096C741.623 21.887 741.83 21.9714 742.062 22.0625C742.372 22.181 742.65 22.304 742.896 22.4316C743.143 22.5547 743.352 22.696 743.525 22.8555C743.699 23.0104 743.831 23.1904 743.922 23.3955C744.018 23.6006 744.065 23.8444 744.065 24.127C744.065 24.4733 743.988 24.7741 743.833 25.0293C743.683 25.2845 743.48 25.4964 743.225 25.665C742.969 25.8337 742.675 25.959 742.343 26.041C742.01 26.123 741.661 26.1641 741.297 26.1641C740.577 26.1641 739.952 26.0251 739.424 25.7471ZM745.371 25.7471V24.5439C745.982 24.9951 746.654 25.2207 747.388 25.2207C748.372 25.2207 748.864 24.8926 748.864 24.2363C748.864 24.0495 748.821 23.8923 748.734 23.7646C748.652 23.6325 748.538 23.5163 748.393 23.416C748.251 23.3158 748.083 23.2269 747.887 23.1494C747.695 23.0674 747.488 22.9831 747.265 22.8965C746.955 22.7734 746.681 22.6504 746.444 22.5273C746.212 22.3997 746.016 22.2585 745.856 22.1035C745.701 21.944 745.583 21.764 745.501 21.5635C745.424 21.363 745.385 21.1283 745.385 20.8594C745.385 20.5312 745.46 20.2419 745.61 19.9912C745.761 19.736 745.961 19.5241 746.212 19.3555C746.463 19.1823 746.747 19.0524 747.066 18.9658C747.39 18.8792 747.723 18.8359 748.064 18.8359C748.671 18.8359 749.213 18.9408 749.691 19.1504V20.2852C749.176 19.9479 748.584 19.7793 747.914 19.7793C747.704 19.7793 747.515 19.8044 747.347 19.8545C747.178 19.9001 747.032 19.9661 746.909 20.0527C746.791 20.1393 746.697 20.2441 746.629 20.3672C746.565 20.4857 746.533 20.6178 746.533 20.7637C746.533 20.946 746.565 21.0986 746.629 21.2217C746.697 21.3447 746.795 21.4541 746.923 21.5498C747.05 21.6455 747.205 21.7321 747.388 21.8096C747.57 21.887 747.777 21.9714 748.01 22.0625C748.32 22.181 748.598 22.304 748.844 22.4316C749.09 22.5547 749.299 22.696 749.473 22.8555C749.646 23.0104 749.778 23.1904 749.869 23.3955C749.965 23.6006 750.013 23.8444 750.013 24.127C750.013 24.4733 749.935 24.7741 749.78 25.0293C749.63 25.2845 749.427 25.4964 749.172 25.665C748.917 25.8337 748.623 25.959 748.29 26.041C747.957 26.123 747.609 26.1641 747.244 26.1641C746.524 26.1641 745.9 26.0251 745.371 25.7471Z" fill="#333333"/>
<path d="M769 24.709L763.146 18.8555L763.855 18.1465L769 23.291L774.145 18.1465L774.854 18.8555L769 24.709Z" fill="#333333"/>
<path d="M683.141 24.7812C683.688 25.6198 684.38 26.3125 685.219 26.8594L684.836 27.7891C684.299 27.4609 683.81 27.0755 683.367 26.6328C682.924 26.1901 682.539 25.7005 682.211 25.1641L683.141 24.7812ZM682.18 19.5312C682.122 19.776 682.078 20.0208 682.047 20.2656C682.016 20.5052 682 20.75 682 21C682 21.25 682.016 21.4974 682.047 21.7422C682.078 21.987 682.122 22.2318 682.18 22.4766L681.25 22.8594C681.177 22.5521 681.117 22.2448 681.07 21.9375C681.023 21.625 681 21.3125 681 21C681 20.6875 681.023 20.3776 681.07 20.0703C681.117 19.7578 681.177 19.4479 681.25 19.1406L682.18 19.5312ZM689 28C689.25 28 689.497 27.9844 689.742 27.9531C689.987 27.9219 690.232 27.8776 690.477 27.8203L690.859 28.75C690.552 28.8229 690.242 28.8828 689.93 28.9297C689.622 28.9766 689.312 29 689 29C688.688 29 688.375 28.9766 688.062 28.9297C687.755 28.8828 687.448 28.8229 687.141 28.75L687.523 27.8203C687.768 27.8776 688.013 27.9219 688.258 27.9531C688.503 27.9844 688.75 28 689 28ZM696.75 19.1406C696.823 19.4479 696.88 19.7578 696.922 20.0703C696.969 20.3776 696.992 20.6875 696.992 21C696.992 21.3125 696.969 21.625 696.922 21.9375C696.88 22.2448 696.823 22.5521 696.75 22.8594L695.82 22.4766C695.878 22.2318 695.922 21.987 695.953 21.7422C695.984 21.4974 696 21.25 696 21C696 20.75 695.984 20.5052 695.953 20.2656C695.922 20.0208 695.878 19.776 695.82 19.5312L696.75 19.1406ZM694.852 17.2188C694.586 16.8021 694.279 16.4193 693.93 16.0703C693.581 15.7214 693.198 15.4141 692.781 15.1484L693.164 14.2188C693.701 14.5469 694.19 14.9323 694.633 15.375C695.076 15.8125 695.461 16.2995 695.789 16.8359L694.852 17.2188ZM692.781 26.8594C693.62 26.3125 694.312 25.6198 694.859 24.7812L695.789 25.1641C695.461 25.7005 695.076 26.1901 694.633 26.6328C694.19 27.0755 693.701 27.4609 693.164 27.7891L692.781 26.8594ZM683 13H687V17H686V14.7109C685.417 14.987 684.88 15.3359 684.391 15.7578C683.901 16.1797 683.482 16.6641 683.133 17.2109L682.195 16.8281C682.56 16.2344 682.992 15.7005 683.492 15.2266C683.992 14.7474 684.547 14.3385 685.156 14H683V13Z" fill="#333333"/>
<g clip-path="url(#clip0)">
<rect width="43" height="42" fill="white"/>
<rect x="42" width="1.02273" height="42" fill="#D8D8D8"/>
<circle cx="21" cy="21" r="6" fill="white"/>
<path d="M21.0391 15C20.4922 15 19.9635 15.0729 19.4531 15.2188C18.9479 15.3594 18.474 15.5599 18.0312 15.8203C17.5885 16.0755 17.1849 16.3854 16.8203 16.75C16.4609 17.1094 16.151 17.5104 15.8906 17.9531C15.6354 18.3958 15.4349 18.8724 15.2891 19.3828C15.1484 19.888 15.0781 20.4141 15.0781 20.9609C15.0781 21.5078 15.1484 22.0365 15.2891 22.5469C15.4349 23.0521 15.6354 23.526 15.8906 23.9688C16.151 24.4115 16.4609 24.8151 16.8203 25.1797C17.1849 25.5391 17.5885 25.849 18.0312 26.1094C18.474 26.3646 18.9479 26.5651 19.4531 26.7109C19.9635 26.8516 20.4922 26.9219 21.0391 26.9219C21.5859 26.9219 22.112 26.8516 22.6172 26.7109C23.1276 26.5651 23.6042 26.3646 24.0469 26.1094C24.4896 25.849 24.8906 25.5391 25.25 25.1797C25.6146 24.8151 25.9245 24.4115 26.1797 23.9688C26.4401 23.526 26.6406 23.0521 26.7812 22.5469C26.9271 22.0365 27 21.5078 27 20.9609C27 20.4141 26.9271 19.888 26.7812 19.3828C26.6406 18.8724 26.4401 18.3984 26.1797 17.9609C25.9245 17.5182 25.6146 17.1146 25.25 16.75C24.8854 16.3854 24.4818 16.0755 24.0391 15.8203C23.6016 15.5599 23.1276 15.3594 22.6172 15.2188C22.112 15.0729 21.5859 15 21.0391 15ZM21.0391 14C21.6797 14 22.2943 14.0833 22.8828 14.25C23.4766 14.4167 24.0312 14.651 24.5469 14.9531C25.0625 15.2552 25.5312 15.6198 25.9531 16.0469C26.3802 16.4688 26.7448 16.9375 27.0469 17.4531C27.349 17.9688 27.5833 18.5234 27.75 19.1172C27.9167 19.7057 28 20.3203 28 20.9609C28 21.6016 27.9167 22.2188 27.75 22.8125C27.5833 23.401 27.349 23.9531 27.0469 24.4688C26.7448 24.9844 26.3802 25.4557 25.9531 25.8828C25.5312 26.3047 25.0625 26.6667 24.5469 26.9688C24.0312 27.2708 23.4766 27.5052 22.8828 27.6719C22.2943 27.8385 21.6797 27.9219 21.0391 27.9219C20.3984 27.9219 19.7812 27.8385 19.1875 27.6719C18.599 27.5052 18.0469 27.2708 17.5312 26.9688C17.0156 26.6667 16.5443 26.3047 16.1172 25.8828C15.6953 25.4557 15.3333 24.9844 15.0312 24.4688C14.7292 23.9531 14.4948 23.401 14.3281 22.8125C14.1615 22.2188 14.0781 21.6016 14.0781 20.9609C14.0781 20.3203 14.1615 19.7057 14.3281 19.1172C14.4948 18.5234 14.7292 17.9688 15.0312 17.4531C15.3333 16.9375 15.6953 16.4688 16.1172 16.0469C16.5443 15.6198 17.0156 15.2552 17.5312 14.9531C18.0469 14.651 18.599 14.4167 19.1875 14.25C19.7812 14.0833 20.3984 14 21.0391 14Z" fill="#3A3A3A"/>
<path d="M19.6484 23.8984L20.3516 24.6016L23.9531 21L20.3516 17.3984L19.6484 18.1016L22.5391 21L19.6484 23.8984Z" fill="#0D64AF"/>
</g>
<rect width="94" height="42" transform="translate(118)" fill="white"/>
<path d="M161.312 26H159.945L158.305 23.252C158.154 22.9967 158.008 22.7803 157.867 22.6025C157.726 22.4202 157.58 22.2721 157.43 22.1582C157.284 22.0443 157.124 21.9622 156.951 21.9121C156.783 21.8574 156.591 21.8301 156.377 21.8301H155.434V26H154.285V16.1973H157.211C157.639 16.1973 158.034 16.252 158.394 16.3613C158.758 16.4661 159.073 16.6279 159.337 16.8467C159.606 17.0654 159.815 17.3389 159.966 17.667C160.116 17.9906 160.191 18.3711 160.191 18.8086C160.191 19.1504 160.139 19.4648 160.034 19.752C159.934 20.0345 159.788 20.2874 159.597 20.5107C159.41 20.734 159.182 20.9255 158.913 21.085C158.649 21.2399 158.35 21.3607 158.018 21.4473V21.4746C158.182 21.5475 158.323 21.6318 158.441 21.7275C158.564 21.8187 158.681 21.9281 158.79 22.0557C158.899 22.1833 159.007 22.3291 159.111 22.4932C159.221 22.6527 159.341 22.8395 159.474 23.0537L161.312 26ZM155.434 17.2363V20.791H156.992C157.279 20.791 157.544 20.7477 157.785 20.6611C158.031 20.5745 158.243 20.4515 158.421 20.292C158.599 20.1279 158.738 19.9297 158.838 19.6973C158.938 19.4603 158.988 19.196 158.988 18.9043C158.988 18.3802 158.817 17.9723 158.476 17.6807C158.138 17.3844 157.648 17.2363 157.006 17.2363H155.434ZM167.731 22.7803H162.789C162.807 23.5596 163.017 24.1611 163.418 24.585C163.819 25.0088 164.37 25.2207 165.072 25.2207C165.861 25.2207 166.585 24.9609 167.246 24.4414V25.4941C166.631 25.9408 165.817 26.1641 164.806 26.1641C163.817 26.1641 163.04 25.8473 162.475 25.2139C161.91 24.5758 161.627 23.6803 161.627 22.5273C161.627 21.4382 161.935 20.5518 162.55 19.8682C163.17 19.18 163.938 18.8359 164.854 18.8359C165.77 18.8359 166.478 19.1322 166.979 19.7246C167.481 20.3171 167.731 21.1396 167.731 22.1924V22.7803ZM166.583 21.8301C166.578 21.1829 166.421 20.6794 166.111 20.3193C165.806 19.9593 165.38 19.7793 164.833 19.7793C164.304 19.7793 163.855 19.9684 163.486 20.3467C163.117 20.7249 162.889 21.2194 162.803 21.8301H166.583ZM172.893 16.6211C172.674 16.498 172.425 16.4365 172.147 16.4365C171.364 16.4365 170.972 16.931 170.972 17.9199V19H172.612V19.957H170.972V26H169.857V19.957H168.661V19H169.857V17.8652C169.857 17.1315 170.069 16.5527 170.493 16.1289C170.917 15.7005 171.446 15.4863 172.079 15.4863C172.421 15.4863 172.692 15.5273 172.893 15.6094V16.6211ZM177.473 20.1348C177.277 19.9844 176.994 19.9092 176.625 19.9092C176.146 19.9092 175.745 20.1348 175.422 20.5859C175.103 21.0371 174.943 21.6523 174.943 22.4316V26H173.822V19H174.943V20.4424H174.971C175.13 19.9502 175.374 19.5674 175.702 19.2939C176.03 19.016 176.397 18.877 176.803 18.877C177.094 18.877 177.318 18.9089 177.473 18.9727V20.1348ZM184.315 22.7803H179.373C179.391 23.5596 179.601 24.1611 180.002 24.585C180.403 25.0088 180.954 25.2207 181.656 25.2207C182.445 25.2207 183.169 24.9609 183.83 24.4414V25.4941C183.215 25.9408 182.401 26.1641 181.39 26.1641C180.401 26.1641 179.624 25.8473 179.059 25.2139C178.493 24.5758 178.211 23.6803 178.211 22.5273C178.211 21.4382 178.519 20.5518 179.134 19.8682C179.754 19.18 180.521 18.8359 181.438 18.8359C182.354 18.8359 183.062 19.1322 183.563 19.7246C184.065 20.3171 184.315 21.1396 184.315 22.1924V22.7803ZM183.167 21.8301C183.162 21.1829 183.005 20.6794 182.695 20.3193C182.39 19.9593 181.964 19.7793 181.417 19.7793C180.888 19.7793 180.439 19.9684 180.07 20.3467C179.701 20.7249 179.473 21.2194 179.387 21.8301H183.167ZM185.594 25.7471V24.5439C186.204 24.9951 186.877 25.2207 187.61 25.2207C188.595 25.2207 189.087 24.8926 189.087 24.2363C189.087 24.0495 189.044 23.8923 188.957 23.7646C188.875 23.6325 188.761 23.5163 188.615 23.416C188.474 23.3158 188.305 23.2269 188.109 23.1494C187.918 23.0674 187.711 22.9831 187.487 22.8965C187.177 22.7734 186.904 22.6504 186.667 22.5273C186.435 22.3997 186.239 22.2585 186.079 22.1035C185.924 21.944 185.806 21.764 185.724 21.5635C185.646 21.363 185.607 21.1283 185.607 20.8594C185.607 20.5312 185.683 20.2419 185.833 19.9912C185.983 19.736 186.184 19.5241 186.435 19.3555C186.685 19.1823 186.97 19.0524 187.289 18.9658C187.613 18.8792 187.945 18.8359 188.287 18.8359C188.893 18.8359 189.436 18.9408 189.914 19.1504V20.2852C189.399 19.9479 188.807 19.7793 188.137 19.7793C187.927 19.7793 187.738 19.8044 187.569 19.8545C187.401 19.9001 187.255 19.9661 187.132 20.0527C187.013 20.1393 186.92 20.2441 186.852 20.3672C186.788 20.4857 186.756 20.6178 186.756 20.7637C186.756 20.946 186.788 21.0986 186.852 21.2217C186.92 21.3447 187.018 21.4541 187.146 21.5498C187.273 21.6455 187.428 21.7321 187.61 21.8096C187.793 21.887 188 21.9714 188.232 22.0625C188.542 22.181 188.82 22.304 189.066 22.4316C189.312 22.5547 189.522 22.696 189.695 22.8555C189.868 23.0104 190.001 23.1904 190.092 23.3955C190.188 23.6006 190.235 23.8444 190.235 24.127C190.235 24.4733 190.158 24.7741 190.003 25.0293C189.853 25.2845 189.65 25.4964 189.395 25.665C189.139 25.8337 188.845 25.959 188.513 26.041C188.18 26.123 187.831 26.1641 187.467 26.1641C186.747 26.1641 186.122 26.0251 185.594 25.7471ZM197.775 26H196.654V21.9668C196.654 20.5085 196.112 19.7793 195.027 19.7793C194.48 19.7793 194.02 19.9912 193.646 20.415C193.273 20.8343 193.086 21.3743 193.086 22.0352V26H191.965V15.6367H193.086V20.1621H193.113C193.651 19.278 194.417 18.8359 195.41 18.8359C196.987 18.8359 197.775 19.7861 197.775 21.6865V26Z" fill="#333333"/>
<path d="M140.133 13.2969C140.997 13.5312 141.789 13.8984 142.508 14.3984C143.227 14.8932 143.844 15.4818 144.359 16.1641C144.88 16.8411 145.284 17.5938 145.57 18.4219C145.857 19.2448 146 20.1042 146 21C146 21.7344 145.904 22.4427 145.711 23.125C145.523 23.8073 145.255 24.4453 144.906 25.0391C144.562 25.6328 144.146 26.1745 143.656 26.6641C143.172 27.1484 142.633 27.5651 142.039 27.9141C141.445 28.2578 140.807 28.526 140.125 28.7188C139.443 28.9062 138.734 29 138 29C137.266 29 136.557 28.9062 135.875 28.7188C135.193 28.526 134.555 28.2578 133.961 27.9141C133.367 27.5651 132.826 27.1484 132.336 26.6641C131.852 26.1745 131.435 25.6328 131.086 25.0391C130.742 24.4453 130.474 23.8099 130.281 23.1328C130.094 22.4505 130 21.7396 130 21C130 20.2708 130.096 19.5625 130.289 18.875C130.482 18.1875 130.755 17.5417 131.109 16.9375C131.469 16.3281 131.904 15.776 132.414 15.2812C132.924 14.7812 133.5 14.3542 134.141 14H132V13H136V17H135V14.6797C134.391 14.9714 133.839 15.3385 133.344 15.7812C132.854 16.2188 132.435 16.7135 132.086 17.2656C131.737 17.8125 131.469 18.4036 131.281 19.0391C131.094 19.6745 131 20.3281 131 21C131 21.6406 131.083 22.2604 131.25 22.8594C131.417 23.4531 131.651 24.0104 131.953 24.5312C132.26 25.0469 132.628 25.5182 133.055 25.9453C133.482 26.3724 133.953 26.7396 134.469 27.0469C134.99 27.349 135.547 27.5833 136.141 27.75C136.734 27.9167 137.354 28 138 28C138.641 28 139.258 27.9167 139.852 27.75C140.451 27.5833 141.008 27.349 141.523 27.0469C142.044 26.7396 142.518 26.3724 142.945 25.9453C143.372 25.5182 143.737 25.0469 144.039 24.5312C144.346 24.0104 144.583 23.4531 144.75 22.8594C144.917 22.2656 145 21.6458 145 21C145 20.2188 144.872 19.4661 144.617 18.7422C144.367 18.0182 144.016 17.3594 143.562 16.7656C143.109 16.1719 142.568 15.6589 141.938 15.2266C141.312 14.7891 140.622 14.4661 139.867 14.2578L140.133 13.2969Z" fill="#333333"/>
<rect width="133" height="42" transform="translate(212)" fill="white"/>
<path d="M254.957 25.5898C254.232 25.9727 253.33 26.1641 252.25 26.1641C250.855 26.1641 249.739 25.7152 248.9 24.8174C248.062 23.9196 247.643 22.7415 247.643 21.2832C247.643 19.7155 248.114 18.4486 249.058 17.4824C250.001 16.5163 251.197 16.0332 252.646 16.0332C253.576 16.0332 254.346 16.1676 254.957 16.4365V17.6602C254.255 17.2682 253.48 17.0723 252.633 17.0723C251.507 17.0723 250.593 17.4482 249.892 18.2002C249.194 18.9521 248.846 19.957 248.846 21.2148C248.846 22.4089 249.172 23.3613 249.823 24.0723C250.479 24.7786 251.339 25.1318 252.4 25.1318C253.385 25.1318 254.237 24.9131 254.957 24.4756V25.5898ZM257.924 26H256.803V15.6367H257.924V26ZM263.119 26.1641C262.085 26.1641 261.257 25.8382 260.638 25.1865C260.022 24.5303 259.715 23.6621 259.715 22.582C259.715 21.4062 260.036 20.488 260.679 19.8271C261.321 19.1663 262.189 18.8359 263.283 18.8359C264.327 18.8359 265.14 19.1572 265.724 19.7998C266.312 20.4424 266.605 21.3333 266.605 22.4727C266.605 23.5892 266.289 24.4847 265.655 25.1592C265.026 25.8291 264.181 26.1641 263.119 26.1641ZM263.201 19.7793C262.481 19.7793 261.911 20.0254 261.492 20.5176C261.073 21.0052 260.863 21.6797 260.863 22.541C260.863 23.3704 261.075 24.0244 261.499 24.5029C261.923 24.9814 262.49 25.2207 263.201 25.2207C263.926 25.2207 264.482 24.986 264.869 24.5166C265.261 24.0472 265.457 23.3796 265.457 22.5137C265.457 21.6387 265.261 20.9642 264.869 20.4902C264.482 20.0163 263.926 19.7793 263.201 19.7793ZM267.973 25.7471V24.5439C268.583 24.9951 269.256 25.2207 269.989 25.2207C270.974 25.2207 271.466 24.8926 271.466 24.2363C271.466 24.0495 271.423 23.8923 271.336 23.7646C271.254 23.6325 271.14 23.5163 270.994 23.416C270.853 23.3158 270.684 23.2269 270.488 23.1494C270.297 23.0674 270.09 22.9831 269.866 22.8965C269.556 22.7734 269.283 22.6504 269.046 22.5273C268.813 22.3997 268.618 22.2585 268.458 22.1035C268.303 21.944 268.185 21.764 268.103 21.5635C268.025 21.363 267.986 21.1283 267.986 20.8594C267.986 20.5312 268.062 20.2419 268.212 19.9912C268.362 19.736 268.563 19.5241 268.813 19.3555C269.064 19.1823 269.349 19.0524 269.668 18.9658C269.992 18.8792 270.324 18.8359 270.666 18.8359C271.272 18.8359 271.814 18.9408 272.293 19.1504V20.2852C271.778 19.9479 271.186 19.7793 270.516 19.7793C270.306 19.7793 270.117 19.8044 269.948 19.8545C269.78 19.9001 269.634 19.9661 269.511 20.0527C269.392 20.1393 269.299 20.2441 269.23 20.3672C269.167 20.4857 269.135 20.6178 269.135 20.7637C269.135 20.946 269.167 21.0986 269.23 21.2217C269.299 21.3447 269.397 21.4541 269.524 21.5498C269.652 21.6455 269.807 21.7321 269.989 21.8096C270.172 21.887 270.379 21.9714 270.611 22.0625C270.921 22.181 271.199 22.304 271.445 22.4316C271.691 22.5547 271.901 22.696 272.074 22.8555C272.247 23.0104 272.38 23.1904 272.471 23.3955C272.566 23.6006 272.614 23.8444 272.614 24.127C272.614 24.4733 272.537 24.7741 272.382 25.0293C272.231 25.2845 272.029 25.4964 271.773 25.665C271.518 25.8337 271.224 25.959 270.892 26.041C270.559 26.123 270.21 26.1641 269.846 26.1641C269.126 26.1641 268.501 26.0251 267.973 25.7471ZM279.97 22.7803H275.027C275.046 23.5596 275.255 24.1611 275.656 24.585C276.057 25.0088 276.609 25.2207 277.311 25.2207C278.099 25.2207 278.824 24.9609 279.484 24.4414V25.4941C278.869 25.9408 278.056 26.1641 277.044 26.1641C276.055 26.1641 275.278 25.8473 274.713 25.2139C274.148 24.5758 273.865 23.6803 273.865 22.5273C273.865 21.4382 274.173 20.5518 274.788 19.8682C275.408 19.18 276.176 18.8359 277.092 18.8359C278.008 18.8359 278.716 19.1322 279.218 19.7246C279.719 20.3171 279.97 21.1396 279.97 22.1924V22.7803ZM278.821 21.8301C278.817 21.1829 278.66 20.6794 278.35 20.3193C278.044 19.9593 277.618 19.7793 277.071 19.7793C276.543 19.7793 276.094 19.9684 275.725 20.3467C275.355 20.7249 275.128 21.2194 275.041 21.8301H278.821ZM290.524 26H289.403V24.9062H289.376C288.888 25.7448 288.171 26.1641 287.223 26.1641C286.525 26.1641 285.979 25.9795 285.582 25.6104C285.19 25.2412 284.994 24.7513 284.994 24.1406C284.994 22.8327 285.764 22.0716 287.305 21.8574L289.403 21.5635C289.403 20.374 288.923 19.7793 287.961 19.7793C287.118 19.7793 286.357 20.0664 285.678 20.6406V19.4922C286.366 19.0547 287.159 18.8359 288.057 18.8359C289.702 18.8359 290.524 19.7064 290.524 21.4473V26ZM289.403 22.459L287.715 22.6914C287.195 22.7643 286.803 22.8942 286.539 23.0811C286.275 23.2633 286.143 23.5892 286.143 24.0586C286.143 24.4004 286.263 24.6807 286.505 24.8994C286.751 25.1136 287.077 25.2207 287.482 25.2207C288.038 25.2207 288.496 25.027 288.856 24.6396C289.221 24.2477 289.403 23.7533 289.403 23.1562V22.459ZM292.213 25.7471V24.5439C292.824 24.9951 293.496 25.2207 294.229 25.2207C295.214 25.2207 295.706 24.8926 295.706 24.2363C295.706 24.0495 295.663 23.8923 295.576 23.7646C295.494 23.6325 295.38 23.5163 295.234 23.416C295.093 23.3158 294.924 23.2269 294.729 23.1494C294.537 23.0674 294.33 22.9831 294.106 22.8965C293.797 22.7734 293.523 22.6504 293.286 22.5273C293.054 22.3997 292.858 22.2585 292.698 22.1035C292.543 21.944 292.425 21.764 292.343 21.5635C292.265 21.363 292.227 21.1283 292.227 20.8594C292.227 20.5312 292.302 20.2419 292.452 19.9912C292.603 19.736 292.803 19.5241 293.054 19.3555C293.304 19.1823 293.589 19.0524 293.908 18.9658C294.232 18.8792 294.564 18.8359 294.906 18.8359C295.512 18.8359 296.055 18.9408 296.533 19.1504V20.2852C296.018 19.9479 295.426 19.7793 294.756 19.7793C294.546 19.7793 294.357 19.8044 294.188 19.8545C294.02 19.9001 293.874 19.9661 293.751 20.0527C293.632 20.1393 293.539 20.2441 293.471 20.3672C293.407 20.4857 293.375 20.6178 293.375 20.7637C293.375 20.946 293.407 21.0986 293.471 21.2217C293.539 21.3447 293.637 21.4541 293.765 21.5498C293.892 21.6455 294.047 21.7321 294.229 21.8096C294.412 21.887 294.619 21.9714 294.852 22.0625C295.161 22.181 295.439 22.304 295.686 22.4316C295.932 22.5547 296.141 22.696 296.314 22.8555C296.488 23.0104 296.62 23.1904 296.711 23.3955C296.807 23.6006 296.854 23.8444 296.854 24.127C296.854 24.4733 296.777 24.7741 296.622 25.0293C296.472 25.2845 296.269 25.4964 296.014 25.665C295.758 25.8337 295.465 25.959 295.132 26.041C294.799 26.123 294.451 26.1641 294.086 26.1641C293.366 26.1641 292.742 26.0251 292.213 25.7471ZM314.197 16.1973L311.429 26H310.082L308.065 18.8359C307.979 18.5306 307.926 18.1979 307.908 17.8379H307.881C307.854 18.1751 307.794 18.5033 307.703 18.8223L305.673 26H304.34L301.469 16.1973H302.733L304.818 23.7168C304.905 24.0312 304.96 24.3594 304.982 24.7012H305.017C305.039 24.4596 305.11 24.1315 305.229 23.7168L307.396 16.1973H308.496L310.574 23.7715C310.647 24.0312 310.702 24.3366 310.738 24.6875H310.766C310.784 24.4505 310.845 24.1361 310.95 23.7441L312.953 16.1973H314.197ZM317.889 26.1641C316.854 26.1641 316.027 25.8382 315.407 25.1865C314.792 24.5303 314.484 23.6621 314.484 22.582C314.484 21.4062 314.806 20.488 315.448 19.8271C316.091 19.1663 316.959 18.8359 318.053 18.8359C319.096 18.8359 319.91 19.1572 320.493 19.7998C321.081 20.4424 321.375 21.3333 321.375 22.4727C321.375 23.5892 321.058 24.4847 320.425 25.1592C319.796 25.8291 318.951 26.1641 317.889 26.1641ZM317.971 19.7793C317.251 19.7793 316.681 20.0254 316.262 20.5176C315.842 21.0052 315.633 21.6797 315.633 22.541C315.633 23.3704 315.845 24.0244 316.269 24.5029C316.692 24.9814 317.26 25.2207 317.971 25.2207C318.695 25.2207 319.251 24.986 319.639 24.5166C320.031 24.0472 320.227 23.3796 320.227 22.5137C320.227 21.6387 320.031 20.9642 319.639 20.4902C319.251 20.0163 318.695 19.7793 317.971 19.7793ZM328.977 26H327.855V22.0078C327.855 20.5221 327.313 19.7793 326.229 19.7793C325.668 19.7793 325.203 19.9912 324.834 20.415C324.469 20.8343 324.287 21.3652 324.287 22.0078V26H323.166V19H324.287V20.1621H324.314C324.843 19.278 325.609 18.8359 326.611 18.8359C327.377 18.8359 327.963 19.0843 328.368 19.5811C328.774 20.0732 328.977 20.7865 328.977 21.7207V26Z" fill="#333333"/>
<path d="M235 21V27.5L232 26L229 27.5V21H235Z" fill="white"/>
<circle cx="232" cy="18" r="4" fill="white"/>
<circle cx="232" cy="18" r="2" fill="#85BEEC"/>
<path fill-rule="evenodd" clip-rule="evenodd" d="M236 21V29L232 27L228 29V21C227.372 20.1641 227 19.126 227 18C227 15.2383 229.239 13 232 13C234.761 13 237 15.2383 237 18C237 19.126 236.628 20.1641 236 21ZM235 22.0005C234.165 22.6284 233.125 23 232 23C230.875 23 229.835 22.6284 229 22.0005V27.5L232 26L235 27.5V22.0005ZM236 18C236 20.209 234.209 22 232 22C229.791 22 228 20.209 228 18C228 15.791 229.791 14 232 14C234.209 14 236 15.791 236 18Z" fill="#333333"/>
<path fill-rule="evenodd" clip-rule="evenodd" d="M232 21C233.657 21 235 19.6572 235 18C235 16.3428 233.657 15 232 15C230.343 15 229 16.3428 229 18C229 19.6572 230.343 21 232 21ZM232 20C233.104 20 234 19.1045 234 18C234 16.8955 233.104 16 232 16C230.896 16 230 16.8955 230 18C230 19.1045 230.896 20 232 20Z" fill="#075FB1"/>
<rect width="120" height="42" transform="translate(875)" fill="white"/>
<path d="M916.48 26H911.285V16.1973H916.262V17.2363H912.434V20.4971H915.975V21.5293H912.434V24.9609H916.48V26ZM928.156 26H927.035V21.9805C927.035 21.2057 926.914 20.6452 926.673 20.2988C926.436 19.9525 926.035 19.7793 925.47 19.7793C924.991 19.7793 924.583 19.998 924.246 20.4355C923.913 20.873 923.747 21.3971 923.747 22.0078V26H922.626V21.8438C922.626 20.4674 922.095 19.7793 921.033 19.7793C920.541 19.7793 920.135 19.9867 919.816 20.4014C919.497 20.8115 919.338 21.347 919.338 22.0078V26H918.217V19H919.338V20.1074H919.365C919.862 19.2598 920.587 18.8359 921.539 18.8359C922.018 18.8359 922.435 18.9704 922.79 19.2393C923.146 19.5036 923.389 19.8522 923.521 20.2852C924.041 19.319 924.816 18.8359 925.846 18.8359C927.386 18.8359 928.156 19.7861 928.156 21.6865V26ZM935.286 26H934.165V24.9062H934.138C933.65 25.7448 932.932 26.1641 931.984 26.1641C931.287 26.1641 930.74 25.9795 930.344 25.6104C929.952 25.2412 929.756 24.7513 929.756 24.1406C929.756 22.8327 930.526 22.0716 932.066 21.8574L934.165 21.5635C934.165 20.374 933.684 19.7793 932.723 19.7793C931.88 19.7793 931.118 20.0664 930.439 20.6406V19.4922C931.128 19.0547 931.921 18.8359 932.818 18.8359C934.464 18.8359 935.286 19.7064 935.286 21.4473V26ZM934.165 22.459L932.477 22.6914C931.957 22.7643 931.565 22.8942 931.301 23.0811C931.036 23.2633 930.904 23.5892 930.904 24.0586C930.904 24.4004 931.025 24.6807 931.267 24.8994C931.513 25.1136 931.839 25.2207 932.244 25.2207C932.8 25.2207 933.258 25.027 933.618 24.6396C933.983 24.2477 934.165 23.7533 934.165 23.1562V22.459ZM937.973 17.2227C937.772 17.2227 937.601 17.1543 937.46 17.0176C937.319 16.8809 937.248 16.7077 937.248 16.498C937.248 16.2884 937.319 16.1152 937.46 15.9785C937.601 15.8372 937.772 15.7666 937.973 15.7666C938.178 15.7666 938.351 15.8372 938.492 15.9785C938.638 16.1152 938.711 16.2884 938.711 16.498C938.711 16.6986 938.638 16.8695 938.492 17.0107C938.351 17.152 938.178 17.2227 937.973 17.2227ZM938.52 26H937.398V19H938.52V26ZM941.91 26H940.789V15.6367H941.91V26ZM953.032 26H951.911V24.9062H951.884C951.396 25.7448 950.678 26.1641 949.73 26.1641C949.033 26.1641 948.486 25.9795 948.09 25.6104C947.698 25.2412 947.502 24.7513 947.502 24.1406C947.502 22.8327 948.272 22.0716 949.812 21.8574L951.911 21.5635C951.911 20.374 951.43 19.7793 950.469 19.7793C949.626 19.7793 948.865 20.0664 948.186 20.6406V19.4922C948.874 19.0547 949.667 18.8359 950.564 18.8359C952.21 18.8359 953.032 19.7064 953.032 21.4473V26ZM951.911 22.459L950.223 22.6914C949.703 22.7643 949.311 22.8942 949.047 23.0811C948.783 23.2633 948.65 23.5892 948.65 24.0586C948.65 24.4004 948.771 24.6807 949.013 24.8994C949.259 25.1136 949.585 25.2207 949.99 25.2207C950.546 25.2207 951.004 25.027 951.364 24.6396C951.729 24.2477 951.911 23.7533 951.911 23.1562V22.459ZM964.223 26H959.137V16.1973H960.285V24.9609H964.223V26ZM966.15 17.2227C965.95 17.2227 965.779 17.1543 965.638 17.0176C965.496 16.8809 965.426 16.7077 965.426 16.498C965.426 16.2884 965.496 16.1152 965.638 15.9785C965.779 15.8372 965.95 15.7666 966.15 15.7666C966.355 15.7666 966.529 15.8372 966.67 15.9785C966.816 16.1152 966.889 16.2884 966.889 16.498C966.889 16.6986 966.816 16.8695 966.67 17.0107C966.529 17.152 966.355 17.2227 966.15 17.2227ZM966.697 26H965.576V19H966.697V26ZM974.777 26H973.656V22.0078C973.656 20.5221 973.114 19.7793 972.029 19.7793C971.469 19.7793 971.004 19.9912 970.635 20.415C970.27 20.8343 970.088 21.3652 970.088 22.0078V26H968.967V19H970.088V20.1621H970.115C970.644 19.278 971.41 18.8359 972.412 18.8359C973.178 18.8359 973.763 19.0843 974.169 19.5811C974.575 20.0732 974.777 20.7865 974.777 21.7207V26ZM982.707 26H981.135L978.045 22.6367H978.018V26H976.896V15.6367H978.018V22.2061H978.045L980.984 19H982.454L979.207 22.377L982.707 26Z" fill="#333333"/>
<path d="M892.035 25H888V17.5547L894.958 21.0417C893.283 21.302 892 22.7512 892 24.5C892 24.6698 892.012 24.8367 892.035 25Z" fill="white"/>
<path d="M895.073 21.0257L902 17.5547V23.3368C901.592 23.1431 901.141 23.0259 900.665 23.0038C900.104 21.8193 898.898 21 897.5 21H895.5C895.356 21 895.213 21.0087 895.073 21.0257Z" fill="white"/>
<path d="M900.883 17H889.117L895 19.9375L900.883 17Z" fill="white"/>
<path d="M903 16V24.0312C902.854 23.8802 902.698 23.7448 902.531 23.625C902.365 23.5 902.188 23.3932 902 23.3047V17.5547L895 21.0625L888 17.5547V25H892.047C892.073 25.1719 892.112 25.3438 892.164 25.5156C892.216 25.6823 892.279 25.8438 892.352 26H887V16H903ZM895 19.9375L900.883 17H889.117L895 19.9375Z" fill="#333333"/>
<path d="M895.5 23C895.292 23 895.096 23.0391 894.914 23.1172C894.732 23.1953 894.573 23.3021 894.438 23.4375C894.302 23.5729 894.195 23.7318 894.117 23.9141C894.039 24.0964 894 24.2917 894 24.5C894 24.6667 894.026 24.8255 894.078 24.9766C894.13 25.1224 894.201 25.2578 894.289 25.3828C894.383 25.5078 894.495 25.6172 894.625 25.7109C894.755 25.8047 894.898 25.8776 895.055 25.9297C895.039 26.0234 895.026 26.1198 895.016 26.2188C895.005 26.3125 895 26.4062 895 26.5C895 26.5729 895.005 26.6484 895.016 26.7266C895.026 26.8047 895.036 26.8802 895.047 26.9531C894.75 26.901 894.477 26.8021 894.227 26.6562C893.977 26.5052 893.76 26.3203 893.578 26.1016C893.396 25.8828 893.253 25.638 893.148 25.3672C893.049 25.0911 893 24.8021 893 24.5C893 24.1562 893.065 23.8333 893.195 23.5312C893.326 23.2292 893.503 22.9661 893.727 22.7422C893.956 22.513 894.221 22.3333 894.523 22.2031C894.831 22.0677 895.156 22 895.5 22H897.5C897.844 22 898.167 22.0677 898.469 22.2031C898.771 22.3333 899.034 22.513 899.258 22.7422C899.487 22.9661 899.667 23.2292 899.797 23.5312C899.932 23.8333 900 24.1562 900 24.5C900 24.7969 899.951 25.0807 899.852 25.3516C899.753 25.6224 899.615 25.8672 899.438 26.0859C899.26 26.2995 899.049 26.4818 898.805 26.6328C898.56 26.7839 898.292 26.888 898 26.9453V25.9062C898.146 25.8542 898.281 25.7812 898.406 25.6875C898.531 25.5938 898.635 25.487 898.719 25.3672C898.807 25.2422 898.875 25.1068 898.922 24.9609C898.974 24.8099 899 24.6562 899 24.5C899 24.2917 898.961 24.0964 898.883 23.9141C898.805 23.7318 898.698 23.5729 898.562 23.4375C898.427 23.3021 898.268 23.1953 898.086 23.1172C897.904 23.0391 897.708 23 897.5 23H895.5ZM900.953 24.0078C901.25 24.0651 901.523 24.1693 901.773 24.3203C902.023 24.4714 902.24 24.6562 902.422 24.875C902.604 25.0938 902.745 25.3411 902.844 25.6172C902.948 25.888 903 26.1745 903 26.4766C903 26.8203 902.935 27.1458 902.805 27.4531C902.674 27.7552 902.495 28.0234 902.266 28.2578C902.042 28.487 901.776 28.6693 901.469 28.8047C901.167 28.9349 900.844 29 900.5 29H898.5C898.156 29 897.831 28.9349 897.523 28.8047C897.221 28.6693 896.956 28.487 896.727 28.2578C896.503 28.0234 896.326 27.7552 896.195 27.4531C896.065 27.1458 896 26.8203 896 26.4766C896 26.1797 896.049 25.8958 896.148 25.625C896.247 25.3542 896.385 25.1094 896.562 24.8906C896.74 24.6667 896.951 24.4792 897.195 24.3281C897.44 24.1719 897.708 24.0651 898 24.0078V25.0469C897.849 25.099 897.711 25.1745 897.586 25.2734C897.466 25.3672 897.362 25.4792 897.273 25.6094C897.19 25.7344 897.122 25.8724 897.07 26.0234C897.023 26.1693 897 26.3203 897 26.4766C897 26.6797 897.039 26.875 897.117 27.0625C897.195 27.2448 897.302 27.4062 897.438 27.5469C897.573 27.6875 897.732 27.7995 897.914 27.8828C898.096 27.9609 898.292 28 898.5 28H900.5C900.708 28 900.904 27.9609 901.086 27.8828C901.268 27.7995 901.427 27.6875 901.562 27.5469C901.698 27.4062 901.805 27.2448 901.883 27.0625C901.961 26.875 902 26.6797 902 26.4766C902 26.3151 901.974 26.1589 901.922 26.0078C901.87 25.8516 901.797 25.7109 901.703 25.5859C901.615 25.4557 901.505 25.3438 901.375 25.25C901.245 25.151 901.102 25.0781 900.945 25.0312C900.961 24.9375 900.974 24.8438 900.984 24.75C900.995 24.651 901 24.5547 901 24.4609C901 24.388 900.995 24.3125 900.984 24.2344C900.974 24.1562 900.964 24.0807 900.953 24.0078Z" fill="#777777"/>
<rect width="127" height="42" transform="translate(345)" fill="white"/>
<path d="M387.957 25.5898C387.232 25.9727 386.33 26.1641 385.25 26.1641C383.855 26.1641 382.739 25.7152 381.9 24.8174C381.062 23.9196 380.643 22.7415 380.643 21.2832C380.643 19.7155 381.114 18.4486 382.058 17.4824C383.001 16.5163 384.197 16.0332 385.646 16.0332C386.576 16.0332 387.346 16.1676 387.957 16.4365V17.6602C387.255 17.2682 386.48 17.0723 385.633 17.0723C384.507 17.0723 383.593 17.4482 382.892 18.2002C382.194 18.9521 381.846 19.957 381.846 21.2148C381.846 22.4089 382.172 23.3613 382.823 24.0723C383.479 24.7786 384.339 25.1318 385.4 25.1318C386.385 25.1318 387.237 24.9131 387.957 24.4756V25.5898ZM390.924 26H389.803V15.6367H390.924V26ZM396.119 26.1641C395.085 26.1641 394.257 25.8382 393.638 25.1865C393.022 24.5303 392.715 23.6621 392.715 22.582C392.715 21.4062 393.036 20.488 393.679 19.8271C394.321 19.1663 395.189 18.8359 396.283 18.8359C397.327 18.8359 398.14 19.1572 398.724 19.7998C399.312 20.4424 399.605 21.3333 399.605 22.4727C399.605 23.5892 399.289 24.4847 398.655 25.1592C398.026 25.8291 397.181 26.1641 396.119 26.1641ZM396.201 19.7793C395.481 19.7793 394.911 20.0254 394.492 20.5176C394.073 21.0052 393.863 21.6797 393.863 22.541C393.863 23.3704 394.075 24.0244 394.499 24.5029C394.923 24.9814 395.49 25.2207 396.201 25.2207C396.926 25.2207 397.482 24.986 397.869 24.5166C398.261 24.0472 398.457 23.3796 398.457 22.5137C398.457 21.6387 398.261 20.9642 397.869 20.4902C397.482 20.0163 396.926 19.7793 396.201 19.7793ZM400.973 25.7471V24.5439C401.583 24.9951 402.256 25.2207 402.989 25.2207C403.974 25.2207 404.466 24.8926 404.466 24.2363C404.466 24.0495 404.423 23.8923 404.336 23.7646C404.254 23.6325 404.14 23.5163 403.994 23.416C403.853 23.3158 403.684 23.2269 403.488 23.1494C403.297 23.0674 403.09 22.9831 402.866 22.8965C402.556 22.7734 402.283 22.6504 402.046 22.5273C401.813 22.3997 401.618 22.2585 401.458 22.1035C401.303 21.944 401.185 21.764 401.103 21.5635C401.025 21.363 400.986 21.1283 400.986 20.8594C400.986 20.5312 401.062 20.2419 401.212 19.9912C401.362 19.736 401.563 19.5241 401.813 19.3555C402.064 19.1823 402.349 19.0524 402.668 18.9658C402.992 18.8792 403.324 18.8359 403.666 18.8359C404.272 18.8359 404.814 18.9408 405.293 19.1504V20.2852C404.778 19.9479 404.186 19.7793 403.516 19.7793C403.306 19.7793 403.117 19.8044 402.948 19.8545C402.78 19.9001 402.634 19.9661 402.511 20.0527C402.392 20.1393 402.299 20.2441 402.23 20.3672C402.167 20.4857 402.135 20.6178 402.135 20.7637C402.135 20.946 402.167 21.0986 402.23 21.2217C402.299 21.3447 402.397 21.4541 402.524 21.5498C402.652 21.6455 402.807 21.7321 402.989 21.8096C403.172 21.887 403.379 21.9714 403.611 22.0625C403.921 22.181 404.199 22.304 404.445 22.4316C404.691 22.5547 404.901 22.696 405.074 22.8555C405.247 23.0104 405.38 23.1904 405.471 23.3955C405.566 23.6006 405.614 23.8444 405.614 24.127C405.614 24.4733 405.537 24.7741 405.382 25.0293C405.231 25.2845 405.029 25.4964 404.773 25.665C404.518 25.8337 404.224 25.959 403.892 26.041C403.559 26.123 403.21 26.1641 402.846 26.1641C402.126 26.1641 401.501 26.0251 400.973 25.7471ZM412.97 22.7803H408.027C408.046 23.5596 408.255 24.1611 408.656 24.585C409.057 25.0088 409.609 25.2207 410.311 25.2207C411.099 25.2207 411.824 24.9609 412.484 24.4414V25.4941C411.869 25.9408 411.056 26.1641 410.044 26.1641C409.055 26.1641 408.278 25.8473 407.713 25.2139C407.148 24.5758 406.865 23.6803 406.865 22.5273C406.865 21.4382 407.173 20.5518 407.788 19.8682C408.408 19.18 409.176 18.8359 410.092 18.8359C411.008 18.8359 411.716 19.1322 412.218 19.7246C412.719 20.3171 412.97 21.1396 412.97 22.1924V22.7803ZM411.821 21.8301C411.817 21.1829 411.66 20.6794 411.35 20.3193C411.044 19.9593 410.618 19.7793 410.071 19.7793C409.543 19.7793 409.094 19.9684 408.725 20.3467C408.355 20.7249 408.128 21.2194 408.041 21.8301H411.821ZM423.524 26H422.403V24.9062H422.376C421.888 25.7448 421.171 26.1641 420.223 26.1641C419.525 26.1641 418.979 25.9795 418.582 25.6104C418.19 25.2412 417.994 24.7513 417.994 24.1406C417.994 22.8327 418.764 22.0716 420.305 21.8574L422.403 21.5635C422.403 20.374 421.923 19.7793 420.961 19.7793C420.118 19.7793 419.357 20.0664 418.678 20.6406V19.4922C419.366 19.0547 420.159 18.8359 421.057 18.8359C422.702 18.8359 423.524 19.7064 423.524 21.4473V26ZM422.403 22.459L420.715 22.6914C420.195 22.7643 419.803 22.8942 419.539 23.0811C419.275 23.2633 419.143 23.5892 419.143 24.0586C419.143 24.4004 419.263 24.6807 419.505 24.8994C419.751 25.1136 420.077 25.2207 420.482 25.2207C421.038 25.2207 421.496 25.027 421.856 24.6396C422.221 24.2477 422.403 23.7533 422.403 23.1562V22.459ZM425.213 25.7471V24.5439C425.824 24.9951 426.496 25.2207 427.229 25.2207C428.214 25.2207 428.706 24.8926 428.706 24.2363C428.706 24.0495 428.663 23.8923 428.576 23.7646C428.494 23.6325 428.38 23.5163 428.234 23.416C428.093 23.3158 427.924 23.2269 427.729 23.1494C427.537 23.0674 427.33 22.9831 427.106 22.8965C426.797 22.7734 426.523 22.6504 426.286 22.5273C426.054 22.3997 425.858 22.2585 425.698 22.1035C425.543 21.944 425.425 21.764 425.343 21.5635C425.265 21.363 425.227 21.1283 425.227 20.8594C425.227 20.5312 425.302 20.2419 425.452 19.9912C425.603 19.736 425.803 19.5241 426.054 19.3555C426.304 19.1823 426.589 19.0524 426.908 18.9658C427.232 18.8792 427.564 18.8359 427.906 18.8359C428.512 18.8359 429.055 18.9408 429.533 19.1504V20.2852C429.018 19.9479 428.426 19.7793 427.756 19.7793C427.546 19.7793 427.357 19.8044 427.188 19.8545C427.02 19.9001 426.874 19.9661 426.751 20.0527C426.632 20.1393 426.539 20.2441 426.471 20.3672C426.407 20.4857 426.375 20.6178 426.375 20.7637C426.375 20.946 426.407 21.0986 426.471 21.2217C426.539 21.3447 426.637 21.4541 426.765 21.5498C426.892 21.6455 427.047 21.7321 427.229 21.8096C427.412 21.887 427.619 21.9714 427.852 22.0625C428.161 22.181 428.439 22.304 428.686 22.4316C428.932 22.5547 429.141 22.696 429.314 22.8555C429.488 23.0104 429.62 23.1904 429.711 23.3955C429.807 23.6006 429.854 23.8444 429.854 24.127C429.854 24.4733 429.777 24.7741 429.622 25.0293C429.472 25.2845 429.269 25.4964 429.014 25.665C428.758 25.8337 428.465 25.959 428.132 26.041C427.799 26.123 427.451 26.1641 427.086 26.1641C426.366 26.1641 425.742 26.0251 425.213 25.7471ZM440.662 26H435.576V16.1973H436.725V24.9609H440.662V26ZM444.941 26.1641C443.907 26.1641 443.08 25.8382 442.46 25.1865C441.845 24.5303 441.537 23.6621 441.537 22.582C441.537 21.4062 441.858 20.488 442.501 19.8271C443.144 19.1663 444.012 18.8359 445.105 18.8359C446.149 18.8359 446.963 19.1572 447.546 19.7998C448.134 20.4424 448.428 21.3333 448.428 22.4727C448.428 23.5892 448.111 24.4847 447.478 25.1592C446.849 25.8291 446.003 26.1641 444.941 26.1641ZM445.023 19.7793C444.303 19.7793 443.734 20.0254 443.314 20.5176C442.895 21.0052 442.686 21.6797 442.686 22.541C442.686 23.3704 442.897 24.0244 443.321 24.5029C443.745 24.9814 444.312 25.2207 445.023 25.2207C445.748 25.2207 446.304 24.986 446.691 24.5166C447.083 24.0472 447.279 23.3796 447.279 22.5137C447.279 21.6387 447.083 20.9642 446.691 20.4902C446.304 20.0163 445.748 19.7793 445.023 19.7793ZM449.795 25.7471V24.5439C450.406 24.9951 451.078 25.2207 451.812 25.2207C452.796 25.2207 453.288 24.8926 453.288 24.2363C453.288 24.0495 453.245 23.8923 453.158 23.7646C453.076 23.6325 452.962 23.5163 452.816 23.416C452.675 23.3158 452.507 23.2269 452.311 23.1494C452.119 23.0674 451.912 22.9831 451.688 22.8965C451.379 22.7734 451.105 22.6504 450.868 22.5273C450.636 22.3997 450.44 22.2585 450.28 22.1035C450.125 21.944 450.007 21.764 449.925 21.5635C449.847 21.363 449.809 21.1283 449.809 20.8594C449.809 20.5312 449.884 20.2419 450.034 19.9912C450.185 19.736 450.385 19.5241 450.636 19.3555C450.886 19.1823 451.171 19.0524 451.49 18.9658C451.814 18.8792 452.146 18.8359 452.488 18.8359C453.094 18.8359 453.637 18.9408 454.115 19.1504V20.2852C453.6 19.9479 453.008 19.7793 452.338 19.7793C452.128 19.7793 451.939 19.8044 451.771 19.8545C451.602 19.9001 451.456 19.9661 451.333 20.0527C451.215 20.1393 451.121 20.2441 451.053 20.3672C450.989 20.4857 450.957 20.6178 450.957 20.7637C450.957 20.946 450.989 21.0986 451.053 21.2217C451.121 21.3447 451.219 21.4541 451.347 21.5498C451.474 21.6455 451.629 21.7321 451.812 21.8096C451.994 21.887 452.201 21.9714 452.434 22.0625C452.743 22.181 453.021 22.304 453.268 22.4316C453.514 22.5547 453.723 22.696 453.896 22.8555C454.07 23.0104 454.202 23.1904 454.293 23.3955C454.389 23.6006 454.437 23.8444 454.437 24.127C454.437 24.4733 454.359 24.7741 454.204 25.0293C454.054 25.2845 453.851 25.4964 453.596 25.665C453.34 25.8337 453.047 25.959 452.714 26.041C452.381 26.123 452.033 26.1641 451.668 26.1641C450.948 26.1641 450.324 26.0251 449.795 25.7471ZM459.413 25.9316C459.149 26.0775 458.8 26.1504 458.367 26.1504C457.141 26.1504 456.528 25.4668 456.528 24.0996V19.957H455.325V19H456.528V17.291L457.649 16.9287V19H459.413V19.957H457.649V23.9014C457.649 24.3708 457.729 24.7057 457.889 24.9062C458.048 25.1068 458.312 25.207 458.682 25.207C458.964 25.207 459.208 25.1296 459.413 24.9746V25.9316Z" fill="#333333"/>
<path d="M365 13C365.734 13 366.44 13.0964 367.117 13.2891C367.799 13.4766 368.438 13.7448 369.031 14.0938C369.625 14.4427 370.164 14.862 370.648 15.3516C371.138 15.8359 371.557 16.375 371.906 16.9688C372.255 17.5625 372.523 18.2005 372.711 18.8828C372.904 19.5599 373 20.2656 373 21C373 21.7344 372.904 22.4427 372.711 23.125C372.523 23.8021 372.255 24.4375 371.906 25.0312C371.557 25.625 371.138 26.1667 370.648 26.6562C370.164 27.1406 369.625 27.5573 369.031 27.9062C368.438 28.2552 367.799 28.526 367.117 28.7188C366.44 28.9062 365.734 29 365 29C364.266 29 363.557 28.9062 362.875 28.7188C362.198 28.526 361.562 28.2552 360.969 27.9062C360.375 27.5573 359.833 27.1406 359.344 26.6562C358.859 26.1667 358.443 25.625 358.094 25.0312C357.745 24.4375 357.474 23.8021 357.281 23.125C357.094 22.4427 357 21.7344 357 21C357 20.2656 357.094 19.5599 357.281 18.8828C357.474 18.2005 357.745 17.5625 358.094 16.9688C358.443 16.375 358.859 15.8359 359.344 15.3516C359.833 14.862 360.375 14.4427 360.969 14.0938C361.562 13.7448 362.198 13.4766 362.875 13.2891C363.557 13.0964 364.266 13 365 13ZM365 28C365.854 28 366.669 27.8542 367.445 27.5625C368.227 27.2708 368.94 26.8464 369.586 26.2891L359.711 16.4141C359.154 17.0599 358.729 17.7734 358.438 18.5547C358.146 19.3307 358 20.1458 358 21C358 21.6458 358.083 22.2682 358.25 22.8672C358.417 23.4609 358.651 24.0182 358.953 24.5391C359.26 25.0547 359.625 25.526 360.047 25.9531C360.474 26.375 360.945 26.7396 361.461 27.0469C361.982 27.349 362.539 27.5833 363.133 27.75C363.732 27.9167 364.354 28 365 28ZM370.289 25.5859C370.846 24.9401 371.271 24.2292 371.562 23.4531C371.854 22.6719 372 21.8542 372 21C372 20.3542 371.917 19.7344 371.75 19.1406C371.583 18.5417 371.346 17.9844 371.039 17.4688C370.737 16.9479 370.372 16.4766 369.945 16.0547C369.523 15.6276 369.052 15.263 368.531 14.9609C368.016 14.6536 367.458 14.4167 366.859 14.25C366.266 14.0833 365.646 14 365 14C364.146 14 363.328 14.1458 362.547 14.4375C361.771 14.7292 361.06 15.1536 360.414 15.7109L370.289 25.5859Z" fill="#EC4E4F"/>
<rect width="197" height="42" transform="translate(472)" fill="white"/>
<path d="M515.312 26H513.945L512.305 23.252C512.154 22.9967 512.008 22.7803 511.867 22.6025C511.726 22.4202 511.58 22.2721 511.43 22.1582C511.284 22.0443 511.124 21.9622 510.951 21.9121C510.783 21.8574 510.591 21.8301 510.377 21.8301H509.434V26H508.285V16.1973H511.211C511.639 16.1973 512.034 16.252 512.394 16.3613C512.758 16.4661 513.073 16.6279 513.337 16.8467C513.606 17.0654 513.815 17.3389 513.966 17.667C514.116 17.9906 514.191 18.3711 514.191 18.8086C514.191 19.1504 514.139 19.4648 514.034 19.752C513.934 20.0345 513.788 20.2874 513.597 20.5107C513.41 20.734 513.182 20.9255 512.913 21.085C512.649 21.2399 512.35 21.3607 512.018 21.4473V21.4746C512.182 21.5475 512.323 21.6318 512.441 21.7275C512.564 21.8187 512.681 21.9281 512.79 22.0557C512.899 22.1833 513.007 22.3291 513.111 22.4932C513.221 22.6527 513.341 22.8395 513.474 23.0537L515.312 26ZM509.434 17.2363V20.791H510.992C511.279 20.791 511.544 20.7477 511.785 20.6611C512.031 20.5745 512.243 20.4515 512.421 20.292C512.599 20.1279 512.738 19.9297 512.838 19.6973C512.938 19.4603 512.988 19.196 512.988 18.9043C512.988 18.3802 512.817 17.9723 512.476 17.6807C512.138 17.3844 511.648 17.2363 511.006 17.2363H509.434ZM521.731 22.7803H516.789C516.807 23.5596 517.017 24.1611 517.418 24.585C517.819 25.0088 518.37 25.2207 519.072 25.2207C519.861 25.2207 520.585 24.9609 521.246 24.4414V25.4941C520.631 25.9408 519.817 26.1641 518.806 26.1641C517.817 26.1641 517.04 25.8473 516.475 25.2139C515.91 24.5758 515.627 23.6803 515.627 22.5273C515.627 21.4382 515.935 20.5518 516.55 19.8682C517.17 19.18 517.938 18.8359 518.854 18.8359C519.77 18.8359 520.478 19.1322 520.979 19.7246C521.481 20.3171 521.731 21.1396 521.731 22.1924V22.7803ZM520.583 21.8301C520.578 21.1829 520.421 20.6794 520.111 20.3193C519.806 19.9593 519.38 19.7793 518.833 19.7793C518.304 19.7793 517.855 19.9684 517.486 20.3467C517.117 20.7249 516.889 21.2194 516.803 21.8301H520.583ZM528.205 25.6787C527.667 26.0023 527.029 26.1641 526.291 26.1641C525.293 26.1641 524.486 25.8405 523.871 25.1934C523.26 24.5417 522.955 23.6986 522.955 22.6641C522.955 21.5111 523.285 20.5859 523.946 19.8887C524.607 19.1868 525.489 18.8359 526.592 18.8359C527.207 18.8359 527.749 18.9499 528.219 19.1777V20.3262C527.699 19.9616 527.143 19.7793 526.551 19.7793C525.835 19.7793 525.247 20.0368 524.787 20.5518C524.331 21.0622 524.104 21.7344 524.104 22.5684C524.104 23.3887 524.318 24.0358 524.746 24.5098C525.179 24.9837 525.758 25.2207 526.482 25.2207C527.093 25.2207 527.667 25.0179 528.205 24.6123V25.6787ZM534.911 26H533.79V24.9062H533.763C533.275 25.7448 532.557 26.1641 531.609 26.1641C530.912 26.1641 530.365 25.9795 529.969 25.6104C529.577 25.2412 529.381 24.7513 529.381 24.1406C529.381 22.8327 530.151 22.0716 531.691 21.8574L533.79 21.5635C533.79 20.374 533.309 19.7793 532.348 19.7793C531.505 19.7793 530.743 20.0664 530.064 20.6406V19.4922C530.753 19.0547 531.546 18.8359 532.443 18.8359C534.089 18.8359 534.911 19.7064 534.911 21.4473V26ZM533.79 22.459L532.102 22.6914C531.582 22.7643 531.19 22.8942 530.926 23.0811C530.661 23.2633 530.529 23.5892 530.529 24.0586C530.529 24.4004 530.65 24.6807 530.892 24.8994C531.138 25.1136 531.464 25.2207 531.869 25.2207C532.425 25.2207 532.883 25.027 533.243 24.6396C533.608 24.2477 533.79 23.7533 533.79 23.1562V22.459ZM538.145 26H537.023V15.6367H538.145V26ZM545.186 25.6787C544.648 26.0023 544.01 26.1641 543.271 26.1641C542.273 26.1641 541.467 25.8405 540.852 25.1934C540.241 24.5417 539.936 23.6986 539.936 22.6641C539.936 21.5111 540.266 20.5859 540.927 19.8887C541.588 19.1868 542.469 18.8359 543.572 18.8359C544.188 18.8359 544.73 18.9499 545.199 19.1777V20.3262C544.68 19.9616 544.124 19.7793 543.531 19.7793C542.816 19.7793 542.228 20.0368 541.768 20.5518C541.312 21.0622 541.084 21.7344 541.084 22.5684C541.084 23.3887 541.298 24.0358 541.727 24.5098C542.16 24.9837 542.738 25.2207 543.463 25.2207C544.074 25.2207 544.648 25.0179 545.186 24.6123V25.6787ZM552.541 26H551.42V24.8926H551.393C550.928 25.7402 550.208 26.1641 549.232 26.1641C547.564 26.1641 546.73 25.1706 546.73 23.1836V19H547.845V23.0059C547.845 24.4824 548.41 25.2207 549.54 25.2207C550.087 25.2207 550.536 25.0202 550.887 24.6191C551.242 24.2135 551.42 23.6849 551.42 23.0332V19H552.541V26ZM555.932 26H554.811V15.6367H555.932V26ZM563.212 26H562.091V24.9062H562.063C561.576 25.7448 560.858 26.1641 559.91 26.1641C559.213 26.1641 558.666 25.9795 558.27 25.6104C557.878 25.2412 557.682 24.7513 557.682 24.1406C557.682 22.8327 558.452 22.0716 559.992 21.8574L562.091 21.5635C562.091 20.374 561.61 19.7793 560.648 19.7793C559.805 19.7793 559.044 20.0664 558.365 20.6406V19.4922C559.053 19.0547 559.846 18.8359 560.744 18.8359C562.389 18.8359 563.212 19.7064 563.212 21.4473V26ZM562.091 22.459L560.402 22.6914C559.883 22.7643 559.491 22.8942 559.227 23.0811C558.962 23.2633 558.83 23.5892 558.83 24.0586C558.83 24.4004 558.951 24.6807 559.192 24.8994C559.438 25.1136 559.764 25.2207 560.17 25.2207C560.726 25.2207 561.184 25.027 561.544 24.6396C561.909 24.2477 562.091 23.7533 562.091 23.1562V22.459ZM568.571 25.9316C568.307 26.0775 567.958 26.1504 567.525 26.1504C566.299 26.1504 565.687 25.4668 565.687 24.0996V19.957H564.483V19H565.687V17.291L566.808 16.9287V19H568.571V19.957H566.808V23.9014C566.808 24.3708 566.887 24.7057 567.047 24.9062C567.206 25.1068 567.471 25.207 567.84 25.207C568.122 25.207 568.366 25.1296 568.571 24.9746V25.9316ZM575.694 22.7803H570.752C570.77 23.5596 570.98 24.1611 571.381 24.585C571.782 25.0088 572.333 25.2207 573.035 25.2207C573.824 25.2207 574.548 24.9609 575.209 24.4414V25.4941C574.594 25.9408 573.78 26.1641 572.769 26.1641C571.78 26.1641 571.003 25.8473 570.438 25.2139C569.872 24.5758 569.59 23.6803 569.59 22.5273C569.59 21.4382 569.897 20.5518 570.513 19.8682C571.132 19.18 571.9 18.8359 572.816 18.8359C573.732 18.8359 574.441 19.1322 574.942 19.7246C575.444 20.3171 575.694 21.1396 575.694 22.1924V22.7803ZM574.546 21.8301C574.541 21.1829 574.384 20.6794 574.074 20.3193C573.769 19.9593 573.343 19.7793 572.796 19.7793C572.267 19.7793 571.818 19.9684 571.449 20.3467C571.08 20.7249 570.852 21.2194 570.766 21.8301H574.546ZM585.34 26.1641C583.95 26.1641 582.836 25.7061 581.997 24.79C581.163 23.874 580.746 22.6823 580.746 21.2148C580.746 19.638 581.172 18.3802 582.024 17.4414C582.877 16.5026 584.036 16.0332 585.504 16.0332C586.857 16.0332 587.947 16.4889 588.771 17.4004C589.601 18.3118 590.016 19.5036 590.016 20.9756C590.016 22.5752 589.592 23.8398 588.744 24.7695C587.896 25.6992 586.762 26.1641 585.34 26.1641ZM585.422 17.0723C584.392 17.0723 583.556 17.4437 582.913 18.1865C582.271 18.9294 581.949 19.9046 581.949 21.1123C581.949 22.32 582.261 23.293 582.886 24.0312C583.515 24.765 584.333 25.1318 585.34 25.1318C586.415 25.1318 587.263 24.7809 587.883 24.0791C588.503 23.3773 588.812 22.3952 588.812 21.1328C588.812 19.8385 588.512 18.8382 587.91 18.1318C587.309 17.4255 586.479 17.0723 585.422 17.0723ZM592.941 24.9883H592.914V29.2197H591.793V19H592.914V20.2305H592.941C593.493 19.3008 594.299 18.8359 595.361 18.8359C596.264 18.8359 596.968 19.1504 597.474 19.7793C597.979 20.4036 598.232 21.2422 598.232 22.2949C598.232 23.4661 597.948 24.4049 597.378 25.1113C596.808 25.8132 596.029 26.1641 595.04 26.1641C594.133 26.1641 593.434 25.7721 592.941 24.9883ZM592.914 22.165V23.1426C592.914 23.7214 593.101 24.2135 593.475 24.6191C593.853 25.0202 594.331 25.2207 594.91 25.2207C595.589 25.2207 596.12 24.9609 596.503 24.4414C596.89 23.9219 597.084 23.1995 597.084 22.2744C597.084 21.4951 596.904 20.8844 596.544 20.4424C596.184 20.0003 595.696 19.7793 595.081 19.7793C594.429 19.7793 593.905 20.0072 593.509 20.4629C593.112 20.9141 592.914 21.4814 592.914 22.165ZM601.172 24.9883H601.145V29.2197H600.023V19H601.145V20.2305H601.172C601.723 19.3008 602.53 18.8359 603.592 18.8359C604.494 18.8359 605.198 19.1504 605.704 19.7793C606.21 20.4036 606.463 21.2422 606.463 22.2949C606.463 23.4661 606.178 24.4049 605.608 25.1113C605.039 25.8132 604.259 26.1641 603.271 26.1641C602.364 26.1641 601.664 25.7721 601.172 24.9883ZM601.145 22.165V23.1426C601.145 23.7214 601.331 24.2135 601.705 24.6191C602.083 25.0202 602.562 25.2207 603.141 25.2207C603.82 25.2207 604.351 24.9609 604.733 24.4414C605.121 23.9219 605.314 23.1995 605.314 22.2744C605.314 21.4951 605.134 20.8844 604.774 20.4424C604.414 20.0003 603.927 19.7793 603.312 19.7793C602.66 19.7793 602.136 20.0072 601.739 20.4629C601.343 20.9141 601.145 21.4814 601.145 22.165ZM611.18 26.1641C610.145 26.1641 609.318 25.8382 608.698 25.1865C608.083 24.5303 607.775 23.6621 607.775 22.582C607.775 21.4062 608.097 20.488 608.739 19.8271C609.382 19.1663 610.25 18.8359 611.344 18.8359C612.387 18.8359 613.201 19.1572 613.784 19.7998C614.372 20.4424 614.666 21.3333 614.666 22.4727C614.666 23.5892 614.349 24.4847 613.716 25.1592C613.087 25.8291 612.242 26.1641 611.18 26.1641ZM611.262 19.7793C610.542 19.7793 609.972 20.0254 609.553 20.5176C609.133 21.0052 608.924 21.6797 608.924 22.541C608.924 23.3704 609.136 24.0244 609.56 24.5029C609.983 24.9814 610.551 25.2207 611.262 25.2207C611.986 25.2207 612.542 24.986 612.93 24.5166C613.322 24.0472 613.518 23.3796 613.518 22.5137C613.518 21.6387 613.322 20.9642 612.93 20.4902C612.542 20.0163 611.986 19.7793 611.262 19.7793ZM620.107 20.1348C619.911 19.9844 619.629 19.9092 619.26 19.9092C618.781 19.9092 618.38 20.1348 618.057 20.5859C617.738 21.0371 617.578 21.6523 617.578 22.4316V26H616.457V19H617.578V20.4424H617.605C617.765 19.9502 618.009 19.5674 618.337 19.2939C618.665 19.016 619.032 18.877 619.438 18.877C619.729 18.877 619.952 18.9089 620.107 18.9727V20.1348ZM624.571 25.9316C624.307 26.0775 623.958 26.1504 623.525 26.1504C622.299 26.1504 621.687 25.4668 621.687 24.0996V19.957H620.483V19H621.687V17.291L622.808 16.9287V19H624.571V19.957H622.808V23.9014C622.808 24.3708 622.887 24.7057 623.047 24.9062C623.206 25.1068 623.471 25.207 623.84 25.207C624.122 25.207 624.366 25.1296 624.571 24.9746V25.9316ZM631.729 26H630.607V24.8926H630.58C630.115 25.7402 629.395 26.1641 628.42 26.1641C626.752 26.1641 625.918 25.1706 625.918 23.1836V19H627.032V23.0059C627.032 24.4824 627.597 25.2207 628.728 25.2207C629.274 25.2207 629.723 25.0202 630.074 24.6191C630.43 24.2135 630.607 23.6849 630.607 23.0332V19H631.729V26ZM639.809 26H638.688V22.0078C638.688 20.5221 638.145 19.7793 637.061 19.7793C636.5 19.7793 636.035 19.9912 635.666 20.415C635.301 20.8343 635.119 21.3652 635.119 22.0078V26H633.998V19H635.119V20.1621H635.146C635.675 19.278 636.441 18.8359 637.443 18.8359C638.209 18.8359 638.795 19.0843 639.2 19.5811C639.606 20.0732 639.809 20.7865 639.809 21.7207V26ZM642.502 17.2227C642.301 17.2227 642.131 17.1543 641.989 17.0176C641.848 16.8809 641.777 16.7077 641.777 16.498C641.777 16.2884 641.848 16.1152 641.989 15.9785C642.131 15.8372 642.301 15.7666 642.502 15.7666C642.707 15.7666 642.88 15.8372 643.021 15.9785C643.167 16.1152 643.24 16.2884 643.24 16.498C643.24 16.6986 643.167 16.8695 643.021 17.0107C642.88 17.152 642.707 17.2227 642.502 17.2227ZM643.049 26H641.928V19H643.049V26ZM648.565 25.9316C648.301 26.0775 647.952 26.1504 647.52 26.1504C646.294 26.1504 645.681 25.4668 645.681 24.0996V19.957H644.478V19H645.681V17.291L646.802 16.9287V19H648.565V19.957H646.802V23.9014C646.802 24.3708 646.882 24.7057 647.041 24.9062C647.201 25.1068 647.465 25.207 647.834 25.207C648.117 25.207 648.36 25.1296 648.565 24.9746V25.9316ZM655.634 19L652.414 27.1211C651.84 28.5703 651.033 29.2949 649.994 29.2949C649.702 29.2949 649.459 29.2653 649.263 29.2061V28.2012C649.504 28.2832 649.725 28.3242 649.926 28.3242C650.491 28.3242 650.915 27.987 651.197 27.3125L651.758 25.9863L649.023 19H650.268L652.161 24.3867C652.184 24.4551 652.232 24.6328 652.305 24.9199H652.346C652.368 24.8105 652.414 24.6374 652.482 24.4004L654.472 19H655.634Z" fill="#333333"/>
<rect x="487" y="14" width="9" height="14" fill="white"/>
<rect x="489" y="16" width="5" height="1" fill="#A3E0AA"/>
<path d="M486 13H497V29H486V13ZM496 28V14H487V28H496ZM489 20V21H488V20H489ZM491 21V20H492V21H491ZM494 21V20H495V21H494ZM489 23V24H488V23H489ZM491 24V23H492V24H491ZM494 24V23H495V24H494ZM489 26V27H488V26H489ZM491 27V26H492V27H491ZM494 27V26H495V27H494Z" fill="#333333"/>
<path fill-rule="evenodd" clip-rule="evenodd" d="M495 15H488V18H495V15ZM494 16H489V17H494V16Z" fill="#369348"/>
<rect width="88" height="42" transform="translate(787)" fill="white"/>
<path d="M830.873 26H829.602L828.562 23.252H824.406L823.429 26H822.15L825.91 16.1973H827.1L830.873 26ZM828.187 22.2197L826.648 18.043C826.598 17.9062 826.548 17.6875 826.498 17.3867H826.471C826.425 17.6647 826.373 17.8835 826.313 18.043L824.789 22.2197H828.187ZM831.748 25.7471V24.5439C832.359 24.9951 833.031 25.2207 833.765 25.2207C834.749 25.2207 835.241 24.8926 835.241 24.2363C835.241 24.0495 835.198 23.8923 835.111 23.7646C835.029 23.6325 834.915 23.5163 834.77 23.416C834.628 23.3158 834.46 23.2269 834.264 23.1494C834.072 23.0674 833.865 22.9831 833.642 22.8965C833.332 22.7734 833.058 22.6504 832.821 22.5273C832.589 22.3997 832.393 22.2585 832.233 22.1035C832.078 21.944 831.96 21.764 831.878 21.5635C831.8 21.363 831.762 21.1283 831.762 20.8594C831.762 20.5312 831.837 20.2419 831.987 19.9912C832.138 19.736 832.338 19.5241 832.589 19.3555C832.84 19.1823 833.124 19.0524 833.443 18.9658C833.767 18.8792 834.1 18.8359 834.441 18.8359C835.048 18.8359 835.59 18.9408 836.068 19.1504V20.2852C835.553 19.9479 834.961 19.7793 834.291 19.7793C834.081 19.7793 833.892 19.8044 833.724 19.8545C833.555 19.9001 833.409 19.9661 833.286 20.0527C833.168 20.1393 833.074 20.2441 833.006 20.3672C832.942 20.4857 832.91 20.6178 832.91 20.7637C832.91 20.946 832.942 21.0986 833.006 21.2217C833.074 21.3447 833.172 21.4541 833.3 21.5498C833.427 21.6455 833.582 21.7321 833.765 21.8096C833.947 21.887 834.154 21.9714 834.387 22.0625C834.697 22.181 834.975 22.304 835.221 22.4316C835.467 22.5547 835.676 22.696 835.85 22.8555C836.023 23.0104 836.155 23.1904 836.246 23.3955C836.342 23.6006 836.39 23.8444 836.39 24.127C836.39 24.4733 836.312 24.7741 836.157 25.0293C836.007 25.2845 835.804 25.4964 835.549 25.665C835.294 25.8337 835 25.959 834.667 26.041C834.334 26.123 833.986 26.1641 833.621 26.1641C832.901 26.1641 832.277 26.0251 831.748 25.7471ZM837.695 25.7471V24.5439C838.306 24.9951 838.978 25.2207 839.712 25.2207C840.696 25.2207 841.188 24.8926 841.188 24.2363C841.188 24.0495 841.145 23.8923 841.059 23.7646C840.977 23.6325 840.863 23.5163 840.717 23.416C840.576 23.3158 840.407 23.2269 840.211 23.1494C840.02 23.0674 839.812 22.9831 839.589 22.8965C839.279 22.7734 839.006 22.6504 838.769 22.5273C838.536 22.3997 838.34 22.2585 838.181 22.1035C838.026 21.944 837.907 21.764 837.825 21.5635C837.748 21.363 837.709 21.1283 837.709 20.8594C837.709 20.5312 837.784 20.2419 837.935 19.9912C838.085 19.736 838.285 19.5241 838.536 19.3555C838.787 19.1823 839.072 19.0524 839.391 18.9658C839.714 18.8792 840.047 18.8359 840.389 18.8359C840.995 18.8359 841.537 18.9408 842.016 19.1504V20.2852C841.501 19.9479 840.908 19.7793 840.238 19.7793C840.029 19.7793 839.84 19.8044 839.671 19.8545C839.502 19.9001 839.356 19.9661 839.233 20.0527C839.115 20.1393 839.021 20.2441 838.953 20.3672C838.889 20.4857 838.857 20.6178 838.857 20.7637C838.857 20.946 838.889 21.0986 838.953 21.2217C839.021 21.3447 839.119 21.4541 839.247 21.5498C839.375 21.6455 839.53 21.7321 839.712 21.8096C839.894 21.887 840.102 21.9714 840.334 22.0625C840.644 22.181 840.922 22.304 841.168 22.4316C841.414 22.5547 841.624 22.696 841.797 22.8555C841.97 23.0104 842.102 23.1904 842.193 23.3955C842.289 23.6006 842.337 23.8444 842.337 24.127C842.337 24.4733 842.259 24.7741 842.104 25.0293C841.954 25.2845 841.751 25.4964 841.496 25.665C841.241 25.8337 840.947 25.959 840.614 26.041C840.282 26.123 839.933 26.1641 839.568 26.1641C838.848 26.1641 838.224 26.0251 837.695 25.7471ZM844.641 17.2227C844.44 17.2227 844.269 17.1543 844.128 17.0176C843.987 16.8809 843.916 16.7077 843.916 16.498C843.916 16.2884 843.987 16.1152 844.128 15.9785C844.269 15.8372 844.44 15.7666 844.641 15.7666C844.846 15.7666 845.019 15.8372 845.16 15.9785C845.306 16.1152 845.379 16.2884 845.379 16.498C845.379 16.6986 845.306 16.8695 845.16 17.0107C845.019 17.152 844.846 17.2227 844.641 17.2227ZM845.188 26H844.066V19H845.188V26ZM853.432 25.4395C853.432 28.0098 852.201 29.2949 849.74 29.2949C848.874 29.2949 848.118 29.1309 847.471 28.8027V27.6816C848.259 28.1191 849.011 28.3379 849.727 28.3379C851.449 28.3379 852.311 27.4219 852.311 25.5898V24.8242H852.283C851.75 25.7174 850.948 26.1641 849.877 26.1641C849.007 26.1641 848.305 25.8542 847.771 25.2344C847.243 24.61 846.979 23.7738 846.979 22.7256C846.979 21.5361 847.263 20.5905 847.833 19.8887C848.407 19.1868 849.191 18.8359 850.185 18.8359C851.128 18.8359 851.827 19.2142 852.283 19.9707H852.311V19H853.432V25.4395ZM852.311 22.835V21.8027C852.311 21.2467 852.121 20.7705 851.743 20.374C851.369 19.9775 850.902 19.7793 850.342 19.7793C849.649 19.7793 849.107 20.0322 848.715 20.5381C848.323 21.0394 848.127 21.7435 848.127 22.6504C848.127 23.4297 848.314 24.054 848.688 24.5234C849.066 24.9883 849.565 25.2207 850.185 25.2207C850.813 25.2207 851.324 24.9974 851.716 24.5508C852.112 24.1042 852.311 23.5322 852.311 22.835ZM861.512 26H860.391V22.0078C860.391 20.5221 859.848 19.7793 858.764 19.7793C858.203 19.7793 857.738 19.9912 857.369 20.415C857.005 20.8343 856.822 21.3652 856.822 22.0078V26H855.701V19H856.822V20.1621H856.85C857.378 19.278 858.144 18.8359 859.146 18.8359C859.912 18.8359 860.498 19.0843 860.903 19.5811C861.309 20.0732 861.512 20.7865 861.512 21.7207V26Z" fill="#333333"/>
<path d="M800 26C800 23.2386 802.239 21 805 21C807.05 21 808.812 22.2341 809.584 24H807V26H800Z" fill="white"/>
<circle cx="805" cy="17" r="3" fill="white"/>
<path d="M812.102 28.3516L814.953 25.5L812.102 22.6484L811.398 23.3516L813.047 25H808V26H813.047L811.398 27.6484L812.102 28.3516Z" fill="#075FB1"/>
<path fill-rule="evenodd" clip-rule="evenodd" d="M809.555 23.9531C809.352 23.5052 809.091 23.1016 808.773 22.7422C808.461 22.3776 808.107 22.0677 807.711 21.8125C807.315 21.5521 806.885 21.3516 806.422 21.2109C805.965 21.0706 805.492 21.0003 805.003 21H804.997C804.508 21.0003 804.035 21.0706 803.578 21.2109C803.115 21.3516 802.685 21.5521 802.289 21.8125C801.893 22.0677 801.539 22.3776 801.227 22.7422C800.909 23.1016 800.648 23.5052 800.445 23.9531L800.439 23.9502C800.336 24.1809 800.25 24.4215 800.18 24.6719C800.06 25.099 800 25.5417 800 26H799C799 25.3906 799.091 24.7943 799.273 24.2109C799.461 23.6276 799.724 23.0885 800.062 22.5938C800.406 22.0938 800.815 21.6536 801.289 21.2734C801.768 20.888 802.297 20.5938 802.875 20.3906C802.583 20.2031 802.32 19.987 802.086 19.7422C801.962 19.6096 801.848 19.47 801.743 19.3237C801.655 19.2024 801.574 19.0765 801.5 18.9453C801.167 18.362 801 17.7135 801 17C801 16.4479 801.104 15.9297 801.312 15.4453C801.521 14.9557 801.805 14.5312 802.164 14.1719C802.529 13.8073 802.953 13.5208 803.438 13.3125C803.671 13.2131 803.912 13.1374 804.159 13.0855C804.431 13.0285 804.711 13 805 13C805.276 13 805.544 13.026 805.803 13.0781C806.064 13.1302 806.317 13.2081 806.562 13.3125C807.047 13.5208 807.471 13.8073 807.836 14.1719C808.195 14.5312 808.479 14.9557 808.688 15.4453C808.896 15.9297 809 16.4479 809 17C809 17.7135 808.833 18.362 808.5 18.9453C808.426 19.0765 808.344 19.2026 808.257 19.3239C808.152 19.4702 808.038 19.6096 807.914 19.7422C807.68 19.987 807.417 20.2031 807.125 20.3906C807.703 20.5938 808.232 20.888 808.711 21.2734C809.185 21.6536 809.594 22.0938 809.938 22.5938C810.235 23.0283 810.474 23.4971 810.655 24H809.583C809.576 23.9833 809.569 23.9668 809.561 23.9502L809.555 23.9531ZM802 17C802 17.4167 802.078 17.8073 802.234 18.1719C802.391 18.5312 802.607 18.849 802.883 19.125C803.154 19.3958 803.471 19.6094 803.836 19.7656C804.2 19.9216 804.587 19.9997 804.998 20H805.003C805.414 19.9996 805.8 19.9215 806.164 19.7656C806.529 19.6094 806.846 19.3958 807.117 19.125C807.393 18.849 807.609 18.5312 807.766 18.1719C807.922 17.8073 808 17.4167 808 17C808 16.5885 807.922 16.2005 807.766 15.8359C807.609 15.4714 807.393 15.1536 807.117 14.8828C806.846 14.6068 806.529 14.3906 806.164 14.2344C805.8 14.0784 805.413 14.0003 805.002 14L804.997 14C804.586 14.0004 804.2 14.0785 803.836 14.2344C803.471 14.3906 803.154 14.6068 802.883 14.8828C802.607 15.1536 802.391 15.4714 802.234 15.8359C802.078 16.2005 802 16.5885 802 17Z" fill="#333333"/>
<defs>
<clipPath id="clip0">
<rect width="43" height="42" fill="white"/>
</clipPath>
</defs>
</svg>
